M48
; DRILL file {KiCad (5.1.9-0-10_14)} date Tuesday, May 11, 2021 at 11:11:07 AM
; FORMAT={-:-/ absolute / metric / decimal}
; #@! TF.CreationDate,2021-05-11T11:11:07-04:00
; #@! TF.GenerationSoftware,Kicad,Pcbnew,(5.1.9-0-10_14)
; #@! TF.FileFunction,Plated,1,2,PTH
FMAT,2
METRIC
T1C0.500
T2C0.800
T3C1.016
T4C1.400
T5C3.700
%
G90
G05
T1
X68.091Y-49.276
X68.091Y-133.604
X68.904Y-47.314
X68.904Y-51.238
X68.904Y-131.642
X68.904Y-135.566
X70.866Y-46.501
X70.866Y-52.051
X70.866Y-130.829
X70.866Y-136.379
X72.828Y-47.314
X72.828Y-51.238
X72.828Y-131.642
X72.828Y-135.566
X73.641Y-49.276
X73.641Y-133.604
X200.069Y-49.276
X200.069Y-133.604
X200.882Y-47.314
X200.882Y-51.238
X200.882Y-131.642
X200.882Y-135.566
X202.844Y-46.501
X202.844Y-52.051
X202.844Y-130.829
X202.844Y-136.379
X204.807Y-47.314
X204.807Y-51.238
X204.807Y-131.642
X204.807Y-135.566
X205.619Y-49.276
X205.619Y-133.604
T2
X180.34Y-62.23
X180.34Y-64.73
X184.15Y-58.42
X184.15Y-68.58
X187.96Y-58.42
X187.96Y-68.58
T3
X107.95Y-101.6
X107.95Y-104.14
X107.95Y-106.68
X107.95Y-109.22
X107.95Y-111.76
X107.95Y-114.3
X113.03Y-48.26
X115.57Y-48.26
X117.475Y-64.77
X117.475Y-67.31
X118.11Y-48.26
X120.65Y-48.26
X120.65Y-93.98
X120.65Y-134.62
X123.19Y-48.26
X123.19Y-93.98
X123.19Y-134.62
X125.73Y-48.26
X125.73Y-93.98
X125.73Y-134.62
X128.27Y-48.26
X128.27Y-50.8
X128.27Y-93.98
X128.27Y-134.62
X130.81Y-48.26
X130.81Y-50.8
X130.81Y-93.98
X130.81Y-134.62
X133.35Y-48.26
X133.35Y-50.8
X133.35Y-93.98
X133.35Y-134.62
X135.89Y-48.26
X135.89Y-50.8
X135.89Y-93.98
X135.89Y-134.62
X138.43Y-48.26
X138.43Y-50.8
X138.43Y-93.98
X138.43Y-134.62
X140.97Y-48.26
X140.97Y-50.8
X140.97Y-86.36
X140.97Y-93.98
X140.97Y-134.62
X143.51Y-86.36
X143.51Y-134.62
X146.05Y-86.36
X148.59Y-86.36
X151.13Y-86.36
X153.67Y-86.36
X156.21Y-86.36
X158.75Y-86.36
X161.29Y-86.36
X193.04Y-68.58
X195.58Y-68.58
X198.12Y-68.58
X200.66Y-68.58
T4
X194.31Y-87.63
X199.39Y-87.63
T5
X70.866Y-49.276
X70.866Y-133.604
X202.844Y-49.276
X202.844Y-133.604
T0
M30
