G04 #@! TF.GenerationSoftware,KiCad,Pcbnew,(5.1.9-0-10_14)*
G04 #@! TF.CreationDate,2021-05-11T11:11:06-04:00*
G04 #@! TF.ProjectId,Cryologger GVMS,4372796f-6c6f-4676-9765-722047564d53,v2.0*
G04 #@! TF.SameCoordinates,Original*
G04 #@! TF.FileFunction,Soldermask,Bot*
G04 #@! TF.FilePolarity,Negative*
%FSLAX46Y46*%
G04 Gerber Fmt 4.6, Leading zero omitted, Abs format (unit mm)*
G04 Created by KiCad (PCBNEW (5.1.9-0-10_14)) date 2021-05-11 11:11:06*
%MOMM*%
%LPD*%
G01*
G04 APERTURE LIST*
%ADD10O,1.600000X1.600000*%
%ADD11C,1.600000*%
%ADD12C,1.778000*%
%ADD13R,1.778000X1.778000*%
%ADD14C,1.879600*%
%ADD15C,0.800000*%
%ADD16C,7.400000*%
%ADD17O,2.080000X3.600000*%
G04 APERTURE END LIST*
D10*
X184150000Y-68580000D03*
D11*
X184150000Y-58420000D03*
D10*
X187960000Y-58420000D03*
D11*
X187960000Y-68580000D03*
X180340000Y-64730000D03*
X180340000Y-62230000D03*
D12*
X193040000Y-68580000D03*
D13*
X195580000Y-68580000D03*
D12*
X198120000Y-68580000D03*
X200660000Y-68580000D03*
D14*
X140970000Y-86360000D03*
X143510000Y-86360000D03*
X146050000Y-86360000D03*
X148590000Y-86360000D03*
X151130000Y-86360000D03*
X153670000Y-86360000D03*
X156210000Y-86360000D03*
X158750000Y-86360000D03*
X161290000Y-86360000D03*
X113030000Y-48260000D03*
X115570000Y-48260000D03*
X118110000Y-48260000D03*
X120650000Y-48260000D03*
X123190000Y-48260000D03*
X125730000Y-48260000D03*
X128270000Y-48260000D03*
X130810000Y-48260000D03*
X133350000Y-48260000D03*
X135890000Y-48260000D03*
X138430000Y-48260000D03*
X140970000Y-48260000D03*
X128270000Y-50800000D03*
X130810000Y-50800000D03*
X133350000Y-50800000D03*
X135890000Y-50800000D03*
X138430000Y-50800000D03*
X140970000Y-50800000D03*
X117475000Y-64770000D03*
X117475000Y-67310000D03*
D15*
X204806621Y-131641779D03*
X202844400Y-130829000D03*
X200882179Y-131641779D03*
X200069400Y-133604000D03*
X200882179Y-135566221D03*
X202844400Y-136379000D03*
X204806621Y-135566221D03*
X205619400Y-133604000D03*
D16*
X202844400Y-133604000D03*
D15*
X72828221Y-47313779D03*
X70866000Y-46501000D03*
X68903779Y-47313779D03*
X68091000Y-49276000D03*
X68903779Y-51238221D03*
X70866000Y-52051000D03*
X72828221Y-51238221D03*
X73641000Y-49276000D03*
D16*
X70866000Y-49276000D03*
D15*
X72828221Y-131641779D03*
X70866000Y-130829000D03*
X68903779Y-131641779D03*
X68091000Y-133604000D03*
X68903779Y-135566221D03*
X70866000Y-136379000D03*
X72828221Y-135566221D03*
X73641000Y-133604000D03*
D16*
X70866000Y-133604000D03*
D15*
X204806621Y-47313779D03*
X202844400Y-46501000D03*
X200882179Y-47313779D03*
X200069400Y-49276000D03*
X200882179Y-51238221D03*
X202844400Y-52051000D03*
X204806621Y-51238221D03*
X205619400Y-49276000D03*
D16*
X202844400Y-49276000D03*
D14*
X120650000Y-134620000D03*
X123190000Y-134620000D03*
X125730000Y-134620000D03*
X128270000Y-134620000D03*
X130810000Y-134620000D03*
X133350000Y-134620000D03*
X135890000Y-134620000D03*
X138430000Y-134620000D03*
X140970000Y-134620000D03*
X143510000Y-134620000D03*
X107950000Y-114300000D03*
X107950000Y-111760000D03*
X107950000Y-109220000D03*
X107950000Y-106680000D03*
X107950000Y-104140000D03*
X107950000Y-101600000D03*
X120650000Y-93980000D03*
X123190000Y-93980000D03*
X125730000Y-93980000D03*
X128270000Y-93980000D03*
X130810000Y-93980000D03*
X133350000Y-93980000D03*
X135890000Y-93980000D03*
X138430000Y-93980000D03*
X140970000Y-93980000D03*
D17*
X199390000Y-87630000D03*
G36*
G01*
X193270000Y-89180001D02*
X193270000Y-86079999D01*
G75*
G02*
X193519999Y-85830000I249999J0D01*
G01*
X195100001Y-85830000D01*
G75*
G02*
X195350000Y-86079999I0J-249999D01*
G01*
X195350000Y-89180001D01*
G75*
G02*
X195100001Y-89430000I-249999J0D01*
G01*
X193519999Y-89430000D01*
G75*
G02*
X193270000Y-89180001I0J249999D01*
G01*
G37*
M02*
