G04 #@! TF.GenerationSoftware,KiCad,Pcbnew,(5.1.9-0-10_14)*
G04 #@! TF.CreationDate,2021-05-11T11:11:06-04:00*
G04 #@! TF.ProjectId,Cryologger GVMS,4372796f-6c6f-4676-9765-722047564d53,v2.0*
G04 #@! TF.SameCoordinates,Original*
G04 #@! TF.FileFunction,Copper,L2,Bot*
G04 #@! TF.FilePolarity,Positive*
%FSLAX46Y46*%
G04 Gerber Fmt 4.6, Leading zero omitted, Abs format (unit mm)*
G04 Created by KiCad (PCBNEW (5.1.9-0-10_14)) date 2021-05-11 11:11:06*
%MOMM*%
%LPD*%
G01*
G04 APERTURE LIST*
G04 #@! TA.AperFunction,ComponentPad*
%ADD10O,1.600000X1.600000*%
G04 #@! TD*
G04 #@! TA.AperFunction,ComponentPad*
%ADD11C,1.600000*%
G04 #@! TD*
G04 #@! TA.AperFunction,ComponentPad*
%ADD12C,1.778000*%
G04 #@! TD*
G04 #@! TA.AperFunction,ComponentPad*
%ADD13R,1.778000X1.778000*%
G04 #@! TD*
G04 #@! TA.AperFunction,ComponentPad*
%ADD14C,1.879600*%
G04 #@! TD*
G04 #@! TA.AperFunction,ComponentPad*
%ADD15C,0.800000*%
G04 #@! TD*
G04 #@! TA.AperFunction,ComponentPad*
%ADD16C,7.400000*%
G04 #@! TD*
G04 #@! TA.AperFunction,ComponentPad*
%ADD17O,2.080000X3.600000*%
G04 #@! TD*
G04 #@! TA.AperFunction,Conductor*
%ADD18C,0.254000*%
G04 #@! TD*
G04 #@! TA.AperFunction,Conductor*
%ADD19C,0.150000*%
G04 #@! TD*
G04 APERTURE END LIST*
D10*
X184150000Y-68580000D03*
D11*
X184150000Y-58420000D03*
D10*
X187960000Y-58420000D03*
D11*
X187960000Y-68580000D03*
X180340000Y-64730000D03*
X180340000Y-62230000D03*
D12*
X193040000Y-68580000D03*
D13*
X195580000Y-68580000D03*
D12*
X198120000Y-68580000D03*
X200660000Y-68580000D03*
D14*
X140970000Y-86360000D03*
X143510000Y-86360000D03*
X146050000Y-86360000D03*
X148590000Y-86360000D03*
X151130000Y-86360000D03*
X153670000Y-86360000D03*
X156210000Y-86360000D03*
X158750000Y-86360000D03*
X161290000Y-86360000D03*
X113030000Y-48260000D03*
X115570000Y-48260000D03*
X118110000Y-48260000D03*
X120650000Y-48260000D03*
X123190000Y-48260000D03*
X125730000Y-48260000D03*
X128270000Y-48260000D03*
X130810000Y-48260000D03*
X133350000Y-48260000D03*
X135890000Y-48260000D03*
X138430000Y-48260000D03*
X140970000Y-48260000D03*
X128270000Y-50800000D03*
X130810000Y-50800000D03*
X133350000Y-50800000D03*
X135890000Y-50800000D03*
X138430000Y-50800000D03*
X140970000Y-50800000D03*
X117475000Y-64770000D03*
X117475000Y-67310000D03*
D15*
X204806621Y-131641779D03*
X202844400Y-130829000D03*
X200882179Y-131641779D03*
X200069400Y-133604000D03*
X200882179Y-135566221D03*
X202844400Y-136379000D03*
X204806621Y-135566221D03*
X205619400Y-133604000D03*
D16*
X202844400Y-133604000D03*
D15*
X72828221Y-47313779D03*
X70866000Y-46501000D03*
X68903779Y-47313779D03*
X68091000Y-49276000D03*
X68903779Y-51238221D03*
X70866000Y-52051000D03*
X72828221Y-51238221D03*
X73641000Y-49276000D03*
D16*
X70866000Y-49276000D03*
D15*
X72828221Y-131641779D03*
X70866000Y-130829000D03*
X68903779Y-131641779D03*
X68091000Y-133604000D03*
X68903779Y-135566221D03*
X70866000Y-136379000D03*
X72828221Y-135566221D03*
X73641000Y-133604000D03*
D16*
X70866000Y-133604000D03*
D15*
X204806621Y-47313779D03*
X202844400Y-46501000D03*
X200882179Y-47313779D03*
X200069400Y-49276000D03*
X200882179Y-51238221D03*
X202844400Y-52051000D03*
X204806621Y-51238221D03*
X205619400Y-49276000D03*
D16*
X202844400Y-49276000D03*
D14*
X120650000Y-134620000D03*
X123190000Y-134620000D03*
X125730000Y-134620000D03*
X128270000Y-134620000D03*
X130810000Y-134620000D03*
X133350000Y-134620000D03*
X135890000Y-134620000D03*
X138430000Y-134620000D03*
X140970000Y-134620000D03*
X143510000Y-134620000D03*
X107950000Y-114300000D03*
X107950000Y-111760000D03*
X107950000Y-109220000D03*
X107950000Y-106680000D03*
X107950000Y-104140000D03*
X107950000Y-101600000D03*
X120650000Y-93980000D03*
X123190000Y-93980000D03*
X125730000Y-93980000D03*
X128270000Y-93980000D03*
X130810000Y-93980000D03*
X133350000Y-93980000D03*
X135890000Y-93980000D03*
X138430000Y-93980000D03*
X140970000Y-93980000D03*
D17*
X199390000Y-87630000D03*
G04 #@! TA.AperFunction,ComponentPad*
G36*
G01*
X193270000Y-89180001D02*
X193270000Y-86079999D01*
G75*
G02*
X193519999Y-85830000I249999J0D01*
G01*
X195100001Y-85830000D01*
G75*
G02*
X195350000Y-86079999I0J-249999D01*
G01*
X195350000Y-89180001D01*
G75*
G02*
X195100001Y-89430000I-249999J0D01*
G01*
X193519999Y-89430000D01*
G75*
G02*
X193270000Y-89180001I0J249999D01*
G01*
G37*
G04 #@! TD.AperFunction*
D18*
X208459401Y-139219000D02*
X65251000Y-139219000D01*
X65251000Y-137085441D01*
X70339164Y-137085441D01*
X70362019Y-137288736D01*
X70549184Y-137369577D01*
X70748523Y-137412351D01*
X70952377Y-137415413D01*
X71152912Y-137378647D01*
X71342420Y-137303466D01*
X71369981Y-137288736D01*
X71392836Y-137085441D01*
X202317564Y-137085441D01*
X202340419Y-137288736D01*
X202527584Y-137369577D01*
X202726923Y-137412351D01*
X202930777Y-137415413D01*
X203131312Y-137378647D01*
X203320820Y-137303466D01*
X203348381Y-137288736D01*
X203371236Y-137085441D01*
X202844400Y-136558605D01*
X202317564Y-137085441D01*
X71392836Y-137085441D01*
X70866000Y-136558605D01*
X70339164Y-137085441D01*
X65251000Y-137085441D01*
X65251000Y-136272662D01*
X68376943Y-136272662D01*
X68399798Y-136475957D01*
X68586963Y-136556798D01*
X68786302Y-136599572D01*
X68990156Y-136602634D01*
X69190691Y-136565868D01*
X69380199Y-136490687D01*
X69407760Y-136475957D01*
X69408949Y-136465377D01*
X69829587Y-136465377D01*
X69866353Y-136665912D01*
X69941534Y-136855420D01*
X69956264Y-136882981D01*
X70159559Y-136905836D01*
X70686395Y-136379000D01*
X71045605Y-136379000D01*
X71572441Y-136905836D01*
X71775736Y-136882981D01*
X71856577Y-136695816D01*
X71899351Y-136496477D01*
X71902413Y-136292623D01*
X71898754Y-136272662D01*
X72301385Y-136272662D01*
X72324240Y-136475957D01*
X72511405Y-136556798D01*
X72710744Y-136599572D01*
X72914598Y-136602634D01*
X73115133Y-136565868D01*
X73304641Y-136490687D01*
X73332202Y-136475957D01*
X73355057Y-136272662D01*
X200355343Y-136272662D01*
X200378198Y-136475957D01*
X200565363Y-136556798D01*
X200764702Y-136599572D01*
X200968556Y-136602634D01*
X201169091Y-136565868D01*
X201358599Y-136490687D01*
X201386160Y-136475957D01*
X201387349Y-136465377D01*
X201807987Y-136465377D01*
X201844753Y-136665912D01*
X201919934Y-136855420D01*
X201934664Y-136882981D01*
X202137959Y-136905836D01*
X202664795Y-136379000D01*
X203024005Y-136379000D01*
X203550841Y-136905836D01*
X203754136Y-136882981D01*
X203834977Y-136695816D01*
X203877751Y-136496477D01*
X203880813Y-136292623D01*
X203877154Y-136272662D01*
X204279785Y-136272662D01*
X204302640Y-136475957D01*
X204489805Y-136556798D01*
X204689144Y-136599572D01*
X204892998Y-136602634D01*
X205093533Y-136565868D01*
X205283041Y-136490687D01*
X205310602Y-136475957D01*
X205333457Y-136272662D01*
X204806621Y-135745826D01*
X204279785Y-136272662D01*
X203877154Y-136272662D01*
X203844047Y-136092088D01*
X203768866Y-135902580D01*
X203754136Y-135875019D01*
X203550841Y-135852164D01*
X203024005Y-136379000D01*
X202664795Y-136379000D01*
X202137959Y-135852164D01*
X201934664Y-135875019D01*
X201853823Y-136062184D01*
X201811049Y-136261523D01*
X201807987Y-136465377D01*
X201387349Y-136465377D01*
X201409015Y-136272662D01*
X200882179Y-135745826D01*
X200355343Y-136272662D01*
X73355057Y-136272662D01*
X72828221Y-135745826D01*
X72301385Y-136272662D01*
X71898754Y-136272662D01*
X71865647Y-136092088D01*
X71790466Y-135902580D01*
X71775736Y-135875019D01*
X71572441Y-135852164D01*
X71045605Y-136379000D01*
X70686395Y-136379000D01*
X70159559Y-135852164D01*
X69956264Y-135875019D01*
X69875423Y-136062184D01*
X69832649Y-136261523D01*
X69829587Y-136465377D01*
X69408949Y-136465377D01*
X69430615Y-136272662D01*
X68903779Y-135745826D01*
X68376943Y-136272662D01*
X65251000Y-136272662D01*
X65251000Y-135652598D01*
X67867366Y-135652598D01*
X67904132Y-135853133D01*
X67979313Y-136042641D01*
X67994043Y-136070202D01*
X68197338Y-136093057D01*
X68724174Y-135566221D01*
X69083384Y-135566221D01*
X69610220Y-136093057D01*
X69813515Y-136070202D01*
X69894356Y-135883037D01*
X69937130Y-135683698D01*
X69937297Y-135672559D01*
X70339164Y-135672559D01*
X70866000Y-136199395D01*
X71392836Y-135672559D01*
X71390592Y-135652598D01*
X71791808Y-135652598D01*
X71828574Y-135853133D01*
X71903755Y-136042641D01*
X71918485Y-136070202D01*
X72121780Y-136093057D01*
X72648616Y-135566221D01*
X73007826Y-135566221D01*
X73534662Y-136093057D01*
X73737957Y-136070202D01*
X73818798Y-135883037D01*
X73855396Y-135712476D01*
X119737129Y-135712476D01*
X119825623Y-135970723D01*
X120104976Y-136105597D01*
X120405275Y-136183381D01*
X120714977Y-136201084D01*
X121022184Y-136158027D01*
X121315086Y-136055865D01*
X121474377Y-135970723D01*
X121562871Y-135712476D01*
X120650000Y-134799605D01*
X119737129Y-135712476D01*
X73855396Y-135712476D01*
X73861572Y-135683698D01*
X73864634Y-135479844D01*
X73827868Y-135279309D01*
X73752687Y-135089801D01*
X73737957Y-135062240D01*
X73534662Y-135039385D01*
X73007826Y-135566221D01*
X72648616Y-135566221D01*
X72121780Y-135039385D01*
X71918485Y-135062240D01*
X71837644Y-135249405D01*
X71794870Y-135448744D01*
X71791808Y-135652598D01*
X71390592Y-135652598D01*
X71369981Y-135469264D01*
X71182816Y-135388423D01*
X70983477Y-135345649D01*
X70779623Y-135342587D01*
X70579088Y-135379353D01*
X70389580Y-135454534D01*
X70362019Y-135469264D01*
X70339164Y-135672559D01*
X69937297Y-135672559D01*
X69940192Y-135479844D01*
X69903426Y-135279309D01*
X69828245Y-135089801D01*
X69813515Y-135062240D01*
X69610220Y-135039385D01*
X69083384Y-135566221D01*
X68724174Y-135566221D01*
X68197338Y-135039385D01*
X67994043Y-135062240D01*
X67913202Y-135249405D01*
X67870428Y-135448744D01*
X67867366Y-135652598D01*
X65251000Y-135652598D01*
X65251000Y-134859780D01*
X68376943Y-134859780D01*
X68903779Y-135386616D01*
X69430615Y-134859780D01*
X72301385Y-134859780D01*
X72828221Y-135386616D01*
X73355057Y-134859780D01*
X73335406Y-134684977D01*
X119068916Y-134684977D01*
X119111973Y-134992184D01*
X119214135Y-135285086D01*
X119299277Y-135444377D01*
X119557524Y-135532871D01*
X120470395Y-134620000D01*
X120829605Y-134620000D01*
X121742476Y-135532871D01*
X122000723Y-135444377D01*
X122064313Y-135312668D01*
X122164067Y-135461961D01*
X122348039Y-135645933D01*
X122564366Y-135790478D01*
X122804737Y-135890043D01*
X123059913Y-135940800D01*
X123320087Y-135940800D01*
X123575263Y-135890043D01*
X123815634Y-135790478D01*
X124031961Y-135645933D01*
X124215933Y-135461961D01*
X124360478Y-135245634D01*
X124460000Y-135005367D01*
X124559522Y-135245634D01*
X124704067Y-135461961D01*
X124888039Y-135645933D01*
X125104366Y-135790478D01*
X125344737Y-135890043D01*
X125599913Y-135940800D01*
X125860087Y-135940800D01*
X126115263Y-135890043D01*
X126355634Y-135790478D01*
X126571961Y-135645933D01*
X126755933Y-135461961D01*
X126900478Y-135245634D01*
X127000000Y-135005367D01*
X127099522Y-135245634D01*
X127244067Y-135461961D01*
X127428039Y-135645933D01*
X127644366Y-135790478D01*
X127884737Y-135890043D01*
X128139913Y-135940800D01*
X128400087Y-135940800D01*
X128655263Y-135890043D01*
X128895634Y-135790478D01*
X129111961Y-135645933D01*
X129295933Y-135461961D01*
X129440478Y-135245634D01*
X129540000Y-135005367D01*
X129639522Y-135245634D01*
X129784067Y-135461961D01*
X129968039Y-135645933D01*
X130184366Y-135790478D01*
X130424737Y-135890043D01*
X130679913Y-135940800D01*
X130940087Y-135940800D01*
X131195263Y-135890043D01*
X131435634Y-135790478D01*
X131651961Y-135645933D01*
X131835933Y-135461961D01*
X131980478Y-135245634D01*
X132080000Y-135005367D01*
X132179522Y-135245634D01*
X132324067Y-135461961D01*
X132508039Y-135645933D01*
X132724366Y-135790478D01*
X132964737Y-135890043D01*
X133219913Y-135940800D01*
X133480087Y-135940800D01*
X133735263Y-135890043D01*
X133975634Y-135790478D01*
X134191961Y-135645933D01*
X134375933Y-135461961D01*
X134520478Y-135245634D01*
X134620000Y-135005367D01*
X134719522Y-135245634D01*
X134864067Y-135461961D01*
X135048039Y-135645933D01*
X135264366Y-135790478D01*
X135504737Y-135890043D01*
X135759913Y-135940800D01*
X136020087Y-135940800D01*
X136275263Y-135890043D01*
X136515634Y-135790478D01*
X136731961Y-135645933D01*
X136915933Y-135461961D01*
X137060478Y-135245634D01*
X137160000Y-135005367D01*
X137259522Y-135245634D01*
X137404067Y-135461961D01*
X137588039Y-135645933D01*
X137804366Y-135790478D01*
X138044737Y-135890043D01*
X138299913Y-135940800D01*
X138560087Y-135940800D01*
X138815263Y-135890043D01*
X139055634Y-135790478D01*
X139271961Y-135645933D01*
X139455933Y-135461961D01*
X139600478Y-135245634D01*
X139700000Y-135005367D01*
X139799522Y-135245634D01*
X139944067Y-135461961D01*
X140128039Y-135645933D01*
X140344366Y-135790478D01*
X140584737Y-135890043D01*
X140839913Y-135940800D01*
X141100087Y-135940800D01*
X141355263Y-135890043D01*
X141595634Y-135790478D01*
X141811961Y-135645933D01*
X141995933Y-135461961D01*
X142140478Y-135245634D01*
X142240000Y-135005367D01*
X142339522Y-135245634D01*
X142484067Y-135461961D01*
X142668039Y-135645933D01*
X142884366Y-135790478D01*
X143124737Y-135890043D01*
X143379913Y-135940800D01*
X143640087Y-135940800D01*
X143895263Y-135890043D01*
X144135634Y-135790478D01*
X144341986Y-135652598D01*
X199845766Y-135652598D01*
X199882532Y-135853133D01*
X199957713Y-136042641D01*
X199972443Y-136070202D01*
X200175738Y-136093057D01*
X200702574Y-135566221D01*
X201061784Y-135566221D01*
X201588620Y-136093057D01*
X201791915Y-136070202D01*
X201872756Y-135883037D01*
X201915530Y-135683698D01*
X201915697Y-135672559D01*
X202317564Y-135672559D01*
X202844400Y-136199395D01*
X203371236Y-135672559D01*
X203368992Y-135652598D01*
X203770208Y-135652598D01*
X203806974Y-135853133D01*
X203882155Y-136042641D01*
X203896885Y-136070202D01*
X204100180Y-136093057D01*
X204627016Y-135566221D01*
X204986226Y-135566221D01*
X205513062Y-136093057D01*
X205716357Y-136070202D01*
X205797198Y-135883037D01*
X205839972Y-135683698D01*
X205843034Y-135479844D01*
X205806268Y-135279309D01*
X205731087Y-135089801D01*
X205716357Y-135062240D01*
X205513062Y-135039385D01*
X204986226Y-135566221D01*
X204627016Y-135566221D01*
X204100180Y-135039385D01*
X203896885Y-135062240D01*
X203816044Y-135249405D01*
X203773270Y-135448744D01*
X203770208Y-135652598D01*
X203368992Y-135652598D01*
X203348381Y-135469264D01*
X203161216Y-135388423D01*
X202961877Y-135345649D01*
X202758023Y-135342587D01*
X202557488Y-135379353D01*
X202367980Y-135454534D01*
X202340419Y-135469264D01*
X202317564Y-135672559D01*
X201915697Y-135672559D01*
X201918592Y-135479844D01*
X201881826Y-135279309D01*
X201806645Y-135089801D01*
X201791915Y-135062240D01*
X201588620Y-135039385D01*
X201061784Y-135566221D01*
X200702574Y-135566221D01*
X200175738Y-135039385D01*
X199972443Y-135062240D01*
X199891602Y-135249405D01*
X199848828Y-135448744D01*
X199845766Y-135652598D01*
X144341986Y-135652598D01*
X144351961Y-135645933D01*
X144535933Y-135461961D01*
X144680478Y-135245634D01*
X144780043Y-135005263D01*
X144808980Y-134859780D01*
X200355343Y-134859780D01*
X200882179Y-135386616D01*
X201409015Y-134859780D01*
X204279785Y-134859780D01*
X204806621Y-135386616D01*
X205333457Y-134859780D01*
X205310602Y-134656485D01*
X205123437Y-134575644D01*
X204924098Y-134532870D01*
X204720244Y-134529808D01*
X204519709Y-134566574D01*
X204330201Y-134641755D01*
X204302640Y-134656485D01*
X204279785Y-134859780D01*
X201409015Y-134859780D01*
X201386160Y-134656485D01*
X201198995Y-134575644D01*
X200999656Y-134532870D01*
X200795802Y-134529808D01*
X200595267Y-134566574D01*
X200405759Y-134641755D01*
X200378198Y-134656485D01*
X200355343Y-134859780D01*
X144808980Y-134859780D01*
X144830800Y-134750087D01*
X144830800Y-134489913D01*
X144795102Y-134310441D01*
X199542564Y-134310441D01*
X199565419Y-134513736D01*
X199752584Y-134594577D01*
X199951923Y-134637351D01*
X200155777Y-134640413D01*
X200356312Y-134603647D01*
X200545820Y-134528466D01*
X200573381Y-134513736D01*
X200596236Y-134310441D01*
X205092564Y-134310441D01*
X205115419Y-134513736D01*
X205302584Y-134594577D01*
X205501923Y-134637351D01*
X205705777Y-134640413D01*
X205906312Y-134603647D01*
X206095820Y-134528466D01*
X206123381Y-134513736D01*
X206146236Y-134310441D01*
X205619400Y-133783605D01*
X205092564Y-134310441D01*
X200596236Y-134310441D01*
X200069400Y-133783605D01*
X199542564Y-134310441D01*
X144795102Y-134310441D01*
X144780043Y-134234737D01*
X144680478Y-133994366D01*
X144535933Y-133778039D01*
X144448271Y-133690377D01*
X199032987Y-133690377D01*
X199069753Y-133890912D01*
X199144934Y-134080420D01*
X199159664Y-134107981D01*
X199362959Y-134130836D01*
X199889795Y-133604000D01*
X200249005Y-133604000D01*
X200775841Y-134130836D01*
X200979136Y-134107981D01*
X201059977Y-133920816D01*
X201102751Y-133721477D01*
X201103218Y-133690377D01*
X204582987Y-133690377D01*
X204619753Y-133890912D01*
X204694934Y-134080420D01*
X204709664Y-134107981D01*
X204912959Y-134130836D01*
X205439795Y-133604000D01*
X205799005Y-133604000D01*
X206325841Y-134130836D01*
X206529136Y-134107981D01*
X206609977Y-133920816D01*
X206652751Y-133721477D01*
X206655813Y-133517623D01*
X206619047Y-133317088D01*
X206543866Y-133127580D01*
X206529136Y-133100019D01*
X206325841Y-133077164D01*
X205799005Y-133604000D01*
X205439795Y-133604000D01*
X204912959Y-133077164D01*
X204709664Y-133100019D01*
X204628823Y-133287184D01*
X204586049Y-133486523D01*
X204582987Y-133690377D01*
X201103218Y-133690377D01*
X201105813Y-133517623D01*
X201069047Y-133317088D01*
X200993866Y-133127580D01*
X200979136Y-133100019D01*
X200775841Y-133077164D01*
X200249005Y-133604000D01*
X199889795Y-133604000D01*
X199362959Y-133077164D01*
X199159664Y-133100019D01*
X199078823Y-133287184D01*
X199036049Y-133486523D01*
X199032987Y-133690377D01*
X144448271Y-133690377D01*
X144351961Y-133594067D01*
X144135634Y-133449522D01*
X143895263Y-133349957D01*
X143640087Y-133299200D01*
X143379913Y-133299200D01*
X143124737Y-133349957D01*
X142884366Y-133449522D01*
X142668039Y-133594067D01*
X142484067Y-133778039D01*
X142339522Y-133994366D01*
X142240000Y-134234633D01*
X142140478Y-133994366D01*
X141995933Y-133778039D01*
X141811961Y-133594067D01*
X141595634Y-133449522D01*
X141355263Y-133349957D01*
X141100087Y-133299200D01*
X140839913Y-133299200D01*
X140584737Y-133349957D01*
X140344366Y-133449522D01*
X140128039Y-133594067D01*
X139944067Y-133778039D01*
X139799522Y-133994366D01*
X139700000Y-134234633D01*
X139600478Y-133994366D01*
X139455933Y-133778039D01*
X139271961Y-133594067D01*
X139055634Y-133449522D01*
X138815263Y-133349957D01*
X138560087Y-133299200D01*
X138299913Y-133299200D01*
X138044737Y-133349957D01*
X137804366Y-133449522D01*
X137588039Y-133594067D01*
X137404067Y-133778039D01*
X137259522Y-133994366D01*
X137160000Y-134234633D01*
X137060478Y-133994366D01*
X136915933Y-133778039D01*
X136731961Y-133594067D01*
X136515634Y-133449522D01*
X136275263Y-133349957D01*
X136020087Y-133299200D01*
X135759913Y-133299200D01*
X135504737Y-133349957D01*
X135264366Y-133449522D01*
X135048039Y-133594067D01*
X134864067Y-133778039D01*
X134719522Y-133994366D01*
X134620000Y-134234633D01*
X134520478Y-133994366D01*
X134375933Y-133778039D01*
X134191961Y-133594067D01*
X133975634Y-133449522D01*
X133735263Y-133349957D01*
X133480087Y-133299200D01*
X133219913Y-133299200D01*
X132964737Y-133349957D01*
X132724366Y-133449522D01*
X132508039Y-133594067D01*
X132324067Y-133778039D01*
X132179522Y-133994366D01*
X132080000Y-134234633D01*
X131980478Y-133994366D01*
X131835933Y-133778039D01*
X131651961Y-133594067D01*
X131435634Y-133449522D01*
X131195263Y-133349957D01*
X130940087Y-133299200D01*
X130679913Y-133299200D01*
X130424737Y-133349957D01*
X130184366Y-133449522D01*
X129968039Y-133594067D01*
X129784067Y-133778039D01*
X129639522Y-133994366D01*
X129540000Y-134234633D01*
X129440478Y-133994366D01*
X129295933Y-133778039D01*
X129111961Y-133594067D01*
X128895634Y-133449522D01*
X128655263Y-133349957D01*
X128400087Y-133299200D01*
X128139913Y-133299200D01*
X127884737Y-133349957D01*
X127644366Y-133449522D01*
X127428039Y-133594067D01*
X127244067Y-133778039D01*
X127099522Y-133994366D01*
X127000000Y-134234633D01*
X126900478Y-133994366D01*
X126755933Y-133778039D01*
X126571961Y-133594067D01*
X126355634Y-133449522D01*
X126115263Y-133349957D01*
X125860087Y-133299200D01*
X125599913Y-133299200D01*
X125344737Y-133349957D01*
X125104366Y-133449522D01*
X124888039Y-133594067D01*
X124704067Y-133778039D01*
X124559522Y-133994366D01*
X124460000Y-134234633D01*
X124360478Y-133994366D01*
X124215933Y-133778039D01*
X124031961Y-133594067D01*
X123815634Y-133449522D01*
X123575263Y-133349957D01*
X123320087Y-133299200D01*
X123059913Y-133299200D01*
X122804737Y-133349957D01*
X122564366Y-133449522D01*
X122348039Y-133594067D01*
X122164067Y-133778039D01*
X122068096Y-133921670D01*
X122000723Y-133795623D01*
X121742476Y-133707129D01*
X120829605Y-134620000D01*
X120470395Y-134620000D01*
X119557524Y-133707129D01*
X119299277Y-133795623D01*
X119164403Y-134074976D01*
X119086619Y-134375275D01*
X119068916Y-134684977D01*
X73335406Y-134684977D01*
X73332202Y-134656485D01*
X73145037Y-134575644D01*
X72945698Y-134532870D01*
X72741844Y-134529808D01*
X72541309Y-134566574D01*
X72351801Y-134641755D01*
X72324240Y-134656485D01*
X72301385Y-134859780D01*
X69430615Y-134859780D01*
X69407760Y-134656485D01*
X69220595Y-134575644D01*
X69021256Y-134532870D01*
X68817402Y-134529808D01*
X68616867Y-134566574D01*
X68427359Y-134641755D01*
X68399798Y-134656485D01*
X68376943Y-134859780D01*
X65251000Y-134859780D01*
X65251000Y-134310441D01*
X67564164Y-134310441D01*
X67587019Y-134513736D01*
X67774184Y-134594577D01*
X67973523Y-134637351D01*
X68177377Y-134640413D01*
X68377912Y-134603647D01*
X68567420Y-134528466D01*
X68594981Y-134513736D01*
X68617836Y-134310441D01*
X73114164Y-134310441D01*
X73137019Y-134513736D01*
X73324184Y-134594577D01*
X73523523Y-134637351D01*
X73727377Y-134640413D01*
X73927912Y-134603647D01*
X74117420Y-134528466D01*
X74144981Y-134513736D01*
X74167836Y-134310441D01*
X73641000Y-133783605D01*
X73114164Y-134310441D01*
X68617836Y-134310441D01*
X68091000Y-133783605D01*
X67564164Y-134310441D01*
X65251000Y-134310441D01*
X65251000Y-133690377D01*
X67054587Y-133690377D01*
X67091353Y-133890912D01*
X67166534Y-134080420D01*
X67181264Y-134107981D01*
X67384559Y-134130836D01*
X67911395Y-133604000D01*
X68270605Y-133604000D01*
X68797441Y-134130836D01*
X69000736Y-134107981D01*
X69081577Y-133920816D01*
X69124351Y-133721477D01*
X69124818Y-133690377D01*
X72604587Y-133690377D01*
X72641353Y-133890912D01*
X72716534Y-134080420D01*
X72731264Y-134107981D01*
X72934559Y-134130836D01*
X73461395Y-133604000D01*
X73820605Y-133604000D01*
X74347441Y-134130836D01*
X74550736Y-134107981D01*
X74631577Y-133920816D01*
X74674351Y-133721477D01*
X74677264Y-133527524D01*
X119737129Y-133527524D01*
X120650000Y-134440395D01*
X121562871Y-133527524D01*
X121474377Y-133269277D01*
X121195024Y-133134403D01*
X120894725Y-133056619D01*
X120585023Y-133038916D01*
X120277816Y-133081973D01*
X119984914Y-133184135D01*
X119825623Y-133269277D01*
X119737129Y-133527524D01*
X74677264Y-133527524D01*
X74677413Y-133517623D01*
X74640647Y-133317088D01*
X74565466Y-133127580D01*
X74550736Y-133100019D01*
X74347441Y-133077164D01*
X73820605Y-133604000D01*
X73461395Y-133604000D01*
X72934559Y-133077164D01*
X72731264Y-133100019D01*
X72650423Y-133287184D01*
X72607649Y-133486523D01*
X72604587Y-133690377D01*
X69124818Y-133690377D01*
X69127413Y-133517623D01*
X69090647Y-133317088D01*
X69015466Y-133127580D01*
X69000736Y-133100019D01*
X68797441Y-133077164D01*
X68270605Y-133604000D01*
X67911395Y-133604000D01*
X67384559Y-133077164D01*
X67181264Y-133100019D01*
X67100423Y-133287184D01*
X67057649Y-133486523D01*
X67054587Y-133690377D01*
X65251000Y-133690377D01*
X65251000Y-132897559D01*
X67564164Y-132897559D01*
X68091000Y-133424395D01*
X68617836Y-132897559D01*
X73114164Y-132897559D01*
X73641000Y-133424395D01*
X74167836Y-132897559D01*
X199542564Y-132897559D01*
X200069400Y-133424395D01*
X200596236Y-132897559D01*
X205092564Y-132897559D01*
X205619400Y-133424395D01*
X206146236Y-132897559D01*
X206123381Y-132694264D01*
X205936216Y-132613423D01*
X205736877Y-132570649D01*
X205533023Y-132567587D01*
X205332488Y-132604353D01*
X205142980Y-132679534D01*
X205115419Y-132694264D01*
X205092564Y-132897559D01*
X200596236Y-132897559D01*
X200573381Y-132694264D01*
X200386216Y-132613423D01*
X200186877Y-132570649D01*
X199983023Y-132567587D01*
X199782488Y-132604353D01*
X199592980Y-132679534D01*
X199565419Y-132694264D01*
X199542564Y-132897559D01*
X74167836Y-132897559D01*
X74144981Y-132694264D01*
X73957816Y-132613423D01*
X73758477Y-132570649D01*
X73554623Y-132567587D01*
X73354088Y-132604353D01*
X73164580Y-132679534D01*
X73137019Y-132694264D01*
X73114164Y-132897559D01*
X68617836Y-132897559D01*
X68594981Y-132694264D01*
X68407816Y-132613423D01*
X68208477Y-132570649D01*
X68004623Y-132567587D01*
X67804088Y-132604353D01*
X67614580Y-132679534D01*
X67587019Y-132694264D01*
X67564164Y-132897559D01*
X65251000Y-132897559D01*
X65251000Y-132348220D01*
X68376943Y-132348220D01*
X68399798Y-132551515D01*
X68586963Y-132632356D01*
X68786302Y-132675130D01*
X68990156Y-132678192D01*
X69190691Y-132641426D01*
X69380199Y-132566245D01*
X69407760Y-132551515D01*
X69430615Y-132348220D01*
X72301385Y-132348220D01*
X72324240Y-132551515D01*
X72511405Y-132632356D01*
X72710744Y-132675130D01*
X72914598Y-132678192D01*
X73115133Y-132641426D01*
X73304641Y-132566245D01*
X73332202Y-132551515D01*
X73355057Y-132348220D01*
X200355343Y-132348220D01*
X200378198Y-132551515D01*
X200565363Y-132632356D01*
X200764702Y-132675130D01*
X200968556Y-132678192D01*
X201169091Y-132641426D01*
X201358599Y-132566245D01*
X201386160Y-132551515D01*
X201409015Y-132348220D01*
X204279785Y-132348220D01*
X204302640Y-132551515D01*
X204489805Y-132632356D01*
X204689144Y-132675130D01*
X204892998Y-132678192D01*
X205093533Y-132641426D01*
X205283041Y-132566245D01*
X205310602Y-132551515D01*
X205333457Y-132348220D01*
X204806621Y-131821384D01*
X204279785Y-132348220D01*
X201409015Y-132348220D01*
X200882179Y-131821384D01*
X200355343Y-132348220D01*
X73355057Y-132348220D01*
X72828221Y-131821384D01*
X72301385Y-132348220D01*
X69430615Y-132348220D01*
X68903779Y-131821384D01*
X68376943Y-132348220D01*
X65251000Y-132348220D01*
X65251000Y-131728156D01*
X67867366Y-131728156D01*
X67904132Y-131928691D01*
X67979313Y-132118199D01*
X67994043Y-132145760D01*
X68197338Y-132168615D01*
X68724174Y-131641779D01*
X69083384Y-131641779D01*
X69610220Y-132168615D01*
X69813515Y-132145760D01*
X69894356Y-131958595D01*
X69937130Y-131759256D01*
X69940192Y-131555402D01*
X69936533Y-131535441D01*
X70339164Y-131535441D01*
X70362019Y-131738736D01*
X70549184Y-131819577D01*
X70748523Y-131862351D01*
X70952377Y-131865413D01*
X71152912Y-131828647D01*
X71342420Y-131753466D01*
X71369981Y-131738736D01*
X71371170Y-131728156D01*
X71791808Y-131728156D01*
X71828574Y-131928691D01*
X71903755Y-132118199D01*
X71918485Y-132145760D01*
X72121780Y-132168615D01*
X72648616Y-131641779D01*
X73007826Y-131641779D01*
X73534662Y-132168615D01*
X73737957Y-132145760D01*
X73818798Y-131958595D01*
X73861572Y-131759256D01*
X73862039Y-131728156D01*
X199845766Y-131728156D01*
X199882532Y-131928691D01*
X199957713Y-132118199D01*
X199972443Y-132145760D01*
X200175738Y-132168615D01*
X200702574Y-131641779D01*
X201061784Y-131641779D01*
X201588620Y-132168615D01*
X201791915Y-132145760D01*
X201872756Y-131958595D01*
X201915530Y-131759256D01*
X201918592Y-131555402D01*
X201914933Y-131535441D01*
X202317564Y-131535441D01*
X202340419Y-131738736D01*
X202527584Y-131819577D01*
X202726923Y-131862351D01*
X202930777Y-131865413D01*
X203131312Y-131828647D01*
X203320820Y-131753466D01*
X203348381Y-131738736D01*
X203349570Y-131728156D01*
X203770208Y-131728156D01*
X203806974Y-131928691D01*
X203882155Y-132118199D01*
X203896885Y-132145760D01*
X204100180Y-132168615D01*
X204627016Y-131641779D01*
X204986226Y-131641779D01*
X205513062Y-132168615D01*
X205716357Y-132145760D01*
X205797198Y-131958595D01*
X205839972Y-131759256D01*
X205843034Y-131555402D01*
X205806268Y-131354867D01*
X205731087Y-131165359D01*
X205716357Y-131137798D01*
X205513062Y-131114943D01*
X204986226Y-131641779D01*
X204627016Y-131641779D01*
X204100180Y-131114943D01*
X203896885Y-131137798D01*
X203816044Y-131324963D01*
X203773270Y-131524302D01*
X203770208Y-131728156D01*
X203349570Y-131728156D01*
X203371236Y-131535441D01*
X202844400Y-131008605D01*
X202317564Y-131535441D01*
X201914933Y-131535441D01*
X201881826Y-131354867D01*
X201806645Y-131165359D01*
X201791915Y-131137798D01*
X201588620Y-131114943D01*
X201061784Y-131641779D01*
X200702574Y-131641779D01*
X200175738Y-131114943D01*
X199972443Y-131137798D01*
X199891602Y-131324963D01*
X199848828Y-131524302D01*
X199845766Y-131728156D01*
X73862039Y-131728156D01*
X73864634Y-131555402D01*
X73827868Y-131354867D01*
X73752687Y-131165359D01*
X73737957Y-131137798D01*
X73534662Y-131114943D01*
X73007826Y-131641779D01*
X72648616Y-131641779D01*
X72121780Y-131114943D01*
X71918485Y-131137798D01*
X71837644Y-131324963D01*
X71794870Y-131524302D01*
X71791808Y-131728156D01*
X71371170Y-131728156D01*
X71392836Y-131535441D01*
X70866000Y-131008605D01*
X70339164Y-131535441D01*
X69936533Y-131535441D01*
X69903426Y-131354867D01*
X69828245Y-131165359D01*
X69813515Y-131137798D01*
X69610220Y-131114943D01*
X69083384Y-131641779D01*
X68724174Y-131641779D01*
X68197338Y-131114943D01*
X67994043Y-131137798D01*
X67913202Y-131324963D01*
X67870428Y-131524302D01*
X67867366Y-131728156D01*
X65251000Y-131728156D01*
X65251000Y-130935338D01*
X68376943Y-130935338D01*
X68903779Y-131462174D01*
X69430615Y-130935338D01*
X69428371Y-130915377D01*
X69829587Y-130915377D01*
X69866353Y-131115912D01*
X69941534Y-131305420D01*
X69956264Y-131332981D01*
X70159559Y-131355836D01*
X70686395Y-130829000D01*
X71045605Y-130829000D01*
X71572441Y-131355836D01*
X71775736Y-131332981D01*
X71856577Y-131145816D01*
X71899351Y-130946477D01*
X71899518Y-130935338D01*
X72301385Y-130935338D01*
X72828221Y-131462174D01*
X73355057Y-130935338D01*
X200355343Y-130935338D01*
X200882179Y-131462174D01*
X201409015Y-130935338D01*
X201406771Y-130915377D01*
X201807987Y-130915377D01*
X201844753Y-131115912D01*
X201919934Y-131305420D01*
X201934664Y-131332981D01*
X202137959Y-131355836D01*
X202664795Y-130829000D01*
X203024005Y-130829000D01*
X203550841Y-131355836D01*
X203754136Y-131332981D01*
X203834977Y-131145816D01*
X203877751Y-130946477D01*
X203877918Y-130935338D01*
X204279785Y-130935338D01*
X204806621Y-131462174D01*
X205333457Y-130935338D01*
X205310602Y-130732043D01*
X205123437Y-130651202D01*
X204924098Y-130608428D01*
X204720244Y-130605366D01*
X204519709Y-130642132D01*
X204330201Y-130717313D01*
X204302640Y-130732043D01*
X204279785Y-130935338D01*
X203877918Y-130935338D01*
X203880813Y-130742623D01*
X203844047Y-130542088D01*
X203768866Y-130352580D01*
X203754136Y-130325019D01*
X203550841Y-130302164D01*
X203024005Y-130829000D01*
X202664795Y-130829000D01*
X202137959Y-130302164D01*
X201934664Y-130325019D01*
X201853823Y-130512184D01*
X201811049Y-130711523D01*
X201807987Y-130915377D01*
X201406771Y-130915377D01*
X201386160Y-130732043D01*
X201198995Y-130651202D01*
X200999656Y-130608428D01*
X200795802Y-130605366D01*
X200595267Y-130642132D01*
X200405759Y-130717313D01*
X200378198Y-130732043D01*
X200355343Y-130935338D01*
X73355057Y-130935338D01*
X73332202Y-130732043D01*
X73145037Y-130651202D01*
X72945698Y-130608428D01*
X72741844Y-130605366D01*
X72541309Y-130642132D01*
X72351801Y-130717313D01*
X72324240Y-130732043D01*
X72301385Y-130935338D01*
X71899518Y-130935338D01*
X71902413Y-130742623D01*
X71865647Y-130542088D01*
X71790466Y-130352580D01*
X71775736Y-130325019D01*
X71572441Y-130302164D01*
X71045605Y-130829000D01*
X70686395Y-130829000D01*
X70159559Y-130302164D01*
X69956264Y-130325019D01*
X69875423Y-130512184D01*
X69832649Y-130711523D01*
X69829587Y-130915377D01*
X69428371Y-130915377D01*
X69407760Y-130732043D01*
X69220595Y-130651202D01*
X69021256Y-130608428D01*
X68817402Y-130605366D01*
X68616867Y-130642132D01*
X68427359Y-130717313D01*
X68399798Y-130732043D01*
X68376943Y-130935338D01*
X65251000Y-130935338D01*
X65251000Y-130122559D01*
X70339164Y-130122559D01*
X70866000Y-130649395D01*
X71392836Y-130122559D01*
X202317564Y-130122559D01*
X202844400Y-130649395D01*
X203371236Y-130122559D01*
X203348381Y-129919264D01*
X203161216Y-129838423D01*
X202961877Y-129795649D01*
X202758023Y-129792587D01*
X202557488Y-129829353D01*
X202367980Y-129904534D01*
X202340419Y-129919264D01*
X202317564Y-130122559D01*
X71392836Y-130122559D01*
X71369981Y-129919264D01*
X71182816Y-129838423D01*
X70983477Y-129795649D01*
X70779623Y-129792587D01*
X70579088Y-129829353D01*
X70389580Y-129904534D01*
X70362019Y-129919264D01*
X70339164Y-130122559D01*
X65251000Y-130122559D01*
X65251000Y-115392476D01*
X107037129Y-115392476D01*
X107125623Y-115650723D01*
X107404976Y-115785597D01*
X107705275Y-115863381D01*
X108014977Y-115881084D01*
X108322184Y-115838027D01*
X108615086Y-115735865D01*
X108774377Y-115650723D01*
X108862871Y-115392476D01*
X107950000Y-114479605D01*
X107037129Y-115392476D01*
X65251000Y-115392476D01*
X65251000Y-114364977D01*
X106368916Y-114364977D01*
X106411973Y-114672184D01*
X106514135Y-114965086D01*
X106599277Y-115124377D01*
X106857524Y-115212871D01*
X107770395Y-114300000D01*
X108129605Y-114300000D01*
X109042476Y-115212871D01*
X109300723Y-115124377D01*
X109435597Y-114845024D01*
X109513381Y-114544725D01*
X109531084Y-114235023D01*
X109488027Y-113927816D01*
X109385865Y-113634914D01*
X109300723Y-113475623D01*
X109042476Y-113387129D01*
X108129605Y-114300000D01*
X107770395Y-114300000D01*
X106857524Y-113387129D01*
X106599277Y-113475623D01*
X106464403Y-113754976D01*
X106386619Y-114055275D01*
X106368916Y-114364977D01*
X65251000Y-114364977D01*
X65251000Y-101469913D01*
X106629200Y-101469913D01*
X106629200Y-101730087D01*
X106679957Y-101985263D01*
X106779522Y-102225634D01*
X106924067Y-102441961D01*
X107108039Y-102625933D01*
X107324366Y-102770478D01*
X107564633Y-102870000D01*
X107324366Y-102969522D01*
X107108039Y-103114067D01*
X106924067Y-103298039D01*
X106779522Y-103514366D01*
X106679957Y-103754737D01*
X106629200Y-104009913D01*
X106629200Y-104270087D01*
X106679957Y-104525263D01*
X106779522Y-104765634D01*
X106924067Y-104981961D01*
X107108039Y-105165933D01*
X107324366Y-105310478D01*
X107564633Y-105410000D01*
X107324366Y-105509522D01*
X107108039Y-105654067D01*
X106924067Y-105838039D01*
X106779522Y-106054366D01*
X106679957Y-106294737D01*
X106629200Y-106549913D01*
X106629200Y-106810087D01*
X106679957Y-107065263D01*
X106779522Y-107305634D01*
X106924067Y-107521961D01*
X107108039Y-107705933D01*
X107324366Y-107850478D01*
X107564633Y-107950000D01*
X107324366Y-108049522D01*
X107108039Y-108194067D01*
X106924067Y-108378039D01*
X106779522Y-108594366D01*
X106679957Y-108834737D01*
X106629200Y-109089913D01*
X106629200Y-109350087D01*
X106679957Y-109605263D01*
X106779522Y-109845634D01*
X106924067Y-110061961D01*
X107108039Y-110245933D01*
X107324366Y-110390478D01*
X107564633Y-110490000D01*
X107324366Y-110589522D01*
X107108039Y-110734067D01*
X106924067Y-110918039D01*
X106779522Y-111134366D01*
X106679957Y-111374737D01*
X106629200Y-111629913D01*
X106629200Y-111890087D01*
X106679957Y-112145263D01*
X106779522Y-112385634D01*
X106924067Y-112601961D01*
X107108039Y-112785933D01*
X107251670Y-112881904D01*
X107125623Y-112949277D01*
X107037129Y-113207524D01*
X107950000Y-114120395D01*
X108862871Y-113207524D01*
X108774377Y-112949277D01*
X108642668Y-112885687D01*
X108791961Y-112785933D01*
X108975933Y-112601961D01*
X109120478Y-112385634D01*
X109220043Y-112145263D01*
X109270800Y-111890087D01*
X109270800Y-111629913D01*
X109220043Y-111374737D01*
X109120478Y-111134366D01*
X108975933Y-110918039D01*
X108791961Y-110734067D01*
X108575634Y-110589522D01*
X108335367Y-110490000D01*
X108575634Y-110390478D01*
X108791961Y-110245933D01*
X108975933Y-110061961D01*
X109120478Y-109845634D01*
X109220043Y-109605263D01*
X109270800Y-109350087D01*
X109270800Y-109089913D01*
X109220043Y-108834737D01*
X109120478Y-108594366D01*
X108975933Y-108378039D01*
X108791961Y-108194067D01*
X108575634Y-108049522D01*
X108335367Y-107950000D01*
X108575634Y-107850478D01*
X108791961Y-107705933D01*
X108975933Y-107521961D01*
X109120478Y-107305634D01*
X109220043Y-107065263D01*
X109270800Y-106810087D01*
X109270800Y-106549913D01*
X109220043Y-106294737D01*
X109120478Y-106054366D01*
X108975933Y-105838039D01*
X108791961Y-105654067D01*
X108575634Y-105509522D01*
X108335367Y-105410000D01*
X108575634Y-105310478D01*
X108791961Y-105165933D01*
X108975933Y-104981961D01*
X109120478Y-104765634D01*
X109220043Y-104525263D01*
X109270800Y-104270087D01*
X109270800Y-104009913D01*
X109220043Y-103754737D01*
X109120478Y-103514366D01*
X108975933Y-103298039D01*
X108791961Y-103114067D01*
X108575634Y-102969522D01*
X108335367Y-102870000D01*
X108575634Y-102770478D01*
X108791961Y-102625933D01*
X108975933Y-102441961D01*
X109120478Y-102225634D01*
X109220043Y-101985263D01*
X109270800Y-101730087D01*
X109270800Y-101469913D01*
X109220043Y-101214737D01*
X109120478Y-100974366D01*
X108975933Y-100758039D01*
X108791961Y-100574067D01*
X108575634Y-100429522D01*
X108335263Y-100329957D01*
X108080087Y-100279200D01*
X107819913Y-100279200D01*
X107564737Y-100329957D01*
X107324366Y-100429522D01*
X107108039Y-100574067D01*
X106924067Y-100758039D01*
X106779522Y-100974366D01*
X106679957Y-101214737D01*
X106629200Y-101469913D01*
X65251000Y-101469913D01*
X65251000Y-95072476D01*
X119737129Y-95072476D01*
X119825623Y-95330723D01*
X120104976Y-95465597D01*
X120405275Y-95543381D01*
X120714977Y-95561084D01*
X121022184Y-95518027D01*
X121315086Y-95415865D01*
X121474377Y-95330723D01*
X121562871Y-95072476D01*
X120650000Y-94159605D01*
X119737129Y-95072476D01*
X65251000Y-95072476D01*
X65251000Y-94044977D01*
X119068916Y-94044977D01*
X119111973Y-94352184D01*
X119214135Y-94645086D01*
X119299277Y-94804377D01*
X119557524Y-94892871D01*
X120470395Y-93980000D01*
X120829605Y-93980000D01*
X121742476Y-94892871D01*
X122000723Y-94804377D01*
X122064313Y-94672668D01*
X122164067Y-94821961D01*
X122348039Y-95005933D01*
X122564366Y-95150478D01*
X122804737Y-95250043D01*
X123059913Y-95300800D01*
X123320087Y-95300800D01*
X123575263Y-95250043D01*
X123815634Y-95150478D01*
X124031961Y-95005933D01*
X124215933Y-94821961D01*
X124360478Y-94605634D01*
X124460000Y-94365367D01*
X124559522Y-94605634D01*
X124704067Y-94821961D01*
X124888039Y-95005933D01*
X125104366Y-95150478D01*
X125344737Y-95250043D01*
X125599913Y-95300800D01*
X125860087Y-95300800D01*
X126115263Y-95250043D01*
X126355634Y-95150478D01*
X126571961Y-95005933D01*
X126755933Y-94821961D01*
X126900478Y-94605634D01*
X127000000Y-94365367D01*
X127099522Y-94605634D01*
X127244067Y-94821961D01*
X127428039Y-95005933D01*
X127644366Y-95150478D01*
X127884737Y-95250043D01*
X128139913Y-95300800D01*
X128400087Y-95300800D01*
X128655263Y-95250043D01*
X128895634Y-95150478D01*
X129111961Y-95005933D01*
X129295933Y-94821961D01*
X129440478Y-94605634D01*
X129540000Y-94365367D01*
X129639522Y-94605634D01*
X129784067Y-94821961D01*
X129968039Y-95005933D01*
X130184366Y-95150478D01*
X130424737Y-95250043D01*
X130679913Y-95300800D01*
X130940087Y-95300800D01*
X131195263Y-95250043D01*
X131435634Y-95150478D01*
X131651961Y-95005933D01*
X131835933Y-94821961D01*
X131980478Y-94605634D01*
X132080000Y-94365367D01*
X132179522Y-94605634D01*
X132324067Y-94821961D01*
X132508039Y-95005933D01*
X132724366Y-95150478D01*
X132964737Y-95250043D01*
X133219913Y-95300800D01*
X133480087Y-95300800D01*
X133735263Y-95250043D01*
X133975634Y-95150478D01*
X134191961Y-95005933D01*
X134375933Y-94821961D01*
X134520478Y-94605634D01*
X134620000Y-94365367D01*
X134719522Y-94605634D01*
X134864067Y-94821961D01*
X135048039Y-95005933D01*
X135264366Y-95150478D01*
X135504737Y-95250043D01*
X135759913Y-95300800D01*
X136020087Y-95300800D01*
X136275263Y-95250043D01*
X136515634Y-95150478D01*
X136731961Y-95005933D01*
X136915933Y-94821961D01*
X137060478Y-94605634D01*
X137160000Y-94365367D01*
X137259522Y-94605634D01*
X137404067Y-94821961D01*
X137588039Y-95005933D01*
X137804366Y-95150478D01*
X138044737Y-95250043D01*
X138299913Y-95300800D01*
X138560087Y-95300800D01*
X138815263Y-95250043D01*
X139055634Y-95150478D01*
X139271961Y-95005933D01*
X139455933Y-94821961D01*
X139600478Y-94605634D01*
X139700000Y-94365367D01*
X139799522Y-94605634D01*
X139944067Y-94821961D01*
X140128039Y-95005933D01*
X140344366Y-95150478D01*
X140584737Y-95250043D01*
X140839913Y-95300800D01*
X141100087Y-95300800D01*
X141355263Y-95250043D01*
X141595634Y-95150478D01*
X141811961Y-95005933D01*
X141995933Y-94821961D01*
X142140478Y-94605634D01*
X142240043Y-94365263D01*
X142290800Y-94110087D01*
X142290800Y-93849913D01*
X142240043Y-93594737D01*
X142140478Y-93354366D01*
X141995933Y-93138039D01*
X141811961Y-92954067D01*
X141595634Y-92809522D01*
X141355263Y-92709957D01*
X141100087Y-92659200D01*
X140839913Y-92659200D01*
X140584737Y-92709957D01*
X140344366Y-92809522D01*
X140128039Y-92954067D01*
X139944067Y-93138039D01*
X139799522Y-93354366D01*
X139700000Y-93594633D01*
X139600478Y-93354366D01*
X139455933Y-93138039D01*
X139271961Y-92954067D01*
X139055634Y-92809522D01*
X138815263Y-92709957D01*
X138560087Y-92659200D01*
X138299913Y-92659200D01*
X138044737Y-92709957D01*
X137804366Y-92809522D01*
X137588039Y-92954067D01*
X137404067Y-93138039D01*
X137259522Y-93354366D01*
X137160000Y-93594633D01*
X137060478Y-93354366D01*
X136915933Y-93138039D01*
X136731961Y-92954067D01*
X136515634Y-92809522D01*
X136275263Y-92709957D01*
X136020087Y-92659200D01*
X135759913Y-92659200D01*
X135504737Y-92709957D01*
X135264366Y-92809522D01*
X135048039Y-92954067D01*
X134864067Y-93138039D01*
X134719522Y-93354366D01*
X134620000Y-93594633D01*
X134520478Y-93354366D01*
X134375933Y-93138039D01*
X134191961Y-92954067D01*
X133975634Y-92809522D01*
X133735263Y-92709957D01*
X133480087Y-92659200D01*
X133219913Y-92659200D01*
X132964737Y-92709957D01*
X132724366Y-92809522D01*
X132508039Y-92954067D01*
X132324067Y-93138039D01*
X132179522Y-93354366D01*
X132080000Y-93594633D01*
X131980478Y-93354366D01*
X131835933Y-93138039D01*
X131651961Y-92954067D01*
X131435634Y-92809522D01*
X131195263Y-92709957D01*
X130940087Y-92659200D01*
X130679913Y-92659200D01*
X130424737Y-92709957D01*
X130184366Y-92809522D01*
X129968039Y-92954067D01*
X129784067Y-93138039D01*
X129639522Y-93354366D01*
X129540000Y-93594633D01*
X129440478Y-93354366D01*
X129295933Y-93138039D01*
X129111961Y-92954067D01*
X128895634Y-92809522D01*
X128655263Y-92709957D01*
X128400087Y-92659200D01*
X128139913Y-92659200D01*
X127884737Y-92709957D01*
X127644366Y-92809522D01*
X127428039Y-92954067D01*
X127244067Y-93138039D01*
X127099522Y-93354366D01*
X127000000Y-93594633D01*
X126900478Y-93354366D01*
X126755933Y-93138039D01*
X126571961Y-92954067D01*
X126355634Y-92809522D01*
X126115263Y-92709957D01*
X125860087Y-92659200D01*
X125599913Y-92659200D01*
X125344737Y-92709957D01*
X125104366Y-92809522D01*
X124888039Y-92954067D01*
X124704067Y-93138039D01*
X124559522Y-93354366D01*
X124460000Y-93594633D01*
X124360478Y-93354366D01*
X124215933Y-93138039D01*
X124031961Y-92954067D01*
X123815634Y-92809522D01*
X123575263Y-92709957D01*
X123320087Y-92659200D01*
X123059913Y-92659200D01*
X122804737Y-92709957D01*
X122564366Y-92809522D01*
X122348039Y-92954067D01*
X122164067Y-93138039D01*
X122068096Y-93281670D01*
X122000723Y-93155623D01*
X121742476Y-93067129D01*
X120829605Y-93980000D01*
X120470395Y-93980000D01*
X119557524Y-93067129D01*
X119299277Y-93155623D01*
X119164403Y-93434976D01*
X119086619Y-93735275D01*
X119068916Y-94044977D01*
X65251000Y-94044977D01*
X65251000Y-92887524D01*
X119737129Y-92887524D01*
X120650000Y-93800395D01*
X121562871Y-92887524D01*
X121474377Y-92629277D01*
X121195024Y-92494403D01*
X120894725Y-92416619D01*
X120585023Y-92398916D01*
X120277816Y-92441973D01*
X119984914Y-92544135D01*
X119825623Y-92629277D01*
X119737129Y-92887524D01*
X65251000Y-92887524D01*
X65251000Y-89430000D01*
X192631928Y-89430000D01*
X192644188Y-89554482D01*
X192680498Y-89674180D01*
X192739463Y-89784494D01*
X192818815Y-89881185D01*
X192915506Y-89960537D01*
X193025820Y-90019502D01*
X193145518Y-90055812D01*
X193270000Y-90068072D01*
X194024250Y-90065000D01*
X194183000Y-89906250D01*
X194183000Y-87757000D01*
X194437000Y-87757000D01*
X194437000Y-89906250D01*
X194595750Y-90065000D01*
X195350000Y-90068072D01*
X195474482Y-90055812D01*
X195594180Y-90019502D01*
X195704494Y-89960537D01*
X195801185Y-89881185D01*
X195880537Y-89784494D01*
X195939502Y-89674180D01*
X195975812Y-89554482D01*
X195988072Y-89430000D01*
X195985000Y-87915750D01*
X195826250Y-87757000D01*
X194437000Y-87757000D01*
X194183000Y-87757000D01*
X192793750Y-87757000D01*
X192635000Y-87915750D01*
X192631928Y-89430000D01*
X65251000Y-89430000D01*
X65251000Y-87452476D01*
X140057129Y-87452476D01*
X140145623Y-87710723D01*
X140424976Y-87845597D01*
X140725275Y-87923381D01*
X141034977Y-87941084D01*
X141342184Y-87898027D01*
X141635086Y-87795865D01*
X141794377Y-87710723D01*
X141882871Y-87452476D01*
X140970000Y-86539605D01*
X140057129Y-87452476D01*
X65251000Y-87452476D01*
X65251000Y-86424977D01*
X139388916Y-86424977D01*
X139431973Y-86732184D01*
X139534135Y-87025086D01*
X139619277Y-87184377D01*
X139877524Y-87272871D01*
X140790395Y-86360000D01*
X141149605Y-86360000D01*
X142062476Y-87272871D01*
X142320723Y-87184377D01*
X142384313Y-87052668D01*
X142484067Y-87201961D01*
X142668039Y-87385933D01*
X142884366Y-87530478D01*
X143124737Y-87630043D01*
X143379913Y-87680800D01*
X143640087Y-87680800D01*
X143895263Y-87630043D01*
X144135634Y-87530478D01*
X144351961Y-87385933D01*
X144535933Y-87201961D01*
X144680478Y-86985634D01*
X144780000Y-86745367D01*
X144879522Y-86985634D01*
X145024067Y-87201961D01*
X145208039Y-87385933D01*
X145424366Y-87530478D01*
X145664737Y-87630043D01*
X145919913Y-87680800D01*
X146180087Y-87680800D01*
X146435263Y-87630043D01*
X146675634Y-87530478D01*
X146891961Y-87385933D01*
X147075933Y-87201961D01*
X147220478Y-86985634D01*
X147320000Y-86745367D01*
X147419522Y-86985634D01*
X147564067Y-87201961D01*
X147748039Y-87385933D01*
X147964366Y-87530478D01*
X148204737Y-87630043D01*
X148459913Y-87680800D01*
X148720087Y-87680800D01*
X148975263Y-87630043D01*
X149215634Y-87530478D01*
X149332372Y-87452476D01*
X150217129Y-87452476D01*
X150305623Y-87710723D01*
X150584976Y-87845597D01*
X150885275Y-87923381D01*
X151194977Y-87941084D01*
X151502184Y-87898027D01*
X151795086Y-87795865D01*
X151954377Y-87710723D01*
X152042871Y-87452476D01*
X151130000Y-86539605D01*
X150217129Y-87452476D01*
X149332372Y-87452476D01*
X149431961Y-87385933D01*
X149615933Y-87201961D01*
X149711904Y-87058330D01*
X149779277Y-87184377D01*
X150037524Y-87272871D01*
X150950395Y-86360000D01*
X151309605Y-86360000D01*
X152222476Y-87272871D01*
X152480723Y-87184377D01*
X152544313Y-87052668D01*
X152644067Y-87201961D01*
X152828039Y-87385933D01*
X153044366Y-87530478D01*
X153284737Y-87630043D01*
X153539913Y-87680800D01*
X153800087Y-87680800D01*
X154055263Y-87630043D01*
X154295634Y-87530478D01*
X154511961Y-87385933D01*
X154695933Y-87201961D01*
X154840478Y-86985634D01*
X154940000Y-86745367D01*
X155039522Y-86985634D01*
X155184067Y-87201961D01*
X155368039Y-87385933D01*
X155584366Y-87530478D01*
X155824737Y-87630043D01*
X156079913Y-87680800D01*
X156340087Y-87680800D01*
X156595263Y-87630043D01*
X156835634Y-87530478D01*
X157051961Y-87385933D01*
X157235933Y-87201961D01*
X157380478Y-86985634D01*
X157480000Y-86745367D01*
X157579522Y-86985634D01*
X157724067Y-87201961D01*
X157908039Y-87385933D01*
X158124366Y-87530478D01*
X158364737Y-87630043D01*
X158619913Y-87680800D01*
X158880087Y-87680800D01*
X159135263Y-87630043D01*
X159375634Y-87530478D01*
X159591961Y-87385933D01*
X159775933Y-87201961D01*
X159920478Y-86985634D01*
X160020000Y-86745367D01*
X160119522Y-86985634D01*
X160264067Y-87201961D01*
X160448039Y-87385933D01*
X160664366Y-87530478D01*
X160904737Y-87630043D01*
X161159913Y-87680800D01*
X161420087Y-87680800D01*
X161675263Y-87630043D01*
X161915634Y-87530478D01*
X162131961Y-87385933D01*
X162315933Y-87201961D01*
X162460478Y-86985634D01*
X162560043Y-86745263D01*
X162610800Y-86490087D01*
X162610800Y-86229913D01*
X162560043Y-85974737D01*
X162500091Y-85830000D01*
X192631928Y-85830000D01*
X192635000Y-87344250D01*
X192793750Y-87503000D01*
X194183000Y-87503000D01*
X194183000Y-85353750D01*
X194437000Y-85353750D01*
X194437000Y-87503000D01*
X195826250Y-87503000D01*
X195985000Y-87344250D01*
X195986103Y-86800197D01*
X197969000Y-86800197D01*
X197969000Y-88459804D01*
X197989561Y-88668565D01*
X198070817Y-88936424D01*
X198202766Y-89183285D01*
X198380341Y-89399660D01*
X198596716Y-89577235D01*
X198843577Y-89709184D01*
X199111436Y-89790439D01*
X199390000Y-89817875D01*
X199668565Y-89790439D01*
X199936424Y-89709184D01*
X200183285Y-89577235D01*
X200399660Y-89399660D01*
X200577235Y-89183285D01*
X200709184Y-88936424D01*
X200790439Y-88668565D01*
X200811000Y-88459804D01*
X200811000Y-86800196D01*
X200790439Y-86591435D01*
X200709184Y-86323576D01*
X200577235Y-86076715D01*
X200399659Y-85860340D01*
X200183284Y-85682765D01*
X199936423Y-85550816D01*
X199668564Y-85469561D01*
X199390000Y-85442125D01*
X199111435Y-85469561D01*
X198843576Y-85550816D01*
X198596715Y-85682765D01*
X198380340Y-85860341D01*
X198202765Y-86076716D01*
X198070816Y-86323577D01*
X197989561Y-86591436D01*
X197969000Y-86800197D01*
X195986103Y-86800197D01*
X195988072Y-85830000D01*
X195975812Y-85705518D01*
X195939502Y-85585820D01*
X195880537Y-85475506D01*
X195801185Y-85378815D01*
X195704494Y-85299463D01*
X195594180Y-85240498D01*
X195474482Y-85204188D01*
X195350000Y-85191928D01*
X194595750Y-85195000D01*
X194437000Y-85353750D01*
X194183000Y-85353750D01*
X194024250Y-85195000D01*
X193270000Y-85191928D01*
X193145518Y-85204188D01*
X193025820Y-85240498D01*
X192915506Y-85299463D01*
X192818815Y-85378815D01*
X192739463Y-85475506D01*
X192680498Y-85585820D01*
X192644188Y-85705518D01*
X192631928Y-85830000D01*
X162500091Y-85830000D01*
X162460478Y-85734366D01*
X162315933Y-85518039D01*
X162131961Y-85334067D01*
X161915634Y-85189522D01*
X161675263Y-85089957D01*
X161420087Y-85039200D01*
X161159913Y-85039200D01*
X160904737Y-85089957D01*
X160664366Y-85189522D01*
X160448039Y-85334067D01*
X160264067Y-85518039D01*
X160119522Y-85734366D01*
X160020000Y-85974633D01*
X159920478Y-85734366D01*
X159775933Y-85518039D01*
X159591961Y-85334067D01*
X159375634Y-85189522D01*
X159135263Y-85089957D01*
X158880087Y-85039200D01*
X158619913Y-85039200D01*
X158364737Y-85089957D01*
X158124366Y-85189522D01*
X157908039Y-85334067D01*
X157724067Y-85518039D01*
X157579522Y-85734366D01*
X157480000Y-85974633D01*
X157380478Y-85734366D01*
X157235933Y-85518039D01*
X157051961Y-85334067D01*
X156835634Y-85189522D01*
X156595263Y-85089957D01*
X156340087Y-85039200D01*
X156079913Y-85039200D01*
X155824737Y-85089957D01*
X155584366Y-85189522D01*
X155368039Y-85334067D01*
X155184067Y-85518039D01*
X155039522Y-85734366D01*
X154940000Y-85974633D01*
X154840478Y-85734366D01*
X154695933Y-85518039D01*
X154511961Y-85334067D01*
X154295634Y-85189522D01*
X154055263Y-85089957D01*
X153800087Y-85039200D01*
X153539913Y-85039200D01*
X153284737Y-85089957D01*
X153044366Y-85189522D01*
X152828039Y-85334067D01*
X152644067Y-85518039D01*
X152548096Y-85661670D01*
X152480723Y-85535623D01*
X152222476Y-85447129D01*
X151309605Y-86360000D01*
X150950395Y-86360000D01*
X150037524Y-85447129D01*
X149779277Y-85535623D01*
X149715687Y-85667332D01*
X149615933Y-85518039D01*
X149431961Y-85334067D01*
X149332373Y-85267524D01*
X150217129Y-85267524D01*
X151130000Y-86180395D01*
X152042871Y-85267524D01*
X151954377Y-85009277D01*
X151675024Y-84874403D01*
X151374725Y-84796619D01*
X151065023Y-84778916D01*
X150757816Y-84821973D01*
X150464914Y-84924135D01*
X150305623Y-85009277D01*
X150217129Y-85267524D01*
X149332373Y-85267524D01*
X149215634Y-85189522D01*
X148975263Y-85089957D01*
X148720087Y-85039200D01*
X148459913Y-85039200D01*
X148204737Y-85089957D01*
X147964366Y-85189522D01*
X147748039Y-85334067D01*
X147564067Y-85518039D01*
X147419522Y-85734366D01*
X147320000Y-85974633D01*
X147220478Y-85734366D01*
X147075933Y-85518039D01*
X146891961Y-85334067D01*
X146675634Y-85189522D01*
X146435263Y-85089957D01*
X146180087Y-85039200D01*
X145919913Y-85039200D01*
X145664737Y-85089957D01*
X145424366Y-85189522D01*
X145208039Y-85334067D01*
X145024067Y-85518039D01*
X144879522Y-85734366D01*
X144780000Y-85974633D01*
X144680478Y-85734366D01*
X144535933Y-85518039D01*
X144351961Y-85334067D01*
X144135634Y-85189522D01*
X143895263Y-85089957D01*
X143640087Y-85039200D01*
X143379913Y-85039200D01*
X143124737Y-85089957D01*
X142884366Y-85189522D01*
X142668039Y-85334067D01*
X142484067Y-85518039D01*
X142388096Y-85661670D01*
X142320723Y-85535623D01*
X142062476Y-85447129D01*
X141149605Y-86360000D01*
X140790395Y-86360000D01*
X139877524Y-85447129D01*
X139619277Y-85535623D01*
X139484403Y-85814976D01*
X139406619Y-86115275D01*
X139388916Y-86424977D01*
X65251000Y-86424977D01*
X65251000Y-85267524D01*
X140057129Y-85267524D01*
X140970000Y-86180395D01*
X141882871Y-85267524D01*
X141794377Y-85009277D01*
X141515024Y-84874403D01*
X141214725Y-84796619D01*
X140905023Y-84778916D01*
X140597816Y-84821973D01*
X140304914Y-84924135D01*
X140145623Y-85009277D01*
X140057129Y-85267524D01*
X65251000Y-85267524D01*
X65251000Y-68929040D01*
X182758091Y-68929040D01*
X182852930Y-69193881D01*
X182997615Y-69435131D01*
X183186586Y-69643519D01*
X183412580Y-69811037D01*
X183666913Y-69931246D01*
X183800961Y-69971904D01*
X184023000Y-69849915D01*
X184023000Y-68707000D01*
X184277000Y-68707000D01*
X184277000Y-69849915D01*
X184499039Y-69971904D01*
X184633087Y-69931246D01*
X184887420Y-69811037D01*
X185113414Y-69643519D01*
X185302385Y-69435131D01*
X185447070Y-69193881D01*
X185541909Y-68929040D01*
X185420624Y-68707000D01*
X184277000Y-68707000D01*
X184023000Y-68707000D01*
X182879376Y-68707000D01*
X182758091Y-68929040D01*
X65251000Y-68929040D01*
X65251000Y-64639913D01*
X116154200Y-64639913D01*
X116154200Y-64900087D01*
X116204957Y-65155263D01*
X116304522Y-65395634D01*
X116449067Y-65611961D01*
X116633039Y-65795933D01*
X116849366Y-65940478D01*
X117089633Y-66040000D01*
X116849366Y-66139522D01*
X116633039Y-66284067D01*
X116449067Y-66468039D01*
X116304522Y-66684366D01*
X116204957Y-66924737D01*
X116154200Y-67179913D01*
X116154200Y-67440087D01*
X116204957Y-67695263D01*
X116304522Y-67935634D01*
X116449067Y-68151961D01*
X116633039Y-68335933D01*
X116849366Y-68480478D01*
X117089737Y-68580043D01*
X117344913Y-68630800D01*
X117605087Y-68630800D01*
X117860263Y-68580043D01*
X118100634Y-68480478D01*
X118125771Y-68463682D01*
X186779000Y-68463682D01*
X186779000Y-68696318D01*
X186824386Y-68924485D01*
X186913412Y-69139413D01*
X187042658Y-69332843D01*
X187207157Y-69497342D01*
X187400587Y-69626588D01*
X187615515Y-69715614D01*
X187843682Y-69761000D01*
X188076318Y-69761000D01*
X188304485Y-69715614D01*
X188519413Y-69626588D01*
X188712843Y-69497342D01*
X188877342Y-69332843D01*
X189006588Y-69139413D01*
X189095614Y-68924485D01*
X189141000Y-68696318D01*
X189141000Y-68463682D01*
X189139257Y-68454916D01*
X191770000Y-68454916D01*
X191770000Y-68705084D01*
X191818805Y-68950445D01*
X191914541Y-69181571D01*
X192053527Y-69389578D01*
X192230422Y-69566473D01*
X192438429Y-69705459D01*
X192669555Y-69801195D01*
X192914916Y-69850000D01*
X193165084Y-69850000D01*
X193410445Y-69801195D01*
X193641571Y-69705459D01*
X193849578Y-69566473D01*
X194026473Y-69389578D01*
X194053539Y-69349071D01*
X194052928Y-69469000D01*
X194065188Y-69593482D01*
X194101498Y-69713180D01*
X194160463Y-69823494D01*
X194239815Y-69920185D01*
X194336506Y-69999537D01*
X194446820Y-70058502D01*
X194566518Y-70094812D01*
X194691000Y-70107072D01*
X195294250Y-70104000D01*
X195453000Y-69945250D01*
X195453000Y-68707000D01*
X195433000Y-68707000D01*
X195433000Y-68453000D01*
X195453000Y-68453000D01*
X195453000Y-67214750D01*
X195707000Y-67214750D01*
X195707000Y-68453000D01*
X195727000Y-68453000D01*
X195727000Y-68707000D01*
X195707000Y-68707000D01*
X195707000Y-69945250D01*
X195865750Y-70104000D01*
X196469000Y-70107072D01*
X196593482Y-70094812D01*
X196713180Y-70058502D01*
X196823494Y-69999537D01*
X196920185Y-69920185D01*
X196999537Y-69823494D01*
X197058502Y-69713180D01*
X197094812Y-69593482D01*
X197107072Y-69469000D01*
X197106461Y-69349071D01*
X197133527Y-69389578D01*
X197310422Y-69566473D01*
X197518429Y-69705459D01*
X197749555Y-69801195D01*
X197994916Y-69850000D01*
X198245084Y-69850000D01*
X198490445Y-69801195D01*
X198721571Y-69705459D01*
X198929578Y-69566473D01*
X199106473Y-69389578D01*
X199245459Y-69181571D01*
X199341195Y-68950445D01*
X199390000Y-68705084D01*
X199438805Y-68950445D01*
X199534541Y-69181571D01*
X199673527Y-69389578D01*
X199850422Y-69566473D01*
X200058429Y-69705459D01*
X200289555Y-69801195D01*
X200534916Y-69850000D01*
X200785084Y-69850000D01*
X201030445Y-69801195D01*
X201261571Y-69705459D01*
X201469578Y-69566473D01*
X201646473Y-69389578D01*
X201785459Y-69181571D01*
X201881195Y-68950445D01*
X201930000Y-68705084D01*
X201930000Y-68454916D01*
X201881195Y-68209555D01*
X201785459Y-67978429D01*
X201646473Y-67770422D01*
X201469578Y-67593527D01*
X201261571Y-67454541D01*
X201030445Y-67358805D01*
X200785084Y-67310000D01*
X200534916Y-67310000D01*
X200289555Y-67358805D01*
X200058429Y-67454541D01*
X199850422Y-67593527D01*
X199673527Y-67770422D01*
X199534541Y-67978429D01*
X199438805Y-68209555D01*
X199390000Y-68454916D01*
X199341195Y-68209555D01*
X199245459Y-67978429D01*
X199106473Y-67770422D01*
X198929578Y-67593527D01*
X198721571Y-67454541D01*
X198490445Y-67358805D01*
X198245084Y-67310000D01*
X197994916Y-67310000D01*
X197749555Y-67358805D01*
X197518429Y-67454541D01*
X197310422Y-67593527D01*
X197133527Y-67770422D01*
X197106461Y-67810929D01*
X197107072Y-67691000D01*
X197094812Y-67566518D01*
X197058502Y-67446820D01*
X196999537Y-67336506D01*
X196920185Y-67239815D01*
X196823494Y-67160463D01*
X196713180Y-67101498D01*
X196593482Y-67065188D01*
X196469000Y-67052928D01*
X195865750Y-67056000D01*
X195707000Y-67214750D01*
X195453000Y-67214750D01*
X195294250Y-67056000D01*
X194691000Y-67052928D01*
X194566518Y-67065188D01*
X194446820Y-67101498D01*
X194336506Y-67160463D01*
X194239815Y-67239815D01*
X194160463Y-67336506D01*
X194101498Y-67446820D01*
X194065188Y-67566518D01*
X194052928Y-67691000D01*
X194053539Y-67810929D01*
X194026473Y-67770422D01*
X193849578Y-67593527D01*
X193641571Y-67454541D01*
X193410445Y-67358805D01*
X193165084Y-67310000D01*
X192914916Y-67310000D01*
X192669555Y-67358805D01*
X192438429Y-67454541D01*
X192230422Y-67593527D01*
X192053527Y-67770422D01*
X191914541Y-67978429D01*
X191818805Y-68209555D01*
X191770000Y-68454916D01*
X189139257Y-68454916D01*
X189095614Y-68235515D01*
X189006588Y-68020587D01*
X188877342Y-67827157D01*
X188712843Y-67662658D01*
X188519413Y-67533412D01*
X188304485Y-67444386D01*
X188076318Y-67399000D01*
X187843682Y-67399000D01*
X187615515Y-67444386D01*
X187400587Y-67533412D01*
X187207157Y-67662658D01*
X187042658Y-67827157D01*
X186913412Y-68020587D01*
X186824386Y-68235515D01*
X186779000Y-68463682D01*
X118125771Y-68463682D01*
X118316961Y-68335933D01*
X118421934Y-68230960D01*
X182758091Y-68230960D01*
X182879376Y-68453000D01*
X184023000Y-68453000D01*
X184023000Y-67310085D01*
X184277000Y-67310085D01*
X184277000Y-68453000D01*
X185420624Y-68453000D01*
X185541909Y-68230960D01*
X185447070Y-67966119D01*
X185302385Y-67724869D01*
X185113414Y-67516481D01*
X184887420Y-67348963D01*
X184633087Y-67228754D01*
X184499039Y-67188096D01*
X184277000Y-67310085D01*
X184023000Y-67310085D01*
X183800961Y-67188096D01*
X183666913Y-67228754D01*
X183412580Y-67348963D01*
X183186586Y-67516481D01*
X182997615Y-67724869D01*
X182852930Y-67966119D01*
X182758091Y-68230960D01*
X118421934Y-68230960D01*
X118500933Y-68151961D01*
X118645478Y-67935634D01*
X118745043Y-67695263D01*
X118795800Y-67440087D01*
X118795800Y-67179913D01*
X118745043Y-66924737D01*
X118645478Y-66684366D01*
X118500933Y-66468039D01*
X118316961Y-66284067D01*
X118100634Y-66139522D01*
X117860367Y-66040000D01*
X118100634Y-65940478D01*
X118316961Y-65795933D01*
X118390192Y-65722702D01*
X179526903Y-65722702D01*
X179598486Y-65966671D01*
X179853996Y-66087571D01*
X180128184Y-66156300D01*
X180410512Y-66170217D01*
X180690130Y-66128787D01*
X180956292Y-66033603D01*
X181081514Y-65966671D01*
X181153097Y-65722702D01*
X180340000Y-64909605D01*
X179526903Y-65722702D01*
X118390192Y-65722702D01*
X118500933Y-65611961D01*
X118645478Y-65395634D01*
X118745043Y-65155263D01*
X118795800Y-64900087D01*
X118795800Y-64800512D01*
X178899783Y-64800512D01*
X178941213Y-65080130D01*
X179036397Y-65346292D01*
X179103329Y-65471514D01*
X179347298Y-65543097D01*
X180160395Y-64730000D01*
X180519605Y-64730000D01*
X181332702Y-65543097D01*
X181576671Y-65471514D01*
X181697571Y-65216004D01*
X181766300Y-64941816D01*
X181780217Y-64659488D01*
X181738787Y-64379870D01*
X181643603Y-64113708D01*
X181576671Y-63988486D01*
X181332702Y-63916903D01*
X180519605Y-64730000D01*
X180160395Y-64730000D01*
X179347298Y-63916903D01*
X179103329Y-63988486D01*
X178982429Y-64243996D01*
X178913700Y-64518184D01*
X178899783Y-64800512D01*
X118795800Y-64800512D01*
X118795800Y-64639913D01*
X118745043Y-64384737D01*
X118645478Y-64144366D01*
X118500933Y-63928039D01*
X118316961Y-63744067D01*
X118100634Y-63599522D01*
X117860263Y-63499957D01*
X117605087Y-63449200D01*
X117344913Y-63449200D01*
X117089737Y-63499957D01*
X116849366Y-63599522D01*
X116633039Y-63744067D01*
X116449067Y-63928039D01*
X116304522Y-64144366D01*
X116204957Y-64384737D01*
X116154200Y-64639913D01*
X65251000Y-64639913D01*
X65251000Y-62113682D01*
X179159000Y-62113682D01*
X179159000Y-62346318D01*
X179204386Y-62574485D01*
X179293412Y-62789413D01*
X179422658Y-62982843D01*
X179587157Y-63147342D01*
X179780587Y-63276588D01*
X179948329Y-63346069D01*
X179723708Y-63426397D01*
X179598486Y-63493329D01*
X179526903Y-63737298D01*
X180340000Y-64550395D01*
X181153097Y-63737298D01*
X181081514Y-63493329D01*
X180826004Y-63372429D01*
X180727589Y-63347760D01*
X180899413Y-63276588D01*
X181092843Y-63147342D01*
X181257342Y-62982843D01*
X181386588Y-62789413D01*
X181475614Y-62574485D01*
X181521000Y-62346318D01*
X181521000Y-62113682D01*
X181475614Y-61885515D01*
X181386588Y-61670587D01*
X181257342Y-61477157D01*
X181092843Y-61312658D01*
X180899413Y-61183412D01*
X180684485Y-61094386D01*
X180456318Y-61049000D01*
X180223682Y-61049000D01*
X179995515Y-61094386D01*
X179780587Y-61183412D01*
X179587157Y-61312658D01*
X179422658Y-61477157D01*
X179293412Y-61670587D01*
X179204386Y-61885515D01*
X179159000Y-62113682D01*
X65251000Y-62113682D01*
X65251000Y-58303682D01*
X182969000Y-58303682D01*
X182969000Y-58536318D01*
X183014386Y-58764485D01*
X183103412Y-58979413D01*
X183232658Y-59172843D01*
X183397157Y-59337342D01*
X183590587Y-59466588D01*
X183805515Y-59555614D01*
X184033682Y-59601000D01*
X184266318Y-59601000D01*
X184494485Y-59555614D01*
X184709413Y-59466588D01*
X184902843Y-59337342D01*
X185067342Y-59172843D01*
X185196588Y-58979413D01*
X185285614Y-58764485D01*
X185331000Y-58536318D01*
X185331000Y-58303682D01*
X186779000Y-58303682D01*
X186779000Y-58536318D01*
X186824386Y-58764485D01*
X186913412Y-58979413D01*
X187042658Y-59172843D01*
X187207157Y-59337342D01*
X187400587Y-59466588D01*
X187615515Y-59555614D01*
X187843682Y-59601000D01*
X188076318Y-59601000D01*
X188304485Y-59555614D01*
X188519413Y-59466588D01*
X188712843Y-59337342D01*
X188877342Y-59172843D01*
X189006588Y-58979413D01*
X189095614Y-58764485D01*
X189141000Y-58536318D01*
X189141000Y-58303682D01*
X189095614Y-58075515D01*
X189006588Y-57860587D01*
X188877342Y-57667157D01*
X188712843Y-57502658D01*
X188519413Y-57373412D01*
X188304485Y-57284386D01*
X188076318Y-57239000D01*
X187843682Y-57239000D01*
X187615515Y-57284386D01*
X187400587Y-57373412D01*
X187207157Y-57502658D01*
X187042658Y-57667157D01*
X186913412Y-57860587D01*
X186824386Y-58075515D01*
X186779000Y-58303682D01*
X185331000Y-58303682D01*
X185285614Y-58075515D01*
X185196588Y-57860587D01*
X185067342Y-57667157D01*
X184902843Y-57502658D01*
X184709413Y-57373412D01*
X184494485Y-57284386D01*
X184266318Y-57239000D01*
X184033682Y-57239000D01*
X183805515Y-57284386D01*
X183590587Y-57373412D01*
X183397157Y-57502658D01*
X183232658Y-57667157D01*
X183103412Y-57860587D01*
X183014386Y-58075515D01*
X182969000Y-58303682D01*
X65251000Y-58303682D01*
X65251000Y-52757441D01*
X70339164Y-52757441D01*
X70362019Y-52960736D01*
X70549184Y-53041577D01*
X70748523Y-53084351D01*
X70952377Y-53087413D01*
X71152912Y-53050647D01*
X71342420Y-52975466D01*
X71369981Y-52960736D01*
X71392836Y-52757441D01*
X70866000Y-52230605D01*
X70339164Y-52757441D01*
X65251000Y-52757441D01*
X65251000Y-51944662D01*
X68376943Y-51944662D01*
X68399798Y-52147957D01*
X68586963Y-52228798D01*
X68786302Y-52271572D01*
X68990156Y-52274634D01*
X69190691Y-52237868D01*
X69380199Y-52162687D01*
X69407760Y-52147957D01*
X69408949Y-52137377D01*
X69829587Y-52137377D01*
X69866353Y-52337912D01*
X69941534Y-52527420D01*
X69956264Y-52554981D01*
X70159559Y-52577836D01*
X70686395Y-52051000D01*
X71045605Y-52051000D01*
X71572441Y-52577836D01*
X71775736Y-52554981D01*
X71856577Y-52367816D01*
X71899351Y-52168477D01*
X71902413Y-51964623D01*
X71898754Y-51944662D01*
X72301385Y-51944662D01*
X72324240Y-52147957D01*
X72511405Y-52228798D01*
X72710744Y-52271572D01*
X72914598Y-52274634D01*
X73115133Y-52237868D01*
X73304641Y-52162687D01*
X73332202Y-52147957D01*
X73355057Y-51944662D01*
X72828221Y-51417826D01*
X72301385Y-51944662D01*
X71898754Y-51944662D01*
X71865647Y-51764088D01*
X71790466Y-51574580D01*
X71775736Y-51547019D01*
X71572441Y-51524164D01*
X71045605Y-52051000D01*
X70686395Y-52051000D01*
X70159559Y-51524164D01*
X69956264Y-51547019D01*
X69875423Y-51734184D01*
X69832649Y-51933523D01*
X69829587Y-52137377D01*
X69408949Y-52137377D01*
X69430615Y-51944662D01*
X68903779Y-51417826D01*
X68376943Y-51944662D01*
X65251000Y-51944662D01*
X65251000Y-51324598D01*
X67867366Y-51324598D01*
X67904132Y-51525133D01*
X67979313Y-51714641D01*
X67994043Y-51742202D01*
X68197338Y-51765057D01*
X68724174Y-51238221D01*
X69083384Y-51238221D01*
X69610220Y-51765057D01*
X69813515Y-51742202D01*
X69894356Y-51555037D01*
X69937130Y-51355698D01*
X69937297Y-51344559D01*
X70339164Y-51344559D01*
X70866000Y-51871395D01*
X71392836Y-51344559D01*
X71390592Y-51324598D01*
X71791808Y-51324598D01*
X71828574Y-51525133D01*
X71903755Y-51714641D01*
X71918485Y-51742202D01*
X72121780Y-51765057D01*
X72648616Y-51238221D01*
X73007826Y-51238221D01*
X73534662Y-51765057D01*
X73737957Y-51742202D01*
X73818798Y-51555037D01*
X73861572Y-51355698D01*
X73864634Y-51151844D01*
X73827868Y-50951309D01*
X73752687Y-50761801D01*
X73737957Y-50734240D01*
X73534662Y-50711385D01*
X73007826Y-51238221D01*
X72648616Y-51238221D01*
X72121780Y-50711385D01*
X71918485Y-50734240D01*
X71837644Y-50921405D01*
X71794870Y-51120744D01*
X71791808Y-51324598D01*
X71390592Y-51324598D01*
X71369981Y-51141264D01*
X71182816Y-51060423D01*
X70983477Y-51017649D01*
X70779623Y-51014587D01*
X70579088Y-51051353D01*
X70389580Y-51126534D01*
X70362019Y-51141264D01*
X70339164Y-51344559D01*
X69937297Y-51344559D01*
X69940192Y-51151844D01*
X69903426Y-50951309D01*
X69828245Y-50761801D01*
X69813515Y-50734240D01*
X69610220Y-50711385D01*
X69083384Y-51238221D01*
X68724174Y-51238221D01*
X68197338Y-50711385D01*
X67994043Y-50734240D01*
X67913202Y-50921405D01*
X67870428Y-51120744D01*
X67867366Y-51324598D01*
X65251000Y-51324598D01*
X65251000Y-50531780D01*
X68376943Y-50531780D01*
X68903779Y-51058616D01*
X69430615Y-50531780D01*
X72301385Y-50531780D01*
X72828221Y-51058616D01*
X73355057Y-50531780D01*
X73332202Y-50328485D01*
X73145037Y-50247644D01*
X72945698Y-50204870D01*
X72741844Y-50201808D01*
X72541309Y-50238574D01*
X72351801Y-50313755D01*
X72324240Y-50328485D01*
X72301385Y-50531780D01*
X69430615Y-50531780D01*
X69407760Y-50328485D01*
X69220595Y-50247644D01*
X69021256Y-50204870D01*
X68817402Y-50201808D01*
X68616867Y-50238574D01*
X68427359Y-50313755D01*
X68399798Y-50328485D01*
X68376943Y-50531780D01*
X65251000Y-50531780D01*
X65251000Y-49982441D01*
X67564164Y-49982441D01*
X67587019Y-50185736D01*
X67774184Y-50266577D01*
X67973523Y-50309351D01*
X68177377Y-50312413D01*
X68377912Y-50275647D01*
X68567420Y-50200466D01*
X68594981Y-50185736D01*
X68617836Y-49982441D01*
X73114164Y-49982441D01*
X73137019Y-50185736D01*
X73324184Y-50266577D01*
X73523523Y-50309351D01*
X73727377Y-50312413D01*
X73927912Y-50275647D01*
X74117420Y-50200466D01*
X74144981Y-50185736D01*
X74167836Y-49982441D01*
X73641000Y-49455605D01*
X73114164Y-49982441D01*
X68617836Y-49982441D01*
X68091000Y-49455605D01*
X67564164Y-49982441D01*
X65251000Y-49982441D01*
X65251000Y-49362377D01*
X67054587Y-49362377D01*
X67091353Y-49562912D01*
X67166534Y-49752420D01*
X67181264Y-49779981D01*
X67384559Y-49802836D01*
X67911395Y-49276000D01*
X68270605Y-49276000D01*
X68797441Y-49802836D01*
X69000736Y-49779981D01*
X69081577Y-49592816D01*
X69124351Y-49393477D01*
X69124818Y-49362377D01*
X72604587Y-49362377D01*
X72641353Y-49562912D01*
X72716534Y-49752420D01*
X72731264Y-49779981D01*
X72934559Y-49802836D01*
X73461395Y-49276000D01*
X73820605Y-49276000D01*
X74347441Y-49802836D01*
X74550736Y-49779981D01*
X74631577Y-49592816D01*
X74674351Y-49393477D01*
X74677413Y-49189623D01*
X74640647Y-48989088D01*
X74565466Y-48799580D01*
X74550736Y-48772019D01*
X74347441Y-48749164D01*
X73820605Y-49276000D01*
X73461395Y-49276000D01*
X72934559Y-48749164D01*
X72731264Y-48772019D01*
X72650423Y-48959184D01*
X72607649Y-49158523D01*
X72604587Y-49362377D01*
X69124818Y-49362377D01*
X69127413Y-49189623D01*
X69090647Y-48989088D01*
X69015466Y-48799580D01*
X69000736Y-48772019D01*
X68797441Y-48749164D01*
X68270605Y-49276000D01*
X67911395Y-49276000D01*
X67384559Y-48749164D01*
X67181264Y-48772019D01*
X67100423Y-48959184D01*
X67057649Y-49158523D01*
X67054587Y-49362377D01*
X65251000Y-49362377D01*
X65251000Y-48569559D01*
X67564164Y-48569559D01*
X68091000Y-49096395D01*
X68617836Y-48569559D01*
X73114164Y-48569559D01*
X73641000Y-49096395D01*
X74167836Y-48569559D01*
X74144981Y-48366264D01*
X73957816Y-48285423D01*
X73758477Y-48242649D01*
X73554623Y-48239587D01*
X73354088Y-48276353D01*
X73164580Y-48351534D01*
X73137019Y-48366264D01*
X73114164Y-48569559D01*
X68617836Y-48569559D01*
X68594981Y-48366264D01*
X68407816Y-48285423D01*
X68208477Y-48242649D01*
X68004623Y-48239587D01*
X67804088Y-48276353D01*
X67614580Y-48351534D01*
X67587019Y-48366264D01*
X67564164Y-48569559D01*
X65251000Y-48569559D01*
X65251000Y-48020220D01*
X68376943Y-48020220D01*
X68399798Y-48223515D01*
X68586963Y-48304356D01*
X68786302Y-48347130D01*
X68990156Y-48350192D01*
X69190691Y-48313426D01*
X69380199Y-48238245D01*
X69407760Y-48223515D01*
X69430615Y-48020220D01*
X72301385Y-48020220D01*
X72324240Y-48223515D01*
X72511405Y-48304356D01*
X72710744Y-48347130D01*
X72914598Y-48350192D01*
X73115133Y-48313426D01*
X73304641Y-48238245D01*
X73332202Y-48223515D01*
X73342725Y-48129913D01*
X111709200Y-48129913D01*
X111709200Y-48390087D01*
X111759957Y-48645263D01*
X111859522Y-48885634D01*
X112004067Y-49101961D01*
X112188039Y-49285933D01*
X112404366Y-49430478D01*
X112644737Y-49530043D01*
X112899913Y-49580800D01*
X113160087Y-49580800D01*
X113415263Y-49530043D01*
X113655634Y-49430478D01*
X113871961Y-49285933D01*
X114055933Y-49101961D01*
X114200478Y-48885634D01*
X114300000Y-48645367D01*
X114399522Y-48885634D01*
X114544067Y-49101961D01*
X114728039Y-49285933D01*
X114944366Y-49430478D01*
X115184737Y-49530043D01*
X115439913Y-49580800D01*
X115700087Y-49580800D01*
X115955263Y-49530043D01*
X116195634Y-49430478D01*
X116411961Y-49285933D01*
X116595933Y-49101961D01*
X116740478Y-48885634D01*
X116840000Y-48645367D01*
X116939522Y-48885634D01*
X117084067Y-49101961D01*
X117268039Y-49285933D01*
X117484366Y-49430478D01*
X117724737Y-49530043D01*
X117979913Y-49580800D01*
X118240087Y-49580800D01*
X118495263Y-49530043D01*
X118735634Y-49430478D01*
X118951961Y-49285933D01*
X119135933Y-49101961D01*
X119280478Y-48885634D01*
X119380000Y-48645367D01*
X119479522Y-48885634D01*
X119624067Y-49101961D01*
X119808039Y-49285933D01*
X120024366Y-49430478D01*
X120264737Y-49530043D01*
X120519913Y-49580800D01*
X120780087Y-49580800D01*
X121035263Y-49530043D01*
X121275634Y-49430478D01*
X121491961Y-49285933D01*
X121675933Y-49101961D01*
X121820478Y-48885634D01*
X121920000Y-48645367D01*
X122019522Y-48885634D01*
X122164067Y-49101961D01*
X122348039Y-49285933D01*
X122564366Y-49430478D01*
X122804737Y-49530043D01*
X123059913Y-49580800D01*
X123320087Y-49580800D01*
X123575263Y-49530043D01*
X123815634Y-49430478D01*
X124031961Y-49285933D01*
X124215933Y-49101961D01*
X124360478Y-48885634D01*
X124460000Y-48645367D01*
X124559522Y-48885634D01*
X124704067Y-49101961D01*
X124888039Y-49285933D01*
X125104366Y-49430478D01*
X125344737Y-49530043D01*
X125599913Y-49580800D01*
X125860087Y-49580800D01*
X126115263Y-49530043D01*
X126355634Y-49430478D01*
X126571961Y-49285933D01*
X126755933Y-49101961D01*
X126900478Y-48885634D01*
X127000000Y-48645367D01*
X127099522Y-48885634D01*
X127244067Y-49101961D01*
X127428039Y-49285933D01*
X127644366Y-49430478D01*
X127884633Y-49530000D01*
X127644366Y-49629522D01*
X127428039Y-49774067D01*
X127244067Y-49958039D01*
X127099522Y-50174366D01*
X126999957Y-50414737D01*
X126949200Y-50669913D01*
X126949200Y-50930087D01*
X126999957Y-51185263D01*
X127099522Y-51425634D01*
X127244067Y-51641961D01*
X127428039Y-51825933D01*
X127644366Y-51970478D01*
X127884737Y-52070043D01*
X128139913Y-52120800D01*
X128400087Y-52120800D01*
X128655263Y-52070043D01*
X128895634Y-51970478D01*
X129111961Y-51825933D01*
X129295933Y-51641961D01*
X129440478Y-51425634D01*
X129540000Y-51185367D01*
X129639522Y-51425634D01*
X129784067Y-51641961D01*
X129968039Y-51825933D01*
X130184366Y-51970478D01*
X130424737Y-52070043D01*
X130679913Y-52120800D01*
X130940087Y-52120800D01*
X131195263Y-52070043D01*
X131435634Y-51970478D01*
X131651961Y-51825933D01*
X131835933Y-51641961D01*
X131980478Y-51425634D01*
X132080000Y-51185367D01*
X132179522Y-51425634D01*
X132324067Y-51641961D01*
X132508039Y-51825933D01*
X132724366Y-51970478D01*
X132964737Y-52070043D01*
X133219913Y-52120800D01*
X133480087Y-52120800D01*
X133735263Y-52070043D01*
X133975634Y-51970478D01*
X134191961Y-51825933D01*
X134375933Y-51641961D01*
X134520478Y-51425634D01*
X134620000Y-51185367D01*
X134719522Y-51425634D01*
X134864067Y-51641961D01*
X135048039Y-51825933D01*
X135264366Y-51970478D01*
X135504737Y-52070043D01*
X135759913Y-52120800D01*
X136020087Y-52120800D01*
X136275263Y-52070043D01*
X136515634Y-51970478D01*
X136731961Y-51825933D01*
X136915933Y-51641961D01*
X137060478Y-51425634D01*
X137160000Y-51185367D01*
X137259522Y-51425634D01*
X137404067Y-51641961D01*
X137588039Y-51825933D01*
X137804366Y-51970478D01*
X138044737Y-52070043D01*
X138299913Y-52120800D01*
X138560087Y-52120800D01*
X138815263Y-52070043D01*
X139055634Y-51970478D01*
X139271961Y-51825933D01*
X139455933Y-51641961D01*
X139600478Y-51425634D01*
X139700000Y-51185367D01*
X139799522Y-51425634D01*
X139944067Y-51641961D01*
X140128039Y-51825933D01*
X140344366Y-51970478D01*
X140584737Y-52070043D01*
X140839913Y-52120800D01*
X141100087Y-52120800D01*
X141355263Y-52070043D01*
X141595634Y-51970478D01*
X141811961Y-51825933D01*
X141995933Y-51641961D01*
X142140478Y-51425634D01*
X142240043Y-51185263D01*
X142290800Y-50930087D01*
X142290800Y-50669913D01*
X142240043Y-50414737D01*
X142140478Y-50174366D01*
X141995933Y-49958039D01*
X141811961Y-49774067D01*
X141668330Y-49678096D01*
X141794377Y-49610723D01*
X141882871Y-49352476D01*
X140970000Y-48439605D01*
X140057129Y-49352476D01*
X140145623Y-49610723D01*
X140277332Y-49674313D01*
X140128039Y-49774067D01*
X139944067Y-49958039D01*
X139799522Y-50174366D01*
X139700000Y-50414633D01*
X139600478Y-50174366D01*
X139455933Y-49958039D01*
X139271961Y-49774067D01*
X139128330Y-49678096D01*
X139254377Y-49610723D01*
X139342871Y-49352476D01*
X138430000Y-48439605D01*
X137517129Y-49352476D01*
X137605623Y-49610723D01*
X137737332Y-49674313D01*
X137588039Y-49774067D01*
X137404067Y-49958039D01*
X137259522Y-50174366D01*
X137160000Y-50414633D01*
X137060478Y-50174366D01*
X136915933Y-49958039D01*
X136731961Y-49774067D01*
X136588330Y-49678096D01*
X136714377Y-49610723D01*
X136802871Y-49352476D01*
X135890000Y-48439605D01*
X134977129Y-49352476D01*
X135065623Y-49610723D01*
X135197332Y-49674313D01*
X135048039Y-49774067D01*
X134864067Y-49958039D01*
X134719522Y-50174366D01*
X134620000Y-50414633D01*
X134520478Y-50174366D01*
X134375933Y-49958039D01*
X134191961Y-49774067D01*
X133975634Y-49629522D01*
X133735367Y-49530000D01*
X133975634Y-49430478D01*
X134191961Y-49285933D01*
X134375933Y-49101961D01*
X134471904Y-48958330D01*
X134539277Y-49084377D01*
X134797524Y-49172871D01*
X135710395Y-48260000D01*
X136069605Y-48260000D01*
X136982476Y-49172871D01*
X137160000Y-49112039D01*
X137337524Y-49172871D01*
X138250395Y-48260000D01*
X138609605Y-48260000D01*
X139522476Y-49172871D01*
X139700000Y-49112039D01*
X139877524Y-49172871D01*
X140790395Y-48260000D01*
X141149605Y-48260000D01*
X142062476Y-49172871D01*
X142320723Y-49084377D01*
X142455597Y-48805024D01*
X142533381Y-48504725D01*
X142551084Y-48195023D01*
X142508027Y-47887816D01*
X142405865Y-47594914D01*
X142320723Y-47435623D01*
X142062476Y-47347129D01*
X141149605Y-48260000D01*
X140790395Y-48260000D01*
X139877524Y-47347129D01*
X139700000Y-47407961D01*
X139522476Y-47347129D01*
X138609605Y-48260000D01*
X138250395Y-48260000D01*
X137337524Y-47347129D01*
X137160000Y-47407961D01*
X136982476Y-47347129D01*
X136069605Y-48260000D01*
X135710395Y-48260000D01*
X134797524Y-47347129D01*
X134539277Y-47435623D01*
X134475687Y-47567332D01*
X134375933Y-47418039D01*
X134191961Y-47234067D01*
X134092373Y-47167524D01*
X134977129Y-47167524D01*
X135890000Y-48080395D01*
X136802871Y-47167524D01*
X137517129Y-47167524D01*
X138430000Y-48080395D01*
X139342871Y-47167524D01*
X140057129Y-47167524D01*
X140970000Y-48080395D01*
X141882871Y-47167524D01*
X141794377Y-46909277D01*
X141515024Y-46774403D01*
X141214725Y-46696619D01*
X140905023Y-46678916D01*
X140597816Y-46721973D01*
X140304914Y-46824135D01*
X140145623Y-46909277D01*
X140057129Y-47167524D01*
X139342871Y-47167524D01*
X139254377Y-46909277D01*
X138975024Y-46774403D01*
X138674725Y-46696619D01*
X138365023Y-46678916D01*
X138057816Y-46721973D01*
X137764914Y-46824135D01*
X137605623Y-46909277D01*
X137517129Y-47167524D01*
X136802871Y-47167524D01*
X136714377Y-46909277D01*
X136435024Y-46774403D01*
X136134725Y-46696619D01*
X135825023Y-46678916D01*
X135517816Y-46721973D01*
X135224914Y-46824135D01*
X135065623Y-46909277D01*
X134977129Y-47167524D01*
X134092373Y-47167524D01*
X133975634Y-47089522D01*
X133735263Y-46989957D01*
X133480087Y-46939200D01*
X133219913Y-46939200D01*
X132964737Y-46989957D01*
X132724366Y-47089522D01*
X132508039Y-47234067D01*
X132324067Y-47418039D01*
X132179522Y-47634366D01*
X132080000Y-47874633D01*
X131980478Y-47634366D01*
X131835933Y-47418039D01*
X131651961Y-47234067D01*
X131435634Y-47089522D01*
X131195263Y-46989957D01*
X130940087Y-46939200D01*
X130679913Y-46939200D01*
X130424737Y-46989957D01*
X130184366Y-47089522D01*
X129968039Y-47234067D01*
X129784067Y-47418039D01*
X129639522Y-47634366D01*
X129540000Y-47874633D01*
X129440478Y-47634366D01*
X129295933Y-47418039D01*
X129111961Y-47234067D01*
X128895634Y-47089522D01*
X128655263Y-46989957D01*
X128400087Y-46939200D01*
X128139913Y-46939200D01*
X127884737Y-46989957D01*
X127644366Y-47089522D01*
X127428039Y-47234067D01*
X127244067Y-47418039D01*
X127099522Y-47634366D01*
X127000000Y-47874633D01*
X126900478Y-47634366D01*
X126755933Y-47418039D01*
X126571961Y-47234067D01*
X126355634Y-47089522D01*
X126115263Y-46989957D01*
X125860087Y-46939200D01*
X125599913Y-46939200D01*
X125344737Y-46989957D01*
X125104366Y-47089522D01*
X124888039Y-47234067D01*
X124704067Y-47418039D01*
X124559522Y-47634366D01*
X124460000Y-47874633D01*
X124360478Y-47634366D01*
X124215933Y-47418039D01*
X124031961Y-47234067D01*
X123815634Y-47089522D01*
X123575263Y-46989957D01*
X123320087Y-46939200D01*
X123059913Y-46939200D01*
X122804737Y-46989957D01*
X122564366Y-47089522D01*
X122348039Y-47234067D01*
X122164067Y-47418039D01*
X122019522Y-47634366D01*
X121920000Y-47874633D01*
X121820478Y-47634366D01*
X121675933Y-47418039D01*
X121491961Y-47234067D01*
X121275634Y-47089522D01*
X121035263Y-46989957D01*
X120780087Y-46939200D01*
X120519913Y-46939200D01*
X120264737Y-46989957D01*
X120024366Y-47089522D01*
X119808039Y-47234067D01*
X119624067Y-47418039D01*
X119479522Y-47634366D01*
X119380000Y-47874633D01*
X119280478Y-47634366D01*
X119135933Y-47418039D01*
X118951961Y-47234067D01*
X118735634Y-47089522D01*
X118495263Y-46989957D01*
X118240087Y-46939200D01*
X117979913Y-46939200D01*
X117724737Y-46989957D01*
X117484366Y-47089522D01*
X117268039Y-47234067D01*
X117084067Y-47418039D01*
X116939522Y-47634366D01*
X116840000Y-47874633D01*
X116740478Y-47634366D01*
X116595933Y-47418039D01*
X116411961Y-47234067D01*
X116195634Y-47089522D01*
X115955263Y-46989957D01*
X115700087Y-46939200D01*
X115439913Y-46939200D01*
X115184737Y-46989957D01*
X114944366Y-47089522D01*
X114728039Y-47234067D01*
X114544067Y-47418039D01*
X114399522Y-47634366D01*
X114300000Y-47874633D01*
X114200478Y-47634366D01*
X114055933Y-47418039D01*
X113871961Y-47234067D01*
X113655634Y-47089522D01*
X113415263Y-46989957D01*
X113160087Y-46939200D01*
X112899913Y-46939200D01*
X112644737Y-46989957D01*
X112404366Y-47089522D01*
X112188039Y-47234067D01*
X112004067Y-47418039D01*
X111859522Y-47634366D01*
X111759957Y-47874737D01*
X111709200Y-48129913D01*
X73342725Y-48129913D01*
X73355057Y-48020220D01*
X72828221Y-47493384D01*
X72301385Y-48020220D01*
X69430615Y-48020220D01*
X68903779Y-47493384D01*
X68376943Y-48020220D01*
X65251000Y-48020220D01*
X65251000Y-47400156D01*
X67867366Y-47400156D01*
X67904132Y-47600691D01*
X67979313Y-47790199D01*
X67994043Y-47817760D01*
X68197338Y-47840615D01*
X68724174Y-47313779D01*
X69083384Y-47313779D01*
X69610220Y-47840615D01*
X69813515Y-47817760D01*
X69894356Y-47630595D01*
X69937130Y-47431256D01*
X69940192Y-47227402D01*
X69936533Y-47207441D01*
X70339164Y-47207441D01*
X70362019Y-47410736D01*
X70549184Y-47491577D01*
X70748523Y-47534351D01*
X70952377Y-47537413D01*
X71152912Y-47500647D01*
X71342420Y-47425466D01*
X71369981Y-47410736D01*
X71371170Y-47400156D01*
X71791808Y-47400156D01*
X71828574Y-47600691D01*
X71903755Y-47790199D01*
X71918485Y-47817760D01*
X72121780Y-47840615D01*
X72648616Y-47313779D01*
X73007826Y-47313779D01*
X73534662Y-47840615D01*
X73737957Y-47817760D01*
X73818798Y-47630595D01*
X73861572Y-47431256D01*
X73864634Y-47227402D01*
X73827868Y-47026867D01*
X73752687Y-46837359D01*
X73737957Y-46809798D01*
X73534662Y-46786943D01*
X73007826Y-47313779D01*
X72648616Y-47313779D01*
X72121780Y-46786943D01*
X71918485Y-46809798D01*
X71837644Y-46996963D01*
X71794870Y-47196302D01*
X71791808Y-47400156D01*
X71371170Y-47400156D01*
X71392836Y-47207441D01*
X70866000Y-46680605D01*
X70339164Y-47207441D01*
X69936533Y-47207441D01*
X69903426Y-47026867D01*
X69828245Y-46837359D01*
X69813515Y-46809798D01*
X69610220Y-46786943D01*
X69083384Y-47313779D01*
X68724174Y-47313779D01*
X68197338Y-46786943D01*
X67994043Y-46809798D01*
X67913202Y-46996963D01*
X67870428Y-47196302D01*
X67867366Y-47400156D01*
X65251000Y-47400156D01*
X65251000Y-46607338D01*
X68376943Y-46607338D01*
X68903779Y-47134174D01*
X69430615Y-46607338D01*
X69428371Y-46587377D01*
X69829587Y-46587377D01*
X69866353Y-46787912D01*
X69941534Y-46977420D01*
X69956264Y-47004981D01*
X70159559Y-47027836D01*
X70686395Y-46501000D01*
X71045605Y-46501000D01*
X71572441Y-47027836D01*
X71775736Y-47004981D01*
X71856577Y-46817816D01*
X71899351Y-46618477D01*
X71899518Y-46607338D01*
X72301385Y-46607338D01*
X72828221Y-47134174D01*
X73355057Y-46607338D01*
X73332202Y-46404043D01*
X73145037Y-46323202D01*
X72945698Y-46280428D01*
X72741844Y-46277366D01*
X72541309Y-46314132D01*
X72351801Y-46389313D01*
X72324240Y-46404043D01*
X72301385Y-46607338D01*
X71899518Y-46607338D01*
X71902413Y-46414623D01*
X71865647Y-46214088D01*
X71790466Y-46024580D01*
X71775736Y-45997019D01*
X71572441Y-45974164D01*
X71045605Y-46501000D01*
X70686395Y-46501000D01*
X70159559Y-45974164D01*
X69956264Y-45997019D01*
X69875423Y-46184184D01*
X69832649Y-46383523D01*
X69829587Y-46587377D01*
X69428371Y-46587377D01*
X69407760Y-46404043D01*
X69220595Y-46323202D01*
X69021256Y-46280428D01*
X68817402Y-46277366D01*
X68616867Y-46314132D01*
X68427359Y-46389313D01*
X68399798Y-46404043D01*
X68376943Y-46607338D01*
X65251000Y-46607338D01*
X65251000Y-45794559D01*
X70339164Y-45794559D01*
X70866000Y-46321395D01*
X71392836Y-45794559D01*
X71369981Y-45591264D01*
X71182816Y-45510423D01*
X70983477Y-45467649D01*
X70779623Y-45464587D01*
X70579088Y-45501353D01*
X70389580Y-45576534D01*
X70362019Y-45591264D01*
X70339164Y-45794559D01*
X65251000Y-45794559D01*
X65251000Y-43661000D01*
X208459400Y-43661000D01*
X208459401Y-139219000D01*
G04 #@! TA.AperFunction,Conductor*
D19*
G36*
X208459401Y-139219000D02*
G01*
X65251000Y-139219000D01*
X65251000Y-137085441D01*
X70339164Y-137085441D01*
X70362019Y-137288736D01*
X70549184Y-137369577D01*
X70748523Y-137412351D01*
X70952377Y-137415413D01*
X71152912Y-137378647D01*
X71342420Y-137303466D01*
X71369981Y-137288736D01*
X71392836Y-137085441D01*
X202317564Y-137085441D01*
X202340419Y-137288736D01*
X202527584Y-137369577D01*
X202726923Y-137412351D01*
X202930777Y-137415413D01*
X203131312Y-137378647D01*
X203320820Y-137303466D01*
X203348381Y-137288736D01*
X203371236Y-137085441D01*
X202844400Y-136558605D01*
X202317564Y-137085441D01*
X71392836Y-137085441D01*
X70866000Y-136558605D01*
X70339164Y-137085441D01*
X65251000Y-137085441D01*
X65251000Y-136272662D01*
X68376943Y-136272662D01*
X68399798Y-136475957D01*
X68586963Y-136556798D01*
X68786302Y-136599572D01*
X68990156Y-136602634D01*
X69190691Y-136565868D01*
X69380199Y-136490687D01*
X69407760Y-136475957D01*
X69408949Y-136465377D01*
X69829587Y-136465377D01*
X69866353Y-136665912D01*
X69941534Y-136855420D01*
X69956264Y-136882981D01*
X70159559Y-136905836D01*
X70686395Y-136379000D01*
X71045605Y-136379000D01*
X71572441Y-136905836D01*
X71775736Y-136882981D01*
X71856577Y-136695816D01*
X71899351Y-136496477D01*
X71902413Y-136292623D01*
X71898754Y-136272662D01*
X72301385Y-136272662D01*
X72324240Y-136475957D01*
X72511405Y-136556798D01*
X72710744Y-136599572D01*
X72914598Y-136602634D01*
X73115133Y-136565868D01*
X73304641Y-136490687D01*
X73332202Y-136475957D01*
X73355057Y-136272662D01*
X200355343Y-136272662D01*
X200378198Y-136475957D01*
X200565363Y-136556798D01*
X200764702Y-136599572D01*
X200968556Y-136602634D01*
X201169091Y-136565868D01*
X201358599Y-136490687D01*
X201386160Y-136475957D01*
X201387349Y-136465377D01*
X201807987Y-136465377D01*
X201844753Y-136665912D01*
X201919934Y-136855420D01*
X201934664Y-136882981D01*
X202137959Y-136905836D01*
X202664795Y-136379000D01*
X203024005Y-136379000D01*
X203550841Y-136905836D01*
X203754136Y-136882981D01*
X203834977Y-136695816D01*
X203877751Y-136496477D01*
X203880813Y-136292623D01*
X203877154Y-136272662D01*
X204279785Y-136272662D01*
X204302640Y-136475957D01*
X204489805Y-136556798D01*
X204689144Y-136599572D01*
X204892998Y-136602634D01*
X205093533Y-136565868D01*
X205283041Y-136490687D01*
X205310602Y-136475957D01*
X205333457Y-136272662D01*
X204806621Y-135745826D01*
X204279785Y-136272662D01*
X203877154Y-136272662D01*
X203844047Y-136092088D01*
X203768866Y-135902580D01*
X203754136Y-135875019D01*
X203550841Y-135852164D01*
X203024005Y-136379000D01*
X202664795Y-136379000D01*
X202137959Y-135852164D01*
X201934664Y-135875019D01*
X201853823Y-136062184D01*
X201811049Y-136261523D01*
X201807987Y-136465377D01*
X201387349Y-136465377D01*
X201409015Y-136272662D01*
X200882179Y-135745826D01*
X200355343Y-136272662D01*
X73355057Y-136272662D01*
X72828221Y-135745826D01*
X72301385Y-136272662D01*
X71898754Y-136272662D01*
X71865647Y-136092088D01*
X71790466Y-135902580D01*
X71775736Y-135875019D01*
X71572441Y-135852164D01*
X71045605Y-136379000D01*
X70686395Y-136379000D01*
X70159559Y-135852164D01*
X69956264Y-135875019D01*
X69875423Y-136062184D01*
X69832649Y-136261523D01*
X69829587Y-136465377D01*
X69408949Y-136465377D01*
X69430615Y-136272662D01*
X68903779Y-135745826D01*
X68376943Y-136272662D01*
X65251000Y-136272662D01*
X65251000Y-135652598D01*
X67867366Y-135652598D01*
X67904132Y-135853133D01*
X67979313Y-136042641D01*
X67994043Y-136070202D01*
X68197338Y-136093057D01*
X68724174Y-135566221D01*
X69083384Y-135566221D01*
X69610220Y-136093057D01*
X69813515Y-136070202D01*
X69894356Y-135883037D01*
X69937130Y-135683698D01*
X69937297Y-135672559D01*
X70339164Y-135672559D01*
X70866000Y-136199395D01*
X71392836Y-135672559D01*
X71390592Y-135652598D01*
X71791808Y-135652598D01*
X71828574Y-135853133D01*
X71903755Y-136042641D01*
X71918485Y-136070202D01*
X72121780Y-136093057D01*
X72648616Y-135566221D01*
X73007826Y-135566221D01*
X73534662Y-136093057D01*
X73737957Y-136070202D01*
X73818798Y-135883037D01*
X73855396Y-135712476D01*
X119737129Y-135712476D01*
X119825623Y-135970723D01*
X120104976Y-136105597D01*
X120405275Y-136183381D01*
X120714977Y-136201084D01*
X121022184Y-136158027D01*
X121315086Y-136055865D01*
X121474377Y-135970723D01*
X121562871Y-135712476D01*
X120650000Y-134799605D01*
X119737129Y-135712476D01*
X73855396Y-135712476D01*
X73861572Y-135683698D01*
X73864634Y-135479844D01*
X73827868Y-135279309D01*
X73752687Y-135089801D01*
X73737957Y-135062240D01*
X73534662Y-135039385D01*
X73007826Y-135566221D01*
X72648616Y-135566221D01*
X72121780Y-135039385D01*
X71918485Y-135062240D01*
X71837644Y-135249405D01*
X71794870Y-135448744D01*
X71791808Y-135652598D01*
X71390592Y-135652598D01*
X71369981Y-135469264D01*
X71182816Y-135388423D01*
X70983477Y-135345649D01*
X70779623Y-135342587D01*
X70579088Y-135379353D01*
X70389580Y-135454534D01*
X70362019Y-135469264D01*
X70339164Y-135672559D01*
X69937297Y-135672559D01*
X69940192Y-135479844D01*
X69903426Y-135279309D01*
X69828245Y-135089801D01*
X69813515Y-135062240D01*
X69610220Y-135039385D01*
X69083384Y-135566221D01*
X68724174Y-135566221D01*
X68197338Y-135039385D01*
X67994043Y-135062240D01*
X67913202Y-135249405D01*
X67870428Y-135448744D01*
X67867366Y-135652598D01*
X65251000Y-135652598D01*
X65251000Y-134859780D01*
X68376943Y-134859780D01*
X68903779Y-135386616D01*
X69430615Y-134859780D01*
X72301385Y-134859780D01*
X72828221Y-135386616D01*
X73355057Y-134859780D01*
X73335406Y-134684977D01*
X119068916Y-134684977D01*
X119111973Y-134992184D01*
X119214135Y-135285086D01*
X119299277Y-135444377D01*
X119557524Y-135532871D01*
X120470395Y-134620000D01*
X120829605Y-134620000D01*
X121742476Y-135532871D01*
X122000723Y-135444377D01*
X122064313Y-135312668D01*
X122164067Y-135461961D01*
X122348039Y-135645933D01*
X122564366Y-135790478D01*
X122804737Y-135890043D01*
X123059913Y-135940800D01*
X123320087Y-135940800D01*
X123575263Y-135890043D01*
X123815634Y-135790478D01*
X124031961Y-135645933D01*
X124215933Y-135461961D01*
X124360478Y-135245634D01*
X124460000Y-135005367D01*
X124559522Y-135245634D01*
X124704067Y-135461961D01*
X124888039Y-135645933D01*
X125104366Y-135790478D01*
X125344737Y-135890043D01*
X125599913Y-135940800D01*
X125860087Y-135940800D01*
X126115263Y-135890043D01*
X126355634Y-135790478D01*
X126571961Y-135645933D01*
X126755933Y-135461961D01*
X126900478Y-135245634D01*
X127000000Y-135005367D01*
X127099522Y-135245634D01*
X127244067Y-135461961D01*
X127428039Y-135645933D01*
X127644366Y-135790478D01*
X127884737Y-135890043D01*
X128139913Y-135940800D01*
X128400087Y-135940800D01*
X128655263Y-135890043D01*
X128895634Y-135790478D01*
X129111961Y-135645933D01*
X129295933Y-135461961D01*
X129440478Y-135245634D01*
X129540000Y-135005367D01*
X129639522Y-135245634D01*
X129784067Y-135461961D01*
X129968039Y-135645933D01*
X130184366Y-135790478D01*
X130424737Y-135890043D01*
X130679913Y-135940800D01*
X130940087Y-135940800D01*
X131195263Y-135890043D01*
X131435634Y-135790478D01*
X131651961Y-135645933D01*
X131835933Y-135461961D01*
X131980478Y-135245634D01*
X132080000Y-135005367D01*
X132179522Y-135245634D01*
X132324067Y-135461961D01*
X132508039Y-135645933D01*
X132724366Y-135790478D01*
X132964737Y-135890043D01*
X133219913Y-135940800D01*
X133480087Y-135940800D01*
X133735263Y-135890043D01*
X133975634Y-135790478D01*
X134191961Y-135645933D01*
X134375933Y-135461961D01*
X134520478Y-135245634D01*
X134620000Y-135005367D01*
X134719522Y-135245634D01*
X134864067Y-135461961D01*
X135048039Y-135645933D01*
X135264366Y-135790478D01*
X135504737Y-135890043D01*
X135759913Y-135940800D01*
X136020087Y-135940800D01*
X136275263Y-135890043D01*
X136515634Y-135790478D01*
X136731961Y-135645933D01*
X136915933Y-135461961D01*
X137060478Y-135245634D01*
X137160000Y-135005367D01*
X137259522Y-135245634D01*
X137404067Y-135461961D01*
X137588039Y-135645933D01*
X137804366Y-135790478D01*
X138044737Y-135890043D01*
X138299913Y-135940800D01*
X138560087Y-135940800D01*
X138815263Y-135890043D01*
X139055634Y-135790478D01*
X139271961Y-135645933D01*
X139455933Y-135461961D01*
X139600478Y-135245634D01*
X139700000Y-135005367D01*
X139799522Y-135245634D01*
X139944067Y-135461961D01*
X140128039Y-135645933D01*
X140344366Y-135790478D01*
X140584737Y-135890043D01*
X140839913Y-135940800D01*
X141100087Y-135940800D01*
X141355263Y-135890043D01*
X141595634Y-135790478D01*
X141811961Y-135645933D01*
X141995933Y-135461961D01*
X142140478Y-135245634D01*
X142240000Y-135005367D01*
X142339522Y-135245634D01*
X142484067Y-135461961D01*
X142668039Y-135645933D01*
X142884366Y-135790478D01*
X143124737Y-135890043D01*
X143379913Y-135940800D01*
X143640087Y-135940800D01*
X143895263Y-135890043D01*
X144135634Y-135790478D01*
X144341986Y-135652598D01*
X199845766Y-135652598D01*
X199882532Y-135853133D01*
X199957713Y-136042641D01*
X199972443Y-136070202D01*
X200175738Y-136093057D01*
X200702574Y-135566221D01*
X201061784Y-135566221D01*
X201588620Y-136093057D01*
X201791915Y-136070202D01*
X201872756Y-135883037D01*
X201915530Y-135683698D01*
X201915697Y-135672559D01*
X202317564Y-135672559D01*
X202844400Y-136199395D01*
X203371236Y-135672559D01*
X203368992Y-135652598D01*
X203770208Y-135652598D01*
X203806974Y-135853133D01*
X203882155Y-136042641D01*
X203896885Y-136070202D01*
X204100180Y-136093057D01*
X204627016Y-135566221D01*
X204986226Y-135566221D01*
X205513062Y-136093057D01*
X205716357Y-136070202D01*
X205797198Y-135883037D01*
X205839972Y-135683698D01*
X205843034Y-135479844D01*
X205806268Y-135279309D01*
X205731087Y-135089801D01*
X205716357Y-135062240D01*
X205513062Y-135039385D01*
X204986226Y-135566221D01*
X204627016Y-135566221D01*
X204100180Y-135039385D01*
X203896885Y-135062240D01*
X203816044Y-135249405D01*
X203773270Y-135448744D01*
X203770208Y-135652598D01*
X203368992Y-135652598D01*
X203348381Y-135469264D01*
X203161216Y-135388423D01*
X202961877Y-135345649D01*
X202758023Y-135342587D01*
X202557488Y-135379353D01*
X202367980Y-135454534D01*
X202340419Y-135469264D01*
X202317564Y-135672559D01*
X201915697Y-135672559D01*
X201918592Y-135479844D01*
X201881826Y-135279309D01*
X201806645Y-135089801D01*
X201791915Y-135062240D01*
X201588620Y-135039385D01*
X201061784Y-135566221D01*
X200702574Y-135566221D01*
X200175738Y-135039385D01*
X199972443Y-135062240D01*
X199891602Y-135249405D01*
X199848828Y-135448744D01*
X199845766Y-135652598D01*
X144341986Y-135652598D01*
X144351961Y-135645933D01*
X144535933Y-135461961D01*
X144680478Y-135245634D01*
X144780043Y-135005263D01*
X144808980Y-134859780D01*
X200355343Y-134859780D01*
X200882179Y-135386616D01*
X201409015Y-134859780D01*
X204279785Y-134859780D01*
X204806621Y-135386616D01*
X205333457Y-134859780D01*
X205310602Y-134656485D01*
X205123437Y-134575644D01*
X204924098Y-134532870D01*
X204720244Y-134529808D01*
X204519709Y-134566574D01*
X204330201Y-134641755D01*
X204302640Y-134656485D01*
X204279785Y-134859780D01*
X201409015Y-134859780D01*
X201386160Y-134656485D01*
X201198995Y-134575644D01*
X200999656Y-134532870D01*
X200795802Y-134529808D01*
X200595267Y-134566574D01*
X200405759Y-134641755D01*
X200378198Y-134656485D01*
X200355343Y-134859780D01*
X144808980Y-134859780D01*
X144830800Y-134750087D01*
X144830800Y-134489913D01*
X144795102Y-134310441D01*
X199542564Y-134310441D01*
X199565419Y-134513736D01*
X199752584Y-134594577D01*
X199951923Y-134637351D01*
X200155777Y-134640413D01*
X200356312Y-134603647D01*
X200545820Y-134528466D01*
X200573381Y-134513736D01*
X200596236Y-134310441D01*
X205092564Y-134310441D01*
X205115419Y-134513736D01*
X205302584Y-134594577D01*
X205501923Y-134637351D01*
X205705777Y-134640413D01*
X205906312Y-134603647D01*
X206095820Y-134528466D01*
X206123381Y-134513736D01*
X206146236Y-134310441D01*
X205619400Y-133783605D01*
X205092564Y-134310441D01*
X200596236Y-134310441D01*
X200069400Y-133783605D01*
X199542564Y-134310441D01*
X144795102Y-134310441D01*
X144780043Y-134234737D01*
X144680478Y-133994366D01*
X144535933Y-133778039D01*
X144448271Y-133690377D01*
X199032987Y-133690377D01*
X199069753Y-133890912D01*
X199144934Y-134080420D01*
X199159664Y-134107981D01*
X199362959Y-134130836D01*
X199889795Y-133604000D01*
X200249005Y-133604000D01*
X200775841Y-134130836D01*
X200979136Y-134107981D01*
X201059977Y-133920816D01*
X201102751Y-133721477D01*
X201103218Y-133690377D01*
X204582987Y-133690377D01*
X204619753Y-133890912D01*
X204694934Y-134080420D01*
X204709664Y-134107981D01*
X204912959Y-134130836D01*
X205439795Y-133604000D01*
X205799005Y-133604000D01*
X206325841Y-134130836D01*
X206529136Y-134107981D01*
X206609977Y-133920816D01*
X206652751Y-133721477D01*
X206655813Y-133517623D01*
X206619047Y-133317088D01*
X206543866Y-133127580D01*
X206529136Y-133100019D01*
X206325841Y-133077164D01*
X205799005Y-133604000D01*
X205439795Y-133604000D01*
X204912959Y-133077164D01*
X204709664Y-133100019D01*
X204628823Y-133287184D01*
X204586049Y-133486523D01*
X204582987Y-133690377D01*
X201103218Y-133690377D01*
X201105813Y-133517623D01*
X201069047Y-133317088D01*
X200993866Y-133127580D01*
X200979136Y-133100019D01*
X200775841Y-133077164D01*
X200249005Y-133604000D01*
X199889795Y-133604000D01*
X199362959Y-133077164D01*
X199159664Y-133100019D01*
X199078823Y-133287184D01*
X199036049Y-133486523D01*
X199032987Y-133690377D01*
X144448271Y-133690377D01*
X144351961Y-133594067D01*
X144135634Y-133449522D01*
X143895263Y-133349957D01*
X143640087Y-133299200D01*
X143379913Y-133299200D01*
X143124737Y-133349957D01*
X142884366Y-133449522D01*
X142668039Y-133594067D01*
X142484067Y-133778039D01*
X142339522Y-133994366D01*
X142240000Y-134234633D01*
X142140478Y-133994366D01*
X141995933Y-133778039D01*
X141811961Y-133594067D01*
X141595634Y-133449522D01*
X141355263Y-133349957D01*
X141100087Y-133299200D01*
X140839913Y-133299200D01*
X140584737Y-133349957D01*
X140344366Y-133449522D01*
X140128039Y-133594067D01*
X139944067Y-133778039D01*
X139799522Y-133994366D01*
X139700000Y-134234633D01*
X139600478Y-133994366D01*
X139455933Y-133778039D01*
X139271961Y-133594067D01*
X139055634Y-133449522D01*
X138815263Y-133349957D01*
X138560087Y-133299200D01*
X138299913Y-133299200D01*
X138044737Y-133349957D01*
X137804366Y-133449522D01*
X137588039Y-133594067D01*
X137404067Y-133778039D01*
X137259522Y-133994366D01*
X137160000Y-134234633D01*
X137060478Y-133994366D01*
X136915933Y-133778039D01*
X136731961Y-133594067D01*
X136515634Y-133449522D01*
X136275263Y-133349957D01*
X136020087Y-133299200D01*
X135759913Y-133299200D01*
X135504737Y-133349957D01*
X135264366Y-133449522D01*
X135048039Y-133594067D01*
X134864067Y-133778039D01*
X134719522Y-133994366D01*
X134620000Y-134234633D01*
X134520478Y-133994366D01*
X134375933Y-133778039D01*
X134191961Y-133594067D01*
X133975634Y-133449522D01*
X133735263Y-133349957D01*
X133480087Y-133299200D01*
X133219913Y-133299200D01*
X132964737Y-133349957D01*
X132724366Y-133449522D01*
X132508039Y-133594067D01*
X132324067Y-133778039D01*
X132179522Y-133994366D01*
X132080000Y-134234633D01*
X131980478Y-133994366D01*
X131835933Y-133778039D01*
X131651961Y-133594067D01*
X131435634Y-133449522D01*
X131195263Y-133349957D01*
X130940087Y-133299200D01*
X130679913Y-133299200D01*
X130424737Y-133349957D01*
X130184366Y-133449522D01*
X129968039Y-133594067D01*
X129784067Y-133778039D01*
X129639522Y-133994366D01*
X129540000Y-134234633D01*
X129440478Y-133994366D01*
X129295933Y-133778039D01*
X129111961Y-133594067D01*
X128895634Y-133449522D01*
X128655263Y-133349957D01*
X128400087Y-133299200D01*
X128139913Y-133299200D01*
X127884737Y-133349957D01*
X127644366Y-133449522D01*
X127428039Y-133594067D01*
X127244067Y-133778039D01*
X127099522Y-133994366D01*
X127000000Y-134234633D01*
X126900478Y-133994366D01*
X126755933Y-133778039D01*
X126571961Y-133594067D01*
X126355634Y-133449522D01*
X126115263Y-133349957D01*
X125860087Y-133299200D01*
X125599913Y-133299200D01*
X125344737Y-133349957D01*
X125104366Y-133449522D01*
X124888039Y-133594067D01*
X124704067Y-133778039D01*
X124559522Y-133994366D01*
X124460000Y-134234633D01*
X124360478Y-133994366D01*
X124215933Y-133778039D01*
X124031961Y-133594067D01*
X123815634Y-133449522D01*
X123575263Y-133349957D01*
X123320087Y-133299200D01*
X123059913Y-133299200D01*
X122804737Y-133349957D01*
X122564366Y-133449522D01*
X122348039Y-133594067D01*
X122164067Y-133778039D01*
X122068096Y-133921670D01*
X122000723Y-133795623D01*
X121742476Y-133707129D01*
X120829605Y-134620000D01*
X120470395Y-134620000D01*
X119557524Y-133707129D01*
X119299277Y-133795623D01*
X119164403Y-134074976D01*
X119086619Y-134375275D01*
X119068916Y-134684977D01*
X73335406Y-134684977D01*
X73332202Y-134656485D01*
X73145037Y-134575644D01*
X72945698Y-134532870D01*
X72741844Y-134529808D01*
X72541309Y-134566574D01*
X72351801Y-134641755D01*
X72324240Y-134656485D01*
X72301385Y-134859780D01*
X69430615Y-134859780D01*
X69407760Y-134656485D01*
X69220595Y-134575644D01*
X69021256Y-134532870D01*
X68817402Y-134529808D01*
X68616867Y-134566574D01*
X68427359Y-134641755D01*
X68399798Y-134656485D01*
X68376943Y-134859780D01*
X65251000Y-134859780D01*
X65251000Y-134310441D01*
X67564164Y-134310441D01*
X67587019Y-134513736D01*
X67774184Y-134594577D01*
X67973523Y-134637351D01*
X68177377Y-134640413D01*
X68377912Y-134603647D01*
X68567420Y-134528466D01*
X68594981Y-134513736D01*
X68617836Y-134310441D01*
X73114164Y-134310441D01*
X73137019Y-134513736D01*
X73324184Y-134594577D01*
X73523523Y-134637351D01*
X73727377Y-134640413D01*
X73927912Y-134603647D01*
X74117420Y-134528466D01*
X74144981Y-134513736D01*
X74167836Y-134310441D01*
X73641000Y-133783605D01*
X73114164Y-134310441D01*
X68617836Y-134310441D01*
X68091000Y-133783605D01*
X67564164Y-134310441D01*
X65251000Y-134310441D01*
X65251000Y-133690377D01*
X67054587Y-133690377D01*
X67091353Y-133890912D01*
X67166534Y-134080420D01*
X67181264Y-134107981D01*
X67384559Y-134130836D01*
X67911395Y-133604000D01*
X68270605Y-133604000D01*
X68797441Y-134130836D01*
X69000736Y-134107981D01*
X69081577Y-133920816D01*
X69124351Y-133721477D01*
X69124818Y-133690377D01*
X72604587Y-133690377D01*
X72641353Y-133890912D01*
X72716534Y-134080420D01*
X72731264Y-134107981D01*
X72934559Y-134130836D01*
X73461395Y-133604000D01*
X73820605Y-133604000D01*
X74347441Y-134130836D01*
X74550736Y-134107981D01*
X74631577Y-133920816D01*
X74674351Y-133721477D01*
X74677264Y-133527524D01*
X119737129Y-133527524D01*
X120650000Y-134440395D01*
X121562871Y-133527524D01*
X121474377Y-133269277D01*
X121195024Y-133134403D01*
X120894725Y-133056619D01*
X120585023Y-133038916D01*
X120277816Y-133081973D01*
X119984914Y-133184135D01*
X119825623Y-133269277D01*
X119737129Y-133527524D01*
X74677264Y-133527524D01*
X74677413Y-133517623D01*
X74640647Y-133317088D01*
X74565466Y-133127580D01*
X74550736Y-133100019D01*
X74347441Y-133077164D01*
X73820605Y-133604000D01*
X73461395Y-133604000D01*
X72934559Y-133077164D01*
X72731264Y-133100019D01*
X72650423Y-133287184D01*
X72607649Y-133486523D01*
X72604587Y-133690377D01*
X69124818Y-133690377D01*
X69127413Y-133517623D01*
X69090647Y-133317088D01*
X69015466Y-133127580D01*
X69000736Y-133100019D01*
X68797441Y-133077164D01*
X68270605Y-133604000D01*
X67911395Y-133604000D01*
X67384559Y-133077164D01*
X67181264Y-133100019D01*
X67100423Y-133287184D01*
X67057649Y-133486523D01*
X67054587Y-133690377D01*
X65251000Y-133690377D01*
X65251000Y-132897559D01*
X67564164Y-132897559D01*
X68091000Y-133424395D01*
X68617836Y-132897559D01*
X73114164Y-132897559D01*
X73641000Y-133424395D01*
X74167836Y-132897559D01*
X199542564Y-132897559D01*
X200069400Y-133424395D01*
X200596236Y-132897559D01*
X205092564Y-132897559D01*
X205619400Y-133424395D01*
X206146236Y-132897559D01*
X206123381Y-132694264D01*
X205936216Y-132613423D01*
X205736877Y-132570649D01*
X205533023Y-132567587D01*
X205332488Y-132604353D01*
X205142980Y-132679534D01*
X205115419Y-132694264D01*
X205092564Y-132897559D01*
X200596236Y-132897559D01*
X200573381Y-132694264D01*
X200386216Y-132613423D01*
X200186877Y-132570649D01*
X199983023Y-132567587D01*
X199782488Y-132604353D01*
X199592980Y-132679534D01*
X199565419Y-132694264D01*
X199542564Y-132897559D01*
X74167836Y-132897559D01*
X74144981Y-132694264D01*
X73957816Y-132613423D01*
X73758477Y-132570649D01*
X73554623Y-132567587D01*
X73354088Y-132604353D01*
X73164580Y-132679534D01*
X73137019Y-132694264D01*
X73114164Y-132897559D01*
X68617836Y-132897559D01*
X68594981Y-132694264D01*
X68407816Y-132613423D01*
X68208477Y-132570649D01*
X68004623Y-132567587D01*
X67804088Y-132604353D01*
X67614580Y-132679534D01*
X67587019Y-132694264D01*
X67564164Y-132897559D01*
X65251000Y-132897559D01*
X65251000Y-132348220D01*
X68376943Y-132348220D01*
X68399798Y-132551515D01*
X68586963Y-132632356D01*
X68786302Y-132675130D01*
X68990156Y-132678192D01*
X69190691Y-132641426D01*
X69380199Y-132566245D01*
X69407760Y-132551515D01*
X69430615Y-132348220D01*
X72301385Y-132348220D01*
X72324240Y-132551515D01*
X72511405Y-132632356D01*
X72710744Y-132675130D01*
X72914598Y-132678192D01*
X73115133Y-132641426D01*
X73304641Y-132566245D01*
X73332202Y-132551515D01*
X73355057Y-132348220D01*
X200355343Y-132348220D01*
X200378198Y-132551515D01*
X200565363Y-132632356D01*
X200764702Y-132675130D01*
X200968556Y-132678192D01*
X201169091Y-132641426D01*
X201358599Y-132566245D01*
X201386160Y-132551515D01*
X201409015Y-132348220D01*
X204279785Y-132348220D01*
X204302640Y-132551515D01*
X204489805Y-132632356D01*
X204689144Y-132675130D01*
X204892998Y-132678192D01*
X205093533Y-132641426D01*
X205283041Y-132566245D01*
X205310602Y-132551515D01*
X205333457Y-132348220D01*
X204806621Y-131821384D01*
X204279785Y-132348220D01*
X201409015Y-132348220D01*
X200882179Y-131821384D01*
X200355343Y-132348220D01*
X73355057Y-132348220D01*
X72828221Y-131821384D01*
X72301385Y-132348220D01*
X69430615Y-132348220D01*
X68903779Y-131821384D01*
X68376943Y-132348220D01*
X65251000Y-132348220D01*
X65251000Y-131728156D01*
X67867366Y-131728156D01*
X67904132Y-131928691D01*
X67979313Y-132118199D01*
X67994043Y-132145760D01*
X68197338Y-132168615D01*
X68724174Y-131641779D01*
X69083384Y-131641779D01*
X69610220Y-132168615D01*
X69813515Y-132145760D01*
X69894356Y-131958595D01*
X69937130Y-131759256D01*
X69940192Y-131555402D01*
X69936533Y-131535441D01*
X70339164Y-131535441D01*
X70362019Y-131738736D01*
X70549184Y-131819577D01*
X70748523Y-131862351D01*
X70952377Y-131865413D01*
X71152912Y-131828647D01*
X71342420Y-131753466D01*
X71369981Y-131738736D01*
X71371170Y-131728156D01*
X71791808Y-131728156D01*
X71828574Y-131928691D01*
X71903755Y-132118199D01*
X71918485Y-132145760D01*
X72121780Y-132168615D01*
X72648616Y-131641779D01*
X73007826Y-131641779D01*
X73534662Y-132168615D01*
X73737957Y-132145760D01*
X73818798Y-131958595D01*
X73861572Y-131759256D01*
X73862039Y-131728156D01*
X199845766Y-131728156D01*
X199882532Y-131928691D01*
X199957713Y-132118199D01*
X199972443Y-132145760D01*
X200175738Y-132168615D01*
X200702574Y-131641779D01*
X201061784Y-131641779D01*
X201588620Y-132168615D01*
X201791915Y-132145760D01*
X201872756Y-131958595D01*
X201915530Y-131759256D01*
X201918592Y-131555402D01*
X201914933Y-131535441D01*
X202317564Y-131535441D01*
X202340419Y-131738736D01*
X202527584Y-131819577D01*
X202726923Y-131862351D01*
X202930777Y-131865413D01*
X203131312Y-131828647D01*
X203320820Y-131753466D01*
X203348381Y-131738736D01*
X203349570Y-131728156D01*
X203770208Y-131728156D01*
X203806974Y-131928691D01*
X203882155Y-132118199D01*
X203896885Y-132145760D01*
X204100180Y-132168615D01*
X204627016Y-131641779D01*
X204986226Y-131641779D01*
X205513062Y-132168615D01*
X205716357Y-132145760D01*
X205797198Y-131958595D01*
X205839972Y-131759256D01*
X205843034Y-131555402D01*
X205806268Y-131354867D01*
X205731087Y-131165359D01*
X205716357Y-131137798D01*
X205513062Y-131114943D01*
X204986226Y-131641779D01*
X204627016Y-131641779D01*
X204100180Y-131114943D01*
X203896885Y-131137798D01*
X203816044Y-131324963D01*
X203773270Y-131524302D01*
X203770208Y-131728156D01*
X203349570Y-131728156D01*
X203371236Y-131535441D01*
X202844400Y-131008605D01*
X202317564Y-131535441D01*
X201914933Y-131535441D01*
X201881826Y-131354867D01*
X201806645Y-131165359D01*
X201791915Y-131137798D01*
X201588620Y-131114943D01*
X201061784Y-131641779D01*
X200702574Y-131641779D01*
X200175738Y-131114943D01*
X199972443Y-131137798D01*
X199891602Y-131324963D01*
X199848828Y-131524302D01*
X199845766Y-131728156D01*
X73862039Y-131728156D01*
X73864634Y-131555402D01*
X73827868Y-131354867D01*
X73752687Y-131165359D01*
X73737957Y-131137798D01*
X73534662Y-131114943D01*
X73007826Y-131641779D01*
X72648616Y-131641779D01*
X72121780Y-131114943D01*
X71918485Y-131137798D01*
X71837644Y-131324963D01*
X71794870Y-131524302D01*
X71791808Y-131728156D01*
X71371170Y-131728156D01*
X71392836Y-131535441D01*
X70866000Y-131008605D01*
X70339164Y-131535441D01*
X69936533Y-131535441D01*
X69903426Y-131354867D01*
X69828245Y-131165359D01*
X69813515Y-131137798D01*
X69610220Y-131114943D01*
X69083384Y-131641779D01*
X68724174Y-131641779D01*
X68197338Y-131114943D01*
X67994043Y-131137798D01*
X67913202Y-131324963D01*
X67870428Y-131524302D01*
X67867366Y-131728156D01*
X65251000Y-131728156D01*
X65251000Y-130935338D01*
X68376943Y-130935338D01*
X68903779Y-131462174D01*
X69430615Y-130935338D01*
X69428371Y-130915377D01*
X69829587Y-130915377D01*
X69866353Y-131115912D01*
X69941534Y-131305420D01*
X69956264Y-131332981D01*
X70159559Y-131355836D01*
X70686395Y-130829000D01*
X71045605Y-130829000D01*
X71572441Y-131355836D01*
X71775736Y-131332981D01*
X71856577Y-131145816D01*
X71899351Y-130946477D01*
X71899518Y-130935338D01*
X72301385Y-130935338D01*
X72828221Y-131462174D01*
X73355057Y-130935338D01*
X200355343Y-130935338D01*
X200882179Y-131462174D01*
X201409015Y-130935338D01*
X201406771Y-130915377D01*
X201807987Y-130915377D01*
X201844753Y-131115912D01*
X201919934Y-131305420D01*
X201934664Y-131332981D01*
X202137959Y-131355836D01*
X202664795Y-130829000D01*
X203024005Y-130829000D01*
X203550841Y-131355836D01*
X203754136Y-131332981D01*
X203834977Y-131145816D01*
X203877751Y-130946477D01*
X203877918Y-130935338D01*
X204279785Y-130935338D01*
X204806621Y-131462174D01*
X205333457Y-130935338D01*
X205310602Y-130732043D01*
X205123437Y-130651202D01*
X204924098Y-130608428D01*
X204720244Y-130605366D01*
X204519709Y-130642132D01*
X204330201Y-130717313D01*
X204302640Y-130732043D01*
X204279785Y-130935338D01*
X203877918Y-130935338D01*
X203880813Y-130742623D01*
X203844047Y-130542088D01*
X203768866Y-130352580D01*
X203754136Y-130325019D01*
X203550841Y-130302164D01*
X203024005Y-130829000D01*
X202664795Y-130829000D01*
X202137959Y-130302164D01*
X201934664Y-130325019D01*
X201853823Y-130512184D01*
X201811049Y-130711523D01*
X201807987Y-130915377D01*
X201406771Y-130915377D01*
X201386160Y-130732043D01*
X201198995Y-130651202D01*
X200999656Y-130608428D01*
X200795802Y-130605366D01*
X200595267Y-130642132D01*
X200405759Y-130717313D01*
X200378198Y-130732043D01*
X200355343Y-130935338D01*
X73355057Y-130935338D01*
X73332202Y-130732043D01*
X73145037Y-130651202D01*
X72945698Y-130608428D01*
X72741844Y-130605366D01*
X72541309Y-130642132D01*
X72351801Y-130717313D01*
X72324240Y-130732043D01*
X72301385Y-130935338D01*
X71899518Y-130935338D01*
X71902413Y-130742623D01*
X71865647Y-130542088D01*
X71790466Y-130352580D01*
X71775736Y-130325019D01*
X71572441Y-130302164D01*
X71045605Y-130829000D01*
X70686395Y-130829000D01*
X70159559Y-130302164D01*
X69956264Y-130325019D01*
X69875423Y-130512184D01*
X69832649Y-130711523D01*
X69829587Y-130915377D01*
X69428371Y-130915377D01*
X69407760Y-130732043D01*
X69220595Y-130651202D01*
X69021256Y-130608428D01*
X68817402Y-130605366D01*
X68616867Y-130642132D01*
X68427359Y-130717313D01*
X68399798Y-130732043D01*
X68376943Y-130935338D01*
X65251000Y-130935338D01*
X65251000Y-130122559D01*
X70339164Y-130122559D01*
X70866000Y-130649395D01*
X71392836Y-130122559D01*
X202317564Y-130122559D01*
X202844400Y-130649395D01*
X203371236Y-130122559D01*
X203348381Y-129919264D01*
X203161216Y-129838423D01*
X202961877Y-129795649D01*
X202758023Y-129792587D01*
X202557488Y-129829353D01*
X202367980Y-129904534D01*
X202340419Y-129919264D01*
X202317564Y-130122559D01*
X71392836Y-130122559D01*
X71369981Y-129919264D01*
X71182816Y-129838423D01*
X70983477Y-129795649D01*
X70779623Y-129792587D01*
X70579088Y-129829353D01*
X70389580Y-129904534D01*
X70362019Y-129919264D01*
X70339164Y-130122559D01*
X65251000Y-130122559D01*
X65251000Y-115392476D01*
X107037129Y-115392476D01*
X107125623Y-115650723D01*
X107404976Y-115785597D01*
X107705275Y-115863381D01*
X108014977Y-115881084D01*
X108322184Y-115838027D01*
X108615086Y-115735865D01*
X108774377Y-115650723D01*
X108862871Y-115392476D01*
X107950000Y-114479605D01*
X107037129Y-115392476D01*
X65251000Y-115392476D01*
X65251000Y-114364977D01*
X106368916Y-114364977D01*
X106411973Y-114672184D01*
X106514135Y-114965086D01*
X106599277Y-115124377D01*
X106857524Y-115212871D01*
X107770395Y-114300000D01*
X108129605Y-114300000D01*
X109042476Y-115212871D01*
X109300723Y-115124377D01*
X109435597Y-114845024D01*
X109513381Y-114544725D01*
X109531084Y-114235023D01*
X109488027Y-113927816D01*
X109385865Y-113634914D01*
X109300723Y-113475623D01*
X109042476Y-113387129D01*
X108129605Y-114300000D01*
X107770395Y-114300000D01*
X106857524Y-113387129D01*
X106599277Y-113475623D01*
X106464403Y-113754976D01*
X106386619Y-114055275D01*
X106368916Y-114364977D01*
X65251000Y-114364977D01*
X65251000Y-101469913D01*
X106629200Y-101469913D01*
X106629200Y-101730087D01*
X106679957Y-101985263D01*
X106779522Y-102225634D01*
X106924067Y-102441961D01*
X107108039Y-102625933D01*
X107324366Y-102770478D01*
X107564633Y-102870000D01*
X107324366Y-102969522D01*
X107108039Y-103114067D01*
X106924067Y-103298039D01*
X106779522Y-103514366D01*
X106679957Y-103754737D01*
X106629200Y-104009913D01*
X106629200Y-104270087D01*
X106679957Y-104525263D01*
X106779522Y-104765634D01*
X106924067Y-104981961D01*
X107108039Y-105165933D01*
X107324366Y-105310478D01*
X107564633Y-105410000D01*
X107324366Y-105509522D01*
X107108039Y-105654067D01*
X106924067Y-105838039D01*
X106779522Y-106054366D01*
X106679957Y-106294737D01*
X106629200Y-106549913D01*
X106629200Y-106810087D01*
X106679957Y-107065263D01*
X106779522Y-107305634D01*
X106924067Y-107521961D01*
X107108039Y-107705933D01*
X107324366Y-107850478D01*
X107564633Y-107950000D01*
X107324366Y-108049522D01*
X107108039Y-108194067D01*
X106924067Y-108378039D01*
X106779522Y-108594366D01*
X106679957Y-108834737D01*
X106629200Y-109089913D01*
X106629200Y-109350087D01*
X106679957Y-109605263D01*
X106779522Y-109845634D01*
X106924067Y-110061961D01*
X107108039Y-110245933D01*
X107324366Y-110390478D01*
X107564633Y-110490000D01*
X107324366Y-110589522D01*
X107108039Y-110734067D01*
X106924067Y-110918039D01*
X106779522Y-111134366D01*
X106679957Y-111374737D01*
X106629200Y-111629913D01*
X106629200Y-111890087D01*
X106679957Y-112145263D01*
X106779522Y-112385634D01*
X106924067Y-112601961D01*
X107108039Y-112785933D01*
X107251670Y-112881904D01*
X107125623Y-112949277D01*
X107037129Y-113207524D01*
X107950000Y-114120395D01*
X108862871Y-113207524D01*
X108774377Y-112949277D01*
X108642668Y-112885687D01*
X108791961Y-112785933D01*
X108975933Y-112601961D01*
X109120478Y-112385634D01*
X109220043Y-112145263D01*
X109270800Y-111890087D01*
X109270800Y-111629913D01*
X109220043Y-111374737D01*
X109120478Y-111134366D01*
X108975933Y-110918039D01*
X108791961Y-110734067D01*
X108575634Y-110589522D01*
X108335367Y-110490000D01*
X108575634Y-110390478D01*
X108791961Y-110245933D01*
X108975933Y-110061961D01*
X109120478Y-109845634D01*
X109220043Y-109605263D01*
X109270800Y-109350087D01*
X109270800Y-109089913D01*
X109220043Y-108834737D01*
X109120478Y-108594366D01*
X108975933Y-108378039D01*
X108791961Y-108194067D01*
X108575634Y-108049522D01*
X108335367Y-107950000D01*
X108575634Y-107850478D01*
X108791961Y-107705933D01*
X108975933Y-107521961D01*
X109120478Y-107305634D01*
X109220043Y-107065263D01*
X109270800Y-106810087D01*
X109270800Y-106549913D01*
X109220043Y-106294737D01*
X109120478Y-106054366D01*
X108975933Y-105838039D01*
X108791961Y-105654067D01*
X108575634Y-105509522D01*
X108335367Y-105410000D01*
X108575634Y-105310478D01*
X108791961Y-105165933D01*
X108975933Y-104981961D01*
X109120478Y-104765634D01*
X109220043Y-104525263D01*
X109270800Y-104270087D01*
X109270800Y-104009913D01*
X109220043Y-103754737D01*
X109120478Y-103514366D01*
X108975933Y-103298039D01*
X108791961Y-103114067D01*
X108575634Y-102969522D01*
X108335367Y-102870000D01*
X108575634Y-102770478D01*
X108791961Y-102625933D01*
X108975933Y-102441961D01*
X109120478Y-102225634D01*
X109220043Y-101985263D01*
X109270800Y-101730087D01*
X109270800Y-101469913D01*
X109220043Y-101214737D01*
X109120478Y-100974366D01*
X108975933Y-100758039D01*
X108791961Y-100574067D01*
X108575634Y-100429522D01*
X108335263Y-100329957D01*
X108080087Y-100279200D01*
X107819913Y-100279200D01*
X107564737Y-100329957D01*
X107324366Y-100429522D01*
X107108039Y-100574067D01*
X106924067Y-100758039D01*
X106779522Y-100974366D01*
X106679957Y-101214737D01*
X106629200Y-101469913D01*
X65251000Y-101469913D01*
X65251000Y-95072476D01*
X119737129Y-95072476D01*
X119825623Y-95330723D01*
X120104976Y-95465597D01*
X120405275Y-95543381D01*
X120714977Y-95561084D01*
X121022184Y-95518027D01*
X121315086Y-95415865D01*
X121474377Y-95330723D01*
X121562871Y-95072476D01*
X120650000Y-94159605D01*
X119737129Y-95072476D01*
X65251000Y-95072476D01*
X65251000Y-94044977D01*
X119068916Y-94044977D01*
X119111973Y-94352184D01*
X119214135Y-94645086D01*
X119299277Y-94804377D01*
X119557524Y-94892871D01*
X120470395Y-93980000D01*
X120829605Y-93980000D01*
X121742476Y-94892871D01*
X122000723Y-94804377D01*
X122064313Y-94672668D01*
X122164067Y-94821961D01*
X122348039Y-95005933D01*
X122564366Y-95150478D01*
X122804737Y-95250043D01*
X123059913Y-95300800D01*
X123320087Y-95300800D01*
X123575263Y-95250043D01*
X123815634Y-95150478D01*
X124031961Y-95005933D01*
X124215933Y-94821961D01*
X124360478Y-94605634D01*
X124460000Y-94365367D01*
X124559522Y-94605634D01*
X124704067Y-94821961D01*
X124888039Y-95005933D01*
X125104366Y-95150478D01*
X125344737Y-95250043D01*
X125599913Y-95300800D01*
X125860087Y-95300800D01*
X126115263Y-95250043D01*
X126355634Y-95150478D01*
X126571961Y-95005933D01*
X126755933Y-94821961D01*
X126900478Y-94605634D01*
X127000000Y-94365367D01*
X127099522Y-94605634D01*
X127244067Y-94821961D01*
X127428039Y-95005933D01*
X127644366Y-95150478D01*
X127884737Y-95250043D01*
X128139913Y-95300800D01*
X128400087Y-95300800D01*
X128655263Y-95250043D01*
X128895634Y-95150478D01*
X129111961Y-95005933D01*
X129295933Y-94821961D01*
X129440478Y-94605634D01*
X129540000Y-94365367D01*
X129639522Y-94605634D01*
X129784067Y-94821961D01*
X129968039Y-95005933D01*
X130184366Y-95150478D01*
X130424737Y-95250043D01*
X130679913Y-95300800D01*
X130940087Y-95300800D01*
X131195263Y-95250043D01*
X131435634Y-95150478D01*
X131651961Y-95005933D01*
X131835933Y-94821961D01*
X131980478Y-94605634D01*
X132080000Y-94365367D01*
X132179522Y-94605634D01*
X132324067Y-94821961D01*
X132508039Y-95005933D01*
X132724366Y-95150478D01*
X132964737Y-95250043D01*
X133219913Y-95300800D01*
X133480087Y-95300800D01*
X133735263Y-95250043D01*
X133975634Y-95150478D01*
X134191961Y-95005933D01*
X134375933Y-94821961D01*
X134520478Y-94605634D01*
X134620000Y-94365367D01*
X134719522Y-94605634D01*
X134864067Y-94821961D01*
X135048039Y-95005933D01*
X135264366Y-95150478D01*
X135504737Y-95250043D01*
X135759913Y-95300800D01*
X136020087Y-95300800D01*
X136275263Y-95250043D01*
X136515634Y-95150478D01*
X136731961Y-95005933D01*
X136915933Y-94821961D01*
X137060478Y-94605634D01*
X137160000Y-94365367D01*
X137259522Y-94605634D01*
X137404067Y-94821961D01*
X137588039Y-95005933D01*
X137804366Y-95150478D01*
X138044737Y-95250043D01*
X138299913Y-95300800D01*
X138560087Y-95300800D01*
X138815263Y-95250043D01*
X139055634Y-95150478D01*
X139271961Y-95005933D01*
X139455933Y-94821961D01*
X139600478Y-94605634D01*
X139700000Y-94365367D01*
X139799522Y-94605634D01*
X139944067Y-94821961D01*
X140128039Y-95005933D01*
X140344366Y-95150478D01*
X140584737Y-95250043D01*
X140839913Y-95300800D01*
X141100087Y-95300800D01*
X141355263Y-95250043D01*
X141595634Y-95150478D01*
X141811961Y-95005933D01*
X141995933Y-94821961D01*
X142140478Y-94605634D01*
X142240043Y-94365263D01*
X142290800Y-94110087D01*
X142290800Y-93849913D01*
X142240043Y-93594737D01*
X142140478Y-93354366D01*
X141995933Y-93138039D01*
X141811961Y-92954067D01*
X141595634Y-92809522D01*
X141355263Y-92709957D01*
X141100087Y-92659200D01*
X140839913Y-92659200D01*
X140584737Y-92709957D01*
X140344366Y-92809522D01*
X140128039Y-92954067D01*
X139944067Y-93138039D01*
X139799522Y-93354366D01*
X139700000Y-93594633D01*
X139600478Y-93354366D01*
X139455933Y-93138039D01*
X139271961Y-92954067D01*
X139055634Y-92809522D01*
X138815263Y-92709957D01*
X138560087Y-92659200D01*
X138299913Y-92659200D01*
X138044737Y-92709957D01*
X137804366Y-92809522D01*
X137588039Y-92954067D01*
X137404067Y-93138039D01*
X137259522Y-93354366D01*
X137160000Y-93594633D01*
X137060478Y-93354366D01*
X136915933Y-93138039D01*
X136731961Y-92954067D01*
X136515634Y-92809522D01*
X136275263Y-92709957D01*
X136020087Y-92659200D01*
X135759913Y-92659200D01*
X135504737Y-92709957D01*
X135264366Y-92809522D01*
X135048039Y-92954067D01*
X134864067Y-93138039D01*
X134719522Y-93354366D01*
X134620000Y-93594633D01*
X134520478Y-93354366D01*
X134375933Y-93138039D01*
X134191961Y-92954067D01*
X133975634Y-92809522D01*
X133735263Y-92709957D01*
X133480087Y-92659200D01*
X133219913Y-92659200D01*
X132964737Y-92709957D01*
X132724366Y-92809522D01*
X132508039Y-92954067D01*
X132324067Y-93138039D01*
X132179522Y-93354366D01*
X132080000Y-93594633D01*
X131980478Y-93354366D01*
X131835933Y-93138039D01*
X131651961Y-92954067D01*
X131435634Y-92809522D01*
X131195263Y-92709957D01*
X130940087Y-92659200D01*
X130679913Y-92659200D01*
X130424737Y-92709957D01*
X130184366Y-92809522D01*
X129968039Y-92954067D01*
X129784067Y-93138039D01*
X129639522Y-93354366D01*
X129540000Y-93594633D01*
X129440478Y-93354366D01*
X129295933Y-93138039D01*
X129111961Y-92954067D01*
X128895634Y-92809522D01*
X128655263Y-92709957D01*
X128400087Y-92659200D01*
X128139913Y-92659200D01*
X127884737Y-92709957D01*
X127644366Y-92809522D01*
X127428039Y-92954067D01*
X127244067Y-93138039D01*
X127099522Y-93354366D01*
X127000000Y-93594633D01*
X126900478Y-93354366D01*
X126755933Y-93138039D01*
X126571961Y-92954067D01*
X126355634Y-92809522D01*
X126115263Y-92709957D01*
X125860087Y-92659200D01*
X125599913Y-92659200D01*
X125344737Y-92709957D01*
X125104366Y-92809522D01*
X124888039Y-92954067D01*
X124704067Y-93138039D01*
X124559522Y-93354366D01*
X124460000Y-93594633D01*
X124360478Y-93354366D01*
X124215933Y-93138039D01*
X124031961Y-92954067D01*
X123815634Y-92809522D01*
X123575263Y-92709957D01*
X123320087Y-92659200D01*
X123059913Y-92659200D01*
X122804737Y-92709957D01*
X122564366Y-92809522D01*
X122348039Y-92954067D01*
X122164067Y-93138039D01*
X122068096Y-93281670D01*
X122000723Y-93155623D01*
X121742476Y-93067129D01*
X120829605Y-93980000D01*
X120470395Y-93980000D01*
X119557524Y-93067129D01*
X119299277Y-93155623D01*
X119164403Y-93434976D01*
X119086619Y-93735275D01*
X119068916Y-94044977D01*
X65251000Y-94044977D01*
X65251000Y-92887524D01*
X119737129Y-92887524D01*
X120650000Y-93800395D01*
X121562871Y-92887524D01*
X121474377Y-92629277D01*
X121195024Y-92494403D01*
X120894725Y-92416619D01*
X120585023Y-92398916D01*
X120277816Y-92441973D01*
X119984914Y-92544135D01*
X119825623Y-92629277D01*
X119737129Y-92887524D01*
X65251000Y-92887524D01*
X65251000Y-89430000D01*
X192631928Y-89430000D01*
X192644188Y-89554482D01*
X192680498Y-89674180D01*
X192739463Y-89784494D01*
X192818815Y-89881185D01*
X192915506Y-89960537D01*
X193025820Y-90019502D01*
X193145518Y-90055812D01*
X193270000Y-90068072D01*
X194024250Y-90065000D01*
X194183000Y-89906250D01*
X194183000Y-87757000D01*
X194437000Y-87757000D01*
X194437000Y-89906250D01*
X194595750Y-90065000D01*
X195350000Y-90068072D01*
X195474482Y-90055812D01*
X195594180Y-90019502D01*
X195704494Y-89960537D01*
X195801185Y-89881185D01*
X195880537Y-89784494D01*
X195939502Y-89674180D01*
X195975812Y-89554482D01*
X195988072Y-89430000D01*
X195985000Y-87915750D01*
X195826250Y-87757000D01*
X194437000Y-87757000D01*
X194183000Y-87757000D01*
X192793750Y-87757000D01*
X192635000Y-87915750D01*
X192631928Y-89430000D01*
X65251000Y-89430000D01*
X65251000Y-87452476D01*
X140057129Y-87452476D01*
X140145623Y-87710723D01*
X140424976Y-87845597D01*
X140725275Y-87923381D01*
X141034977Y-87941084D01*
X141342184Y-87898027D01*
X141635086Y-87795865D01*
X141794377Y-87710723D01*
X141882871Y-87452476D01*
X140970000Y-86539605D01*
X140057129Y-87452476D01*
X65251000Y-87452476D01*
X65251000Y-86424977D01*
X139388916Y-86424977D01*
X139431973Y-86732184D01*
X139534135Y-87025086D01*
X139619277Y-87184377D01*
X139877524Y-87272871D01*
X140790395Y-86360000D01*
X141149605Y-86360000D01*
X142062476Y-87272871D01*
X142320723Y-87184377D01*
X142384313Y-87052668D01*
X142484067Y-87201961D01*
X142668039Y-87385933D01*
X142884366Y-87530478D01*
X143124737Y-87630043D01*
X143379913Y-87680800D01*
X143640087Y-87680800D01*
X143895263Y-87630043D01*
X144135634Y-87530478D01*
X144351961Y-87385933D01*
X144535933Y-87201961D01*
X144680478Y-86985634D01*
X144780000Y-86745367D01*
X144879522Y-86985634D01*
X145024067Y-87201961D01*
X145208039Y-87385933D01*
X145424366Y-87530478D01*
X145664737Y-87630043D01*
X145919913Y-87680800D01*
X146180087Y-87680800D01*
X146435263Y-87630043D01*
X146675634Y-87530478D01*
X146891961Y-87385933D01*
X147075933Y-87201961D01*
X147220478Y-86985634D01*
X147320000Y-86745367D01*
X147419522Y-86985634D01*
X147564067Y-87201961D01*
X147748039Y-87385933D01*
X147964366Y-87530478D01*
X148204737Y-87630043D01*
X148459913Y-87680800D01*
X148720087Y-87680800D01*
X148975263Y-87630043D01*
X149215634Y-87530478D01*
X149332372Y-87452476D01*
X150217129Y-87452476D01*
X150305623Y-87710723D01*
X150584976Y-87845597D01*
X150885275Y-87923381D01*
X151194977Y-87941084D01*
X151502184Y-87898027D01*
X151795086Y-87795865D01*
X151954377Y-87710723D01*
X152042871Y-87452476D01*
X151130000Y-86539605D01*
X150217129Y-87452476D01*
X149332372Y-87452476D01*
X149431961Y-87385933D01*
X149615933Y-87201961D01*
X149711904Y-87058330D01*
X149779277Y-87184377D01*
X150037524Y-87272871D01*
X150950395Y-86360000D01*
X151309605Y-86360000D01*
X152222476Y-87272871D01*
X152480723Y-87184377D01*
X152544313Y-87052668D01*
X152644067Y-87201961D01*
X152828039Y-87385933D01*
X153044366Y-87530478D01*
X153284737Y-87630043D01*
X153539913Y-87680800D01*
X153800087Y-87680800D01*
X154055263Y-87630043D01*
X154295634Y-87530478D01*
X154511961Y-87385933D01*
X154695933Y-87201961D01*
X154840478Y-86985634D01*
X154940000Y-86745367D01*
X155039522Y-86985634D01*
X155184067Y-87201961D01*
X155368039Y-87385933D01*
X155584366Y-87530478D01*
X155824737Y-87630043D01*
X156079913Y-87680800D01*
X156340087Y-87680800D01*
X156595263Y-87630043D01*
X156835634Y-87530478D01*
X157051961Y-87385933D01*
X157235933Y-87201961D01*
X157380478Y-86985634D01*
X157480000Y-86745367D01*
X157579522Y-86985634D01*
X157724067Y-87201961D01*
X157908039Y-87385933D01*
X158124366Y-87530478D01*
X158364737Y-87630043D01*
X158619913Y-87680800D01*
X158880087Y-87680800D01*
X159135263Y-87630043D01*
X159375634Y-87530478D01*
X159591961Y-87385933D01*
X159775933Y-87201961D01*
X159920478Y-86985634D01*
X160020000Y-86745367D01*
X160119522Y-86985634D01*
X160264067Y-87201961D01*
X160448039Y-87385933D01*
X160664366Y-87530478D01*
X160904737Y-87630043D01*
X161159913Y-87680800D01*
X161420087Y-87680800D01*
X161675263Y-87630043D01*
X161915634Y-87530478D01*
X162131961Y-87385933D01*
X162315933Y-87201961D01*
X162460478Y-86985634D01*
X162560043Y-86745263D01*
X162610800Y-86490087D01*
X162610800Y-86229913D01*
X162560043Y-85974737D01*
X162500091Y-85830000D01*
X192631928Y-85830000D01*
X192635000Y-87344250D01*
X192793750Y-87503000D01*
X194183000Y-87503000D01*
X194183000Y-85353750D01*
X194437000Y-85353750D01*
X194437000Y-87503000D01*
X195826250Y-87503000D01*
X195985000Y-87344250D01*
X195986103Y-86800197D01*
X197969000Y-86800197D01*
X197969000Y-88459804D01*
X197989561Y-88668565D01*
X198070817Y-88936424D01*
X198202766Y-89183285D01*
X198380341Y-89399660D01*
X198596716Y-89577235D01*
X198843577Y-89709184D01*
X199111436Y-89790439D01*
X199390000Y-89817875D01*
X199668565Y-89790439D01*
X199936424Y-89709184D01*
X200183285Y-89577235D01*
X200399660Y-89399660D01*
X200577235Y-89183285D01*
X200709184Y-88936424D01*
X200790439Y-88668565D01*
X200811000Y-88459804D01*
X200811000Y-86800196D01*
X200790439Y-86591435D01*
X200709184Y-86323576D01*
X200577235Y-86076715D01*
X200399659Y-85860340D01*
X200183284Y-85682765D01*
X199936423Y-85550816D01*
X199668564Y-85469561D01*
X199390000Y-85442125D01*
X199111435Y-85469561D01*
X198843576Y-85550816D01*
X198596715Y-85682765D01*
X198380340Y-85860341D01*
X198202765Y-86076716D01*
X198070816Y-86323577D01*
X197989561Y-86591436D01*
X197969000Y-86800197D01*
X195986103Y-86800197D01*
X195988072Y-85830000D01*
X195975812Y-85705518D01*
X195939502Y-85585820D01*
X195880537Y-85475506D01*
X195801185Y-85378815D01*
X195704494Y-85299463D01*
X195594180Y-85240498D01*
X195474482Y-85204188D01*
X195350000Y-85191928D01*
X194595750Y-85195000D01*
X194437000Y-85353750D01*
X194183000Y-85353750D01*
X194024250Y-85195000D01*
X193270000Y-85191928D01*
X193145518Y-85204188D01*
X193025820Y-85240498D01*
X192915506Y-85299463D01*
X192818815Y-85378815D01*
X192739463Y-85475506D01*
X192680498Y-85585820D01*
X192644188Y-85705518D01*
X192631928Y-85830000D01*
X162500091Y-85830000D01*
X162460478Y-85734366D01*
X162315933Y-85518039D01*
X162131961Y-85334067D01*
X161915634Y-85189522D01*
X161675263Y-85089957D01*
X161420087Y-85039200D01*
X161159913Y-85039200D01*
X160904737Y-85089957D01*
X160664366Y-85189522D01*
X160448039Y-85334067D01*
X160264067Y-85518039D01*
X160119522Y-85734366D01*
X160020000Y-85974633D01*
X159920478Y-85734366D01*
X159775933Y-85518039D01*
X159591961Y-85334067D01*
X159375634Y-85189522D01*
X159135263Y-85089957D01*
X158880087Y-85039200D01*
X158619913Y-85039200D01*
X158364737Y-85089957D01*
X158124366Y-85189522D01*
X157908039Y-85334067D01*
X157724067Y-85518039D01*
X157579522Y-85734366D01*
X157480000Y-85974633D01*
X157380478Y-85734366D01*
X157235933Y-85518039D01*
X157051961Y-85334067D01*
X156835634Y-85189522D01*
X156595263Y-85089957D01*
X156340087Y-85039200D01*
X156079913Y-85039200D01*
X155824737Y-85089957D01*
X155584366Y-85189522D01*
X155368039Y-85334067D01*
X155184067Y-85518039D01*
X155039522Y-85734366D01*
X154940000Y-85974633D01*
X154840478Y-85734366D01*
X154695933Y-85518039D01*
X154511961Y-85334067D01*
X154295634Y-85189522D01*
X154055263Y-85089957D01*
X153800087Y-85039200D01*
X153539913Y-85039200D01*
X153284737Y-85089957D01*
X153044366Y-85189522D01*
X152828039Y-85334067D01*
X152644067Y-85518039D01*
X152548096Y-85661670D01*
X152480723Y-85535623D01*
X152222476Y-85447129D01*
X151309605Y-86360000D01*
X150950395Y-86360000D01*
X150037524Y-85447129D01*
X149779277Y-85535623D01*
X149715687Y-85667332D01*
X149615933Y-85518039D01*
X149431961Y-85334067D01*
X149332373Y-85267524D01*
X150217129Y-85267524D01*
X151130000Y-86180395D01*
X152042871Y-85267524D01*
X151954377Y-85009277D01*
X151675024Y-84874403D01*
X151374725Y-84796619D01*
X151065023Y-84778916D01*
X150757816Y-84821973D01*
X150464914Y-84924135D01*
X150305623Y-85009277D01*
X150217129Y-85267524D01*
X149332373Y-85267524D01*
X149215634Y-85189522D01*
X148975263Y-85089957D01*
X148720087Y-85039200D01*
X148459913Y-85039200D01*
X148204737Y-85089957D01*
X147964366Y-85189522D01*
X147748039Y-85334067D01*
X147564067Y-85518039D01*
X147419522Y-85734366D01*
X147320000Y-85974633D01*
X147220478Y-85734366D01*
X147075933Y-85518039D01*
X146891961Y-85334067D01*
X146675634Y-85189522D01*
X146435263Y-85089957D01*
X146180087Y-85039200D01*
X145919913Y-85039200D01*
X145664737Y-85089957D01*
X145424366Y-85189522D01*
X145208039Y-85334067D01*
X145024067Y-85518039D01*
X144879522Y-85734366D01*
X144780000Y-85974633D01*
X144680478Y-85734366D01*
X144535933Y-85518039D01*
X144351961Y-85334067D01*
X144135634Y-85189522D01*
X143895263Y-85089957D01*
X143640087Y-85039200D01*
X143379913Y-85039200D01*
X143124737Y-85089957D01*
X142884366Y-85189522D01*
X142668039Y-85334067D01*
X142484067Y-85518039D01*
X142388096Y-85661670D01*
X142320723Y-85535623D01*
X142062476Y-85447129D01*
X141149605Y-86360000D01*
X140790395Y-86360000D01*
X139877524Y-85447129D01*
X139619277Y-85535623D01*
X139484403Y-85814976D01*
X139406619Y-86115275D01*
X139388916Y-86424977D01*
X65251000Y-86424977D01*
X65251000Y-85267524D01*
X140057129Y-85267524D01*
X140970000Y-86180395D01*
X141882871Y-85267524D01*
X141794377Y-85009277D01*
X141515024Y-84874403D01*
X141214725Y-84796619D01*
X140905023Y-84778916D01*
X140597816Y-84821973D01*
X140304914Y-84924135D01*
X140145623Y-85009277D01*
X140057129Y-85267524D01*
X65251000Y-85267524D01*
X65251000Y-68929040D01*
X182758091Y-68929040D01*
X182852930Y-69193881D01*
X182997615Y-69435131D01*
X183186586Y-69643519D01*
X183412580Y-69811037D01*
X183666913Y-69931246D01*
X183800961Y-69971904D01*
X184023000Y-69849915D01*
X184023000Y-68707000D01*
X184277000Y-68707000D01*
X184277000Y-69849915D01*
X184499039Y-69971904D01*
X184633087Y-69931246D01*
X184887420Y-69811037D01*
X185113414Y-69643519D01*
X185302385Y-69435131D01*
X185447070Y-69193881D01*
X185541909Y-68929040D01*
X185420624Y-68707000D01*
X184277000Y-68707000D01*
X184023000Y-68707000D01*
X182879376Y-68707000D01*
X182758091Y-68929040D01*
X65251000Y-68929040D01*
X65251000Y-64639913D01*
X116154200Y-64639913D01*
X116154200Y-64900087D01*
X116204957Y-65155263D01*
X116304522Y-65395634D01*
X116449067Y-65611961D01*
X116633039Y-65795933D01*
X116849366Y-65940478D01*
X117089633Y-66040000D01*
X116849366Y-66139522D01*
X116633039Y-66284067D01*
X116449067Y-66468039D01*
X116304522Y-66684366D01*
X116204957Y-66924737D01*
X116154200Y-67179913D01*
X116154200Y-67440087D01*
X116204957Y-67695263D01*
X116304522Y-67935634D01*
X116449067Y-68151961D01*
X116633039Y-68335933D01*
X116849366Y-68480478D01*
X117089737Y-68580043D01*
X117344913Y-68630800D01*
X117605087Y-68630800D01*
X117860263Y-68580043D01*
X118100634Y-68480478D01*
X118125771Y-68463682D01*
X186779000Y-68463682D01*
X186779000Y-68696318D01*
X186824386Y-68924485D01*
X186913412Y-69139413D01*
X187042658Y-69332843D01*
X187207157Y-69497342D01*
X187400587Y-69626588D01*
X187615515Y-69715614D01*
X187843682Y-69761000D01*
X188076318Y-69761000D01*
X188304485Y-69715614D01*
X188519413Y-69626588D01*
X188712843Y-69497342D01*
X188877342Y-69332843D01*
X189006588Y-69139413D01*
X189095614Y-68924485D01*
X189141000Y-68696318D01*
X189141000Y-68463682D01*
X189139257Y-68454916D01*
X191770000Y-68454916D01*
X191770000Y-68705084D01*
X191818805Y-68950445D01*
X191914541Y-69181571D01*
X192053527Y-69389578D01*
X192230422Y-69566473D01*
X192438429Y-69705459D01*
X192669555Y-69801195D01*
X192914916Y-69850000D01*
X193165084Y-69850000D01*
X193410445Y-69801195D01*
X193641571Y-69705459D01*
X193849578Y-69566473D01*
X194026473Y-69389578D01*
X194053539Y-69349071D01*
X194052928Y-69469000D01*
X194065188Y-69593482D01*
X194101498Y-69713180D01*
X194160463Y-69823494D01*
X194239815Y-69920185D01*
X194336506Y-69999537D01*
X194446820Y-70058502D01*
X194566518Y-70094812D01*
X194691000Y-70107072D01*
X195294250Y-70104000D01*
X195453000Y-69945250D01*
X195453000Y-68707000D01*
X195433000Y-68707000D01*
X195433000Y-68453000D01*
X195453000Y-68453000D01*
X195453000Y-67214750D01*
X195707000Y-67214750D01*
X195707000Y-68453000D01*
X195727000Y-68453000D01*
X195727000Y-68707000D01*
X195707000Y-68707000D01*
X195707000Y-69945250D01*
X195865750Y-70104000D01*
X196469000Y-70107072D01*
X196593482Y-70094812D01*
X196713180Y-70058502D01*
X196823494Y-69999537D01*
X196920185Y-69920185D01*
X196999537Y-69823494D01*
X197058502Y-69713180D01*
X197094812Y-69593482D01*
X197107072Y-69469000D01*
X197106461Y-69349071D01*
X197133527Y-69389578D01*
X197310422Y-69566473D01*
X197518429Y-69705459D01*
X197749555Y-69801195D01*
X197994916Y-69850000D01*
X198245084Y-69850000D01*
X198490445Y-69801195D01*
X198721571Y-69705459D01*
X198929578Y-69566473D01*
X199106473Y-69389578D01*
X199245459Y-69181571D01*
X199341195Y-68950445D01*
X199390000Y-68705084D01*
X199438805Y-68950445D01*
X199534541Y-69181571D01*
X199673527Y-69389578D01*
X199850422Y-69566473D01*
X200058429Y-69705459D01*
X200289555Y-69801195D01*
X200534916Y-69850000D01*
X200785084Y-69850000D01*
X201030445Y-69801195D01*
X201261571Y-69705459D01*
X201469578Y-69566473D01*
X201646473Y-69389578D01*
X201785459Y-69181571D01*
X201881195Y-68950445D01*
X201930000Y-68705084D01*
X201930000Y-68454916D01*
X201881195Y-68209555D01*
X201785459Y-67978429D01*
X201646473Y-67770422D01*
X201469578Y-67593527D01*
X201261571Y-67454541D01*
X201030445Y-67358805D01*
X200785084Y-67310000D01*
X200534916Y-67310000D01*
X200289555Y-67358805D01*
X200058429Y-67454541D01*
X199850422Y-67593527D01*
X199673527Y-67770422D01*
X199534541Y-67978429D01*
X199438805Y-68209555D01*
X199390000Y-68454916D01*
X199341195Y-68209555D01*
X199245459Y-67978429D01*
X199106473Y-67770422D01*
X198929578Y-67593527D01*
X198721571Y-67454541D01*
X198490445Y-67358805D01*
X198245084Y-67310000D01*
X197994916Y-67310000D01*
X197749555Y-67358805D01*
X197518429Y-67454541D01*
X197310422Y-67593527D01*
X197133527Y-67770422D01*
X197106461Y-67810929D01*
X197107072Y-67691000D01*
X197094812Y-67566518D01*
X197058502Y-67446820D01*
X196999537Y-67336506D01*
X196920185Y-67239815D01*
X196823494Y-67160463D01*
X196713180Y-67101498D01*
X196593482Y-67065188D01*
X196469000Y-67052928D01*
X195865750Y-67056000D01*
X195707000Y-67214750D01*
X195453000Y-67214750D01*
X195294250Y-67056000D01*
X194691000Y-67052928D01*
X194566518Y-67065188D01*
X194446820Y-67101498D01*
X194336506Y-67160463D01*
X194239815Y-67239815D01*
X194160463Y-67336506D01*
X194101498Y-67446820D01*
X194065188Y-67566518D01*
X194052928Y-67691000D01*
X194053539Y-67810929D01*
X194026473Y-67770422D01*
X193849578Y-67593527D01*
X193641571Y-67454541D01*
X193410445Y-67358805D01*
X193165084Y-67310000D01*
X192914916Y-67310000D01*
X192669555Y-67358805D01*
X192438429Y-67454541D01*
X192230422Y-67593527D01*
X192053527Y-67770422D01*
X191914541Y-67978429D01*
X191818805Y-68209555D01*
X191770000Y-68454916D01*
X189139257Y-68454916D01*
X189095614Y-68235515D01*
X189006588Y-68020587D01*
X188877342Y-67827157D01*
X188712843Y-67662658D01*
X188519413Y-67533412D01*
X188304485Y-67444386D01*
X188076318Y-67399000D01*
X187843682Y-67399000D01*
X187615515Y-67444386D01*
X187400587Y-67533412D01*
X187207157Y-67662658D01*
X187042658Y-67827157D01*
X186913412Y-68020587D01*
X186824386Y-68235515D01*
X186779000Y-68463682D01*
X118125771Y-68463682D01*
X118316961Y-68335933D01*
X118421934Y-68230960D01*
X182758091Y-68230960D01*
X182879376Y-68453000D01*
X184023000Y-68453000D01*
X184023000Y-67310085D01*
X184277000Y-67310085D01*
X184277000Y-68453000D01*
X185420624Y-68453000D01*
X185541909Y-68230960D01*
X185447070Y-67966119D01*
X185302385Y-67724869D01*
X185113414Y-67516481D01*
X184887420Y-67348963D01*
X184633087Y-67228754D01*
X184499039Y-67188096D01*
X184277000Y-67310085D01*
X184023000Y-67310085D01*
X183800961Y-67188096D01*
X183666913Y-67228754D01*
X183412580Y-67348963D01*
X183186586Y-67516481D01*
X182997615Y-67724869D01*
X182852930Y-67966119D01*
X182758091Y-68230960D01*
X118421934Y-68230960D01*
X118500933Y-68151961D01*
X118645478Y-67935634D01*
X118745043Y-67695263D01*
X118795800Y-67440087D01*
X118795800Y-67179913D01*
X118745043Y-66924737D01*
X118645478Y-66684366D01*
X118500933Y-66468039D01*
X118316961Y-66284067D01*
X118100634Y-66139522D01*
X117860367Y-66040000D01*
X118100634Y-65940478D01*
X118316961Y-65795933D01*
X118390192Y-65722702D01*
X179526903Y-65722702D01*
X179598486Y-65966671D01*
X179853996Y-66087571D01*
X180128184Y-66156300D01*
X180410512Y-66170217D01*
X180690130Y-66128787D01*
X180956292Y-66033603D01*
X181081514Y-65966671D01*
X181153097Y-65722702D01*
X180340000Y-64909605D01*
X179526903Y-65722702D01*
X118390192Y-65722702D01*
X118500933Y-65611961D01*
X118645478Y-65395634D01*
X118745043Y-65155263D01*
X118795800Y-64900087D01*
X118795800Y-64800512D01*
X178899783Y-64800512D01*
X178941213Y-65080130D01*
X179036397Y-65346292D01*
X179103329Y-65471514D01*
X179347298Y-65543097D01*
X180160395Y-64730000D01*
X180519605Y-64730000D01*
X181332702Y-65543097D01*
X181576671Y-65471514D01*
X181697571Y-65216004D01*
X181766300Y-64941816D01*
X181780217Y-64659488D01*
X181738787Y-64379870D01*
X181643603Y-64113708D01*
X181576671Y-63988486D01*
X181332702Y-63916903D01*
X180519605Y-64730000D01*
X180160395Y-64730000D01*
X179347298Y-63916903D01*
X179103329Y-63988486D01*
X178982429Y-64243996D01*
X178913700Y-64518184D01*
X178899783Y-64800512D01*
X118795800Y-64800512D01*
X118795800Y-64639913D01*
X118745043Y-64384737D01*
X118645478Y-64144366D01*
X118500933Y-63928039D01*
X118316961Y-63744067D01*
X118100634Y-63599522D01*
X117860263Y-63499957D01*
X117605087Y-63449200D01*
X117344913Y-63449200D01*
X117089737Y-63499957D01*
X116849366Y-63599522D01*
X116633039Y-63744067D01*
X116449067Y-63928039D01*
X116304522Y-64144366D01*
X116204957Y-64384737D01*
X116154200Y-64639913D01*
X65251000Y-64639913D01*
X65251000Y-62113682D01*
X179159000Y-62113682D01*
X179159000Y-62346318D01*
X179204386Y-62574485D01*
X179293412Y-62789413D01*
X179422658Y-62982843D01*
X179587157Y-63147342D01*
X179780587Y-63276588D01*
X179948329Y-63346069D01*
X179723708Y-63426397D01*
X179598486Y-63493329D01*
X179526903Y-63737298D01*
X180340000Y-64550395D01*
X181153097Y-63737298D01*
X181081514Y-63493329D01*
X180826004Y-63372429D01*
X180727589Y-63347760D01*
X180899413Y-63276588D01*
X181092843Y-63147342D01*
X181257342Y-62982843D01*
X181386588Y-62789413D01*
X181475614Y-62574485D01*
X181521000Y-62346318D01*
X181521000Y-62113682D01*
X181475614Y-61885515D01*
X181386588Y-61670587D01*
X181257342Y-61477157D01*
X181092843Y-61312658D01*
X180899413Y-61183412D01*
X180684485Y-61094386D01*
X180456318Y-61049000D01*
X180223682Y-61049000D01*
X179995515Y-61094386D01*
X179780587Y-61183412D01*
X179587157Y-61312658D01*
X179422658Y-61477157D01*
X179293412Y-61670587D01*
X179204386Y-61885515D01*
X179159000Y-62113682D01*
X65251000Y-62113682D01*
X65251000Y-58303682D01*
X182969000Y-58303682D01*
X182969000Y-58536318D01*
X183014386Y-58764485D01*
X183103412Y-58979413D01*
X183232658Y-59172843D01*
X183397157Y-59337342D01*
X183590587Y-59466588D01*
X183805515Y-59555614D01*
X184033682Y-59601000D01*
X184266318Y-59601000D01*
X184494485Y-59555614D01*
X184709413Y-59466588D01*
X184902843Y-59337342D01*
X185067342Y-59172843D01*
X185196588Y-58979413D01*
X185285614Y-58764485D01*
X185331000Y-58536318D01*
X185331000Y-58303682D01*
X186779000Y-58303682D01*
X186779000Y-58536318D01*
X186824386Y-58764485D01*
X186913412Y-58979413D01*
X187042658Y-59172843D01*
X187207157Y-59337342D01*
X187400587Y-59466588D01*
X187615515Y-59555614D01*
X187843682Y-59601000D01*
X188076318Y-59601000D01*
X188304485Y-59555614D01*
X188519413Y-59466588D01*
X188712843Y-59337342D01*
X188877342Y-59172843D01*
X189006588Y-58979413D01*
X189095614Y-58764485D01*
X189141000Y-58536318D01*
X189141000Y-58303682D01*
X189095614Y-58075515D01*
X189006588Y-57860587D01*
X188877342Y-57667157D01*
X188712843Y-57502658D01*
X188519413Y-57373412D01*
X188304485Y-57284386D01*
X188076318Y-57239000D01*
X187843682Y-57239000D01*
X187615515Y-57284386D01*
X187400587Y-57373412D01*
X187207157Y-57502658D01*
X187042658Y-57667157D01*
X186913412Y-57860587D01*
X186824386Y-58075515D01*
X186779000Y-58303682D01*
X185331000Y-58303682D01*
X185285614Y-58075515D01*
X185196588Y-57860587D01*
X185067342Y-57667157D01*
X184902843Y-57502658D01*
X184709413Y-57373412D01*
X184494485Y-57284386D01*
X184266318Y-57239000D01*
X184033682Y-57239000D01*
X183805515Y-57284386D01*
X183590587Y-57373412D01*
X183397157Y-57502658D01*
X183232658Y-57667157D01*
X183103412Y-57860587D01*
X183014386Y-58075515D01*
X182969000Y-58303682D01*
X65251000Y-58303682D01*
X65251000Y-52757441D01*
X70339164Y-52757441D01*
X70362019Y-52960736D01*
X70549184Y-53041577D01*
X70748523Y-53084351D01*
X70952377Y-53087413D01*
X71152912Y-53050647D01*
X71342420Y-52975466D01*
X71369981Y-52960736D01*
X71392836Y-52757441D01*
X70866000Y-52230605D01*
X70339164Y-52757441D01*
X65251000Y-52757441D01*
X65251000Y-51944662D01*
X68376943Y-51944662D01*
X68399798Y-52147957D01*
X68586963Y-52228798D01*
X68786302Y-52271572D01*
X68990156Y-52274634D01*
X69190691Y-52237868D01*
X69380199Y-52162687D01*
X69407760Y-52147957D01*
X69408949Y-52137377D01*
X69829587Y-52137377D01*
X69866353Y-52337912D01*
X69941534Y-52527420D01*
X69956264Y-52554981D01*
X70159559Y-52577836D01*
X70686395Y-52051000D01*
X71045605Y-52051000D01*
X71572441Y-52577836D01*
X71775736Y-52554981D01*
X71856577Y-52367816D01*
X71899351Y-52168477D01*
X71902413Y-51964623D01*
X71898754Y-51944662D01*
X72301385Y-51944662D01*
X72324240Y-52147957D01*
X72511405Y-52228798D01*
X72710744Y-52271572D01*
X72914598Y-52274634D01*
X73115133Y-52237868D01*
X73304641Y-52162687D01*
X73332202Y-52147957D01*
X73355057Y-51944662D01*
X72828221Y-51417826D01*
X72301385Y-51944662D01*
X71898754Y-51944662D01*
X71865647Y-51764088D01*
X71790466Y-51574580D01*
X71775736Y-51547019D01*
X71572441Y-51524164D01*
X71045605Y-52051000D01*
X70686395Y-52051000D01*
X70159559Y-51524164D01*
X69956264Y-51547019D01*
X69875423Y-51734184D01*
X69832649Y-51933523D01*
X69829587Y-52137377D01*
X69408949Y-52137377D01*
X69430615Y-51944662D01*
X68903779Y-51417826D01*
X68376943Y-51944662D01*
X65251000Y-51944662D01*
X65251000Y-51324598D01*
X67867366Y-51324598D01*
X67904132Y-51525133D01*
X67979313Y-51714641D01*
X67994043Y-51742202D01*
X68197338Y-51765057D01*
X68724174Y-51238221D01*
X69083384Y-51238221D01*
X69610220Y-51765057D01*
X69813515Y-51742202D01*
X69894356Y-51555037D01*
X69937130Y-51355698D01*
X69937297Y-51344559D01*
X70339164Y-51344559D01*
X70866000Y-51871395D01*
X71392836Y-51344559D01*
X71390592Y-51324598D01*
X71791808Y-51324598D01*
X71828574Y-51525133D01*
X71903755Y-51714641D01*
X71918485Y-51742202D01*
X72121780Y-51765057D01*
X72648616Y-51238221D01*
X73007826Y-51238221D01*
X73534662Y-51765057D01*
X73737957Y-51742202D01*
X73818798Y-51555037D01*
X73861572Y-51355698D01*
X73864634Y-51151844D01*
X73827868Y-50951309D01*
X73752687Y-50761801D01*
X73737957Y-50734240D01*
X73534662Y-50711385D01*
X73007826Y-51238221D01*
X72648616Y-51238221D01*
X72121780Y-50711385D01*
X71918485Y-50734240D01*
X71837644Y-50921405D01*
X71794870Y-51120744D01*
X71791808Y-51324598D01*
X71390592Y-51324598D01*
X71369981Y-51141264D01*
X71182816Y-51060423D01*
X70983477Y-51017649D01*
X70779623Y-51014587D01*
X70579088Y-51051353D01*
X70389580Y-51126534D01*
X70362019Y-51141264D01*
X70339164Y-51344559D01*
X69937297Y-51344559D01*
X69940192Y-51151844D01*
X69903426Y-50951309D01*
X69828245Y-50761801D01*
X69813515Y-50734240D01*
X69610220Y-50711385D01*
X69083384Y-51238221D01*
X68724174Y-51238221D01*
X68197338Y-50711385D01*
X67994043Y-50734240D01*
X67913202Y-50921405D01*
X67870428Y-51120744D01*
X67867366Y-51324598D01*
X65251000Y-51324598D01*
X65251000Y-50531780D01*
X68376943Y-50531780D01*
X68903779Y-51058616D01*
X69430615Y-50531780D01*
X72301385Y-50531780D01*
X72828221Y-51058616D01*
X73355057Y-50531780D01*
X73332202Y-50328485D01*
X73145037Y-50247644D01*
X72945698Y-50204870D01*
X72741844Y-50201808D01*
X72541309Y-50238574D01*
X72351801Y-50313755D01*
X72324240Y-50328485D01*
X72301385Y-50531780D01*
X69430615Y-50531780D01*
X69407760Y-50328485D01*
X69220595Y-50247644D01*
X69021256Y-50204870D01*
X68817402Y-50201808D01*
X68616867Y-50238574D01*
X68427359Y-50313755D01*
X68399798Y-50328485D01*
X68376943Y-50531780D01*
X65251000Y-50531780D01*
X65251000Y-49982441D01*
X67564164Y-49982441D01*
X67587019Y-50185736D01*
X67774184Y-50266577D01*
X67973523Y-50309351D01*
X68177377Y-50312413D01*
X68377912Y-50275647D01*
X68567420Y-50200466D01*
X68594981Y-50185736D01*
X68617836Y-49982441D01*
X73114164Y-49982441D01*
X73137019Y-50185736D01*
X73324184Y-50266577D01*
X73523523Y-50309351D01*
X73727377Y-50312413D01*
X73927912Y-50275647D01*
X74117420Y-50200466D01*
X74144981Y-50185736D01*
X74167836Y-49982441D01*
X73641000Y-49455605D01*
X73114164Y-49982441D01*
X68617836Y-49982441D01*
X68091000Y-49455605D01*
X67564164Y-49982441D01*
X65251000Y-49982441D01*
X65251000Y-49362377D01*
X67054587Y-49362377D01*
X67091353Y-49562912D01*
X67166534Y-49752420D01*
X67181264Y-49779981D01*
X67384559Y-49802836D01*
X67911395Y-49276000D01*
X68270605Y-49276000D01*
X68797441Y-49802836D01*
X69000736Y-49779981D01*
X69081577Y-49592816D01*
X69124351Y-49393477D01*
X69124818Y-49362377D01*
X72604587Y-49362377D01*
X72641353Y-49562912D01*
X72716534Y-49752420D01*
X72731264Y-49779981D01*
X72934559Y-49802836D01*
X73461395Y-49276000D01*
X73820605Y-49276000D01*
X74347441Y-49802836D01*
X74550736Y-49779981D01*
X74631577Y-49592816D01*
X74674351Y-49393477D01*
X74677413Y-49189623D01*
X74640647Y-48989088D01*
X74565466Y-48799580D01*
X74550736Y-48772019D01*
X74347441Y-48749164D01*
X73820605Y-49276000D01*
X73461395Y-49276000D01*
X72934559Y-48749164D01*
X72731264Y-48772019D01*
X72650423Y-48959184D01*
X72607649Y-49158523D01*
X72604587Y-49362377D01*
X69124818Y-49362377D01*
X69127413Y-49189623D01*
X69090647Y-48989088D01*
X69015466Y-48799580D01*
X69000736Y-48772019D01*
X68797441Y-48749164D01*
X68270605Y-49276000D01*
X67911395Y-49276000D01*
X67384559Y-48749164D01*
X67181264Y-48772019D01*
X67100423Y-48959184D01*
X67057649Y-49158523D01*
X67054587Y-49362377D01*
X65251000Y-49362377D01*
X65251000Y-48569559D01*
X67564164Y-48569559D01*
X68091000Y-49096395D01*
X68617836Y-48569559D01*
X73114164Y-48569559D01*
X73641000Y-49096395D01*
X74167836Y-48569559D01*
X74144981Y-48366264D01*
X73957816Y-48285423D01*
X73758477Y-48242649D01*
X73554623Y-48239587D01*
X73354088Y-48276353D01*
X73164580Y-48351534D01*
X73137019Y-48366264D01*
X73114164Y-48569559D01*
X68617836Y-48569559D01*
X68594981Y-48366264D01*
X68407816Y-48285423D01*
X68208477Y-48242649D01*
X68004623Y-48239587D01*
X67804088Y-48276353D01*
X67614580Y-48351534D01*
X67587019Y-48366264D01*
X67564164Y-48569559D01*
X65251000Y-48569559D01*
X65251000Y-48020220D01*
X68376943Y-48020220D01*
X68399798Y-48223515D01*
X68586963Y-48304356D01*
X68786302Y-48347130D01*
X68990156Y-48350192D01*
X69190691Y-48313426D01*
X69380199Y-48238245D01*
X69407760Y-48223515D01*
X69430615Y-48020220D01*
X72301385Y-48020220D01*
X72324240Y-48223515D01*
X72511405Y-48304356D01*
X72710744Y-48347130D01*
X72914598Y-48350192D01*
X73115133Y-48313426D01*
X73304641Y-48238245D01*
X73332202Y-48223515D01*
X73342725Y-48129913D01*
X111709200Y-48129913D01*
X111709200Y-48390087D01*
X111759957Y-48645263D01*
X111859522Y-48885634D01*
X112004067Y-49101961D01*
X112188039Y-49285933D01*
X112404366Y-49430478D01*
X112644737Y-49530043D01*
X112899913Y-49580800D01*
X113160087Y-49580800D01*
X113415263Y-49530043D01*
X113655634Y-49430478D01*
X113871961Y-49285933D01*
X114055933Y-49101961D01*
X114200478Y-48885634D01*
X114300000Y-48645367D01*
X114399522Y-48885634D01*
X114544067Y-49101961D01*
X114728039Y-49285933D01*
X114944366Y-49430478D01*
X115184737Y-49530043D01*
X115439913Y-49580800D01*
X115700087Y-49580800D01*
X115955263Y-49530043D01*
X116195634Y-49430478D01*
X116411961Y-49285933D01*
X116595933Y-49101961D01*
X116740478Y-48885634D01*
X116840000Y-48645367D01*
X116939522Y-48885634D01*
X117084067Y-49101961D01*
X117268039Y-49285933D01*
X117484366Y-49430478D01*
X117724737Y-49530043D01*
X117979913Y-49580800D01*
X118240087Y-49580800D01*
X118495263Y-49530043D01*
X118735634Y-49430478D01*
X118951961Y-49285933D01*
X119135933Y-49101961D01*
X119280478Y-48885634D01*
X119380000Y-48645367D01*
X119479522Y-48885634D01*
X119624067Y-49101961D01*
X119808039Y-49285933D01*
X120024366Y-49430478D01*
X120264737Y-49530043D01*
X120519913Y-49580800D01*
X120780087Y-49580800D01*
X121035263Y-49530043D01*
X121275634Y-49430478D01*
X121491961Y-49285933D01*
X121675933Y-49101961D01*
X121820478Y-48885634D01*
X121920000Y-48645367D01*
X122019522Y-48885634D01*
X122164067Y-49101961D01*
X122348039Y-49285933D01*
X122564366Y-49430478D01*
X122804737Y-49530043D01*
X123059913Y-49580800D01*
X123320087Y-49580800D01*
X123575263Y-49530043D01*
X123815634Y-49430478D01*
X124031961Y-49285933D01*
X124215933Y-49101961D01*
X124360478Y-48885634D01*
X124460000Y-48645367D01*
X124559522Y-48885634D01*
X124704067Y-49101961D01*
X124888039Y-49285933D01*
X125104366Y-49430478D01*
X125344737Y-49530043D01*
X125599913Y-49580800D01*
X125860087Y-49580800D01*
X126115263Y-49530043D01*
X126355634Y-49430478D01*
X126571961Y-49285933D01*
X126755933Y-49101961D01*
X126900478Y-48885634D01*
X127000000Y-48645367D01*
X127099522Y-48885634D01*
X127244067Y-49101961D01*
X127428039Y-49285933D01*
X127644366Y-49430478D01*
X127884633Y-49530000D01*
X127644366Y-49629522D01*
X127428039Y-49774067D01*
X127244067Y-49958039D01*
X127099522Y-50174366D01*
X126999957Y-50414737D01*
X126949200Y-50669913D01*
X126949200Y-50930087D01*
X126999957Y-51185263D01*
X127099522Y-51425634D01*
X127244067Y-51641961D01*
X127428039Y-51825933D01*
X127644366Y-51970478D01*
X127884737Y-52070043D01*
X128139913Y-52120800D01*
X128400087Y-52120800D01*
X128655263Y-52070043D01*
X128895634Y-51970478D01*
X129111961Y-51825933D01*
X129295933Y-51641961D01*
X129440478Y-51425634D01*
X129540000Y-51185367D01*
X129639522Y-51425634D01*
X129784067Y-51641961D01*
X129968039Y-51825933D01*
X130184366Y-51970478D01*
X130424737Y-52070043D01*
X130679913Y-52120800D01*
X130940087Y-52120800D01*
X131195263Y-52070043D01*
X131435634Y-51970478D01*
X131651961Y-51825933D01*
X131835933Y-51641961D01*
X131980478Y-51425634D01*
X132080000Y-51185367D01*
X132179522Y-51425634D01*
X132324067Y-51641961D01*
X132508039Y-51825933D01*
X132724366Y-51970478D01*
X132964737Y-52070043D01*
X133219913Y-52120800D01*
X133480087Y-52120800D01*
X133735263Y-52070043D01*
X133975634Y-51970478D01*
X134191961Y-51825933D01*
X134375933Y-51641961D01*
X134520478Y-51425634D01*
X134620000Y-51185367D01*
X134719522Y-51425634D01*
X134864067Y-51641961D01*
X135048039Y-51825933D01*
X135264366Y-51970478D01*
X135504737Y-52070043D01*
X135759913Y-52120800D01*
X136020087Y-52120800D01*
X136275263Y-52070043D01*
X136515634Y-51970478D01*
X136731961Y-51825933D01*
X136915933Y-51641961D01*
X137060478Y-51425634D01*
X137160000Y-51185367D01*
X137259522Y-51425634D01*
X137404067Y-51641961D01*
X137588039Y-51825933D01*
X137804366Y-51970478D01*
X138044737Y-52070043D01*
X138299913Y-52120800D01*
X138560087Y-52120800D01*
X138815263Y-52070043D01*
X139055634Y-51970478D01*
X139271961Y-51825933D01*
X139455933Y-51641961D01*
X139600478Y-51425634D01*
X139700000Y-51185367D01*
X139799522Y-51425634D01*
X139944067Y-51641961D01*
X140128039Y-51825933D01*
X140344366Y-51970478D01*
X140584737Y-52070043D01*
X140839913Y-52120800D01*
X141100087Y-52120800D01*
X141355263Y-52070043D01*
X141595634Y-51970478D01*
X141811961Y-51825933D01*
X141995933Y-51641961D01*
X142140478Y-51425634D01*
X142240043Y-51185263D01*
X142290800Y-50930087D01*
X142290800Y-50669913D01*
X142240043Y-50414737D01*
X142140478Y-50174366D01*
X141995933Y-49958039D01*
X141811961Y-49774067D01*
X141668330Y-49678096D01*
X141794377Y-49610723D01*
X141882871Y-49352476D01*
X140970000Y-48439605D01*
X140057129Y-49352476D01*
X140145623Y-49610723D01*
X140277332Y-49674313D01*
X140128039Y-49774067D01*
X139944067Y-49958039D01*
X139799522Y-50174366D01*
X139700000Y-50414633D01*
X139600478Y-50174366D01*
X139455933Y-49958039D01*
X139271961Y-49774067D01*
X139128330Y-49678096D01*
X139254377Y-49610723D01*
X139342871Y-49352476D01*
X138430000Y-48439605D01*
X137517129Y-49352476D01*
X137605623Y-49610723D01*
X137737332Y-49674313D01*
X137588039Y-49774067D01*
X137404067Y-49958039D01*
X137259522Y-50174366D01*
X137160000Y-50414633D01*
X137060478Y-50174366D01*
X136915933Y-49958039D01*
X136731961Y-49774067D01*
X136588330Y-49678096D01*
X136714377Y-49610723D01*
X136802871Y-49352476D01*
X135890000Y-48439605D01*
X134977129Y-49352476D01*
X135065623Y-49610723D01*
X135197332Y-49674313D01*
X135048039Y-49774067D01*
X134864067Y-49958039D01*
X134719522Y-50174366D01*
X134620000Y-50414633D01*
X134520478Y-50174366D01*
X134375933Y-49958039D01*
X134191961Y-49774067D01*
X133975634Y-49629522D01*
X133735367Y-49530000D01*
X133975634Y-49430478D01*
X134191961Y-49285933D01*
X134375933Y-49101961D01*
X134471904Y-48958330D01*
X134539277Y-49084377D01*
X134797524Y-49172871D01*
X135710395Y-48260000D01*
X136069605Y-48260000D01*
X136982476Y-49172871D01*
X137160000Y-49112039D01*
X137337524Y-49172871D01*
X138250395Y-48260000D01*
X138609605Y-48260000D01*
X139522476Y-49172871D01*
X139700000Y-49112039D01*
X139877524Y-49172871D01*
X140790395Y-48260000D01*
X141149605Y-48260000D01*
X142062476Y-49172871D01*
X142320723Y-49084377D01*
X142455597Y-48805024D01*
X142533381Y-48504725D01*
X142551084Y-48195023D01*
X142508027Y-47887816D01*
X142405865Y-47594914D01*
X142320723Y-47435623D01*
X142062476Y-47347129D01*
X141149605Y-48260000D01*
X140790395Y-48260000D01*
X139877524Y-47347129D01*
X139700000Y-47407961D01*
X139522476Y-47347129D01*
X138609605Y-48260000D01*
X138250395Y-48260000D01*
X137337524Y-47347129D01*
X137160000Y-47407961D01*
X136982476Y-47347129D01*
X136069605Y-48260000D01*
X135710395Y-48260000D01*
X134797524Y-47347129D01*
X134539277Y-47435623D01*
X134475687Y-47567332D01*
X134375933Y-47418039D01*
X134191961Y-47234067D01*
X134092373Y-47167524D01*
X134977129Y-47167524D01*
X135890000Y-48080395D01*
X136802871Y-47167524D01*
X137517129Y-47167524D01*
X138430000Y-48080395D01*
X139342871Y-47167524D01*
X140057129Y-47167524D01*
X140970000Y-48080395D01*
X141882871Y-47167524D01*
X141794377Y-46909277D01*
X141515024Y-46774403D01*
X141214725Y-46696619D01*
X140905023Y-46678916D01*
X140597816Y-46721973D01*
X140304914Y-46824135D01*
X140145623Y-46909277D01*
X140057129Y-47167524D01*
X139342871Y-47167524D01*
X139254377Y-46909277D01*
X138975024Y-46774403D01*
X138674725Y-46696619D01*
X138365023Y-46678916D01*
X138057816Y-46721973D01*
X137764914Y-46824135D01*
X137605623Y-46909277D01*
X137517129Y-47167524D01*
X136802871Y-47167524D01*
X136714377Y-46909277D01*
X136435024Y-46774403D01*
X136134725Y-46696619D01*
X135825023Y-46678916D01*
X135517816Y-46721973D01*
X135224914Y-46824135D01*
X135065623Y-46909277D01*
X134977129Y-47167524D01*
X134092373Y-47167524D01*
X133975634Y-47089522D01*
X133735263Y-46989957D01*
X133480087Y-46939200D01*
X133219913Y-46939200D01*
X132964737Y-46989957D01*
X132724366Y-47089522D01*
X132508039Y-47234067D01*
X132324067Y-47418039D01*
X132179522Y-47634366D01*
X132080000Y-47874633D01*
X131980478Y-47634366D01*
X131835933Y-47418039D01*
X131651961Y-47234067D01*
X131435634Y-47089522D01*
X131195263Y-46989957D01*
X130940087Y-46939200D01*
X130679913Y-46939200D01*
X130424737Y-46989957D01*
X130184366Y-47089522D01*
X129968039Y-47234067D01*
X129784067Y-47418039D01*
X129639522Y-47634366D01*
X129540000Y-47874633D01*
X129440478Y-47634366D01*
X129295933Y-47418039D01*
X129111961Y-47234067D01*
X128895634Y-47089522D01*
X128655263Y-46989957D01*
X128400087Y-46939200D01*
X128139913Y-46939200D01*
X127884737Y-46989957D01*
X127644366Y-47089522D01*
X127428039Y-47234067D01*
X127244067Y-47418039D01*
X127099522Y-47634366D01*
X127000000Y-47874633D01*
X126900478Y-47634366D01*
X126755933Y-47418039D01*
X126571961Y-47234067D01*
X126355634Y-47089522D01*
X126115263Y-46989957D01*
X125860087Y-46939200D01*
X125599913Y-46939200D01*
X125344737Y-46989957D01*
X125104366Y-47089522D01*
X124888039Y-47234067D01*
X124704067Y-47418039D01*
X124559522Y-47634366D01*
X124460000Y-47874633D01*
X124360478Y-47634366D01*
X124215933Y-47418039D01*
X124031961Y-47234067D01*
X123815634Y-47089522D01*
X123575263Y-46989957D01*
X123320087Y-46939200D01*
X123059913Y-46939200D01*
X122804737Y-46989957D01*
X122564366Y-47089522D01*
X122348039Y-47234067D01*
X122164067Y-47418039D01*
X122019522Y-47634366D01*
X121920000Y-47874633D01*
X121820478Y-47634366D01*
X121675933Y-47418039D01*
X121491961Y-47234067D01*
X121275634Y-47089522D01*
X121035263Y-46989957D01*
X120780087Y-46939200D01*
X120519913Y-46939200D01*
X120264737Y-46989957D01*
X120024366Y-47089522D01*
X119808039Y-47234067D01*
X119624067Y-47418039D01*
X119479522Y-47634366D01*
X119380000Y-47874633D01*
X119280478Y-47634366D01*
X119135933Y-47418039D01*
X118951961Y-47234067D01*
X118735634Y-47089522D01*
X118495263Y-46989957D01*
X118240087Y-46939200D01*
X117979913Y-46939200D01*
X117724737Y-46989957D01*
X117484366Y-47089522D01*
X117268039Y-47234067D01*
X117084067Y-47418039D01*
X116939522Y-47634366D01*
X116840000Y-47874633D01*
X116740478Y-47634366D01*
X116595933Y-47418039D01*
X116411961Y-47234067D01*
X116195634Y-47089522D01*
X115955263Y-46989957D01*
X115700087Y-46939200D01*
X115439913Y-46939200D01*
X115184737Y-46989957D01*
X114944366Y-47089522D01*
X114728039Y-47234067D01*
X114544067Y-47418039D01*
X114399522Y-47634366D01*
X114300000Y-47874633D01*
X114200478Y-47634366D01*
X114055933Y-47418039D01*
X113871961Y-47234067D01*
X113655634Y-47089522D01*
X113415263Y-46989957D01*
X113160087Y-46939200D01*
X112899913Y-46939200D01*
X112644737Y-46989957D01*
X112404366Y-47089522D01*
X112188039Y-47234067D01*
X112004067Y-47418039D01*
X111859522Y-47634366D01*
X111759957Y-47874737D01*
X111709200Y-48129913D01*
X73342725Y-48129913D01*
X73355057Y-48020220D01*
X72828221Y-47493384D01*
X72301385Y-48020220D01*
X69430615Y-48020220D01*
X68903779Y-47493384D01*
X68376943Y-48020220D01*
X65251000Y-48020220D01*
X65251000Y-47400156D01*
X67867366Y-47400156D01*
X67904132Y-47600691D01*
X67979313Y-47790199D01*
X67994043Y-47817760D01*
X68197338Y-47840615D01*
X68724174Y-47313779D01*
X69083384Y-47313779D01*
X69610220Y-47840615D01*
X69813515Y-47817760D01*
X69894356Y-47630595D01*
X69937130Y-47431256D01*
X69940192Y-47227402D01*
X69936533Y-47207441D01*
X70339164Y-47207441D01*
X70362019Y-47410736D01*
X70549184Y-47491577D01*
X70748523Y-47534351D01*
X70952377Y-47537413D01*
X71152912Y-47500647D01*
X71342420Y-47425466D01*
X71369981Y-47410736D01*
X71371170Y-47400156D01*
X71791808Y-47400156D01*
X71828574Y-47600691D01*
X71903755Y-47790199D01*
X71918485Y-47817760D01*
X72121780Y-47840615D01*
X72648616Y-47313779D01*
X73007826Y-47313779D01*
X73534662Y-47840615D01*
X73737957Y-47817760D01*
X73818798Y-47630595D01*
X73861572Y-47431256D01*
X73864634Y-47227402D01*
X73827868Y-47026867D01*
X73752687Y-46837359D01*
X73737957Y-46809798D01*
X73534662Y-46786943D01*
X73007826Y-47313779D01*
X72648616Y-47313779D01*
X72121780Y-46786943D01*
X71918485Y-46809798D01*
X71837644Y-46996963D01*
X71794870Y-47196302D01*
X71791808Y-47400156D01*
X71371170Y-47400156D01*
X71392836Y-47207441D01*
X70866000Y-46680605D01*
X70339164Y-47207441D01*
X69936533Y-47207441D01*
X69903426Y-47026867D01*
X69828245Y-46837359D01*
X69813515Y-46809798D01*
X69610220Y-46786943D01*
X69083384Y-47313779D01*
X68724174Y-47313779D01*
X68197338Y-46786943D01*
X67994043Y-46809798D01*
X67913202Y-46996963D01*
X67870428Y-47196302D01*
X67867366Y-47400156D01*
X65251000Y-47400156D01*
X65251000Y-46607338D01*
X68376943Y-46607338D01*
X68903779Y-47134174D01*
X69430615Y-46607338D01*
X69428371Y-46587377D01*
X69829587Y-46587377D01*
X69866353Y-46787912D01*
X69941534Y-46977420D01*
X69956264Y-47004981D01*
X70159559Y-47027836D01*
X70686395Y-46501000D01*
X71045605Y-46501000D01*
X71572441Y-47027836D01*
X71775736Y-47004981D01*
X71856577Y-46817816D01*
X71899351Y-46618477D01*
X71899518Y-46607338D01*
X72301385Y-46607338D01*
X72828221Y-47134174D01*
X73355057Y-46607338D01*
X73332202Y-46404043D01*
X73145037Y-46323202D01*
X72945698Y-46280428D01*
X72741844Y-46277366D01*
X72541309Y-46314132D01*
X72351801Y-46389313D01*
X72324240Y-46404043D01*
X72301385Y-46607338D01*
X71899518Y-46607338D01*
X71902413Y-46414623D01*
X71865647Y-46214088D01*
X71790466Y-46024580D01*
X71775736Y-45997019D01*
X71572441Y-45974164D01*
X71045605Y-46501000D01*
X70686395Y-46501000D01*
X70159559Y-45974164D01*
X69956264Y-45997019D01*
X69875423Y-46184184D01*
X69832649Y-46383523D01*
X69829587Y-46587377D01*
X69428371Y-46587377D01*
X69407760Y-46404043D01*
X69220595Y-46323202D01*
X69021256Y-46280428D01*
X68817402Y-46277366D01*
X68616867Y-46314132D01*
X68427359Y-46389313D01*
X68399798Y-46404043D01*
X68376943Y-46607338D01*
X65251000Y-46607338D01*
X65251000Y-45794559D01*
X70339164Y-45794559D01*
X70866000Y-46321395D01*
X71392836Y-45794559D01*
X71369981Y-45591264D01*
X71182816Y-45510423D01*
X70983477Y-45467649D01*
X70779623Y-45464587D01*
X70579088Y-45501353D01*
X70389580Y-45576534D01*
X70362019Y-45591264D01*
X70339164Y-45794559D01*
X65251000Y-45794559D01*
X65251000Y-43661000D01*
X208459400Y-43661000D01*
X208459401Y-139219000D01*
G37*
G04 #@! TD.AperFunction*
M02*
