M48
; DRILL file {KiCad (6.0.5-0)} date Monday, August 22, 2022 at 04:10:27 pm
; FORMAT={-:-/ absolute / metric / decimal}
; #@! TF.CreationDate,2022-08-22T16:10:27-04:00
; #@! TF.GenerationSoftware,Kicad,Pcbnew,(6.0.5-0)
; #@! TF.FileFunction,Plated,1,2,PTH
FMAT,2
METRIC
; #@! TA.AperFunction,Plated,PTH,ViaDrill
T1C0.400
; #@! TA.AperFunction,Plated,PTH,ComponentDrill
T2C0.762
; #@! TA.AperFunction,Plated,PTH,ComponentDrill
T3C0.800
; #@! TA.AperFunction,Plated,PTH,ComponentDrill
T4C1.016
; #@! TA.AperFunction,Plated,PTH,ComponentDrill
T5C1.300
; #@! TA.AperFunction,Plated,PTH,ComponentDrill
T6C3.200
%
G90
G05
T1
X95.25Y-80.772
X97.536Y-98.044
X99.06Y-114.3
X104.14Y-119.38
X106.172Y-71.12
X114.935Y-89.535
X126.365Y-96.52
X126.365Y-110.49
X126.365Y-123.19
X138.43Y-89.535
X145.796Y-70.612
X150.495Y-106.045
X151.13Y-89.916
X160.02Y-78.105
X163.83Y-109.855
X173.228Y-67.31
X173.228Y-83.312
X173.228Y-100.076
X173.228Y-120.015
X184.785Y-109.728
X195.58Y-102.87
X196.088Y-121.92
X199.644Y-72.644
T2
X195.58Y-81.915
X198.12Y-81.915
X200.66Y-81.915
X203.2Y-81.915
T3
X195.58Y-92.73
X195.58Y-95.23
X198.755Y-89.515
X198.755Y-99.675
X201.93Y-89.515
X201.93Y-99.675
T4
X107.95Y-95.25
X107.95Y-97.79
X107.95Y-100.33
X107.95Y-102.87
X107.95Y-105.41
X107.95Y-107.95
X107.95Y-110.49
X107.95Y-113.03
X107.95Y-115.57
X107.95Y-118.11
X110.49Y-95.25
X110.49Y-97.79
X110.49Y-100.33
X110.49Y-102.87
X110.49Y-105.41
X110.49Y-107.95
X110.49Y-110.49
X110.49Y-113.03
X110.49Y-115.57
X110.49Y-118.11
X128.27Y-82.55
X128.27Y-85.09
X130.81Y-82.55
X130.81Y-85.09
X133.35Y-82.55
X133.35Y-85.09
X135.89Y-82.55
X135.89Y-85.09
X138.43Y-82.55
X138.43Y-85.09
X140.97Y-82.55
X140.97Y-85.09
X146.05Y-95.25
X146.05Y-97.79
X146.05Y-100.33
X146.05Y-102.87
X146.05Y-105.41
X146.05Y-107.95
X146.05Y-110.49
X146.05Y-113.03
X146.05Y-115.57
X148.59Y-95.25
X148.59Y-97.79
X148.59Y-100.33
X148.59Y-102.87
X148.59Y-105.41
X148.59Y-107.95
X148.59Y-110.49
X148.59Y-113.03
X148.59Y-115.57
X153.67Y-97.79
X153.67Y-100.33
X153.67Y-102.87
X153.67Y-105.41
X153.67Y-107.95
X153.67Y-110.49
X153.67Y-113.03
X153.67Y-115.57
X153.67Y-118.11
X156.21Y-97.79
X156.21Y-100.33
X156.21Y-102.87
X156.21Y-105.41
X156.21Y-107.95
X156.21Y-110.49
X156.21Y-113.03
X156.21Y-115.57
X156.21Y-118.11
X172.72Y-74.295
X172.72Y-76.835
X175.26Y-74.295
X175.26Y-76.835
X186.69Y-85.09
X186.69Y-87.63
X186.69Y-90.17
X186.69Y-92.71
X186.69Y-95.25
X186.69Y-97.79
X189.23Y-69.85
X189.23Y-72.39
X189.23Y-74.93
X189.23Y-77.47
X189.23Y-80.01
X189.23Y-82.55
X189.23Y-85.09
X189.23Y-87.63
X189.23Y-90.17
X189.23Y-92.71
X189.23Y-95.25
X189.23Y-97.79
X191.77Y-69.85
X191.77Y-72.39
X191.77Y-74.93
X191.77Y-77.47
X191.77Y-80.01
X191.77Y-82.55
X191.77Y-85.09
X191.77Y-87.63
X191.77Y-90.17
X191.77Y-92.71
X191.77Y-95.25
X191.77Y-97.79
T5
X200.838Y-107.955
X200.838Y-113.035
T6
X95.25Y-66.04
X95.25Y-121.92
X201.6Y-121.925
X201.6Y-66.045
T0
M30
