%FSLAX45Y45*%
G04 Gerber Fmt 4.5, Leading zero omitted, Abs format (unit mm)*
G04 Created by KiCad (PCBNEW (6.0.5-0)) date 2022-08-22 16:10:28*
%MOMM*%
%LPD*%
G01*
G04 APERTURE LIST*
%TA.AperFunction,Profile*%
%ADD10C,0.100000*%
%TD*%
%ADD11C,0.200000*%
%ADD12C,0.300000*%
%ADD13C,0.304800*%
%ADD14C,0.330200*%
G04 APERTURE END LIST*
D10*
X9144000Y-6223000D02*
X20574000Y-6223000D01*
X20574000Y-6223000D02*
X20574000Y-12573000D01*
X20574000Y-12573000D02*
X9144000Y-12573000D01*
X9144000Y-12573000D02*
X9144000Y-6223000D01*
D11*
D12*
X10134100Y-7399300D02*
X10434100Y-7699300D01*
X10434100Y-7399300D02*
X10134100Y-7699300D01*
X14534100Y-6499300D02*
X14834100Y-6799300D01*
X14834100Y-6499300D02*
X14534100Y-6799300D01*
D13*
X11074400Y-8382000D02*
G75*
G03*
X11074400Y-8382000I-152400J0D01*
G01*
X11074400Y-12192000D02*
G75*
G03*
X11074400Y-12192000I-152400J0D01*
G01*
X14884400Y-8382000D02*
G75*
G03*
X14884400Y-8382000I-152400J0D01*
G01*
X14884400Y-12192000D02*
G75*
G03*
X14884400Y-12192000I-152400J0D01*
G01*
D14*
X15494000Y-6438900D02*
X15494000Y-6769100D01*
X15328900Y-6604000D02*
X15659100Y-6604000D01*
X15494000Y-12026900D02*
X15494000Y-12357100D01*
X15328900Y-12192000D02*
X15659100Y-12192000D01*
X19050000Y-6438900D02*
X19050000Y-6769100D01*
X18884900Y-6604000D02*
X19215100Y-6604000D01*
X19050000Y-12026900D02*
X19050000Y-12357100D01*
X18884900Y-12192000D02*
X19215100Y-12192000D01*
D11*
X9396619Y-12888476D02*
X9396619Y-12688476D01*
X9444238Y-12688476D01*
X9472810Y-12698000D01*
X9491857Y-12717048D01*
X9501381Y-12736095D01*
X9510905Y-12774190D01*
X9510905Y-12802762D01*
X9501381Y-12840857D01*
X9491857Y-12859905D01*
X9472810Y-12878952D01*
X9444238Y-12888476D01*
X9396619Y-12888476D01*
X9596619Y-12888476D02*
X9596619Y-12755143D01*
X9596619Y-12793238D02*
X9606143Y-12774190D01*
X9615667Y-12764667D01*
X9634714Y-12755143D01*
X9653762Y-12755143D01*
X9720429Y-12888476D02*
X9720429Y-12755143D01*
X9720429Y-12688476D02*
X9710905Y-12698000D01*
X9720429Y-12707524D01*
X9729952Y-12698000D01*
X9720429Y-12688476D01*
X9720429Y-12707524D01*
X9844238Y-12888476D02*
X9825190Y-12878952D01*
X9815667Y-12859905D01*
X9815667Y-12688476D01*
X9949000Y-12888476D02*
X9929952Y-12878952D01*
X9920429Y-12859905D01*
X9920429Y-12688476D01*
X10177571Y-12888476D02*
X10177571Y-12688476D01*
X10244238Y-12831333D01*
X10310905Y-12688476D01*
X10310905Y-12888476D01*
X10491857Y-12888476D02*
X10491857Y-12783714D01*
X10482333Y-12764667D01*
X10463286Y-12755143D01*
X10425190Y-12755143D01*
X10406143Y-12764667D01*
X10491857Y-12878952D02*
X10472810Y-12888476D01*
X10425190Y-12888476D01*
X10406143Y-12878952D01*
X10396619Y-12859905D01*
X10396619Y-12840857D01*
X10406143Y-12821809D01*
X10425190Y-12812286D01*
X10472810Y-12812286D01*
X10491857Y-12802762D01*
X10587095Y-12755143D02*
X10587095Y-12955143D01*
X10587095Y-12764667D02*
X10606143Y-12755143D01*
X10644238Y-12755143D01*
X10663286Y-12764667D01*
X10672810Y-12774190D01*
X10682333Y-12793238D01*
X10682333Y-12850381D01*
X10672810Y-12869428D01*
X10663286Y-12878952D01*
X10644238Y-12888476D01*
X10606143Y-12888476D01*
X10587095Y-12878952D01*
X10768048Y-12869428D02*
X10777571Y-12878952D01*
X10768048Y-12888476D01*
X10758524Y-12878952D01*
X10768048Y-12869428D01*
X10768048Y-12888476D01*
X10768048Y-12764667D02*
X10777571Y-12774190D01*
X10768048Y-12783714D01*
X10758524Y-12774190D01*
X10768048Y-12764667D01*
X10768048Y-12783714D01*
X8939000Y-13118000D02*
X9139000Y-13318000D01*
X9139000Y-13118000D02*
X8939000Y-13318000D01*
X9377571Y-13108476D02*
X9501381Y-13108476D01*
X9434714Y-13184667D01*
X9463286Y-13184667D01*
X9482333Y-13194190D01*
X9491857Y-13203714D01*
X9501381Y-13222762D01*
X9501381Y-13270381D01*
X9491857Y-13289428D01*
X9482333Y-13298952D01*
X9463286Y-13308476D01*
X9406143Y-13308476D01*
X9387095Y-13298952D01*
X9377571Y-13289428D01*
X9587095Y-13289428D02*
X9596619Y-13298952D01*
X9587095Y-13308476D01*
X9577571Y-13298952D01*
X9587095Y-13289428D01*
X9587095Y-13308476D01*
X9720429Y-13108476D02*
X9739476Y-13108476D01*
X9758524Y-13118000D01*
X9768048Y-13127524D01*
X9777571Y-13146571D01*
X9787095Y-13184667D01*
X9787095Y-13232286D01*
X9777571Y-13270381D01*
X9768048Y-13289428D01*
X9758524Y-13298952D01*
X9739476Y-13308476D01*
X9720429Y-13308476D01*
X9701381Y-13298952D01*
X9691857Y-13289428D01*
X9682333Y-13270381D01*
X9672810Y-13232286D01*
X9672810Y-13184667D01*
X9682333Y-13146571D01*
X9691857Y-13127524D01*
X9701381Y-13118000D01*
X9720429Y-13108476D01*
X9910905Y-13108476D02*
X9929952Y-13108476D01*
X9949000Y-13118000D01*
X9958524Y-13127524D01*
X9968048Y-13146571D01*
X9977571Y-13184667D01*
X9977571Y-13232286D01*
X9968048Y-13270381D01*
X9958524Y-13289428D01*
X9949000Y-13298952D01*
X9929952Y-13308476D01*
X9910905Y-13308476D01*
X9891857Y-13298952D01*
X9882333Y-13289428D01*
X9872810Y-13270381D01*
X9863286Y-13232286D01*
X9863286Y-13184667D01*
X9872810Y-13146571D01*
X9882333Y-13127524D01*
X9891857Y-13118000D01*
X9910905Y-13108476D01*
X10101381Y-13108476D02*
X10120429Y-13108476D01*
X10139476Y-13118000D01*
X10149000Y-13127524D01*
X10158524Y-13146571D01*
X10168048Y-13184667D01*
X10168048Y-13232286D01*
X10158524Y-13270381D01*
X10149000Y-13289428D01*
X10139476Y-13298952D01*
X10120429Y-13308476D01*
X10101381Y-13308476D01*
X10082333Y-13298952D01*
X10072810Y-13289428D01*
X10063286Y-13270381D01*
X10053762Y-13232286D01*
X10053762Y-13184667D01*
X10063286Y-13146571D01*
X10072810Y-13127524D01*
X10082333Y-13118000D01*
X10101381Y-13108476D01*
X10253762Y-13308476D02*
X10253762Y-13175143D01*
X10253762Y-13194190D02*
X10263286Y-13184667D01*
X10282333Y-13175143D01*
X10310905Y-13175143D01*
X10329952Y-13184667D01*
X10339476Y-13203714D01*
X10339476Y-13308476D01*
X10339476Y-13203714D02*
X10349000Y-13184667D01*
X10368048Y-13175143D01*
X10396619Y-13175143D01*
X10415667Y-13184667D01*
X10425190Y-13203714D01*
X10425190Y-13308476D01*
X10520429Y-13308476D02*
X10520429Y-13175143D01*
X10520429Y-13194190D02*
X10529952Y-13184667D01*
X10549000Y-13175143D01*
X10577571Y-13175143D01*
X10596619Y-13184667D01*
X10606143Y-13203714D01*
X10606143Y-13308476D01*
X10606143Y-13203714D02*
X10615667Y-13184667D01*
X10634714Y-13175143D01*
X10663286Y-13175143D01*
X10682333Y-13184667D01*
X10691857Y-13203714D01*
X10691857Y-13308476D01*
X11082333Y-13098952D02*
X10910905Y-13356095D01*
X11339476Y-13108476D02*
X11358524Y-13108476D01*
X11377571Y-13118000D01*
X11387095Y-13127524D01*
X11396619Y-13146571D01*
X11406143Y-13184667D01*
X11406143Y-13232286D01*
X11396619Y-13270381D01*
X11387095Y-13289428D01*
X11377571Y-13298952D01*
X11358524Y-13308476D01*
X11339476Y-13308476D01*
X11320428Y-13298952D01*
X11310905Y-13289428D01*
X11301381Y-13270381D01*
X11291857Y-13232286D01*
X11291857Y-13184667D01*
X11301381Y-13146571D01*
X11310905Y-13127524D01*
X11320428Y-13118000D01*
X11339476Y-13108476D01*
X11491857Y-13289428D02*
X11501381Y-13298952D01*
X11491857Y-13308476D01*
X11482333Y-13298952D01*
X11491857Y-13289428D01*
X11491857Y-13308476D01*
X11691857Y-13308476D02*
X11577571Y-13308476D01*
X11634714Y-13308476D02*
X11634714Y-13108476D01*
X11615667Y-13137048D01*
X11596619Y-13156095D01*
X11577571Y-13165619D01*
X11882333Y-13308476D02*
X11768048Y-13308476D01*
X11825190Y-13308476D02*
X11825190Y-13108476D01*
X11806143Y-13137048D01*
X11787095Y-13156095D01*
X11768048Y-13165619D01*
X11996619Y-13194190D02*
X11977571Y-13184667D01*
X11968048Y-13175143D01*
X11958524Y-13156095D01*
X11958524Y-13146571D01*
X11968048Y-13127524D01*
X11977571Y-13118000D01*
X11996619Y-13108476D01*
X12034714Y-13108476D01*
X12053762Y-13118000D01*
X12063286Y-13127524D01*
X12072809Y-13146571D01*
X12072809Y-13156095D01*
X12063286Y-13175143D01*
X12053762Y-13184667D01*
X12034714Y-13194190D01*
X11996619Y-13194190D01*
X11977571Y-13203714D01*
X11968048Y-13213238D01*
X11958524Y-13232286D01*
X11958524Y-13270381D01*
X11968048Y-13289428D01*
X11977571Y-13298952D01*
X11996619Y-13308476D01*
X12034714Y-13308476D01*
X12053762Y-13298952D01*
X12063286Y-13289428D01*
X12072809Y-13270381D01*
X12072809Y-13232286D01*
X12063286Y-13213238D01*
X12053762Y-13203714D01*
X12034714Y-13194190D01*
X12263286Y-13308476D02*
X12149000Y-13308476D01*
X12206143Y-13308476D02*
X12206143Y-13108476D01*
X12187095Y-13137048D01*
X12168048Y-13156095D01*
X12149000Y-13165619D01*
X12339476Y-13108476D02*
X12339476Y-13146571D01*
X12415667Y-13108476D02*
X12415667Y-13146571D01*
X12710905Y-13384667D02*
X12701381Y-13375143D01*
X12682333Y-13346571D01*
X12672809Y-13327524D01*
X12663286Y-13298952D01*
X12653762Y-13251333D01*
X12653762Y-13213238D01*
X12663286Y-13165619D01*
X12672809Y-13137048D01*
X12682333Y-13118000D01*
X12701381Y-13089428D01*
X12710905Y-13079905D01*
X12777571Y-13127524D02*
X12787095Y-13118000D01*
X12806143Y-13108476D01*
X12853762Y-13108476D01*
X12872809Y-13118000D01*
X12882333Y-13127524D01*
X12891857Y-13146571D01*
X12891857Y-13165619D01*
X12882333Y-13194190D01*
X12768048Y-13308476D01*
X12891857Y-13308476D01*
X13129952Y-13308476D02*
X13129952Y-13108476D01*
X13215667Y-13308476D02*
X13215667Y-13203714D01*
X13206143Y-13184667D01*
X13187095Y-13175143D01*
X13158524Y-13175143D01*
X13139476Y-13184667D01*
X13129952Y-13194190D01*
X13339476Y-13308476D02*
X13320428Y-13298952D01*
X13310905Y-13289428D01*
X13301381Y-13270381D01*
X13301381Y-13213238D01*
X13310905Y-13194190D01*
X13320428Y-13184667D01*
X13339476Y-13175143D01*
X13368048Y-13175143D01*
X13387095Y-13184667D01*
X13396619Y-13194190D01*
X13406143Y-13213238D01*
X13406143Y-13270381D01*
X13396619Y-13289428D01*
X13387095Y-13298952D01*
X13368048Y-13308476D01*
X13339476Y-13308476D01*
X13520428Y-13308476D02*
X13501381Y-13298952D01*
X13491857Y-13279905D01*
X13491857Y-13108476D01*
X13672809Y-13298952D02*
X13653762Y-13308476D01*
X13615667Y-13308476D01*
X13596619Y-13298952D01*
X13587095Y-13279905D01*
X13587095Y-13203714D01*
X13596619Y-13184667D01*
X13615667Y-13175143D01*
X13653762Y-13175143D01*
X13672809Y-13184667D01*
X13682333Y-13203714D01*
X13682333Y-13222762D01*
X13587095Y-13241809D01*
X13758524Y-13298952D02*
X13777571Y-13308476D01*
X13815667Y-13308476D01*
X13834714Y-13298952D01*
X13844238Y-13279905D01*
X13844238Y-13270381D01*
X13834714Y-13251333D01*
X13815667Y-13241809D01*
X13787095Y-13241809D01*
X13768048Y-13232286D01*
X13758524Y-13213238D01*
X13758524Y-13203714D01*
X13768048Y-13184667D01*
X13787095Y-13175143D01*
X13815667Y-13175143D01*
X13834714Y-13184667D01*
X13910905Y-13384667D02*
X13920428Y-13375143D01*
X13939476Y-13346571D01*
X13949000Y-13327524D01*
X13958524Y-13298952D01*
X13968048Y-13251333D01*
X13968048Y-13213238D01*
X13958524Y-13165619D01*
X13949000Y-13137048D01*
X13939476Y-13118000D01*
X13920428Y-13089428D01*
X13910905Y-13079905D01*
X14272809Y-13384667D02*
X14263286Y-13375143D01*
X14244238Y-13346571D01*
X14234714Y-13327524D01*
X14225190Y-13298952D01*
X14215667Y-13251333D01*
X14215667Y-13213238D01*
X14225190Y-13165619D01*
X14234714Y-13137048D01*
X14244238Y-13118000D01*
X14263286Y-13089428D01*
X14272809Y-13079905D01*
X14349000Y-13175143D02*
X14349000Y-13308476D01*
X14349000Y-13194190D02*
X14358524Y-13184667D01*
X14377571Y-13175143D01*
X14406143Y-13175143D01*
X14425190Y-13184667D01*
X14434714Y-13203714D01*
X14434714Y-13308476D01*
X14558524Y-13308476D02*
X14539476Y-13298952D01*
X14529952Y-13289428D01*
X14520428Y-13270381D01*
X14520428Y-13213238D01*
X14529952Y-13194190D01*
X14539476Y-13184667D01*
X14558524Y-13175143D01*
X14587095Y-13175143D01*
X14606143Y-13184667D01*
X14615667Y-13194190D01*
X14625190Y-13213238D01*
X14625190Y-13270381D01*
X14615667Y-13289428D01*
X14606143Y-13298952D01*
X14587095Y-13308476D01*
X14558524Y-13308476D01*
X14682333Y-13175143D02*
X14758524Y-13175143D01*
X14710905Y-13108476D02*
X14710905Y-13279905D01*
X14720428Y-13298952D01*
X14739476Y-13308476D01*
X14758524Y-13308476D01*
X14977571Y-13175143D02*
X14977571Y-13375143D01*
X14977571Y-13184667D02*
X14996619Y-13175143D01*
X15034714Y-13175143D01*
X15053762Y-13184667D01*
X15063286Y-13194190D01*
X15072809Y-13213238D01*
X15072809Y-13270381D01*
X15063286Y-13289428D01*
X15053762Y-13298952D01*
X15034714Y-13308476D01*
X14996619Y-13308476D01*
X14977571Y-13298952D01*
X15187095Y-13308476D02*
X15168048Y-13298952D01*
X15158524Y-13279905D01*
X15158524Y-13108476D01*
X15349000Y-13308476D02*
X15349000Y-13203714D01*
X15339476Y-13184667D01*
X15320428Y-13175143D01*
X15282333Y-13175143D01*
X15263286Y-13184667D01*
X15349000Y-13298952D02*
X15329952Y-13308476D01*
X15282333Y-13308476D01*
X15263286Y-13298952D01*
X15253762Y-13279905D01*
X15253762Y-13260857D01*
X15263286Y-13241809D01*
X15282333Y-13232286D01*
X15329952Y-13232286D01*
X15349000Y-13222762D01*
X15415667Y-13175143D02*
X15491857Y-13175143D01*
X15444238Y-13108476D02*
X15444238Y-13279905D01*
X15453762Y-13298952D01*
X15472809Y-13308476D01*
X15491857Y-13308476D01*
X15634714Y-13298952D02*
X15615667Y-13308476D01*
X15577571Y-13308476D01*
X15558524Y-13298952D01*
X15549000Y-13279905D01*
X15549000Y-13203714D01*
X15558524Y-13184667D01*
X15577571Y-13175143D01*
X15615667Y-13175143D01*
X15634714Y-13184667D01*
X15644238Y-13203714D01*
X15644238Y-13222762D01*
X15549000Y-13241809D01*
X15815667Y-13308476D02*
X15815667Y-13108476D01*
X15815667Y-13298952D02*
X15796619Y-13308476D01*
X15758524Y-13308476D01*
X15739476Y-13298952D01*
X15729952Y-13289428D01*
X15720428Y-13270381D01*
X15720428Y-13213238D01*
X15729952Y-13194190D01*
X15739476Y-13184667D01*
X15758524Y-13175143D01*
X15796619Y-13175143D01*
X15815667Y-13184667D01*
X15891857Y-13384667D02*
X15901381Y-13375143D01*
X15920428Y-13346571D01*
X15929952Y-13327524D01*
X15939476Y-13298952D01*
X15949000Y-13251333D01*
X15949000Y-13213238D01*
X15939476Y-13165619D01*
X15929952Y-13137048D01*
X15920428Y-13118000D01*
X15901381Y-13089428D01*
X15891857Y-13079905D01*
X9139000Y-13538000D02*
G75*
G03*
X9139000Y-13538000I-100000J0D01*
G01*
X9377571Y-13428476D02*
X9501381Y-13428476D01*
X9434714Y-13504667D01*
X9463286Y-13504667D01*
X9482333Y-13514190D01*
X9491857Y-13523714D01*
X9501381Y-13542762D01*
X9501381Y-13590381D01*
X9491857Y-13609428D01*
X9482333Y-13618952D01*
X9463286Y-13628476D01*
X9406143Y-13628476D01*
X9387095Y-13618952D01*
X9377571Y-13609428D01*
X9587095Y-13609428D02*
X9596619Y-13618952D01*
X9587095Y-13628476D01*
X9577571Y-13618952D01*
X9587095Y-13609428D01*
X9587095Y-13628476D01*
X9720429Y-13428476D02*
X9739476Y-13428476D01*
X9758524Y-13438000D01*
X9768048Y-13447524D01*
X9777571Y-13466571D01*
X9787095Y-13504667D01*
X9787095Y-13552286D01*
X9777571Y-13590381D01*
X9768048Y-13609428D01*
X9758524Y-13618952D01*
X9739476Y-13628476D01*
X9720429Y-13628476D01*
X9701381Y-13618952D01*
X9691857Y-13609428D01*
X9682333Y-13590381D01*
X9672810Y-13552286D01*
X9672810Y-13504667D01*
X9682333Y-13466571D01*
X9691857Y-13447524D01*
X9701381Y-13438000D01*
X9720429Y-13428476D01*
X9958524Y-13495143D02*
X9958524Y-13628476D01*
X9910905Y-13418952D02*
X9863286Y-13561809D01*
X9987095Y-13561809D01*
X10091857Y-13514190D02*
X10072810Y-13504667D01*
X10063286Y-13495143D01*
X10053762Y-13476095D01*
X10053762Y-13466571D01*
X10063286Y-13447524D01*
X10072810Y-13438000D01*
X10091857Y-13428476D01*
X10129952Y-13428476D01*
X10149000Y-13438000D01*
X10158524Y-13447524D01*
X10168048Y-13466571D01*
X10168048Y-13476095D01*
X10158524Y-13495143D01*
X10149000Y-13504667D01*
X10129952Y-13514190D01*
X10091857Y-13514190D01*
X10072810Y-13523714D01*
X10063286Y-13533238D01*
X10053762Y-13552286D01*
X10053762Y-13590381D01*
X10063286Y-13609428D01*
X10072810Y-13618952D01*
X10091857Y-13628476D01*
X10129952Y-13628476D01*
X10149000Y-13618952D01*
X10158524Y-13609428D01*
X10168048Y-13590381D01*
X10168048Y-13552286D01*
X10158524Y-13533238D01*
X10149000Y-13523714D01*
X10129952Y-13514190D01*
X10253762Y-13628476D02*
X10253762Y-13495143D01*
X10253762Y-13514190D02*
X10263286Y-13504667D01*
X10282333Y-13495143D01*
X10310905Y-13495143D01*
X10329952Y-13504667D01*
X10339476Y-13523714D01*
X10339476Y-13628476D01*
X10339476Y-13523714D02*
X10349000Y-13504667D01*
X10368048Y-13495143D01*
X10396619Y-13495143D01*
X10415667Y-13504667D01*
X10425190Y-13523714D01*
X10425190Y-13628476D01*
X10520429Y-13628476D02*
X10520429Y-13495143D01*
X10520429Y-13514190D02*
X10529952Y-13504667D01*
X10549000Y-13495143D01*
X10577571Y-13495143D01*
X10596619Y-13504667D01*
X10606143Y-13523714D01*
X10606143Y-13628476D01*
X10606143Y-13523714D02*
X10615667Y-13504667D01*
X10634714Y-13495143D01*
X10663286Y-13495143D01*
X10682333Y-13504667D01*
X10691857Y-13523714D01*
X10691857Y-13628476D01*
X11082333Y-13418952D02*
X10910905Y-13676095D01*
X11339476Y-13428476D02*
X11358524Y-13428476D01*
X11377571Y-13438000D01*
X11387095Y-13447524D01*
X11396619Y-13466571D01*
X11406143Y-13504667D01*
X11406143Y-13552286D01*
X11396619Y-13590381D01*
X11387095Y-13609428D01*
X11377571Y-13618952D01*
X11358524Y-13628476D01*
X11339476Y-13628476D01*
X11320428Y-13618952D01*
X11310905Y-13609428D01*
X11301381Y-13590381D01*
X11291857Y-13552286D01*
X11291857Y-13504667D01*
X11301381Y-13466571D01*
X11310905Y-13447524D01*
X11320428Y-13438000D01*
X11339476Y-13428476D01*
X11491857Y-13609428D02*
X11501381Y-13618952D01*
X11491857Y-13628476D01*
X11482333Y-13618952D01*
X11491857Y-13609428D01*
X11491857Y-13628476D01*
X11691857Y-13628476D02*
X11577571Y-13628476D01*
X11634714Y-13628476D02*
X11634714Y-13428476D01*
X11615667Y-13457048D01*
X11596619Y-13476095D01*
X11577571Y-13485619D01*
X11768048Y-13447524D02*
X11777571Y-13438000D01*
X11796619Y-13428476D01*
X11844238Y-13428476D01*
X11863286Y-13438000D01*
X11872809Y-13447524D01*
X11882333Y-13466571D01*
X11882333Y-13485619D01*
X11872809Y-13514190D01*
X11758524Y-13628476D01*
X11882333Y-13628476D01*
X12006143Y-13428476D02*
X12025190Y-13428476D01*
X12044238Y-13438000D01*
X12053762Y-13447524D01*
X12063286Y-13466571D01*
X12072809Y-13504667D01*
X12072809Y-13552286D01*
X12063286Y-13590381D01*
X12053762Y-13609428D01*
X12044238Y-13618952D01*
X12025190Y-13628476D01*
X12006143Y-13628476D01*
X11987095Y-13618952D01*
X11977571Y-13609428D01*
X11968048Y-13590381D01*
X11958524Y-13552286D01*
X11958524Y-13504667D01*
X11968048Y-13466571D01*
X11977571Y-13447524D01*
X11987095Y-13438000D01*
X12006143Y-13428476D01*
X12196619Y-13428476D02*
X12215667Y-13428476D01*
X12234714Y-13438000D01*
X12244238Y-13447524D01*
X12253762Y-13466571D01*
X12263286Y-13504667D01*
X12263286Y-13552286D01*
X12253762Y-13590381D01*
X12244238Y-13609428D01*
X12234714Y-13618952D01*
X12215667Y-13628476D01*
X12196619Y-13628476D01*
X12177571Y-13618952D01*
X12168048Y-13609428D01*
X12158524Y-13590381D01*
X12149000Y-13552286D01*
X12149000Y-13504667D01*
X12158524Y-13466571D01*
X12168048Y-13447524D01*
X12177571Y-13438000D01*
X12196619Y-13428476D01*
X12339476Y-13428476D02*
X12339476Y-13466571D01*
X12415667Y-13428476D02*
X12415667Y-13466571D01*
X12710905Y-13704667D02*
X12701381Y-13695143D01*
X12682333Y-13666571D01*
X12672809Y-13647524D01*
X12663286Y-13618952D01*
X12653762Y-13571333D01*
X12653762Y-13533238D01*
X12663286Y-13485619D01*
X12672809Y-13457048D01*
X12682333Y-13438000D01*
X12701381Y-13409428D01*
X12710905Y-13399905D01*
X12872809Y-13495143D02*
X12872809Y-13628476D01*
X12825190Y-13418952D02*
X12777571Y-13561809D01*
X12901381Y-13561809D01*
X13129952Y-13628476D02*
X13129952Y-13428476D01*
X13215667Y-13628476D02*
X13215667Y-13523714D01*
X13206143Y-13504667D01*
X13187095Y-13495143D01*
X13158524Y-13495143D01*
X13139476Y-13504667D01*
X13129952Y-13514190D01*
X13339476Y-13628476D02*
X13320428Y-13618952D01*
X13310905Y-13609428D01*
X13301381Y-13590381D01*
X13301381Y-13533238D01*
X13310905Y-13514190D01*
X13320428Y-13504667D01*
X13339476Y-13495143D01*
X13368048Y-13495143D01*
X13387095Y-13504667D01*
X13396619Y-13514190D01*
X13406143Y-13533238D01*
X13406143Y-13590381D01*
X13396619Y-13609428D01*
X13387095Y-13618952D01*
X13368048Y-13628476D01*
X13339476Y-13628476D01*
X13520428Y-13628476D02*
X13501381Y-13618952D01*
X13491857Y-13599905D01*
X13491857Y-13428476D01*
X13672809Y-13618952D02*
X13653762Y-13628476D01*
X13615667Y-13628476D01*
X13596619Y-13618952D01*
X13587095Y-13599905D01*
X13587095Y-13523714D01*
X13596619Y-13504667D01*
X13615667Y-13495143D01*
X13653762Y-13495143D01*
X13672809Y-13504667D01*
X13682333Y-13523714D01*
X13682333Y-13542762D01*
X13587095Y-13561809D01*
X13758524Y-13618952D02*
X13777571Y-13628476D01*
X13815667Y-13628476D01*
X13834714Y-13618952D01*
X13844238Y-13599905D01*
X13844238Y-13590381D01*
X13834714Y-13571333D01*
X13815667Y-13561809D01*
X13787095Y-13561809D01*
X13768048Y-13552286D01*
X13758524Y-13533238D01*
X13758524Y-13523714D01*
X13768048Y-13504667D01*
X13787095Y-13495143D01*
X13815667Y-13495143D01*
X13834714Y-13504667D01*
X13910905Y-13704667D02*
X13920428Y-13695143D01*
X13939476Y-13666571D01*
X13949000Y-13647524D01*
X13958524Y-13618952D01*
X13968048Y-13571333D01*
X13968048Y-13533238D01*
X13958524Y-13485619D01*
X13949000Y-13457048D01*
X13939476Y-13438000D01*
X13920428Y-13409428D01*
X13910905Y-13399905D01*
X14272809Y-13704667D02*
X14263286Y-13695143D01*
X14244238Y-13666571D01*
X14234714Y-13647524D01*
X14225190Y-13618952D01*
X14215667Y-13571333D01*
X14215667Y-13533238D01*
X14225190Y-13485619D01*
X14234714Y-13457048D01*
X14244238Y-13438000D01*
X14263286Y-13409428D01*
X14272809Y-13399905D01*
X14349000Y-13495143D02*
X14349000Y-13628476D01*
X14349000Y-13514190D02*
X14358524Y-13504667D01*
X14377571Y-13495143D01*
X14406143Y-13495143D01*
X14425190Y-13504667D01*
X14434714Y-13523714D01*
X14434714Y-13628476D01*
X14558524Y-13628476D02*
X14539476Y-13618952D01*
X14529952Y-13609428D01*
X14520428Y-13590381D01*
X14520428Y-13533238D01*
X14529952Y-13514190D01*
X14539476Y-13504667D01*
X14558524Y-13495143D01*
X14587095Y-13495143D01*
X14606143Y-13504667D01*
X14615667Y-13514190D01*
X14625190Y-13533238D01*
X14625190Y-13590381D01*
X14615667Y-13609428D01*
X14606143Y-13618952D01*
X14587095Y-13628476D01*
X14558524Y-13628476D01*
X14682333Y-13495143D02*
X14758524Y-13495143D01*
X14710905Y-13428476D02*
X14710905Y-13599905D01*
X14720428Y-13618952D01*
X14739476Y-13628476D01*
X14758524Y-13628476D01*
X14977571Y-13495143D02*
X14977571Y-13695143D01*
X14977571Y-13504667D02*
X14996619Y-13495143D01*
X15034714Y-13495143D01*
X15053762Y-13504667D01*
X15063286Y-13514190D01*
X15072809Y-13533238D01*
X15072809Y-13590381D01*
X15063286Y-13609428D01*
X15053762Y-13618952D01*
X15034714Y-13628476D01*
X14996619Y-13628476D01*
X14977571Y-13618952D01*
X15187095Y-13628476D02*
X15168048Y-13618952D01*
X15158524Y-13599905D01*
X15158524Y-13428476D01*
X15349000Y-13628476D02*
X15349000Y-13523714D01*
X15339476Y-13504667D01*
X15320428Y-13495143D01*
X15282333Y-13495143D01*
X15263286Y-13504667D01*
X15349000Y-13618952D02*
X15329952Y-13628476D01*
X15282333Y-13628476D01*
X15263286Y-13618952D01*
X15253762Y-13599905D01*
X15253762Y-13580857D01*
X15263286Y-13561809D01*
X15282333Y-13552286D01*
X15329952Y-13552286D01*
X15349000Y-13542762D01*
X15415667Y-13495143D02*
X15491857Y-13495143D01*
X15444238Y-13428476D02*
X15444238Y-13599905D01*
X15453762Y-13618952D01*
X15472809Y-13628476D01*
X15491857Y-13628476D01*
X15634714Y-13618952D02*
X15615667Y-13628476D01*
X15577571Y-13628476D01*
X15558524Y-13618952D01*
X15549000Y-13599905D01*
X15549000Y-13523714D01*
X15558524Y-13504667D01*
X15577571Y-13495143D01*
X15615667Y-13495143D01*
X15634714Y-13504667D01*
X15644238Y-13523714D01*
X15644238Y-13542762D01*
X15549000Y-13561809D01*
X15815667Y-13628476D02*
X15815667Y-13428476D01*
X15815667Y-13618952D02*
X15796619Y-13628476D01*
X15758524Y-13628476D01*
X15739476Y-13618952D01*
X15729952Y-13609428D01*
X15720428Y-13590381D01*
X15720428Y-13533238D01*
X15729952Y-13514190D01*
X15739476Y-13504667D01*
X15758524Y-13495143D01*
X15796619Y-13495143D01*
X15815667Y-13504667D01*
X15891857Y-13704667D02*
X15901381Y-13695143D01*
X15920428Y-13666571D01*
X15929952Y-13647524D01*
X15939476Y-13618952D01*
X15949000Y-13571333D01*
X15949000Y-13533238D01*
X15939476Y-13485619D01*
X15929952Y-13457048D01*
X15920428Y-13438000D01*
X15901381Y-13409428D01*
X15891857Y-13399905D01*
X9039000Y-13758000D02*
X9039000Y-13958000D01*
X8939000Y-13858000D02*
X9139000Y-13858000D01*
X9377571Y-13748476D02*
X9501381Y-13748476D01*
X9434714Y-13824667D01*
X9463286Y-13824667D01*
X9482333Y-13834190D01*
X9491857Y-13843714D01*
X9501381Y-13862762D01*
X9501381Y-13910381D01*
X9491857Y-13929428D01*
X9482333Y-13938952D01*
X9463286Y-13948476D01*
X9406143Y-13948476D01*
X9387095Y-13938952D01*
X9377571Y-13929428D01*
X9587095Y-13929428D02*
X9596619Y-13938952D01*
X9587095Y-13948476D01*
X9577571Y-13938952D01*
X9587095Y-13929428D01*
X9587095Y-13948476D01*
X9663286Y-13748476D02*
X9787095Y-13748476D01*
X9720429Y-13824667D01*
X9749000Y-13824667D01*
X9768048Y-13834190D01*
X9777571Y-13843714D01*
X9787095Y-13862762D01*
X9787095Y-13910381D01*
X9777571Y-13929428D01*
X9768048Y-13938952D01*
X9749000Y-13948476D01*
X9691857Y-13948476D01*
X9672810Y-13938952D01*
X9663286Y-13929428D01*
X9910905Y-13748476D02*
X9929952Y-13748476D01*
X9949000Y-13758000D01*
X9958524Y-13767524D01*
X9968048Y-13786571D01*
X9977571Y-13824667D01*
X9977571Y-13872286D01*
X9968048Y-13910381D01*
X9958524Y-13929428D01*
X9949000Y-13938952D01*
X9929952Y-13948476D01*
X9910905Y-13948476D01*
X9891857Y-13938952D01*
X9882333Y-13929428D01*
X9872810Y-13910381D01*
X9863286Y-13872286D01*
X9863286Y-13824667D01*
X9872810Y-13786571D01*
X9882333Y-13767524D01*
X9891857Y-13758000D01*
X9910905Y-13748476D01*
X10053762Y-13767524D02*
X10063286Y-13758000D01*
X10082333Y-13748476D01*
X10129952Y-13748476D01*
X10149000Y-13758000D01*
X10158524Y-13767524D01*
X10168048Y-13786571D01*
X10168048Y-13805619D01*
X10158524Y-13834190D01*
X10044238Y-13948476D01*
X10168048Y-13948476D01*
X10253762Y-13948476D02*
X10253762Y-13815143D01*
X10253762Y-13834190D02*
X10263286Y-13824667D01*
X10282333Y-13815143D01*
X10310905Y-13815143D01*
X10329952Y-13824667D01*
X10339476Y-13843714D01*
X10339476Y-13948476D01*
X10339476Y-13843714D02*
X10349000Y-13824667D01*
X10368048Y-13815143D01*
X10396619Y-13815143D01*
X10415667Y-13824667D01*
X10425190Y-13843714D01*
X10425190Y-13948476D01*
X10520429Y-13948476D02*
X10520429Y-13815143D01*
X10520429Y-13834190D02*
X10529952Y-13824667D01*
X10549000Y-13815143D01*
X10577571Y-13815143D01*
X10596619Y-13824667D01*
X10606143Y-13843714D01*
X10606143Y-13948476D01*
X10606143Y-13843714D02*
X10615667Y-13824667D01*
X10634714Y-13815143D01*
X10663286Y-13815143D01*
X10682333Y-13824667D01*
X10691857Y-13843714D01*
X10691857Y-13948476D01*
X11082333Y-13738952D02*
X10910905Y-13996095D01*
X11339476Y-13748476D02*
X11358524Y-13748476D01*
X11377571Y-13758000D01*
X11387095Y-13767524D01*
X11396619Y-13786571D01*
X11406143Y-13824667D01*
X11406143Y-13872286D01*
X11396619Y-13910381D01*
X11387095Y-13929428D01*
X11377571Y-13938952D01*
X11358524Y-13948476D01*
X11339476Y-13948476D01*
X11320428Y-13938952D01*
X11310905Y-13929428D01*
X11301381Y-13910381D01*
X11291857Y-13872286D01*
X11291857Y-13824667D01*
X11301381Y-13786571D01*
X11310905Y-13767524D01*
X11320428Y-13758000D01*
X11339476Y-13748476D01*
X11491857Y-13929428D02*
X11501381Y-13938952D01*
X11491857Y-13948476D01*
X11482333Y-13938952D01*
X11491857Y-13929428D01*
X11491857Y-13948476D01*
X11691857Y-13948476D02*
X11577571Y-13948476D01*
X11634714Y-13948476D02*
X11634714Y-13748476D01*
X11615667Y-13777048D01*
X11596619Y-13796095D01*
X11577571Y-13805619D01*
X11758524Y-13748476D02*
X11882333Y-13748476D01*
X11815667Y-13824667D01*
X11844238Y-13824667D01*
X11863286Y-13834190D01*
X11872809Y-13843714D01*
X11882333Y-13862762D01*
X11882333Y-13910381D01*
X11872809Y-13929428D01*
X11863286Y-13938952D01*
X11844238Y-13948476D01*
X11787095Y-13948476D01*
X11768048Y-13938952D01*
X11758524Y-13929428D01*
X12006143Y-13748476D02*
X12025190Y-13748476D01*
X12044238Y-13758000D01*
X12053762Y-13767524D01*
X12063286Y-13786571D01*
X12072809Y-13824667D01*
X12072809Y-13872286D01*
X12063286Y-13910381D01*
X12053762Y-13929428D01*
X12044238Y-13938952D01*
X12025190Y-13948476D01*
X12006143Y-13948476D01*
X11987095Y-13938952D01*
X11977571Y-13929428D01*
X11968048Y-13910381D01*
X11958524Y-13872286D01*
X11958524Y-13824667D01*
X11968048Y-13786571D01*
X11977571Y-13767524D01*
X11987095Y-13758000D01*
X12006143Y-13748476D01*
X12196619Y-13748476D02*
X12215667Y-13748476D01*
X12234714Y-13758000D01*
X12244238Y-13767524D01*
X12253762Y-13786571D01*
X12263286Y-13824667D01*
X12263286Y-13872286D01*
X12253762Y-13910381D01*
X12244238Y-13929428D01*
X12234714Y-13938952D01*
X12215667Y-13948476D01*
X12196619Y-13948476D01*
X12177571Y-13938952D01*
X12168048Y-13929428D01*
X12158524Y-13910381D01*
X12149000Y-13872286D01*
X12149000Y-13824667D01*
X12158524Y-13786571D01*
X12168048Y-13767524D01*
X12177571Y-13758000D01*
X12196619Y-13748476D01*
X12339476Y-13748476D02*
X12339476Y-13786571D01*
X12415667Y-13748476D02*
X12415667Y-13786571D01*
X12710905Y-14024667D02*
X12701381Y-14015143D01*
X12682333Y-13986571D01*
X12672809Y-13967524D01*
X12663286Y-13938952D01*
X12653762Y-13891333D01*
X12653762Y-13853238D01*
X12663286Y-13805619D01*
X12672809Y-13777048D01*
X12682333Y-13758000D01*
X12701381Y-13729428D01*
X12710905Y-13719905D01*
X12872809Y-13815143D02*
X12872809Y-13948476D01*
X12825190Y-13738952D02*
X12777571Y-13881809D01*
X12901381Y-13881809D01*
X13129952Y-13948476D02*
X13129952Y-13748476D01*
X13215667Y-13948476D02*
X13215667Y-13843714D01*
X13206143Y-13824667D01*
X13187095Y-13815143D01*
X13158524Y-13815143D01*
X13139476Y-13824667D01*
X13129952Y-13834190D01*
X13339476Y-13948476D02*
X13320428Y-13938952D01*
X13310905Y-13929428D01*
X13301381Y-13910381D01*
X13301381Y-13853238D01*
X13310905Y-13834190D01*
X13320428Y-13824667D01*
X13339476Y-13815143D01*
X13368048Y-13815143D01*
X13387095Y-13824667D01*
X13396619Y-13834190D01*
X13406143Y-13853238D01*
X13406143Y-13910381D01*
X13396619Y-13929428D01*
X13387095Y-13938952D01*
X13368048Y-13948476D01*
X13339476Y-13948476D01*
X13520428Y-13948476D02*
X13501381Y-13938952D01*
X13491857Y-13919905D01*
X13491857Y-13748476D01*
X13672809Y-13938952D02*
X13653762Y-13948476D01*
X13615667Y-13948476D01*
X13596619Y-13938952D01*
X13587095Y-13919905D01*
X13587095Y-13843714D01*
X13596619Y-13824667D01*
X13615667Y-13815143D01*
X13653762Y-13815143D01*
X13672809Y-13824667D01*
X13682333Y-13843714D01*
X13682333Y-13862762D01*
X13587095Y-13881809D01*
X13758524Y-13938952D02*
X13777571Y-13948476D01*
X13815667Y-13948476D01*
X13834714Y-13938952D01*
X13844238Y-13919905D01*
X13844238Y-13910381D01*
X13834714Y-13891333D01*
X13815667Y-13881809D01*
X13787095Y-13881809D01*
X13768048Y-13872286D01*
X13758524Y-13853238D01*
X13758524Y-13843714D01*
X13768048Y-13824667D01*
X13787095Y-13815143D01*
X13815667Y-13815143D01*
X13834714Y-13824667D01*
X13910905Y-14024667D02*
X13920428Y-14015143D01*
X13939476Y-13986571D01*
X13949000Y-13967524D01*
X13958524Y-13938952D01*
X13968048Y-13891333D01*
X13968048Y-13853238D01*
X13958524Y-13805619D01*
X13949000Y-13777048D01*
X13939476Y-13758000D01*
X13920428Y-13729428D01*
X13910905Y-13719905D01*
X14272809Y-14024667D02*
X14263286Y-14015143D01*
X14244238Y-13986571D01*
X14234714Y-13967524D01*
X14225190Y-13938952D01*
X14215667Y-13891333D01*
X14215667Y-13853238D01*
X14225190Y-13805619D01*
X14234714Y-13777048D01*
X14244238Y-13758000D01*
X14263286Y-13729428D01*
X14272809Y-13719905D01*
X14349000Y-13815143D02*
X14349000Y-13948476D01*
X14349000Y-13834190D02*
X14358524Y-13824667D01*
X14377571Y-13815143D01*
X14406143Y-13815143D01*
X14425190Y-13824667D01*
X14434714Y-13843714D01*
X14434714Y-13948476D01*
X14558524Y-13948476D02*
X14539476Y-13938952D01*
X14529952Y-13929428D01*
X14520428Y-13910381D01*
X14520428Y-13853238D01*
X14529952Y-13834190D01*
X14539476Y-13824667D01*
X14558524Y-13815143D01*
X14587095Y-13815143D01*
X14606143Y-13824667D01*
X14615667Y-13834190D01*
X14625190Y-13853238D01*
X14625190Y-13910381D01*
X14615667Y-13929428D01*
X14606143Y-13938952D01*
X14587095Y-13948476D01*
X14558524Y-13948476D01*
X14682333Y-13815143D02*
X14758524Y-13815143D01*
X14710905Y-13748476D02*
X14710905Y-13919905D01*
X14720428Y-13938952D01*
X14739476Y-13948476D01*
X14758524Y-13948476D01*
X14977571Y-13815143D02*
X14977571Y-14015143D01*
X14977571Y-13824667D02*
X14996619Y-13815143D01*
X15034714Y-13815143D01*
X15053762Y-13824667D01*
X15063286Y-13834190D01*
X15072809Y-13853238D01*
X15072809Y-13910381D01*
X15063286Y-13929428D01*
X15053762Y-13938952D01*
X15034714Y-13948476D01*
X14996619Y-13948476D01*
X14977571Y-13938952D01*
X15187095Y-13948476D02*
X15168048Y-13938952D01*
X15158524Y-13919905D01*
X15158524Y-13748476D01*
X15349000Y-13948476D02*
X15349000Y-13843714D01*
X15339476Y-13824667D01*
X15320428Y-13815143D01*
X15282333Y-13815143D01*
X15263286Y-13824667D01*
X15349000Y-13938952D02*
X15329952Y-13948476D01*
X15282333Y-13948476D01*
X15263286Y-13938952D01*
X15253762Y-13919905D01*
X15253762Y-13900857D01*
X15263286Y-13881809D01*
X15282333Y-13872286D01*
X15329952Y-13872286D01*
X15349000Y-13862762D01*
X15415667Y-13815143D02*
X15491857Y-13815143D01*
X15444238Y-13748476D02*
X15444238Y-13919905D01*
X15453762Y-13938952D01*
X15472809Y-13948476D01*
X15491857Y-13948476D01*
X15634714Y-13938952D02*
X15615667Y-13948476D01*
X15577571Y-13948476D01*
X15558524Y-13938952D01*
X15549000Y-13919905D01*
X15549000Y-13843714D01*
X15558524Y-13824667D01*
X15577571Y-13815143D01*
X15615667Y-13815143D01*
X15634714Y-13824667D01*
X15644238Y-13843714D01*
X15644238Y-13862762D01*
X15549000Y-13881809D01*
X15815667Y-13948476D02*
X15815667Y-13748476D01*
X15815667Y-13938952D02*
X15796619Y-13948476D01*
X15758524Y-13948476D01*
X15739476Y-13938952D01*
X15729952Y-13929428D01*
X15720428Y-13910381D01*
X15720428Y-13853238D01*
X15729952Y-13834190D01*
X15739476Y-13824667D01*
X15758524Y-13815143D01*
X15796619Y-13815143D01*
X15815667Y-13824667D01*
X15891857Y-14024667D02*
X15901381Y-14015143D01*
X15920428Y-13986571D01*
X15929952Y-13967524D01*
X15939476Y-13938952D01*
X15949000Y-13891333D01*
X15949000Y-13853238D01*
X15939476Y-13805619D01*
X15929952Y-13777048D01*
X15920428Y-13758000D01*
X15901381Y-13729428D01*
X15891857Y-13719905D01*
M02*
