G04 #@! TF.GenerationSoftware,KiCad,Pcbnew,(5.1.9-0-10_14)*
G04 #@! TF.CreationDate,2021-04-13T16:59:34-04:00*
G04 #@! TF.ProjectId,Cryologger GVMS,4372796f-6c6f-4676-9765-722047564d53,v2.0*
G04 #@! TF.SameCoordinates,Original*
G04 #@! TF.FileFunction,Copper,L2,Bot*
G04 #@! TF.FilePolarity,Positive*
%FSLAX46Y46*%
G04 Gerber Fmt 4.6, Leading zero omitted, Abs format (unit mm)*
G04 Created by KiCad (PCBNEW (5.1.9-0-10_14)) date 2021-04-13 16:59:34*
%MOMM*%
%LPD*%
G01*
G04 APERTURE LIST*
G04 #@! TA.AperFunction,ComponentPad*
%ADD10C,1.879600*%
G04 #@! TD*
G04 #@! TA.AperFunction,ComponentPad*
%ADD11R,1.879600X1.879600*%
G04 #@! TD*
G04 #@! TA.AperFunction,ComponentPad*
%ADD12C,7.400000*%
G04 #@! TD*
G04 #@! TA.AperFunction,ComponentPad*
%ADD13C,0.800000*%
G04 #@! TD*
G04 #@! TA.AperFunction,ComponentPad*
%ADD14C,1.600000*%
G04 #@! TD*
G04 #@! TA.AperFunction,ComponentPad*
%ADD15O,1.600000X1.600000*%
G04 #@! TD*
G04 #@! TA.AperFunction,ComponentPad*
%ADD16C,2.600000*%
G04 #@! TD*
G04 #@! TA.AperFunction,ComponentPad*
%ADD17R,2.600000X2.600000*%
G04 #@! TD*
G04 #@! TA.AperFunction,Conductor*
%ADD18C,0.254000*%
G04 #@! TD*
G04 #@! TA.AperFunction,Conductor*
%ADD19C,0.150000*%
G04 #@! TD*
G04 APERTURE END LIST*
D10*
X151130000Y-76835000D03*
X153670000Y-76835000D03*
X167640000Y-100330000D03*
X167640000Y-97790000D03*
X167640000Y-95250000D03*
X167640000Y-92710000D03*
X167640000Y-90170000D03*
X167640000Y-87630000D03*
X170180000Y-100330000D03*
X170180000Y-97790000D03*
X170180000Y-95250000D03*
X170180000Y-92710000D03*
X170180000Y-90170000D03*
X170180000Y-87630000D03*
X170180000Y-85090000D03*
X170180000Y-82550000D03*
X170180000Y-80010000D03*
X170180000Y-77470000D03*
X170180000Y-74930000D03*
X170180000Y-72390000D03*
X132080000Y-120650000D03*
X132080000Y-118110000D03*
X132080000Y-115570000D03*
X132080000Y-113030000D03*
X132080000Y-110490000D03*
X132080000Y-107950000D03*
X132080000Y-105410000D03*
X132080000Y-102870000D03*
X132080000Y-100330000D03*
X185420000Y-77470000D03*
X182880000Y-77470000D03*
D11*
X180340000Y-77470000D03*
D10*
X177800000Y-77470000D03*
X124460000Y-100330000D03*
X124460000Y-97790000D03*
X124460000Y-95250000D03*
X124460000Y-92710000D03*
X124460000Y-90170000D03*
X124460000Y-87630000D03*
X124460000Y-85090000D03*
X124460000Y-82550000D03*
X124460000Y-80010000D03*
X116840000Y-67310000D03*
X114300000Y-67310000D03*
X111760000Y-67310000D03*
X109220000Y-67310000D03*
X106680000Y-67310000D03*
X104140000Y-67310000D03*
X83820000Y-102870000D03*
X83820000Y-100330000D03*
X83820000Y-97790000D03*
X83820000Y-95250000D03*
X83820000Y-92710000D03*
X83820000Y-90170000D03*
X83820000Y-87630000D03*
X83820000Y-85090000D03*
X83820000Y-82550000D03*
X83820000Y-80010000D03*
D12*
X194640200Y-124891800D03*
D13*
X197415200Y-124891800D03*
X196602421Y-126854021D03*
X194640200Y-127666800D03*
X192677979Y-126854021D03*
X191865200Y-124891800D03*
X192677979Y-122929579D03*
X194640200Y-122116800D03*
X196602421Y-122929579D03*
D12*
X73177400Y-66878200D03*
D13*
X75952400Y-66878200D03*
X75139621Y-68840421D03*
X73177400Y-69653200D03*
X71215179Y-68840421D03*
X70402400Y-66878200D03*
X71215179Y-64915979D03*
X73177400Y-64103200D03*
X75139621Y-64915979D03*
D12*
X73177400Y-124891800D03*
D13*
X75952400Y-124891800D03*
X75139621Y-126854021D03*
X73177400Y-127666800D03*
X71215179Y-126854021D03*
X70402400Y-124891800D03*
X71215179Y-122929579D03*
X73177400Y-122116800D03*
X75139621Y-122929579D03*
X196602421Y-64915979D03*
X194640200Y-64103200D03*
X192677979Y-64915979D03*
X191865200Y-66878200D03*
X192677979Y-68840421D03*
X194640200Y-69653200D03*
X196602421Y-68840421D03*
X197415200Y-66878200D03*
D12*
X194640200Y-66878200D03*
D14*
X180340000Y-102870000D03*
D15*
X180340000Y-113030000D03*
D14*
X176530000Y-113030000D03*
D15*
X176530000Y-102870000D03*
D14*
X184150000Y-109220000D03*
X184150000Y-106720000D03*
D16*
X194310000Y-87710000D03*
D17*
X194310000Y-92710000D03*
X194310000Y-102870000D03*
D16*
X194310000Y-97870000D03*
D18*
X198984000Y-130404000D02*
X68986000Y-130404000D01*
X68986000Y-112899913D01*
X130759200Y-112899913D01*
X130759200Y-113160087D01*
X130809957Y-113415263D01*
X130909522Y-113655634D01*
X131054067Y-113871961D01*
X131238039Y-114055933D01*
X131454366Y-114200478D01*
X131694633Y-114300000D01*
X131454366Y-114399522D01*
X131238039Y-114544067D01*
X131054067Y-114728039D01*
X130909522Y-114944366D01*
X130809957Y-115184737D01*
X130759200Y-115439913D01*
X130759200Y-115700087D01*
X130809957Y-115955263D01*
X130909522Y-116195634D01*
X131054067Y-116411961D01*
X131238039Y-116595933D01*
X131454366Y-116740478D01*
X131694633Y-116840000D01*
X131454366Y-116939522D01*
X131238039Y-117084067D01*
X131054067Y-117268039D01*
X130909522Y-117484366D01*
X130809957Y-117724737D01*
X130759200Y-117979913D01*
X130759200Y-118240087D01*
X130809957Y-118495263D01*
X130909522Y-118735634D01*
X131054067Y-118951961D01*
X131238039Y-119135933D01*
X131454366Y-119280478D01*
X131694633Y-119380000D01*
X131454366Y-119479522D01*
X131238039Y-119624067D01*
X131054067Y-119808039D01*
X130909522Y-120024366D01*
X130809957Y-120264737D01*
X130759200Y-120519913D01*
X130759200Y-120780087D01*
X130809957Y-121035263D01*
X130909522Y-121275634D01*
X131054067Y-121491961D01*
X131238039Y-121675933D01*
X131454366Y-121820478D01*
X131694737Y-121920043D01*
X131949913Y-121970800D01*
X132210087Y-121970800D01*
X132465263Y-121920043D01*
X132705634Y-121820478D01*
X132921961Y-121675933D01*
X133105933Y-121491961D01*
X133250478Y-121275634D01*
X133350043Y-121035263D01*
X133400800Y-120780087D01*
X133400800Y-120519913D01*
X133350043Y-120264737D01*
X133250478Y-120024366D01*
X133105933Y-119808039D01*
X132921961Y-119624067D01*
X132705634Y-119479522D01*
X132465367Y-119380000D01*
X132705634Y-119280478D01*
X132921961Y-119135933D01*
X133105933Y-118951961D01*
X133250478Y-118735634D01*
X133350043Y-118495263D01*
X133400800Y-118240087D01*
X133400800Y-117979913D01*
X133350043Y-117724737D01*
X133250478Y-117484366D01*
X133105933Y-117268039D01*
X132921961Y-117084067D01*
X132705634Y-116939522D01*
X132465367Y-116840000D01*
X132705634Y-116740478D01*
X132921961Y-116595933D01*
X133105933Y-116411961D01*
X133250478Y-116195634D01*
X133350043Y-115955263D01*
X133400800Y-115700087D01*
X133400800Y-115439913D01*
X133350043Y-115184737D01*
X133250478Y-114944366D01*
X133105933Y-114728039D01*
X132921961Y-114544067D01*
X132705634Y-114399522D01*
X132465367Y-114300000D01*
X132705634Y-114200478D01*
X132921961Y-114055933D01*
X133105933Y-113871961D01*
X133250478Y-113655634D01*
X133350043Y-113415263D01*
X133400800Y-113160087D01*
X133400800Y-112913682D01*
X175349000Y-112913682D01*
X175349000Y-113146318D01*
X175394386Y-113374485D01*
X175483412Y-113589413D01*
X175612658Y-113782843D01*
X175777157Y-113947342D01*
X175970587Y-114076588D01*
X176185515Y-114165614D01*
X176413682Y-114211000D01*
X176646318Y-114211000D01*
X176874485Y-114165614D01*
X177089413Y-114076588D01*
X177282843Y-113947342D01*
X177447342Y-113782843D01*
X177576588Y-113589413D01*
X177665614Y-113374485D01*
X177711000Y-113146318D01*
X177711000Y-112913682D01*
X179159000Y-112913682D01*
X179159000Y-113146318D01*
X179204386Y-113374485D01*
X179293412Y-113589413D01*
X179422658Y-113782843D01*
X179587157Y-113947342D01*
X179780587Y-114076588D01*
X179995515Y-114165614D01*
X180223682Y-114211000D01*
X180456318Y-114211000D01*
X180684485Y-114165614D01*
X180899413Y-114076588D01*
X181092843Y-113947342D01*
X181257342Y-113782843D01*
X181386588Y-113589413D01*
X181475614Y-113374485D01*
X181521000Y-113146318D01*
X181521000Y-112913682D01*
X181475614Y-112685515D01*
X181386588Y-112470587D01*
X181257342Y-112277157D01*
X181092843Y-112112658D01*
X180899413Y-111983412D01*
X180684485Y-111894386D01*
X180456318Y-111849000D01*
X180223682Y-111849000D01*
X179995515Y-111894386D01*
X179780587Y-111983412D01*
X179587157Y-112112658D01*
X179422658Y-112277157D01*
X179293412Y-112470587D01*
X179204386Y-112685515D01*
X179159000Y-112913682D01*
X177711000Y-112913682D01*
X177665614Y-112685515D01*
X177576588Y-112470587D01*
X177447342Y-112277157D01*
X177282843Y-112112658D01*
X177089413Y-111983412D01*
X176874485Y-111894386D01*
X176646318Y-111849000D01*
X176413682Y-111849000D01*
X176185515Y-111894386D01*
X175970587Y-111983412D01*
X175777157Y-112112658D01*
X175612658Y-112277157D01*
X175483412Y-112470587D01*
X175394386Y-112685515D01*
X175349000Y-112913682D01*
X133400800Y-112913682D01*
X133400800Y-112899913D01*
X133350043Y-112644737D01*
X133250478Y-112404366D01*
X133105933Y-112188039D01*
X132921961Y-112004067D01*
X132778330Y-111908096D01*
X132904377Y-111840723D01*
X132992871Y-111582476D01*
X132080000Y-110669605D01*
X131167129Y-111582476D01*
X131255623Y-111840723D01*
X131387332Y-111904313D01*
X131238039Y-112004067D01*
X131054067Y-112188039D01*
X130909522Y-112404366D01*
X130809957Y-112644737D01*
X130759200Y-112899913D01*
X68986000Y-112899913D01*
X68986000Y-110554977D01*
X130498916Y-110554977D01*
X130541973Y-110862184D01*
X130644135Y-111155086D01*
X130729277Y-111314377D01*
X130987524Y-111402871D01*
X131900395Y-110490000D01*
X132259605Y-110490000D01*
X133172476Y-111402871D01*
X133430723Y-111314377D01*
X133565597Y-111035024D01*
X133643381Y-110734725D01*
X133661084Y-110425023D01*
X133618027Y-110117816D01*
X133515865Y-109824914D01*
X133430723Y-109665623D01*
X133172476Y-109577129D01*
X132259605Y-110490000D01*
X131900395Y-110490000D01*
X130987524Y-109577129D01*
X130729277Y-109665623D01*
X130594403Y-109944976D01*
X130516619Y-110245275D01*
X130498916Y-110554977D01*
X68986000Y-110554977D01*
X68986000Y-82419913D01*
X82499200Y-82419913D01*
X82499200Y-82680087D01*
X82549957Y-82935263D01*
X82649522Y-83175634D01*
X82794067Y-83391961D01*
X82978039Y-83575933D01*
X83194366Y-83720478D01*
X83434633Y-83820000D01*
X83194366Y-83919522D01*
X82978039Y-84064067D01*
X82794067Y-84248039D01*
X82649522Y-84464366D01*
X82549957Y-84704737D01*
X82499200Y-84959913D01*
X82499200Y-85220087D01*
X82549957Y-85475263D01*
X82649522Y-85715634D01*
X82794067Y-85931961D01*
X82978039Y-86115933D01*
X83194366Y-86260478D01*
X83434633Y-86360000D01*
X83194366Y-86459522D01*
X82978039Y-86604067D01*
X82794067Y-86788039D01*
X82649522Y-87004366D01*
X82549957Y-87244737D01*
X82499200Y-87499913D01*
X82499200Y-87760087D01*
X82549957Y-88015263D01*
X82649522Y-88255634D01*
X82794067Y-88471961D01*
X82978039Y-88655933D01*
X83194366Y-88800478D01*
X83434633Y-88900000D01*
X83194366Y-88999522D01*
X82978039Y-89144067D01*
X82794067Y-89328039D01*
X82649522Y-89544366D01*
X82549957Y-89784737D01*
X82499200Y-90039913D01*
X82499200Y-90300087D01*
X82549957Y-90555263D01*
X82649522Y-90795634D01*
X82794067Y-91011961D01*
X82978039Y-91195933D01*
X83194366Y-91340478D01*
X83434633Y-91440000D01*
X83194366Y-91539522D01*
X82978039Y-91684067D01*
X82794067Y-91868039D01*
X82649522Y-92084366D01*
X82549957Y-92324737D01*
X82499200Y-92579913D01*
X82499200Y-92840087D01*
X82549957Y-93095263D01*
X82649522Y-93335634D01*
X82794067Y-93551961D01*
X82978039Y-93735933D01*
X83194366Y-93880478D01*
X83434633Y-93980000D01*
X83194366Y-94079522D01*
X82978039Y-94224067D01*
X82794067Y-94408039D01*
X82649522Y-94624366D01*
X82549957Y-94864737D01*
X82499200Y-95119913D01*
X82499200Y-95380087D01*
X82549957Y-95635263D01*
X82649522Y-95875634D01*
X82794067Y-96091961D01*
X82978039Y-96275933D01*
X83194366Y-96420478D01*
X83434633Y-96520000D01*
X83194366Y-96619522D01*
X82978039Y-96764067D01*
X82794067Y-96948039D01*
X82649522Y-97164366D01*
X82549957Y-97404737D01*
X82499200Y-97659913D01*
X82499200Y-97920087D01*
X82549957Y-98175263D01*
X82649522Y-98415634D01*
X82794067Y-98631961D01*
X82978039Y-98815933D01*
X83194366Y-98960478D01*
X83434633Y-99060000D01*
X83194366Y-99159522D01*
X82978039Y-99304067D01*
X82794067Y-99488039D01*
X82649522Y-99704366D01*
X82549957Y-99944737D01*
X82499200Y-100199913D01*
X82499200Y-100460087D01*
X82549957Y-100715263D01*
X82649522Y-100955634D01*
X82794067Y-101171961D01*
X82978039Y-101355933D01*
X83194366Y-101500478D01*
X83434633Y-101600000D01*
X83194366Y-101699522D01*
X82978039Y-101844067D01*
X82794067Y-102028039D01*
X82649522Y-102244366D01*
X82549957Y-102484737D01*
X82499200Y-102739913D01*
X82499200Y-103000087D01*
X82549957Y-103255263D01*
X82649522Y-103495634D01*
X82794067Y-103711961D01*
X82978039Y-103895933D01*
X83194366Y-104040478D01*
X83434737Y-104140043D01*
X83689913Y-104190800D01*
X83950087Y-104190800D01*
X84205263Y-104140043D01*
X84445634Y-104040478D01*
X84661961Y-103895933D01*
X84845933Y-103711961D01*
X84990478Y-103495634D01*
X85090043Y-103255263D01*
X85140800Y-103000087D01*
X85140800Y-102739913D01*
X130759200Y-102739913D01*
X130759200Y-103000087D01*
X130809957Y-103255263D01*
X130909522Y-103495634D01*
X131054067Y-103711961D01*
X131238039Y-103895933D01*
X131454366Y-104040478D01*
X131694633Y-104140000D01*
X131454366Y-104239522D01*
X131238039Y-104384067D01*
X131054067Y-104568039D01*
X130909522Y-104784366D01*
X130809957Y-105024737D01*
X130759200Y-105279913D01*
X130759200Y-105540087D01*
X130809957Y-105795263D01*
X130909522Y-106035634D01*
X131054067Y-106251961D01*
X131238039Y-106435933D01*
X131454366Y-106580478D01*
X131694633Y-106680000D01*
X131454366Y-106779522D01*
X131238039Y-106924067D01*
X131054067Y-107108039D01*
X130909522Y-107324366D01*
X130809957Y-107564737D01*
X130759200Y-107819913D01*
X130759200Y-108080087D01*
X130809957Y-108335263D01*
X130909522Y-108575634D01*
X131054067Y-108791961D01*
X131238039Y-108975933D01*
X131381670Y-109071904D01*
X131255623Y-109139277D01*
X131167129Y-109397524D01*
X132080000Y-110310395D01*
X132992871Y-109397524D01*
X132904377Y-109139277D01*
X132830652Y-109103682D01*
X182969000Y-109103682D01*
X182969000Y-109336318D01*
X183014386Y-109564485D01*
X183103412Y-109779413D01*
X183232658Y-109972843D01*
X183397157Y-110137342D01*
X183590587Y-110266588D01*
X183805515Y-110355614D01*
X184033682Y-110401000D01*
X184266318Y-110401000D01*
X184494485Y-110355614D01*
X184709413Y-110266588D01*
X184902843Y-110137342D01*
X185067342Y-109972843D01*
X185196588Y-109779413D01*
X185285614Y-109564485D01*
X185331000Y-109336318D01*
X185331000Y-109103682D01*
X185285614Y-108875515D01*
X185196588Y-108660587D01*
X185067342Y-108467157D01*
X184902843Y-108302658D01*
X184709413Y-108173412D01*
X184541671Y-108103931D01*
X184766292Y-108023603D01*
X184891514Y-107956671D01*
X184963097Y-107712702D01*
X184150000Y-106899605D01*
X183336903Y-107712702D01*
X183408486Y-107956671D01*
X183663996Y-108077571D01*
X183762411Y-108102240D01*
X183590587Y-108173412D01*
X183397157Y-108302658D01*
X183232658Y-108467157D01*
X183103412Y-108660587D01*
X183014386Y-108875515D01*
X182969000Y-109103682D01*
X132830652Y-109103682D01*
X132772668Y-109075687D01*
X132921961Y-108975933D01*
X133105933Y-108791961D01*
X133250478Y-108575634D01*
X133350043Y-108335263D01*
X133400800Y-108080087D01*
X133400800Y-107819913D01*
X133350043Y-107564737D01*
X133250478Y-107324366D01*
X133105933Y-107108039D01*
X132921961Y-106924067D01*
X132722082Y-106790512D01*
X182709783Y-106790512D01*
X182751213Y-107070130D01*
X182846397Y-107336292D01*
X182913329Y-107461514D01*
X183157298Y-107533097D01*
X183970395Y-106720000D01*
X184329605Y-106720000D01*
X185142702Y-107533097D01*
X185386671Y-107461514D01*
X185507571Y-107206004D01*
X185576300Y-106931816D01*
X185590217Y-106649488D01*
X185548787Y-106369870D01*
X185453603Y-106103708D01*
X185386671Y-105978486D01*
X185142702Y-105906903D01*
X184329605Y-106720000D01*
X183970395Y-106720000D01*
X183157298Y-105906903D01*
X182913329Y-105978486D01*
X182792429Y-106233996D01*
X182723700Y-106508184D01*
X182709783Y-106790512D01*
X132722082Y-106790512D01*
X132705634Y-106779522D01*
X132465367Y-106680000D01*
X132705634Y-106580478D01*
X132921961Y-106435933D01*
X133105933Y-106251961D01*
X133250478Y-106035634D01*
X133350043Y-105795263D01*
X133363561Y-105727298D01*
X183336903Y-105727298D01*
X184150000Y-106540395D01*
X184963097Y-105727298D01*
X184891514Y-105483329D01*
X184636004Y-105362429D01*
X184361816Y-105293700D01*
X184079488Y-105279783D01*
X183799870Y-105321213D01*
X183533708Y-105416397D01*
X183408486Y-105483329D01*
X183336903Y-105727298D01*
X133363561Y-105727298D01*
X133400800Y-105540087D01*
X133400800Y-105279913D01*
X133350043Y-105024737D01*
X133250478Y-104784366D01*
X133105933Y-104568039D01*
X132921961Y-104384067D01*
X132705634Y-104239522D01*
X132465367Y-104140000D01*
X132705634Y-104040478D01*
X132921961Y-103895933D01*
X133105933Y-103711961D01*
X133250478Y-103495634D01*
X133350043Y-103255263D01*
X133357248Y-103219040D01*
X175138091Y-103219040D01*
X175232930Y-103483881D01*
X175377615Y-103725131D01*
X175566586Y-103933519D01*
X175792580Y-104101037D01*
X176046913Y-104221246D01*
X176180961Y-104261904D01*
X176403000Y-104139915D01*
X176403000Y-102997000D01*
X176657000Y-102997000D01*
X176657000Y-104139915D01*
X176879039Y-104261904D01*
X177013087Y-104221246D01*
X177121511Y-104170000D01*
X192371928Y-104170000D01*
X192384188Y-104294482D01*
X192420498Y-104414180D01*
X192479463Y-104524494D01*
X192558815Y-104621185D01*
X192655506Y-104700537D01*
X192765820Y-104759502D01*
X192885518Y-104795812D01*
X193010000Y-104808072D01*
X194024250Y-104805000D01*
X194183000Y-104646250D01*
X194183000Y-102997000D01*
X194437000Y-102997000D01*
X194437000Y-104646250D01*
X194595750Y-104805000D01*
X195610000Y-104808072D01*
X195734482Y-104795812D01*
X195854180Y-104759502D01*
X195964494Y-104700537D01*
X196061185Y-104621185D01*
X196140537Y-104524494D01*
X196199502Y-104414180D01*
X196235812Y-104294482D01*
X196248072Y-104170000D01*
X196245000Y-103155750D01*
X196086250Y-102997000D01*
X194437000Y-102997000D01*
X194183000Y-102997000D01*
X192533750Y-102997000D01*
X192375000Y-103155750D01*
X192371928Y-104170000D01*
X177121511Y-104170000D01*
X177267420Y-104101037D01*
X177493414Y-103933519D01*
X177682385Y-103725131D01*
X177827070Y-103483881D01*
X177921909Y-103219040D01*
X177800624Y-102997000D01*
X176657000Y-102997000D01*
X176403000Y-102997000D01*
X175259376Y-102997000D01*
X175138091Y-103219040D01*
X133357248Y-103219040D01*
X133400800Y-103000087D01*
X133400800Y-102753682D01*
X179159000Y-102753682D01*
X179159000Y-102986318D01*
X179204386Y-103214485D01*
X179293412Y-103429413D01*
X179422658Y-103622843D01*
X179587157Y-103787342D01*
X179780587Y-103916588D01*
X179995515Y-104005614D01*
X180223682Y-104051000D01*
X180456318Y-104051000D01*
X180684485Y-104005614D01*
X180899413Y-103916588D01*
X181092843Y-103787342D01*
X181257342Y-103622843D01*
X181386588Y-103429413D01*
X181475614Y-103214485D01*
X181521000Y-102986318D01*
X181521000Y-102753682D01*
X181475614Y-102525515D01*
X181386588Y-102310587D01*
X181257342Y-102117157D01*
X181092843Y-101952658D01*
X180899413Y-101823412D01*
X180684485Y-101734386D01*
X180456318Y-101689000D01*
X180223682Y-101689000D01*
X179995515Y-101734386D01*
X179780587Y-101823412D01*
X179587157Y-101952658D01*
X179422658Y-102117157D01*
X179293412Y-102310587D01*
X179204386Y-102525515D01*
X179159000Y-102753682D01*
X133400800Y-102753682D01*
X133400800Y-102739913D01*
X133357249Y-102520960D01*
X175138091Y-102520960D01*
X175259376Y-102743000D01*
X176403000Y-102743000D01*
X176403000Y-101600085D01*
X176657000Y-101600085D01*
X176657000Y-102743000D01*
X177800624Y-102743000D01*
X177921909Y-102520960D01*
X177827070Y-102256119D01*
X177682385Y-102014869D01*
X177493414Y-101806481D01*
X177267420Y-101638963D01*
X177121512Y-101570000D01*
X192371928Y-101570000D01*
X192375000Y-102584250D01*
X192533750Y-102743000D01*
X194183000Y-102743000D01*
X194183000Y-101093750D01*
X194437000Y-101093750D01*
X194437000Y-102743000D01*
X196086250Y-102743000D01*
X196245000Y-102584250D01*
X196248072Y-101570000D01*
X196235812Y-101445518D01*
X196199502Y-101325820D01*
X196140537Y-101215506D01*
X196061185Y-101118815D01*
X195964494Y-101039463D01*
X195854180Y-100980498D01*
X195734482Y-100944188D01*
X195610000Y-100931928D01*
X194595750Y-100935000D01*
X194437000Y-101093750D01*
X194183000Y-101093750D01*
X194024250Y-100935000D01*
X193010000Y-100931928D01*
X192885518Y-100944188D01*
X192765820Y-100980498D01*
X192655506Y-101039463D01*
X192558815Y-101118815D01*
X192479463Y-101215506D01*
X192420498Y-101325820D01*
X192384188Y-101445518D01*
X192371928Y-101570000D01*
X177121512Y-101570000D01*
X177013087Y-101518754D01*
X176879039Y-101478096D01*
X176657000Y-101600085D01*
X176403000Y-101600085D01*
X176180961Y-101478096D01*
X176046913Y-101518754D01*
X175792580Y-101638963D01*
X175566586Y-101806481D01*
X175377615Y-102014869D01*
X175232930Y-102256119D01*
X175138091Y-102520960D01*
X133357249Y-102520960D01*
X133350043Y-102484737D01*
X133250478Y-102244366D01*
X133105933Y-102028039D01*
X132921961Y-101844067D01*
X132778330Y-101748096D01*
X132904377Y-101680723D01*
X132992871Y-101422476D01*
X132080000Y-100509605D01*
X131167129Y-101422476D01*
X131255623Y-101680723D01*
X131387332Y-101744313D01*
X131238039Y-101844067D01*
X131054067Y-102028039D01*
X130909522Y-102244366D01*
X130809957Y-102484737D01*
X130759200Y-102739913D01*
X85140800Y-102739913D01*
X85090043Y-102484737D01*
X84990478Y-102244366D01*
X84845933Y-102028039D01*
X84661961Y-101844067D01*
X84445634Y-101699522D01*
X84205367Y-101600000D01*
X84445634Y-101500478D01*
X84661961Y-101355933D01*
X84845933Y-101171961D01*
X84990478Y-100955634D01*
X85090043Y-100715263D01*
X85140800Y-100460087D01*
X85140800Y-100199913D01*
X85090043Y-99944737D01*
X84990478Y-99704366D01*
X84845933Y-99488039D01*
X84661961Y-99304067D01*
X84445634Y-99159522D01*
X84205367Y-99060000D01*
X84445634Y-98960478D01*
X84661961Y-98815933D01*
X84845933Y-98631961D01*
X84990478Y-98415634D01*
X85090043Y-98175263D01*
X85140800Y-97920087D01*
X85140800Y-97659913D01*
X85090043Y-97404737D01*
X84990478Y-97164366D01*
X84845933Y-96948039D01*
X84661961Y-96764067D01*
X84445634Y-96619522D01*
X84205367Y-96520000D01*
X84445634Y-96420478D01*
X84661961Y-96275933D01*
X84845933Y-96091961D01*
X84990478Y-95875634D01*
X85090043Y-95635263D01*
X85140800Y-95380087D01*
X85140800Y-95119913D01*
X85090043Y-94864737D01*
X84990478Y-94624366D01*
X84845933Y-94408039D01*
X84661961Y-94224067D01*
X84445634Y-94079522D01*
X84205367Y-93980000D01*
X84445634Y-93880478D01*
X84661961Y-93735933D01*
X84845933Y-93551961D01*
X84990478Y-93335634D01*
X85090043Y-93095263D01*
X85140800Y-92840087D01*
X85140800Y-92579913D01*
X85090043Y-92324737D01*
X84990478Y-92084366D01*
X84845933Y-91868039D01*
X84661961Y-91684067D01*
X84445634Y-91539522D01*
X84205367Y-91440000D01*
X84445634Y-91340478D01*
X84661961Y-91195933D01*
X84845933Y-91011961D01*
X84990478Y-90795634D01*
X85090043Y-90555263D01*
X85140800Y-90300087D01*
X85140800Y-90039913D01*
X85090043Y-89784737D01*
X84990478Y-89544366D01*
X84845933Y-89328039D01*
X84661961Y-89144067D01*
X84445634Y-88999522D01*
X84205367Y-88900000D01*
X84445634Y-88800478D01*
X84661961Y-88655933D01*
X84845933Y-88471961D01*
X84990478Y-88255634D01*
X85090043Y-88015263D01*
X85140800Y-87760087D01*
X85140800Y-87499913D01*
X85090043Y-87244737D01*
X84990478Y-87004366D01*
X84845933Y-86788039D01*
X84661961Y-86604067D01*
X84445634Y-86459522D01*
X84205367Y-86360000D01*
X84445634Y-86260478D01*
X84661961Y-86115933D01*
X84845933Y-85931961D01*
X84990478Y-85715634D01*
X85090043Y-85475263D01*
X85140800Y-85220087D01*
X85140800Y-84959913D01*
X85090043Y-84704737D01*
X84990478Y-84464366D01*
X84845933Y-84248039D01*
X84661961Y-84064067D01*
X84445634Y-83919522D01*
X84205367Y-83820000D01*
X84445634Y-83720478D01*
X84661961Y-83575933D01*
X84845933Y-83391961D01*
X84990478Y-83175634D01*
X85090043Y-82935263D01*
X85140800Y-82680087D01*
X85140800Y-82419913D01*
X123139200Y-82419913D01*
X123139200Y-82680087D01*
X123189957Y-82935263D01*
X123289522Y-83175634D01*
X123434067Y-83391961D01*
X123618039Y-83575933D01*
X123834366Y-83720478D01*
X124074633Y-83820000D01*
X123834366Y-83919522D01*
X123618039Y-84064067D01*
X123434067Y-84248039D01*
X123289522Y-84464366D01*
X123189957Y-84704737D01*
X123139200Y-84959913D01*
X123139200Y-85220087D01*
X123189957Y-85475263D01*
X123289522Y-85715634D01*
X123434067Y-85931961D01*
X123618039Y-86115933D01*
X123834366Y-86260478D01*
X124074633Y-86360000D01*
X123834366Y-86459522D01*
X123618039Y-86604067D01*
X123434067Y-86788039D01*
X123289522Y-87004366D01*
X123189957Y-87244737D01*
X123139200Y-87499913D01*
X123139200Y-87760087D01*
X123189957Y-88015263D01*
X123289522Y-88255634D01*
X123434067Y-88471961D01*
X123618039Y-88655933D01*
X123834366Y-88800478D01*
X124074633Y-88900000D01*
X123834366Y-88999522D01*
X123618039Y-89144067D01*
X123434067Y-89328039D01*
X123289522Y-89544366D01*
X123189957Y-89784737D01*
X123139200Y-90039913D01*
X123139200Y-90300087D01*
X123189957Y-90555263D01*
X123289522Y-90795634D01*
X123434067Y-91011961D01*
X123618039Y-91195933D01*
X123834366Y-91340478D01*
X124074633Y-91440000D01*
X123834366Y-91539522D01*
X123618039Y-91684067D01*
X123434067Y-91868039D01*
X123289522Y-92084366D01*
X123189957Y-92324737D01*
X123139200Y-92579913D01*
X123139200Y-92840087D01*
X123189957Y-93095263D01*
X123289522Y-93335634D01*
X123434067Y-93551961D01*
X123618039Y-93735933D01*
X123834366Y-93880478D01*
X124074633Y-93980000D01*
X123834366Y-94079522D01*
X123618039Y-94224067D01*
X123434067Y-94408039D01*
X123289522Y-94624366D01*
X123189957Y-94864737D01*
X123139200Y-95119913D01*
X123139200Y-95380087D01*
X123189957Y-95635263D01*
X123289522Y-95875634D01*
X123434067Y-96091961D01*
X123618039Y-96275933D01*
X123834366Y-96420478D01*
X124074633Y-96520000D01*
X123834366Y-96619522D01*
X123618039Y-96764067D01*
X123434067Y-96948039D01*
X123289522Y-97164366D01*
X123189957Y-97404737D01*
X123139200Y-97659913D01*
X123139200Y-97920087D01*
X123189957Y-98175263D01*
X123289522Y-98415634D01*
X123434067Y-98631961D01*
X123618039Y-98815933D01*
X123834366Y-98960478D01*
X124074633Y-99060000D01*
X123834366Y-99159522D01*
X123618039Y-99304067D01*
X123434067Y-99488039D01*
X123289522Y-99704366D01*
X123189957Y-99944737D01*
X123139200Y-100199913D01*
X123139200Y-100460087D01*
X123189957Y-100715263D01*
X123289522Y-100955634D01*
X123434067Y-101171961D01*
X123618039Y-101355933D01*
X123834366Y-101500478D01*
X124074737Y-101600043D01*
X124329913Y-101650800D01*
X124590087Y-101650800D01*
X124845263Y-101600043D01*
X125085634Y-101500478D01*
X125301961Y-101355933D01*
X125485933Y-101171961D01*
X125630478Y-100955634D01*
X125730043Y-100715263D01*
X125780800Y-100460087D01*
X125780800Y-100394977D01*
X130498916Y-100394977D01*
X130541973Y-100702184D01*
X130644135Y-100995086D01*
X130729277Y-101154377D01*
X130987524Y-101242871D01*
X131900395Y-100330000D01*
X132259605Y-100330000D01*
X133172476Y-101242871D01*
X133430723Y-101154377D01*
X133565597Y-100875024D01*
X133643381Y-100574725D01*
X133661084Y-100265023D01*
X133618027Y-99957816D01*
X133515865Y-99664914D01*
X133430723Y-99505623D01*
X133172476Y-99417129D01*
X132259605Y-100330000D01*
X131900395Y-100330000D01*
X130987524Y-99417129D01*
X130729277Y-99505623D01*
X130594403Y-99784976D01*
X130516619Y-100085275D01*
X130498916Y-100394977D01*
X125780800Y-100394977D01*
X125780800Y-100199913D01*
X125730043Y-99944737D01*
X125630478Y-99704366D01*
X125485933Y-99488039D01*
X125301961Y-99304067D01*
X125202373Y-99237524D01*
X131167129Y-99237524D01*
X132080000Y-100150395D01*
X132992871Y-99237524D01*
X132904377Y-98979277D01*
X132625024Y-98844403D01*
X132324725Y-98766619D01*
X132015023Y-98748916D01*
X131707816Y-98791973D01*
X131414914Y-98894135D01*
X131255623Y-98979277D01*
X131167129Y-99237524D01*
X125202373Y-99237524D01*
X125085634Y-99159522D01*
X124845367Y-99060000D01*
X125085634Y-98960478D01*
X125301961Y-98815933D01*
X125485933Y-98631961D01*
X125630478Y-98415634D01*
X125730043Y-98175263D01*
X125780800Y-97920087D01*
X125780800Y-97659913D01*
X125730043Y-97404737D01*
X125630478Y-97164366D01*
X125485933Y-96948039D01*
X125301961Y-96764067D01*
X125085634Y-96619522D01*
X124845367Y-96520000D01*
X125085634Y-96420478D01*
X125301961Y-96275933D01*
X125485933Y-96091961D01*
X125630478Y-95875634D01*
X125730043Y-95635263D01*
X125780800Y-95380087D01*
X125780800Y-95119913D01*
X125730043Y-94864737D01*
X125630478Y-94624366D01*
X125485933Y-94408039D01*
X125301961Y-94224067D01*
X125085634Y-94079522D01*
X124845367Y-93980000D01*
X125085634Y-93880478D01*
X125301961Y-93735933D01*
X125485933Y-93551961D01*
X125630478Y-93335634D01*
X125730043Y-93095263D01*
X125780800Y-92840087D01*
X125780800Y-92579913D01*
X125730043Y-92324737D01*
X125630478Y-92084366D01*
X125485933Y-91868039D01*
X125301961Y-91684067D01*
X125085634Y-91539522D01*
X124845367Y-91440000D01*
X125085634Y-91340478D01*
X125301961Y-91195933D01*
X125485933Y-91011961D01*
X125630478Y-90795634D01*
X125730043Y-90555263D01*
X125780800Y-90300087D01*
X125780800Y-90039913D01*
X125730043Y-89784737D01*
X125630478Y-89544366D01*
X125485933Y-89328039D01*
X125301961Y-89144067D01*
X125085634Y-88999522D01*
X124845367Y-88900000D01*
X125085634Y-88800478D01*
X125301961Y-88655933D01*
X125485933Y-88471961D01*
X125630478Y-88255634D01*
X125730043Y-88015263D01*
X125780800Y-87760087D01*
X125780800Y-87499913D01*
X166319200Y-87499913D01*
X166319200Y-87760087D01*
X166369957Y-88015263D01*
X166469522Y-88255634D01*
X166614067Y-88471961D01*
X166798039Y-88655933D01*
X167014366Y-88800478D01*
X167254633Y-88900000D01*
X167014366Y-88999522D01*
X166798039Y-89144067D01*
X166614067Y-89328039D01*
X166469522Y-89544366D01*
X166369957Y-89784737D01*
X166319200Y-90039913D01*
X166319200Y-90300087D01*
X166369957Y-90555263D01*
X166469522Y-90795634D01*
X166614067Y-91011961D01*
X166798039Y-91195933D01*
X167014366Y-91340478D01*
X167254633Y-91440000D01*
X167014366Y-91539522D01*
X166798039Y-91684067D01*
X166614067Y-91868039D01*
X166469522Y-92084366D01*
X166369957Y-92324737D01*
X166319200Y-92579913D01*
X166319200Y-92840087D01*
X166369957Y-93095263D01*
X166469522Y-93335634D01*
X166614067Y-93551961D01*
X166798039Y-93735933D01*
X167014366Y-93880478D01*
X167254633Y-93980000D01*
X167014366Y-94079522D01*
X166798039Y-94224067D01*
X166614067Y-94408039D01*
X166469522Y-94624366D01*
X166369957Y-94864737D01*
X166319200Y-95119913D01*
X166319200Y-95380087D01*
X166369957Y-95635263D01*
X166469522Y-95875634D01*
X166614067Y-96091961D01*
X166798039Y-96275933D01*
X167014366Y-96420478D01*
X167254633Y-96520000D01*
X167014366Y-96619522D01*
X166798039Y-96764067D01*
X166614067Y-96948039D01*
X166469522Y-97164366D01*
X166369957Y-97404737D01*
X166319200Y-97659913D01*
X166319200Y-97920087D01*
X166369957Y-98175263D01*
X166469522Y-98415634D01*
X166614067Y-98631961D01*
X166798039Y-98815933D01*
X167014366Y-98960478D01*
X167254633Y-99060000D01*
X167014366Y-99159522D01*
X166798039Y-99304067D01*
X166614067Y-99488039D01*
X166469522Y-99704366D01*
X166369957Y-99944737D01*
X166319200Y-100199913D01*
X166319200Y-100460087D01*
X166369957Y-100715263D01*
X166469522Y-100955634D01*
X166614067Y-101171961D01*
X166798039Y-101355933D01*
X167014366Y-101500478D01*
X167254737Y-101600043D01*
X167509913Y-101650800D01*
X167770087Y-101650800D01*
X168025263Y-101600043D01*
X168265634Y-101500478D01*
X168382372Y-101422476D01*
X169267129Y-101422476D01*
X169355623Y-101680723D01*
X169634976Y-101815597D01*
X169935275Y-101893381D01*
X170244977Y-101911084D01*
X170552184Y-101868027D01*
X170845086Y-101765865D01*
X171004377Y-101680723D01*
X171092871Y-101422476D01*
X170180000Y-100509605D01*
X169267129Y-101422476D01*
X168382372Y-101422476D01*
X168481961Y-101355933D01*
X168665933Y-101171961D01*
X168761904Y-101028330D01*
X168829277Y-101154377D01*
X169087524Y-101242871D01*
X170000395Y-100330000D01*
X170359605Y-100330000D01*
X171272476Y-101242871D01*
X171530723Y-101154377D01*
X171665597Y-100875024D01*
X171743381Y-100574725D01*
X171761084Y-100265023D01*
X171718027Y-99957816D01*
X171615865Y-99664914D01*
X171530723Y-99505623D01*
X171272476Y-99417129D01*
X170359605Y-100330000D01*
X170000395Y-100330000D01*
X169087524Y-99417129D01*
X168829277Y-99505623D01*
X168765687Y-99637332D01*
X168665933Y-99488039D01*
X168481961Y-99304067D01*
X168265634Y-99159522D01*
X168025367Y-99060000D01*
X168265634Y-98960478D01*
X168382372Y-98882476D01*
X169267129Y-98882476D01*
X169327961Y-99060000D01*
X169267129Y-99237524D01*
X170180000Y-100150395D01*
X171092871Y-99237524D01*
X171032039Y-99060000D01*
X171092871Y-98882476D01*
X170180000Y-97969605D01*
X169267129Y-98882476D01*
X168382372Y-98882476D01*
X168481961Y-98815933D01*
X168665933Y-98631961D01*
X168761904Y-98488330D01*
X168829277Y-98614377D01*
X169087524Y-98702871D01*
X170000395Y-97790000D01*
X170359605Y-97790000D01*
X171272476Y-98702871D01*
X171530723Y-98614377D01*
X171665597Y-98335024D01*
X171743381Y-98034725D01*
X171761084Y-97725023D01*
X171758199Y-97704436D01*
X192629000Y-97704436D01*
X192629000Y-98035564D01*
X192693600Y-98360330D01*
X192820317Y-98666252D01*
X193004282Y-98941575D01*
X193238425Y-99175718D01*
X193513748Y-99359683D01*
X193819670Y-99486400D01*
X194144436Y-99551000D01*
X194475564Y-99551000D01*
X194800330Y-99486400D01*
X195106252Y-99359683D01*
X195381575Y-99175718D01*
X195615718Y-98941575D01*
X195799683Y-98666252D01*
X195926400Y-98360330D01*
X195991000Y-98035564D01*
X195991000Y-97704436D01*
X195926400Y-97379670D01*
X195799683Y-97073748D01*
X195615718Y-96798425D01*
X195381575Y-96564282D01*
X195106252Y-96380317D01*
X194800330Y-96253600D01*
X194475564Y-96189000D01*
X194144436Y-96189000D01*
X193819670Y-96253600D01*
X193513748Y-96380317D01*
X193238425Y-96564282D01*
X193004282Y-96798425D01*
X192820317Y-97073748D01*
X192693600Y-97379670D01*
X192629000Y-97704436D01*
X171758199Y-97704436D01*
X171718027Y-97417816D01*
X171615865Y-97124914D01*
X171530723Y-96965623D01*
X171272476Y-96877129D01*
X170359605Y-97790000D01*
X170000395Y-97790000D01*
X169087524Y-96877129D01*
X168829277Y-96965623D01*
X168765687Y-97097332D01*
X168665933Y-96948039D01*
X168481961Y-96764067D01*
X168265634Y-96619522D01*
X168025367Y-96520000D01*
X168265634Y-96420478D01*
X168382372Y-96342476D01*
X169267129Y-96342476D01*
X169327961Y-96520000D01*
X169267129Y-96697524D01*
X170180000Y-97610395D01*
X171092871Y-96697524D01*
X171032039Y-96520000D01*
X171092871Y-96342476D01*
X170180000Y-95429605D01*
X169267129Y-96342476D01*
X168382372Y-96342476D01*
X168481961Y-96275933D01*
X168665933Y-96091961D01*
X168761904Y-95948330D01*
X168829277Y-96074377D01*
X169087524Y-96162871D01*
X170000395Y-95250000D01*
X170359605Y-95250000D01*
X171272476Y-96162871D01*
X171530723Y-96074377D01*
X171665597Y-95795024D01*
X171743381Y-95494725D01*
X171761084Y-95185023D01*
X171718027Y-94877816D01*
X171615865Y-94584914D01*
X171530723Y-94425623D01*
X171272476Y-94337129D01*
X170359605Y-95250000D01*
X170000395Y-95250000D01*
X169087524Y-94337129D01*
X168829277Y-94425623D01*
X168765687Y-94557332D01*
X168665933Y-94408039D01*
X168481961Y-94224067D01*
X168265634Y-94079522D01*
X168025367Y-93980000D01*
X168265634Y-93880478D01*
X168481961Y-93735933D01*
X168665933Y-93551961D01*
X168810478Y-93335634D01*
X168910000Y-93095367D01*
X169009522Y-93335634D01*
X169154067Y-93551961D01*
X169338039Y-93735933D01*
X169481670Y-93831904D01*
X169355623Y-93899277D01*
X169267129Y-94157524D01*
X170180000Y-95070395D01*
X171092871Y-94157524D01*
X171042319Y-94010000D01*
X192371928Y-94010000D01*
X192384188Y-94134482D01*
X192420498Y-94254180D01*
X192479463Y-94364494D01*
X192558815Y-94461185D01*
X192655506Y-94540537D01*
X192765820Y-94599502D01*
X192885518Y-94635812D01*
X193010000Y-94648072D01*
X194024250Y-94645000D01*
X194183000Y-94486250D01*
X194183000Y-92837000D01*
X194437000Y-92837000D01*
X194437000Y-94486250D01*
X194595750Y-94645000D01*
X195610000Y-94648072D01*
X195734482Y-94635812D01*
X195854180Y-94599502D01*
X195964494Y-94540537D01*
X196061185Y-94461185D01*
X196140537Y-94364494D01*
X196199502Y-94254180D01*
X196235812Y-94134482D01*
X196248072Y-94010000D01*
X196245000Y-92995750D01*
X196086250Y-92837000D01*
X194437000Y-92837000D01*
X194183000Y-92837000D01*
X192533750Y-92837000D01*
X192375000Y-92995750D01*
X192371928Y-94010000D01*
X171042319Y-94010000D01*
X171004377Y-93899277D01*
X170872668Y-93835687D01*
X171021961Y-93735933D01*
X171205933Y-93551961D01*
X171350478Y-93335634D01*
X171450043Y-93095263D01*
X171500800Y-92840087D01*
X171500800Y-92579913D01*
X171450043Y-92324737D01*
X171350478Y-92084366D01*
X171205933Y-91868039D01*
X171021961Y-91684067D01*
X170805634Y-91539522D01*
X170565367Y-91440000D01*
X170637793Y-91410000D01*
X192371928Y-91410000D01*
X192375000Y-92424250D01*
X192533750Y-92583000D01*
X194183000Y-92583000D01*
X194183000Y-90933750D01*
X194437000Y-90933750D01*
X194437000Y-92583000D01*
X196086250Y-92583000D01*
X196245000Y-92424250D01*
X196248072Y-91410000D01*
X196235812Y-91285518D01*
X196199502Y-91165820D01*
X196140537Y-91055506D01*
X196061185Y-90958815D01*
X195964494Y-90879463D01*
X195854180Y-90820498D01*
X195734482Y-90784188D01*
X195610000Y-90771928D01*
X194595750Y-90775000D01*
X194437000Y-90933750D01*
X194183000Y-90933750D01*
X194024250Y-90775000D01*
X193010000Y-90771928D01*
X192885518Y-90784188D01*
X192765820Y-90820498D01*
X192655506Y-90879463D01*
X192558815Y-90958815D01*
X192479463Y-91055506D01*
X192420498Y-91165820D01*
X192384188Y-91285518D01*
X192371928Y-91410000D01*
X170637793Y-91410000D01*
X170805634Y-91340478D01*
X171021961Y-91195933D01*
X171205933Y-91011961D01*
X171350478Y-90795634D01*
X171450043Y-90555263D01*
X171500800Y-90300087D01*
X171500800Y-90039913D01*
X171450043Y-89784737D01*
X171350478Y-89544366D01*
X171205933Y-89328039D01*
X171021961Y-89144067D01*
X170805634Y-88999522D01*
X170565367Y-88900000D01*
X170805634Y-88800478D01*
X171021961Y-88655933D01*
X171205933Y-88471961D01*
X171350478Y-88255634D01*
X171450043Y-88015263D01*
X171500800Y-87760087D01*
X171500800Y-87544436D01*
X192629000Y-87544436D01*
X192629000Y-87875564D01*
X192693600Y-88200330D01*
X192820317Y-88506252D01*
X193004282Y-88781575D01*
X193238425Y-89015718D01*
X193513748Y-89199683D01*
X193819670Y-89326400D01*
X194144436Y-89391000D01*
X194475564Y-89391000D01*
X194800330Y-89326400D01*
X195106252Y-89199683D01*
X195381575Y-89015718D01*
X195615718Y-88781575D01*
X195799683Y-88506252D01*
X195926400Y-88200330D01*
X195991000Y-87875564D01*
X195991000Y-87544436D01*
X195926400Y-87219670D01*
X195799683Y-86913748D01*
X195615718Y-86638425D01*
X195381575Y-86404282D01*
X195106252Y-86220317D01*
X194800330Y-86093600D01*
X194475564Y-86029000D01*
X194144436Y-86029000D01*
X193819670Y-86093600D01*
X193513748Y-86220317D01*
X193238425Y-86404282D01*
X193004282Y-86638425D01*
X192820317Y-86913748D01*
X192693600Y-87219670D01*
X192629000Y-87544436D01*
X171500800Y-87544436D01*
X171500800Y-87499913D01*
X171450043Y-87244737D01*
X171350478Y-87004366D01*
X171205933Y-86788039D01*
X171021961Y-86604067D01*
X170805634Y-86459522D01*
X170565367Y-86360000D01*
X170805634Y-86260478D01*
X171021961Y-86115933D01*
X171205933Y-85931961D01*
X171350478Y-85715634D01*
X171450043Y-85475263D01*
X171500800Y-85220087D01*
X171500800Y-84959913D01*
X171450043Y-84704737D01*
X171350478Y-84464366D01*
X171205933Y-84248039D01*
X171021961Y-84064067D01*
X170805634Y-83919522D01*
X170565367Y-83820000D01*
X170805634Y-83720478D01*
X171021961Y-83575933D01*
X171205933Y-83391961D01*
X171350478Y-83175634D01*
X171450043Y-82935263D01*
X171500800Y-82680087D01*
X171500800Y-82419913D01*
X171450043Y-82164737D01*
X171350478Y-81924366D01*
X171205933Y-81708039D01*
X171021961Y-81524067D01*
X170805634Y-81379522D01*
X170565367Y-81280000D01*
X170805634Y-81180478D01*
X171021961Y-81035933D01*
X171205933Y-80851961D01*
X171350478Y-80635634D01*
X171450043Y-80395263D01*
X171500800Y-80140087D01*
X171500800Y-79879913D01*
X171450043Y-79624737D01*
X171350478Y-79384366D01*
X171205933Y-79168039D01*
X171021961Y-78984067D01*
X170805634Y-78839522D01*
X170565367Y-78740000D01*
X170805634Y-78640478D01*
X171021961Y-78495933D01*
X171205933Y-78311961D01*
X171350478Y-78095634D01*
X171450043Y-77855263D01*
X171500800Y-77600087D01*
X171500800Y-77339913D01*
X176479200Y-77339913D01*
X176479200Y-77600087D01*
X176529957Y-77855263D01*
X176629522Y-78095634D01*
X176774067Y-78311961D01*
X176958039Y-78495933D01*
X177174366Y-78640478D01*
X177414737Y-78740043D01*
X177669913Y-78790800D01*
X177930087Y-78790800D01*
X178185263Y-78740043D01*
X178425634Y-78640478D01*
X178641961Y-78495933D01*
X178762289Y-78375605D01*
X178762128Y-78409800D01*
X178774388Y-78534282D01*
X178810698Y-78653980D01*
X178869663Y-78764294D01*
X178949015Y-78860985D01*
X179045706Y-78940337D01*
X179156020Y-78999302D01*
X179275718Y-79035612D01*
X179400200Y-79047872D01*
X180054250Y-79044800D01*
X180213000Y-78886050D01*
X180213000Y-77597000D01*
X180193000Y-77597000D01*
X180193000Y-77343000D01*
X180213000Y-77343000D01*
X180213000Y-76053950D01*
X180467000Y-76053950D01*
X180467000Y-77343000D01*
X180487000Y-77343000D01*
X180487000Y-77597000D01*
X180467000Y-77597000D01*
X180467000Y-78886050D01*
X180625750Y-79044800D01*
X181279800Y-79047872D01*
X181404282Y-79035612D01*
X181523980Y-78999302D01*
X181634294Y-78940337D01*
X181730985Y-78860985D01*
X181810337Y-78764294D01*
X181869302Y-78653980D01*
X181905612Y-78534282D01*
X181917872Y-78409800D01*
X181917711Y-78375605D01*
X182038039Y-78495933D01*
X182254366Y-78640478D01*
X182494737Y-78740043D01*
X182749913Y-78790800D01*
X183010087Y-78790800D01*
X183265263Y-78740043D01*
X183505634Y-78640478D01*
X183721961Y-78495933D01*
X183905933Y-78311961D01*
X184050478Y-78095634D01*
X184150000Y-77855367D01*
X184249522Y-78095634D01*
X184394067Y-78311961D01*
X184578039Y-78495933D01*
X184794366Y-78640478D01*
X185034737Y-78740043D01*
X185289913Y-78790800D01*
X185550087Y-78790800D01*
X185805263Y-78740043D01*
X186045634Y-78640478D01*
X186261961Y-78495933D01*
X186445933Y-78311961D01*
X186590478Y-78095634D01*
X186690043Y-77855263D01*
X186740800Y-77600087D01*
X186740800Y-77339913D01*
X186690043Y-77084737D01*
X186590478Y-76844366D01*
X186445933Y-76628039D01*
X186261961Y-76444067D01*
X186045634Y-76299522D01*
X185805263Y-76199957D01*
X185550087Y-76149200D01*
X185289913Y-76149200D01*
X185034737Y-76199957D01*
X184794366Y-76299522D01*
X184578039Y-76444067D01*
X184394067Y-76628039D01*
X184249522Y-76844366D01*
X184150000Y-77084633D01*
X184050478Y-76844366D01*
X183905933Y-76628039D01*
X183721961Y-76444067D01*
X183505634Y-76299522D01*
X183265263Y-76199957D01*
X183010087Y-76149200D01*
X182749913Y-76149200D01*
X182494737Y-76199957D01*
X182254366Y-76299522D01*
X182038039Y-76444067D01*
X181917711Y-76564395D01*
X181917872Y-76530200D01*
X181905612Y-76405718D01*
X181869302Y-76286020D01*
X181810337Y-76175706D01*
X181730985Y-76079015D01*
X181634294Y-75999663D01*
X181523980Y-75940698D01*
X181404282Y-75904388D01*
X181279800Y-75892128D01*
X180625750Y-75895200D01*
X180467000Y-76053950D01*
X180213000Y-76053950D01*
X180054250Y-75895200D01*
X179400200Y-75892128D01*
X179275718Y-75904388D01*
X179156020Y-75940698D01*
X179045706Y-75999663D01*
X178949015Y-76079015D01*
X178869663Y-76175706D01*
X178810698Y-76286020D01*
X178774388Y-76405718D01*
X178762128Y-76530200D01*
X178762289Y-76564395D01*
X178641961Y-76444067D01*
X178425634Y-76299522D01*
X178185263Y-76199957D01*
X177930087Y-76149200D01*
X177669913Y-76149200D01*
X177414737Y-76199957D01*
X177174366Y-76299522D01*
X176958039Y-76444067D01*
X176774067Y-76628039D01*
X176629522Y-76844366D01*
X176529957Y-77084737D01*
X176479200Y-77339913D01*
X171500800Y-77339913D01*
X171450043Y-77084737D01*
X171350478Y-76844366D01*
X171205933Y-76628039D01*
X171021961Y-76444067D01*
X170805634Y-76299522D01*
X170565367Y-76200000D01*
X170805634Y-76100478D01*
X171021961Y-75955933D01*
X171205933Y-75771961D01*
X171350478Y-75555634D01*
X171450043Y-75315263D01*
X171500800Y-75060087D01*
X171500800Y-74799913D01*
X171450043Y-74544737D01*
X171350478Y-74304366D01*
X171205933Y-74088039D01*
X171021961Y-73904067D01*
X170805634Y-73759522D01*
X170565367Y-73660000D01*
X170805634Y-73560478D01*
X171021961Y-73415933D01*
X171205933Y-73231961D01*
X171350478Y-73015634D01*
X171450043Y-72775263D01*
X171500800Y-72520087D01*
X171500800Y-72259913D01*
X171450043Y-72004737D01*
X171350478Y-71764366D01*
X171205933Y-71548039D01*
X171021961Y-71364067D01*
X170805634Y-71219522D01*
X170565263Y-71119957D01*
X170310087Y-71069200D01*
X170049913Y-71069200D01*
X169794737Y-71119957D01*
X169554366Y-71219522D01*
X169338039Y-71364067D01*
X169154067Y-71548039D01*
X169009522Y-71764366D01*
X168909957Y-72004737D01*
X168859200Y-72259913D01*
X168859200Y-72520087D01*
X168909957Y-72775263D01*
X169009522Y-73015634D01*
X169154067Y-73231961D01*
X169338039Y-73415933D01*
X169554366Y-73560478D01*
X169794633Y-73660000D01*
X169554366Y-73759522D01*
X169338039Y-73904067D01*
X169154067Y-74088039D01*
X169009522Y-74304366D01*
X168909957Y-74544737D01*
X168859200Y-74799913D01*
X168859200Y-75060087D01*
X168909957Y-75315263D01*
X169009522Y-75555634D01*
X169154067Y-75771961D01*
X169338039Y-75955933D01*
X169554366Y-76100478D01*
X169794633Y-76200000D01*
X169554366Y-76299522D01*
X169338039Y-76444067D01*
X169154067Y-76628039D01*
X169009522Y-76844366D01*
X168909957Y-77084737D01*
X168859200Y-77339913D01*
X168859200Y-77600087D01*
X168909957Y-77855263D01*
X169009522Y-78095634D01*
X169154067Y-78311961D01*
X169338039Y-78495933D01*
X169554366Y-78640478D01*
X169794633Y-78740000D01*
X169554366Y-78839522D01*
X169338039Y-78984067D01*
X169154067Y-79168039D01*
X169009522Y-79384366D01*
X168909957Y-79624737D01*
X168859200Y-79879913D01*
X168859200Y-80140087D01*
X168909957Y-80395263D01*
X169009522Y-80635634D01*
X169154067Y-80851961D01*
X169338039Y-81035933D01*
X169554366Y-81180478D01*
X169794633Y-81280000D01*
X169554366Y-81379522D01*
X169338039Y-81524067D01*
X169154067Y-81708039D01*
X169009522Y-81924366D01*
X168909957Y-82164737D01*
X168859200Y-82419913D01*
X168859200Y-82680087D01*
X168909957Y-82935263D01*
X169009522Y-83175634D01*
X169154067Y-83391961D01*
X169338039Y-83575933D01*
X169554366Y-83720478D01*
X169794633Y-83820000D01*
X169554366Y-83919522D01*
X169338039Y-84064067D01*
X169154067Y-84248039D01*
X169009522Y-84464366D01*
X168909957Y-84704737D01*
X168859200Y-84959913D01*
X168859200Y-85220087D01*
X168909957Y-85475263D01*
X169009522Y-85715634D01*
X169154067Y-85931961D01*
X169338039Y-86115933D01*
X169554366Y-86260478D01*
X169794633Y-86360000D01*
X169554366Y-86459522D01*
X169338039Y-86604067D01*
X169154067Y-86788039D01*
X169009522Y-87004366D01*
X168910000Y-87244633D01*
X168810478Y-87004366D01*
X168665933Y-86788039D01*
X168481961Y-86604067D01*
X168265634Y-86459522D01*
X168025263Y-86359957D01*
X167770087Y-86309200D01*
X167509913Y-86309200D01*
X167254737Y-86359957D01*
X167014366Y-86459522D01*
X166798039Y-86604067D01*
X166614067Y-86788039D01*
X166469522Y-87004366D01*
X166369957Y-87244737D01*
X166319200Y-87499913D01*
X125780800Y-87499913D01*
X125730043Y-87244737D01*
X125630478Y-87004366D01*
X125485933Y-86788039D01*
X125301961Y-86604067D01*
X125085634Y-86459522D01*
X124845367Y-86360000D01*
X125085634Y-86260478D01*
X125301961Y-86115933D01*
X125485933Y-85931961D01*
X125630478Y-85715634D01*
X125730043Y-85475263D01*
X125780800Y-85220087D01*
X125780800Y-84959913D01*
X125730043Y-84704737D01*
X125630478Y-84464366D01*
X125485933Y-84248039D01*
X125301961Y-84064067D01*
X125085634Y-83919522D01*
X124845367Y-83820000D01*
X125085634Y-83720478D01*
X125301961Y-83575933D01*
X125485933Y-83391961D01*
X125630478Y-83175634D01*
X125730043Y-82935263D01*
X125780800Y-82680087D01*
X125780800Y-82419913D01*
X125730043Y-82164737D01*
X125630478Y-81924366D01*
X125485933Y-81708039D01*
X125301961Y-81524067D01*
X125158330Y-81428096D01*
X125284377Y-81360723D01*
X125372871Y-81102476D01*
X124460000Y-80189605D01*
X123547129Y-81102476D01*
X123635623Y-81360723D01*
X123767332Y-81424313D01*
X123618039Y-81524067D01*
X123434067Y-81708039D01*
X123289522Y-81924366D01*
X123189957Y-82164737D01*
X123139200Y-82419913D01*
X85140800Y-82419913D01*
X85090043Y-82164737D01*
X84990478Y-81924366D01*
X84845933Y-81708039D01*
X84661961Y-81524067D01*
X84518330Y-81428096D01*
X84644377Y-81360723D01*
X84732871Y-81102476D01*
X83820000Y-80189605D01*
X82907129Y-81102476D01*
X82995623Y-81360723D01*
X83127332Y-81424313D01*
X82978039Y-81524067D01*
X82794067Y-81708039D01*
X82649522Y-81924366D01*
X82549957Y-82164737D01*
X82499200Y-82419913D01*
X68986000Y-82419913D01*
X68986000Y-80074977D01*
X82238916Y-80074977D01*
X82281973Y-80382184D01*
X82384135Y-80675086D01*
X82469277Y-80834377D01*
X82727524Y-80922871D01*
X83640395Y-80010000D01*
X83999605Y-80010000D01*
X84912476Y-80922871D01*
X85170723Y-80834377D01*
X85305597Y-80555024D01*
X85383381Y-80254725D01*
X85393655Y-80074977D01*
X122878916Y-80074977D01*
X122921973Y-80382184D01*
X123024135Y-80675086D01*
X123109277Y-80834377D01*
X123367524Y-80922871D01*
X124280395Y-80010000D01*
X124639605Y-80010000D01*
X125552476Y-80922871D01*
X125810723Y-80834377D01*
X125945597Y-80555024D01*
X126023381Y-80254725D01*
X126041084Y-79945023D01*
X125998027Y-79637816D01*
X125895865Y-79344914D01*
X125810723Y-79185623D01*
X125552476Y-79097129D01*
X124639605Y-80010000D01*
X124280395Y-80010000D01*
X123367524Y-79097129D01*
X123109277Y-79185623D01*
X122974403Y-79464976D01*
X122896619Y-79765275D01*
X122878916Y-80074977D01*
X85393655Y-80074977D01*
X85401084Y-79945023D01*
X85358027Y-79637816D01*
X85255865Y-79344914D01*
X85170723Y-79185623D01*
X84912476Y-79097129D01*
X83999605Y-80010000D01*
X83640395Y-80010000D01*
X82727524Y-79097129D01*
X82469277Y-79185623D01*
X82334403Y-79464976D01*
X82256619Y-79765275D01*
X82238916Y-80074977D01*
X68986000Y-80074977D01*
X68986000Y-78917524D01*
X82907129Y-78917524D01*
X83820000Y-79830395D01*
X84732871Y-78917524D01*
X123547129Y-78917524D01*
X124460000Y-79830395D01*
X125372871Y-78917524D01*
X125284377Y-78659277D01*
X125005024Y-78524403D01*
X124704725Y-78446619D01*
X124395023Y-78428916D01*
X124087816Y-78471973D01*
X123794914Y-78574135D01*
X123635623Y-78659277D01*
X123547129Y-78917524D01*
X84732871Y-78917524D01*
X84644377Y-78659277D01*
X84365024Y-78524403D01*
X84064725Y-78446619D01*
X83755023Y-78428916D01*
X83447816Y-78471973D01*
X83154914Y-78574135D01*
X82995623Y-78659277D01*
X82907129Y-78917524D01*
X68986000Y-78917524D01*
X68986000Y-76704913D01*
X149809200Y-76704913D01*
X149809200Y-76965087D01*
X149859957Y-77220263D01*
X149959522Y-77460634D01*
X150104067Y-77676961D01*
X150288039Y-77860933D01*
X150504366Y-78005478D01*
X150744737Y-78105043D01*
X150999913Y-78155800D01*
X151260087Y-78155800D01*
X151515263Y-78105043D01*
X151755634Y-78005478D01*
X151971961Y-77860933D01*
X152155933Y-77676961D01*
X152300478Y-77460634D01*
X152400000Y-77220367D01*
X152499522Y-77460634D01*
X152644067Y-77676961D01*
X152828039Y-77860933D01*
X153044366Y-78005478D01*
X153284737Y-78105043D01*
X153539913Y-78155800D01*
X153800087Y-78155800D01*
X154055263Y-78105043D01*
X154295634Y-78005478D01*
X154511961Y-77860933D01*
X154695933Y-77676961D01*
X154840478Y-77460634D01*
X154940043Y-77220263D01*
X154990800Y-76965087D01*
X154990800Y-76704913D01*
X154940043Y-76449737D01*
X154840478Y-76209366D01*
X154695933Y-75993039D01*
X154511961Y-75809067D01*
X154295634Y-75664522D01*
X154055263Y-75564957D01*
X153800087Y-75514200D01*
X153539913Y-75514200D01*
X153284737Y-75564957D01*
X153044366Y-75664522D01*
X152828039Y-75809067D01*
X152644067Y-75993039D01*
X152499522Y-76209366D01*
X152400000Y-76449633D01*
X152300478Y-76209366D01*
X152155933Y-75993039D01*
X151971961Y-75809067D01*
X151755634Y-75664522D01*
X151515263Y-75564957D01*
X151260087Y-75514200D01*
X150999913Y-75514200D01*
X150744737Y-75564957D01*
X150504366Y-75664522D01*
X150288039Y-75809067D01*
X150104067Y-75993039D01*
X149959522Y-76209366D01*
X149859957Y-76449737D01*
X149809200Y-76704913D01*
X68986000Y-76704913D01*
X68986000Y-68402476D01*
X103227129Y-68402476D01*
X103315623Y-68660723D01*
X103594976Y-68795597D01*
X103895275Y-68873381D01*
X104204977Y-68891084D01*
X104512184Y-68848027D01*
X104805086Y-68745865D01*
X104964377Y-68660723D01*
X105052871Y-68402476D01*
X104140000Y-67489605D01*
X103227129Y-68402476D01*
X68986000Y-68402476D01*
X68986000Y-67374977D01*
X102558916Y-67374977D01*
X102601973Y-67682184D01*
X102704135Y-67975086D01*
X102789277Y-68134377D01*
X103047524Y-68222871D01*
X103960395Y-67310000D01*
X104319605Y-67310000D01*
X105232476Y-68222871D01*
X105490723Y-68134377D01*
X105554313Y-68002668D01*
X105654067Y-68151961D01*
X105838039Y-68335933D01*
X106054366Y-68480478D01*
X106294737Y-68580043D01*
X106549913Y-68630800D01*
X106810087Y-68630800D01*
X107065263Y-68580043D01*
X107305634Y-68480478D01*
X107521961Y-68335933D01*
X107705933Y-68151961D01*
X107850478Y-67935634D01*
X107950000Y-67695367D01*
X108049522Y-67935634D01*
X108194067Y-68151961D01*
X108378039Y-68335933D01*
X108594366Y-68480478D01*
X108834737Y-68580043D01*
X109089913Y-68630800D01*
X109350087Y-68630800D01*
X109605263Y-68580043D01*
X109845634Y-68480478D01*
X110061961Y-68335933D01*
X110245933Y-68151961D01*
X110390478Y-67935634D01*
X110490000Y-67695367D01*
X110589522Y-67935634D01*
X110734067Y-68151961D01*
X110918039Y-68335933D01*
X111134366Y-68480478D01*
X111374737Y-68580043D01*
X111629913Y-68630800D01*
X111890087Y-68630800D01*
X112145263Y-68580043D01*
X112385634Y-68480478D01*
X112601961Y-68335933D01*
X112785933Y-68151961D01*
X112930478Y-67935634D01*
X113030000Y-67695367D01*
X113129522Y-67935634D01*
X113274067Y-68151961D01*
X113458039Y-68335933D01*
X113674366Y-68480478D01*
X113914737Y-68580043D01*
X114169913Y-68630800D01*
X114430087Y-68630800D01*
X114685263Y-68580043D01*
X114925634Y-68480478D01*
X115141961Y-68335933D01*
X115325933Y-68151961D01*
X115470478Y-67935634D01*
X115570000Y-67695367D01*
X115669522Y-67935634D01*
X115814067Y-68151961D01*
X115998039Y-68335933D01*
X116214366Y-68480478D01*
X116454737Y-68580043D01*
X116709913Y-68630800D01*
X116970087Y-68630800D01*
X117225263Y-68580043D01*
X117465634Y-68480478D01*
X117681961Y-68335933D01*
X117865933Y-68151961D01*
X118010478Y-67935634D01*
X118110043Y-67695263D01*
X118160800Y-67440087D01*
X118160800Y-67179913D01*
X118110043Y-66924737D01*
X118010478Y-66684366D01*
X117865933Y-66468039D01*
X117681961Y-66284067D01*
X117465634Y-66139522D01*
X117225263Y-66039957D01*
X116970087Y-65989200D01*
X116709913Y-65989200D01*
X116454737Y-66039957D01*
X116214366Y-66139522D01*
X115998039Y-66284067D01*
X115814067Y-66468039D01*
X115669522Y-66684366D01*
X115570000Y-66924633D01*
X115470478Y-66684366D01*
X115325933Y-66468039D01*
X115141961Y-66284067D01*
X114925634Y-66139522D01*
X114685263Y-66039957D01*
X114430087Y-65989200D01*
X114169913Y-65989200D01*
X113914737Y-66039957D01*
X113674366Y-66139522D01*
X113458039Y-66284067D01*
X113274067Y-66468039D01*
X113129522Y-66684366D01*
X113030000Y-66924633D01*
X112930478Y-66684366D01*
X112785933Y-66468039D01*
X112601961Y-66284067D01*
X112385634Y-66139522D01*
X112145263Y-66039957D01*
X111890087Y-65989200D01*
X111629913Y-65989200D01*
X111374737Y-66039957D01*
X111134366Y-66139522D01*
X110918039Y-66284067D01*
X110734067Y-66468039D01*
X110589522Y-66684366D01*
X110490000Y-66924633D01*
X110390478Y-66684366D01*
X110245933Y-66468039D01*
X110061961Y-66284067D01*
X109845634Y-66139522D01*
X109605263Y-66039957D01*
X109350087Y-65989200D01*
X109089913Y-65989200D01*
X108834737Y-66039957D01*
X108594366Y-66139522D01*
X108378039Y-66284067D01*
X108194067Y-66468039D01*
X108049522Y-66684366D01*
X107950000Y-66924633D01*
X107850478Y-66684366D01*
X107705933Y-66468039D01*
X107521961Y-66284067D01*
X107305634Y-66139522D01*
X107065263Y-66039957D01*
X106810087Y-65989200D01*
X106549913Y-65989200D01*
X106294737Y-66039957D01*
X106054366Y-66139522D01*
X105838039Y-66284067D01*
X105654067Y-66468039D01*
X105558096Y-66611670D01*
X105490723Y-66485623D01*
X105232476Y-66397129D01*
X104319605Y-67310000D01*
X103960395Y-67310000D01*
X103047524Y-66397129D01*
X102789277Y-66485623D01*
X102654403Y-66764976D01*
X102576619Y-67065275D01*
X102558916Y-67374977D01*
X68986000Y-67374977D01*
X68986000Y-66217524D01*
X103227129Y-66217524D01*
X104140000Y-67130395D01*
X105052871Y-66217524D01*
X104964377Y-65959277D01*
X104685024Y-65824403D01*
X104384725Y-65746619D01*
X104075023Y-65728916D01*
X103767816Y-65771973D01*
X103474914Y-65874135D01*
X103315623Y-65959277D01*
X103227129Y-66217524D01*
X68986000Y-66217524D01*
X68986000Y-61366000D01*
X198984001Y-61366000D01*
X198984000Y-130404000D01*
G04 #@! TA.AperFunction,Conductor*
D19*
G36*
X198984000Y-130404000D02*
G01*
X68986000Y-130404000D01*
X68986000Y-112899913D01*
X130759200Y-112899913D01*
X130759200Y-113160087D01*
X130809957Y-113415263D01*
X130909522Y-113655634D01*
X131054067Y-113871961D01*
X131238039Y-114055933D01*
X131454366Y-114200478D01*
X131694633Y-114300000D01*
X131454366Y-114399522D01*
X131238039Y-114544067D01*
X131054067Y-114728039D01*
X130909522Y-114944366D01*
X130809957Y-115184737D01*
X130759200Y-115439913D01*
X130759200Y-115700087D01*
X130809957Y-115955263D01*
X130909522Y-116195634D01*
X131054067Y-116411961D01*
X131238039Y-116595933D01*
X131454366Y-116740478D01*
X131694633Y-116840000D01*
X131454366Y-116939522D01*
X131238039Y-117084067D01*
X131054067Y-117268039D01*
X130909522Y-117484366D01*
X130809957Y-117724737D01*
X130759200Y-117979913D01*
X130759200Y-118240087D01*
X130809957Y-118495263D01*
X130909522Y-118735634D01*
X131054067Y-118951961D01*
X131238039Y-119135933D01*
X131454366Y-119280478D01*
X131694633Y-119380000D01*
X131454366Y-119479522D01*
X131238039Y-119624067D01*
X131054067Y-119808039D01*
X130909522Y-120024366D01*
X130809957Y-120264737D01*
X130759200Y-120519913D01*
X130759200Y-120780087D01*
X130809957Y-121035263D01*
X130909522Y-121275634D01*
X131054067Y-121491961D01*
X131238039Y-121675933D01*
X131454366Y-121820478D01*
X131694737Y-121920043D01*
X131949913Y-121970800D01*
X132210087Y-121970800D01*
X132465263Y-121920043D01*
X132705634Y-121820478D01*
X132921961Y-121675933D01*
X133105933Y-121491961D01*
X133250478Y-121275634D01*
X133350043Y-121035263D01*
X133400800Y-120780087D01*
X133400800Y-120519913D01*
X133350043Y-120264737D01*
X133250478Y-120024366D01*
X133105933Y-119808039D01*
X132921961Y-119624067D01*
X132705634Y-119479522D01*
X132465367Y-119380000D01*
X132705634Y-119280478D01*
X132921961Y-119135933D01*
X133105933Y-118951961D01*
X133250478Y-118735634D01*
X133350043Y-118495263D01*
X133400800Y-118240087D01*
X133400800Y-117979913D01*
X133350043Y-117724737D01*
X133250478Y-117484366D01*
X133105933Y-117268039D01*
X132921961Y-117084067D01*
X132705634Y-116939522D01*
X132465367Y-116840000D01*
X132705634Y-116740478D01*
X132921961Y-116595933D01*
X133105933Y-116411961D01*
X133250478Y-116195634D01*
X133350043Y-115955263D01*
X133400800Y-115700087D01*
X133400800Y-115439913D01*
X133350043Y-115184737D01*
X133250478Y-114944366D01*
X133105933Y-114728039D01*
X132921961Y-114544067D01*
X132705634Y-114399522D01*
X132465367Y-114300000D01*
X132705634Y-114200478D01*
X132921961Y-114055933D01*
X133105933Y-113871961D01*
X133250478Y-113655634D01*
X133350043Y-113415263D01*
X133400800Y-113160087D01*
X133400800Y-112913682D01*
X175349000Y-112913682D01*
X175349000Y-113146318D01*
X175394386Y-113374485D01*
X175483412Y-113589413D01*
X175612658Y-113782843D01*
X175777157Y-113947342D01*
X175970587Y-114076588D01*
X176185515Y-114165614D01*
X176413682Y-114211000D01*
X176646318Y-114211000D01*
X176874485Y-114165614D01*
X177089413Y-114076588D01*
X177282843Y-113947342D01*
X177447342Y-113782843D01*
X177576588Y-113589413D01*
X177665614Y-113374485D01*
X177711000Y-113146318D01*
X177711000Y-112913682D01*
X179159000Y-112913682D01*
X179159000Y-113146318D01*
X179204386Y-113374485D01*
X179293412Y-113589413D01*
X179422658Y-113782843D01*
X179587157Y-113947342D01*
X179780587Y-114076588D01*
X179995515Y-114165614D01*
X180223682Y-114211000D01*
X180456318Y-114211000D01*
X180684485Y-114165614D01*
X180899413Y-114076588D01*
X181092843Y-113947342D01*
X181257342Y-113782843D01*
X181386588Y-113589413D01*
X181475614Y-113374485D01*
X181521000Y-113146318D01*
X181521000Y-112913682D01*
X181475614Y-112685515D01*
X181386588Y-112470587D01*
X181257342Y-112277157D01*
X181092843Y-112112658D01*
X180899413Y-111983412D01*
X180684485Y-111894386D01*
X180456318Y-111849000D01*
X180223682Y-111849000D01*
X179995515Y-111894386D01*
X179780587Y-111983412D01*
X179587157Y-112112658D01*
X179422658Y-112277157D01*
X179293412Y-112470587D01*
X179204386Y-112685515D01*
X179159000Y-112913682D01*
X177711000Y-112913682D01*
X177665614Y-112685515D01*
X177576588Y-112470587D01*
X177447342Y-112277157D01*
X177282843Y-112112658D01*
X177089413Y-111983412D01*
X176874485Y-111894386D01*
X176646318Y-111849000D01*
X176413682Y-111849000D01*
X176185515Y-111894386D01*
X175970587Y-111983412D01*
X175777157Y-112112658D01*
X175612658Y-112277157D01*
X175483412Y-112470587D01*
X175394386Y-112685515D01*
X175349000Y-112913682D01*
X133400800Y-112913682D01*
X133400800Y-112899913D01*
X133350043Y-112644737D01*
X133250478Y-112404366D01*
X133105933Y-112188039D01*
X132921961Y-112004067D01*
X132778330Y-111908096D01*
X132904377Y-111840723D01*
X132992871Y-111582476D01*
X132080000Y-110669605D01*
X131167129Y-111582476D01*
X131255623Y-111840723D01*
X131387332Y-111904313D01*
X131238039Y-112004067D01*
X131054067Y-112188039D01*
X130909522Y-112404366D01*
X130809957Y-112644737D01*
X130759200Y-112899913D01*
X68986000Y-112899913D01*
X68986000Y-110554977D01*
X130498916Y-110554977D01*
X130541973Y-110862184D01*
X130644135Y-111155086D01*
X130729277Y-111314377D01*
X130987524Y-111402871D01*
X131900395Y-110490000D01*
X132259605Y-110490000D01*
X133172476Y-111402871D01*
X133430723Y-111314377D01*
X133565597Y-111035024D01*
X133643381Y-110734725D01*
X133661084Y-110425023D01*
X133618027Y-110117816D01*
X133515865Y-109824914D01*
X133430723Y-109665623D01*
X133172476Y-109577129D01*
X132259605Y-110490000D01*
X131900395Y-110490000D01*
X130987524Y-109577129D01*
X130729277Y-109665623D01*
X130594403Y-109944976D01*
X130516619Y-110245275D01*
X130498916Y-110554977D01*
X68986000Y-110554977D01*
X68986000Y-82419913D01*
X82499200Y-82419913D01*
X82499200Y-82680087D01*
X82549957Y-82935263D01*
X82649522Y-83175634D01*
X82794067Y-83391961D01*
X82978039Y-83575933D01*
X83194366Y-83720478D01*
X83434633Y-83820000D01*
X83194366Y-83919522D01*
X82978039Y-84064067D01*
X82794067Y-84248039D01*
X82649522Y-84464366D01*
X82549957Y-84704737D01*
X82499200Y-84959913D01*
X82499200Y-85220087D01*
X82549957Y-85475263D01*
X82649522Y-85715634D01*
X82794067Y-85931961D01*
X82978039Y-86115933D01*
X83194366Y-86260478D01*
X83434633Y-86360000D01*
X83194366Y-86459522D01*
X82978039Y-86604067D01*
X82794067Y-86788039D01*
X82649522Y-87004366D01*
X82549957Y-87244737D01*
X82499200Y-87499913D01*
X82499200Y-87760087D01*
X82549957Y-88015263D01*
X82649522Y-88255634D01*
X82794067Y-88471961D01*
X82978039Y-88655933D01*
X83194366Y-88800478D01*
X83434633Y-88900000D01*
X83194366Y-88999522D01*
X82978039Y-89144067D01*
X82794067Y-89328039D01*
X82649522Y-89544366D01*
X82549957Y-89784737D01*
X82499200Y-90039913D01*
X82499200Y-90300087D01*
X82549957Y-90555263D01*
X82649522Y-90795634D01*
X82794067Y-91011961D01*
X82978039Y-91195933D01*
X83194366Y-91340478D01*
X83434633Y-91440000D01*
X83194366Y-91539522D01*
X82978039Y-91684067D01*
X82794067Y-91868039D01*
X82649522Y-92084366D01*
X82549957Y-92324737D01*
X82499200Y-92579913D01*
X82499200Y-92840087D01*
X82549957Y-93095263D01*
X82649522Y-93335634D01*
X82794067Y-93551961D01*
X82978039Y-93735933D01*
X83194366Y-93880478D01*
X83434633Y-93980000D01*
X83194366Y-94079522D01*
X82978039Y-94224067D01*
X82794067Y-94408039D01*
X82649522Y-94624366D01*
X82549957Y-94864737D01*
X82499200Y-95119913D01*
X82499200Y-95380087D01*
X82549957Y-95635263D01*
X82649522Y-95875634D01*
X82794067Y-96091961D01*
X82978039Y-96275933D01*
X83194366Y-96420478D01*
X83434633Y-96520000D01*
X83194366Y-96619522D01*
X82978039Y-96764067D01*
X82794067Y-96948039D01*
X82649522Y-97164366D01*
X82549957Y-97404737D01*
X82499200Y-97659913D01*
X82499200Y-97920087D01*
X82549957Y-98175263D01*
X82649522Y-98415634D01*
X82794067Y-98631961D01*
X82978039Y-98815933D01*
X83194366Y-98960478D01*
X83434633Y-99060000D01*
X83194366Y-99159522D01*
X82978039Y-99304067D01*
X82794067Y-99488039D01*
X82649522Y-99704366D01*
X82549957Y-99944737D01*
X82499200Y-100199913D01*
X82499200Y-100460087D01*
X82549957Y-100715263D01*
X82649522Y-100955634D01*
X82794067Y-101171961D01*
X82978039Y-101355933D01*
X83194366Y-101500478D01*
X83434633Y-101600000D01*
X83194366Y-101699522D01*
X82978039Y-101844067D01*
X82794067Y-102028039D01*
X82649522Y-102244366D01*
X82549957Y-102484737D01*
X82499200Y-102739913D01*
X82499200Y-103000087D01*
X82549957Y-103255263D01*
X82649522Y-103495634D01*
X82794067Y-103711961D01*
X82978039Y-103895933D01*
X83194366Y-104040478D01*
X83434737Y-104140043D01*
X83689913Y-104190800D01*
X83950087Y-104190800D01*
X84205263Y-104140043D01*
X84445634Y-104040478D01*
X84661961Y-103895933D01*
X84845933Y-103711961D01*
X84990478Y-103495634D01*
X85090043Y-103255263D01*
X85140800Y-103000087D01*
X85140800Y-102739913D01*
X130759200Y-102739913D01*
X130759200Y-103000087D01*
X130809957Y-103255263D01*
X130909522Y-103495634D01*
X131054067Y-103711961D01*
X131238039Y-103895933D01*
X131454366Y-104040478D01*
X131694633Y-104140000D01*
X131454366Y-104239522D01*
X131238039Y-104384067D01*
X131054067Y-104568039D01*
X130909522Y-104784366D01*
X130809957Y-105024737D01*
X130759200Y-105279913D01*
X130759200Y-105540087D01*
X130809957Y-105795263D01*
X130909522Y-106035634D01*
X131054067Y-106251961D01*
X131238039Y-106435933D01*
X131454366Y-106580478D01*
X131694633Y-106680000D01*
X131454366Y-106779522D01*
X131238039Y-106924067D01*
X131054067Y-107108039D01*
X130909522Y-107324366D01*
X130809957Y-107564737D01*
X130759200Y-107819913D01*
X130759200Y-108080087D01*
X130809957Y-108335263D01*
X130909522Y-108575634D01*
X131054067Y-108791961D01*
X131238039Y-108975933D01*
X131381670Y-109071904D01*
X131255623Y-109139277D01*
X131167129Y-109397524D01*
X132080000Y-110310395D01*
X132992871Y-109397524D01*
X132904377Y-109139277D01*
X132830652Y-109103682D01*
X182969000Y-109103682D01*
X182969000Y-109336318D01*
X183014386Y-109564485D01*
X183103412Y-109779413D01*
X183232658Y-109972843D01*
X183397157Y-110137342D01*
X183590587Y-110266588D01*
X183805515Y-110355614D01*
X184033682Y-110401000D01*
X184266318Y-110401000D01*
X184494485Y-110355614D01*
X184709413Y-110266588D01*
X184902843Y-110137342D01*
X185067342Y-109972843D01*
X185196588Y-109779413D01*
X185285614Y-109564485D01*
X185331000Y-109336318D01*
X185331000Y-109103682D01*
X185285614Y-108875515D01*
X185196588Y-108660587D01*
X185067342Y-108467157D01*
X184902843Y-108302658D01*
X184709413Y-108173412D01*
X184541671Y-108103931D01*
X184766292Y-108023603D01*
X184891514Y-107956671D01*
X184963097Y-107712702D01*
X184150000Y-106899605D01*
X183336903Y-107712702D01*
X183408486Y-107956671D01*
X183663996Y-108077571D01*
X183762411Y-108102240D01*
X183590587Y-108173412D01*
X183397157Y-108302658D01*
X183232658Y-108467157D01*
X183103412Y-108660587D01*
X183014386Y-108875515D01*
X182969000Y-109103682D01*
X132830652Y-109103682D01*
X132772668Y-109075687D01*
X132921961Y-108975933D01*
X133105933Y-108791961D01*
X133250478Y-108575634D01*
X133350043Y-108335263D01*
X133400800Y-108080087D01*
X133400800Y-107819913D01*
X133350043Y-107564737D01*
X133250478Y-107324366D01*
X133105933Y-107108039D01*
X132921961Y-106924067D01*
X132722082Y-106790512D01*
X182709783Y-106790512D01*
X182751213Y-107070130D01*
X182846397Y-107336292D01*
X182913329Y-107461514D01*
X183157298Y-107533097D01*
X183970395Y-106720000D01*
X184329605Y-106720000D01*
X185142702Y-107533097D01*
X185386671Y-107461514D01*
X185507571Y-107206004D01*
X185576300Y-106931816D01*
X185590217Y-106649488D01*
X185548787Y-106369870D01*
X185453603Y-106103708D01*
X185386671Y-105978486D01*
X185142702Y-105906903D01*
X184329605Y-106720000D01*
X183970395Y-106720000D01*
X183157298Y-105906903D01*
X182913329Y-105978486D01*
X182792429Y-106233996D01*
X182723700Y-106508184D01*
X182709783Y-106790512D01*
X132722082Y-106790512D01*
X132705634Y-106779522D01*
X132465367Y-106680000D01*
X132705634Y-106580478D01*
X132921961Y-106435933D01*
X133105933Y-106251961D01*
X133250478Y-106035634D01*
X133350043Y-105795263D01*
X133363561Y-105727298D01*
X183336903Y-105727298D01*
X184150000Y-106540395D01*
X184963097Y-105727298D01*
X184891514Y-105483329D01*
X184636004Y-105362429D01*
X184361816Y-105293700D01*
X184079488Y-105279783D01*
X183799870Y-105321213D01*
X183533708Y-105416397D01*
X183408486Y-105483329D01*
X183336903Y-105727298D01*
X133363561Y-105727298D01*
X133400800Y-105540087D01*
X133400800Y-105279913D01*
X133350043Y-105024737D01*
X133250478Y-104784366D01*
X133105933Y-104568039D01*
X132921961Y-104384067D01*
X132705634Y-104239522D01*
X132465367Y-104140000D01*
X132705634Y-104040478D01*
X132921961Y-103895933D01*
X133105933Y-103711961D01*
X133250478Y-103495634D01*
X133350043Y-103255263D01*
X133357248Y-103219040D01*
X175138091Y-103219040D01*
X175232930Y-103483881D01*
X175377615Y-103725131D01*
X175566586Y-103933519D01*
X175792580Y-104101037D01*
X176046913Y-104221246D01*
X176180961Y-104261904D01*
X176403000Y-104139915D01*
X176403000Y-102997000D01*
X176657000Y-102997000D01*
X176657000Y-104139915D01*
X176879039Y-104261904D01*
X177013087Y-104221246D01*
X177121511Y-104170000D01*
X192371928Y-104170000D01*
X192384188Y-104294482D01*
X192420498Y-104414180D01*
X192479463Y-104524494D01*
X192558815Y-104621185D01*
X192655506Y-104700537D01*
X192765820Y-104759502D01*
X192885518Y-104795812D01*
X193010000Y-104808072D01*
X194024250Y-104805000D01*
X194183000Y-104646250D01*
X194183000Y-102997000D01*
X194437000Y-102997000D01*
X194437000Y-104646250D01*
X194595750Y-104805000D01*
X195610000Y-104808072D01*
X195734482Y-104795812D01*
X195854180Y-104759502D01*
X195964494Y-104700537D01*
X196061185Y-104621185D01*
X196140537Y-104524494D01*
X196199502Y-104414180D01*
X196235812Y-104294482D01*
X196248072Y-104170000D01*
X196245000Y-103155750D01*
X196086250Y-102997000D01*
X194437000Y-102997000D01*
X194183000Y-102997000D01*
X192533750Y-102997000D01*
X192375000Y-103155750D01*
X192371928Y-104170000D01*
X177121511Y-104170000D01*
X177267420Y-104101037D01*
X177493414Y-103933519D01*
X177682385Y-103725131D01*
X177827070Y-103483881D01*
X177921909Y-103219040D01*
X177800624Y-102997000D01*
X176657000Y-102997000D01*
X176403000Y-102997000D01*
X175259376Y-102997000D01*
X175138091Y-103219040D01*
X133357248Y-103219040D01*
X133400800Y-103000087D01*
X133400800Y-102753682D01*
X179159000Y-102753682D01*
X179159000Y-102986318D01*
X179204386Y-103214485D01*
X179293412Y-103429413D01*
X179422658Y-103622843D01*
X179587157Y-103787342D01*
X179780587Y-103916588D01*
X179995515Y-104005614D01*
X180223682Y-104051000D01*
X180456318Y-104051000D01*
X180684485Y-104005614D01*
X180899413Y-103916588D01*
X181092843Y-103787342D01*
X181257342Y-103622843D01*
X181386588Y-103429413D01*
X181475614Y-103214485D01*
X181521000Y-102986318D01*
X181521000Y-102753682D01*
X181475614Y-102525515D01*
X181386588Y-102310587D01*
X181257342Y-102117157D01*
X181092843Y-101952658D01*
X180899413Y-101823412D01*
X180684485Y-101734386D01*
X180456318Y-101689000D01*
X180223682Y-101689000D01*
X179995515Y-101734386D01*
X179780587Y-101823412D01*
X179587157Y-101952658D01*
X179422658Y-102117157D01*
X179293412Y-102310587D01*
X179204386Y-102525515D01*
X179159000Y-102753682D01*
X133400800Y-102753682D01*
X133400800Y-102739913D01*
X133357249Y-102520960D01*
X175138091Y-102520960D01*
X175259376Y-102743000D01*
X176403000Y-102743000D01*
X176403000Y-101600085D01*
X176657000Y-101600085D01*
X176657000Y-102743000D01*
X177800624Y-102743000D01*
X177921909Y-102520960D01*
X177827070Y-102256119D01*
X177682385Y-102014869D01*
X177493414Y-101806481D01*
X177267420Y-101638963D01*
X177121512Y-101570000D01*
X192371928Y-101570000D01*
X192375000Y-102584250D01*
X192533750Y-102743000D01*
X194183000Y-102743000D01*
X194183000Y-101093750D01*
X194437000Y-101093750D01*
X194437000Y-102743000D01*
X196086250Y-102743000D01*
X196245000Y-102584250D01*
X196248072Y-101570000D01*
X196235812Y-101445518D01*
X196199502Y-101325820D01*
X196140537Y-101215506D01*
X196061185Y-101118815D01*
X195964494Y-101039463D01*
X195854180Y-100980498D01*
X195734482Y-100944188D01*
X195610000Y-100931928D01*
X194595750Y-100935000D01*
X194437000Y-101093750D01*
X194183000Y-101093750D01*
X194024250Y-100935000D01*
X193010000Y-100931928D01*
X192885518Y-100944188D01*
X192765820Y-100980498D01*
X192655506Y-101039463D01*
X192558815Y-101118815D01*
X192479463Y-101215506D01*
X192420498Y-101325820D01*
X192384188Y-101445518D01*
X192371928Y-101570000D01*
X177121512Y-101570000D01*
X177013087Y-101518754D01*
X176879039Y-101478096D01*
X176657000Y-101600085D01*
X176403000Y-101600085D01*
X176180961Y-101478096D01*
X176046913Y-101518754D01*
X175792580Y-101638963D01*
X175566586Y-101806481D01*
X175377615Y-102014869D01*
X175232930Y-102256119D01*
X175138091Y-102520960D01*
X133357249Y-102520960D01*
X133350043Y-102484737D01*
X133250478Y-102244366D01*
X133105933Y-102028039D01*
X132921961Y-101844067D01*
X132778330Y-101748096D01*
X132904377Y-101680723D01*
X132992871Y-101422476D01*
X132080000Y-100509605D01*
X131167129Y-101422476D01*
X131255623Y-101680723D01*
X131387332Y-101744313D01*
X131238039Y-101844067D01*
X131054067Y-102028039D01*
X130909522Y-102244366D01*
X130809957Y-102484737D01*
X130759200Y-102739913D01*
X85140800Y-102739913D01*
X85090043Y-102484737D01*
X84990478Y-102244366D01*
X84845933Y-102028039D01*
X84661961Y-101844067D01*
X84445634Y-101699522D01*
X84205367Y-101600000D01*
X84445634Y-101500478D01*
X84661961Y-101355933D01*
X84845933Y-101171961D01*
X84990478Y-100955634D01*
X85090043Y-100715263D01*
X85140800Y-100460087D01*
X85140800Y-100199913D01*
X85090043Y-99944737D01*
X84990478Y-99704366D01*
X84845933Y-99488039D01*
X84661961Y-99304067D01*
X84445634Y-99159522D01*
X84205367Y-99060000D01*
X84445634Y-98960478D01*
X84661961Y-98815933D01*
X84845933Y-98631961D01*
X84990478Y-98415634D01*
X85090043Y-98175263D01*
X85140800Y-97920087D01*
X85140800Y-97659913D01*
X85090043Y-97404737D01*
X84990478Y-97164366D01*
X84845933Y-96948039D01*
X84661961Y-96764067D01*
X84445634Y-96619522D01*
X84205367Y-96520000D01*
X84445634Y-96420478D01*
X84661961Y-96275933D01*
X84845933Y-96091961D01*
X84990478Y-95875634D01*
X85090043Y-95635263D01*
X85140800Y-95380087D01*
X85140800Y-95119913D01*
X85090043Y-94864737D01*
X84990478Y-94624366D01*
X84845933Y-94408039D01*
X84661961Y-94224067D01*
X84445634Y-94079522D01*
X84205367Y-93980000D01*
X84445634Y-93880478D01*
X84661961Y-93735933D01*
X84845933Y-93551961D01*
X84990478Y-93335634D01*
X85090043Y-93095263D01*
X85140800Y-92840087D01*
X85140800Y-92579913D01*
X85090043Y-92324737D01*
X84990478Y-92084366D01*
X84845933Y-91868039D01*
X84661961Y-91684067D01*
X84445634Y-91539522D01*
X84205367Y-91440000D01*
X84445634Y-91340478D01*
X84661961Y-91195933D01*
X84845933Y-91011961D01*
X84990478Y-90795634D01*
X85090043Y-90555263D01*
X85140800Y-90300087D01*
X85140800Y-90039913D01*
X85090043Y-89784737D01*
X84990478Y-89544366D01*
X84845933Y-89328039D01*
X84661961Y-89144067D01*
X84445634Y-88999522D01*
X84205367Y-88900000D01*
X84445634Y-88800478D01*
X84661961Y-88655933D01*
X84845933Y-88471961D01*
X84990478Y-88255634D01*
X85090043Y-88015263D01*
X85140800Y-87760087D01*
X85140800Y-87499913D01*
X85090043Y-87244737D01*
X84990478Y-87004366D01*
X84845933Y-86788039D01*
X84661961Y-86604067D01*
X84445634Y-86459522D01*
X84205367Y-86360000D01*
X84445634Y-86260478D01*
X84661961Y-86115933D01*
X84845933Y-85931961D01*
X84990478Y-85715634D01*
X85090043Y-85475263D01*
X85140800Y-85220087D01*
X85140800Y-84959913D01*
X85090043Y-84704737D01*
X84990478Y-84464366D01*
X84845933Y-84248039D01*
X84661961Y-84064067D01*
X84445634Y-83919522D01*
X84205367Y-83820000D01*
X84445634Y-83720478D01*
X84661961Y-83575933D01*
X84845933Y-83391961D01*
X84990478Y-83175634D01*
X85090043Y-82935263D01*
X85140800Y-82680087D01*
X85140800Y-82419913D01*
X123139200Y-82419913D01*
X123139200Y-82680087D01*
X123189957Y-82935263D01*
X123289522Y-83175634D01*
X123434067Y-83391961D01*
X123618039Y-83575933D01*
X123834366Y-83720478D01*
X124074633Y-83820000D01*
X123834366Y-83919522D01*
X123618039Y-84064067D01*
X123434067Y-84248039D01*
X123289522Y-84464366D01*
X123189957Y-84704737D01*
X123139200Y-84959913D01*
X123139200Y-85220087D01*
X123189957Y-85475263D01*
X123289522Y-85715634D01*
X123434067Y-85931961D01*
X123618039Y-86115933D01*
X123834366Y-86260478D01*
X124074633Y-86360000D01*
X123834366Y-86459522D01*
X123618039Y-86604067D01*
X123434067Y-86788039D01*
X123289522Y-87004366D01*
X123189957Y-87244737D01*
X123139200Y-87499913D01*
X123139200Y-87760087D01*
X123189957Y-88015263D01*
X123289522Y-88255634D01*
X123434067Y-88471961D01*
X123618039Y-88655933D01*
X123834366Y-88800478D01*
X124074633Y-88900000D01*
X123834366Y-88999522D01*
X123618039Y-89144067D01*
X123434067Y-89328039D01*
X123289522Y-89544366D01*
X123189957Y-89784737D01*
X123139200Y-90039913D01*
X123139200Y-90300087D01*
X123189957Y-90555263D01*
X123289522Y-90795634D01*
X123434067Y-91011961D01*
X123618039Y-91195933D01*
X123834366Y-91340478D01*
X124074633Y-91440000D01*
X123834366Y-91539522D01*
X123618039Y-91684067D01*
X123434067Y-91868039D01*
X123289522Y-92084366D01*
X123189957Y-92324737D01*
X123139200Y-92579913D01*
X123139200Y-92840087D01*
X123189957Y-93095263D01*
X123289522Y-93335634D01*
X123434067Y-93551961D01*
X123618039Y-93735933D01*
X123834366Y-93880478D01*
X124074633Y-93980000D01*
X123834366Y-94079522D01*
X123618039Y-94224067D01*
X123434067Y-94408039D01*
X123289522Y-94624366D01*
X123189957Y-94864737D01*
X123139200Y-95119913D01*
X123139200Y-95380087D01*
X123189957Y-95635263D01*
X123289522Y-95875634D01*
X123434067Y-96091961D01*
X123618039Y-96275933D01*
X123834366Y-96420478D01*
X124074633Y-96520000D01*
X123834366Y-96619522D01*
X123618039Y-96764067D01*
X123434067Y-96948039D01*
X123289522Y-97164366D01*
X123189957Y-97404737D01*
X123139200Y-97659913D01*
X123139200Y-97920087D01*
X123189957Y-98175263D01*
X123289522Y-98415634D01*
X123434067Y-98631961D01*
X123618039Y-98815933D01*
X123834366Y-98960478D01*
X124074633Y-99060000D01*
X123834366Y-99159522D01*
X123618039Y-99304067D01*
X123434067Y-99488039D01*
X123289522Y-99704366D01*
X123189957Y-99944737D01*
X123139200Y-100199913D01*
X123139200Y-100460087D01*
X123189957Y-100715263D01*
X123289522Y-100955634D01*
X123434067Y-101171961D01*
X123618039Y-101355933D01*
X123834366Y-101500478D01*
X124074737Y-101600043D01*
X124329913Y-101650800D01*
X124590087Y-101650800D01*
X124845263Y-101600043D01*
X125085634Y-101500478D01*
X125301961Y-101355933D01*
X125485933Y-101171961D01*
X125630478Y-100955634D01*
X125730043Y-100715263D01*
X125780800Y-100460087D01*
X125780800Y-100394977D01*
X130498916Y-100394977D01*
X130541973Y-100702184D01*
X130644135Y-100995086D01*
X130729277Y-101154377D01*
X130987524Y-101242871D01*
X131900395Y-100330000D01*
X132259605Y-100330000D01*
X133172476Y-101242871D01*
X133430723Y-101154377D01*
X133565597Y-100875024D01*
X133643381Y-100574725D01*
X133661084Y-100265023D01*
X133618027Y-99957816D01*
X133515865Y-99664914D01*
X133430723Y-99505623D01*
X133172476Y-99417129D01*
X132259605Y-100330000D01*
X131900395Y-100330000D01*
X130987524Y-99417129D01*
X130729277Y-99505623D01*
X130594403Y-99784976D01*
X130516619Y-100085275D01*
X130498916Y-100394977D01*
X125780800Y-100394977D01*
X125780800Y-100199913D01*
X125730043Y-99944737D01*
X125630478Y-99704366D01*
X125485933Y-99488039D01*
X125301961Y-99304067D01*
X125202373Y-99237524D01*
X131167129Y-99237524D01*
X132080000Y-100150395D01*
X132992871Y-99237524D01*
X132904377Y-98979277D01*
X132625024Y-98844403D01*
X132324725Y-98766619D01*
X132015023Y-98748916D01*
X131707816Y-98791973D01*
X131414914Y-98894135D01*
X131255623Y-98979277D01*
X131167129Y-99237524D01*
X125202373Y-99237524D01*
X125085634Y-99159522D01*
X124845367Y-99060000D01*
X125085634Y-98960478D01*
X125301961Y-98815933D01*
X125485933Y-98631961D01*
X125630478Y-98415634D01*
X125730043Y-98175263D01*
X125780800Y-97920087D01*
X125780800Y-97659913D01*
X125730043Y-97404737D01*
X125630478Y-97164366D01*
X125485933Y-96948039D01*
X125301961Y-96764067D01*
X125085634Y-96619522D01*
X124845367Y-96520000D01*
X125085634Y-96420478D01*
X125301961Y-96275933D01*
X125485933Y-96091961D01*
X125630478Y-95875634D01*
X125730043Y-95635263D01*
X125780800Y-95380087D01*
X125780800Y-95119913D01*
X125730043Y-94864737D01*
X125630478Y-94624366D01*
X125485933Y-94408039D01*
X125301961Y-94224067D01*
X125085634Y-94079522D01*
X124845367Y-93980000D01*
X125085634Y-93880478D01*
X125301961Y-93735933D01*
X125485933Y-93551961D01*
X125630478Y-93335634D01*
X125730043Y-93095263D01*
X125780800Y-92840087D01*
X125780800Y-92579913D01*
X125730043Y-92324737D01*
X125630478Y-92084366D01*
X125485933Y-91868039D01*
X125301961Y-91684067D01*
X125085634Y-91539522D01*
X124845367Y-91440000D01*
X125085634Y-91340478D01*
X125301961Y-91195933D01*
X125485933Y-91011961D01*
X125630478Y-90795634D01*
X125730043Y-90555263D01*
X125780800Y-90300087D01*
X125780800Y-90039913D01*
X125730043Y-89784737D01*
X125630478Y-89544366D01*
X125485933Y-89328039D01*
X125301961Y-89144067D01*
X125085634Y-88999522D01*
X124845367Y-88900000D01*
X125085634Y-88800478D01*
X125301961Y-88655933D01*
X125485933Y-88471961D01*
X125630478Y-88255634D01*
X125730043Y-88015263D01*
X125780800Y-87760087D01*
X125780800Y-87499913D01*
X166319200Y-87499913D01*
X166319200Y-87760087D01*
X166369957Y-88015263D01*
X166469522Y-88255634D01*
X166614067Y-88471961D01*
X166798039Y-88655933D01*
X167014366Y-88800478D01*
X167254633Y-88900000D01*
X167014366Y-88999522D01*
X166798039Y-89144067D01*
X166614067Y-89328039D01*
X166469522Y-89544366D01*
X166369957Y-89784737D01*
X166319200Y-90039913D01*
X166319200Y-90300087D01*
X166369957Y-90555263D01*
X166469522Y-90795634D01*
X166614067Y-91011961D01*
X166798039Y-91195933D01*
X167014366Y-91340478D01*
X167254633Y-91440000D01*
X167014366Y-91539522D01*
X166798039Y-91684067D01*
X166614067Y-91868039D01*
X166469522Y-92084366D01*
X166369957Y-92324737D01*
X166319200Y-92579913D01*
X166319200Y-92840087D01*
X166369957Y-93095263D01*
X166469522Y-93335634D01*
X166614067Y-93551961D01*
X166798039Y-93735933D01*
X167014366Y-93880478D01*
X167254633Y-93980000D01*
X167014366Y-94079522D01*
X166798039Y-94224067D01*
X166614067Y-94408039D01*
X166469522Y-94624366D01*
X166369957Y-94864737D01*
X166319200Y-95119913D01*
X166319200Y-95380087D01*
X166369957Y-95635263D01*
X166469522Y-95875634D01*
X166614067Y-96091961D01*
X166798039Y-96275933D01*
X167014366Y-96420478D01*
X167254633Y-96520000D01*
X167014366Y-96619522D01*
X166798039Y-96764067D01*
X166614067Y-96948039D01*
X166469522Y-97164366D01*
X166369957Y-97404737D01*
X166319200Y-97659913D01*
X166319200Y-97920087D01*
X166369957Y-98175263D01*
X166469522Y-98415634D01*
X166614067Y-98631961D01*
X166798039Y-98815933D01*
X167014366Y-98960478D01*
X167254633Y-99060000D01*
X167014366Y-99159522D01*
X166798039Y-99304067D01*
X166614067Y-99488039D01*
X166469522Y-99704366D01*
X166369957Y-99944737D01*
X166319200Y-100199913D01*
X166319200Y-100460087D01*
X166369957Y-100715263D01*
X166469522Y-100955634D01*
X166614067Y-101171961D01*
X166798039Y-101355933D01*
X167014366Y-101500478D01*
X167254737Y-101600043D01*
X167509913Y-101650800D01*
X167770087Y-101650800D01*
X168025263Y-101600043D01*
X168265634Y-101500478D01*
X168382372Y-101422476D01*
X169267129Y-101422476D01*
X169355623Y-101680723D01*
X169634976Y-101815597D01*
X169935275Y-101893381D01*
X170244977Y-101911084D01*
X170552184Y-101868027D01*
X170845086Y-101765865D01*
X171004377Y-101680723D01*
X171092871Y-101422476D01*
X170180000Y-100509605D01*
X169267129Y-101422476D01*
X168382372Y-101422476D01*
X168481961Y-101355933D01*
X168665933Y-101171961D01*
X168761904Y-101028330D01*
X168829277Y-101154377D01*
X169087524Y-101242871D01*
X170000395Y-100330000D01*
X170359605Y-100330000D01*
X171272476Y-101242871D01*
X171530723Y-101154377D01*
X171665597Y-100875024D01*
X171743381Y-100574725D01*
X171761084Y-100265023D01*
X171718027Y-99957816D01*
X171615865Y-99664914D01*
X171530723Y-99505623D01*
X171272476Y-99417129D01*
X170359605Y-100330000D01*
X170000395Y-100330000D01*
X169087524Y-99417129D01*
X168829277Y-99505623D01*
X168765687Y-99637332D01*
X168665933Y-99488039D01*
X168481961Y-99304067D01*
X168265634Y-99159522D01*
X168025367Y-99060000D01*
X168265634Y-98960478D01*
X168382372Y-98882476D01*
X169267129Y-98882476D01*
X169327961Y-99060000D01*
X169267129Y-99237524D01*
X170180000Y-100150395D01*
X171092871Y-99237524D01*
X171032039Y-99060000D01*
X171092871Y-98882476D01*
X170180000Y-97969605D01*
X169267129Y-98882476D01*
X168382372Y-98882476D01*
X168481961Y-98815933D01*
X168665933Y-98631961D01*
X168761904Y-98488330D01*
X168829277Y-98614377D01*
X169087524Y-98702871D01*
X170000395Y-97790000D01*
X170359605Y-97790000D01*
X171272476Y-98702871D01*
X171530723Y-98614377D01*
X171665597Y-98335024D01*
X171743381Y-98034725D01*
X171761084Y-97725023D01*
X171758199Y-97704436D01*
X192629000Y-97704436D01*
X192629000Y-98035564D01*
X192693600Y-98360330D01*
X192820317Y-98666252D01*
X193004282Y-98941575D01*
X193238425Y-99175718D01*
X193513748Y-99359683D01*
X193819670Y-99486400D01*
X194144436Y-99551000D01*
X194475564Y-99551000D01*
X194800330Y-99486400D01*
X195106252Y-99359683D01*
X195381575Y-99175718D01*
X195615718Y-98941575D01*
X195799683Y-98666252D01*
X195926400Y-98360330D01*
X195991000Y-98035564D01*
X195991000Y-97704436D01*
X195926400Y-97379670D01*
X195799683Y-97073748D01*
X195615718Y-96798425D01*
X195381575Y-96564282D01*
X195106252Y-96380317D01*
X194800330Y-96253600D01*
X194475564Y-96189000D01*
X194144436Y-96189000D01*
X193819670Y-96253600D01*
X193513748Y-96380317D01*
X193238425Y-96564282D01*
X193004282Y-96798425D01*
X192820317Y-97073748D01*
X192693600Y-97379670D01*
X192629000Y-97704436D01*
X171758199Y-97704436D01*
X171718027Y-97417816D01*
X171615865Y-97124914D01*
X171530723Y-96965623D01*
X171272476Y-96877129D01*
X170359605Y-97790000D01*
X170000395Y-97790000D01*
X169087524Y-96877129D01*
X168829277Y-96965623D01*
X168765687Y-97097332D01*
X168665933Y-96948039D01*
X168481961Y-96764067D01*
X168265634Y-96619522D01*
X168025367Y-96520000D01*
X168265634Y-96420478D01*
X168382372Y-96342476D01*
X169267129Y-96342476D01*
X169327961Y-96520000D01*
X169267129Y-96697524D01*
X170180000Y-97610395D01*
X171092871Y-96697524D01*
X171032039Y-96520000D01*
X171092871Y-96342476D01*
X170180000Y-95429605D01*
X169267129Y-96342476D01*
X168382372Y-96342476D01*
X168481961Y-96275933D01*
X168665933Y-96091961D01*
X168761904Y-95948330D01*
X168829277Y-96074377D01*
X169087524Y-96162871D01*
X170000395Y-95250000D01*
X170359605Y-95250000D01*
X171272476Y-96162871D01*
X171530723Y-96074377D01*
X171665597Y-95795024D01*
X171743381Y-95494725D01*
X171761084Y-95185023D01*
X171718027Y-94877816D01*
X171615865Y-94584914D01*
X171530723Y-94425623D01*
X171272476Y-94337129D01*
X170359605Y-95250000D01*
X170000395Y-95250000D01*
X169087524Y-94337129D01*
X168829277Y-94425623D01*
X168765687Y-94557332D01*
X168665933Y-94408039D01*
X168481961Y-94224067D01*
X168265634Y-94079522D01*
X168025367Y-93980000D01*
X168265634Y-93880478D01*
X168481961Y-93735933D01*
X168665933Y-93551961D01*
X168810478Y-93335634D01*
X168910000Y-93095367D01*
X169009522Y-93335634D01*
X169154067Y-93551961D01*
X169338039Y-93735933D01*
X169481670Y-93831904D01*
X169355623Y-93899277D01*
X169267129Y-94157524D01*
X170180000Y-95070395D01*
X171092871Y-94157524D01*
X171042319Y-94010000D01*
X192371928Y-94010000D01*
X192384188Y-94134482D01*
X192420498Y-94254180D01*
X192479463Y-94364494D01*
X192558815Y-94461185D01*
X192655506Y-94540537D01*
X192765820Y-94599502D01*
X192885518Y-94635812D01*
X193010000Y-94648072D01*
X194024250Y-94645000D01*
X194183000Y-94486250D01*
X194183000Y-92837000D01*
X194437000Y-92837000D01*
X194437000Y-94486250D01*
X194595750Y-94645000D01*
X195610000Y-94648072D01*
X195734482Y-94635812D01*
X195854180Y-94599502D01*
X195964494Y-94540537D01*
X196061185Y-94461185D01*
X196140537Y-94364494D01*
X196199502Y-94254180D01*
X196235812Y-94134482D01*
X196248072Y-94010000D01*
X196245000Y-92995750D01*
X196086250Y-92837000D01*
X194437000Y-92837000D01*
X194183000Y-92837000D01*
X192533750Y-92837000D01*
X192375000Y-92995750D01*
X192371928Y-94010000D01*
X171042319Y-94010000D01*
X171004377Y-93899277D01*
X170872668Y-93835687D01*
X171021961Y-93735933D01*
X171205933Y-93551961D01*
X171350478Y-93335634D01*
X171450043Y-93095263D01*
X171500800Y-92840087D01*
X171500800Y-92579913D01*
X171450043Y-92324737D01*
X171350478Y-92084366D01*
X171205933Y-91868039D01*
X171021961Y-91684067D01*
X170805634Y-91539522D01*
X170565367Y-91440000D01*
X170637793Y-91410000D01*
X192371928Y-91410000D01*
X192375000Y-92424250D01*
X192533750Y-92583000D01*
X194183000Y-92583000D01*
X194183000Y-90933750D01*
X194437000Y-90933750D01*
X194437000Y-92583000D01*
X196086250Y-92583000D01*
X196245000Y-92424250D01*
X196248072Y-91410000D01*
X196235812Y-91285518D01*
X196199502Y-91165820D01*
X196140537Y-91055506D01*
X196061185Y-90958815D01*
X195964494Y-90879463D01*
X195854180Y-90820498D01*
X195734482Y-90784188D01*
X195610000Y-90771928D01*
X194595750Y-90775000D01*
X194437000Y-90933750D01*
X194183000Y-90933750D01*
X194024250Y-90775000D01*
X193010000Y-90771928D01*
X192885518Y-90784188D01*
X192765820Y-90820498D01*
X192655506Y-90879463D01*
X192558815Y-90958815D01*
X192479463Y-91055506D01*
X192420498Y-91165820D01*
X192384188Y-91285518D01*
X192371928Y-91410000D01*
X170637793Y-91410000D01*
X170805634Y-91340478D01*
X171021961Y-91195933D01*
X171205933Y-91011961D01*
X171350478Y-90795634D01*
X171450043Y-90555263D01*
X171500800Y-90300087D01*
X171500800Y-90039913D01*
X171450043Y-89784737D01*
X171350478Y-89544366D01*
X171205933Y-89328039D01*
X171021961Y-89144067D01*
X170805634Y-88999522D01*
X170565367Y-88900000D01*
X170805634Y-88800478D01*
X171021961Y-88655933D01*
X171205933Y-88471961D01*
X171350478Y-88255634D01*
X171450043Y-88015263D01*
X171500800Y-87760087D01*
X171500800Y-87544436D01*
X192629000Y-87544436D01*
X192629000Y-87875564D01*
X192693600Y-88200330D01*
X192820317Y-88506252D01*
X193004282Y-88781575D01*
X193238425Y-89015718D01*
X193513748Y-89199683D01*
X193819670Y-89326400D01*
X194144436Y-89391000D01*
X194475564Y-89391000D01*
X194800330Y-89326400D01*
X195106252Y-89199683D01*
X195381575Y-89015718D01*
X195615718Y-88781575D01*
X195799683Y-88506252D01*
X195926400Y-88200330D01*
X195991000Y-87875564D01*
X195991000Y-87544436D01*
X195926400Y-87219670D01*
X195799683Y-86913748D01*
X195615718Y-86638425D01*
X195381575Y-86404282D01*
X195106252Y-86220317D01*
X194800330Y-86093600D01*
X194475564Y-86029000D01*
X194144436Y-86029000D01*
X193819670Y-86093600D01*
X193513748Y-86220317D01*
X193238425Y-86404282D01*
X193004282Y-86638425D01*
X192820317Y-86913748D01*
X192693600Y-87219670D01*
X192629000Y-87544436D01*
X171500800Y-87544436D01*
X171500800Y-87499913D01*
X171450043Y-87244737D01*
X171350478Y-87004366D01*
X171205933Y-86788039D01*
X171021961Y-86604067D01*
X170805634Y-86459522D01*
X170565367Y-86360000D01*
X170805634Y-86260478D01*
X171021961Y-86115933D01*
X171205933Y-85931961D01*
X171350478Y-85715634D01*
X171450043Y-85475263D01*
X171500800Y-85220087D01*
X171500800Y-84959913D01*
X171450043Y-84704737D01*
X171350478Y-84464366D01*
X171205933Y-84248039D01*
X171021961Y-84064067D01*
X170805634Y-83919522D01*
X170565367Y-83820000D01*
X170805634Y-83720478D01*
X171021961Y-83575933D01*
X171205933Y-83391961D01*
X171350478Y-83175634D01*
X171450043Y-82935263D01*
X171500800Y-82680087D01*
X171500800Y-82419913D01*
X171450043Y-82164737D01*
X171350478Y-81924366D01*
X171205933Y-81708039D01*
X171021961Y-81524067D01*
X170805634Y-81379522D01*
X170565367Y-81280000D01*
X170805634Y-81180478D01*
X171021961Y-81035933D01*
X171205933Y-80851961D01*
X171350478Y-80635634D01*
X171450043Y-80395263D01*
X171500800Y-80140087D01*
X171500800Y-79879913D01*
X171450043Y-79624737D01*
X171350478Y-79384366D01*
X171205933Y-79168039D01*
X171021961Y-78984067D01*
X170805634Y-78839522D01*
X170565367Y-78740000D01*
X170805634Y-78640478D01*
X171021961Y-78495933D01*
X171205933Y-78311961D01*
X171350478Y-78095634D01*
X171450043Y-77855263D01*
X171500800Y-77600087D01*
X171500800Y-77339913D01*
X176479200Y-77339913D01*
X176479200Y-77600087D01*
X176529957Y-77855263D01*
X176629522Y-78095634D01*
X176774067Y-78311961D01*
X176958039Y-78495933D01*
X177174366Y-78640478D01*
X177414737Y-78740043D01*
X177669913Y-78790800D01*
X177930087Y-78790800D01*
X178185263Y-78740043D01*
X178425634Y-78640478D01*
X178641961Y-78495933D01*
X178762289Y-78375605D01*
X178762128Y-78409800D01*
X178774388Y-78534282D01*
X178810698Y-78653980D01*
X178869663Y-78764294D01*
X178949015Y-78860985D01*
X179045706Y-78940337D01*
X179156020Y-78999302D01*
X179275718Y-79035612D01*
X179400200Y-79047872D01*
X180054250Y-79044800D01*
X180213000Y-78886050D01*
X180213000Y-77597000D01*
X180193000Y-77597000D01*
X180193000Y-77343000D01*
X180213000Y-77343000D01*
X180213000Y-76053950D01*
X180467000Y-76053950D01*
X180467000Y-77343000D01*
X180487000Y-77343000D01*
X180487000Y-77597000D01*
X180467000Y-77597000D01*
X180467000Y-78886050D01*
X180625750Y-79044800D01*
X181279800Y-79047872D01*
X181404282Y-79035612D01*
X181523980Y-78999302D01*
X181634294Y-78940337D01*
X181730985Y-78860985D01*
X181810337Y-78764294D01*
X181869302Y-78653980D01*
X181905612Y-78534282D01*
X181917872Y-78409800D01*
X181917711Y-78375605D01*
X182038039Y-78495933D01*
X182254366Y-78640478D01*
X182494737Y-78740043D01*
X182749913Y-78790800D01*
X183010087Y-78790800D01*
X183265263Y-78740043D01*
X183505634Y-78640478D01*
X183721961Y-78495933D01*
X183905933Y-78311961D01*
X184050478Y-78095634D01*
X184150000Y-77855367D01*
X184249522Y-78095634D01*
X184394067Y-78311961D01*
X184578039Y-78495933D01*
X184794366Y-78640478D01*
X185034737Y-78740043D01*
X185289913Y-78790800D01*
X185550087Y-78790800D01*
X185805263Y-78740043D01*
X186045634Y-78640478D01*
X186261961Y-78495933D01*
X186445933Y-78311961D01*
X186590478Y-78095634D01*
X186690043Y-77855263D01*
X186740800Y-77600087D01*
X186740800Y-77339913D01*
X186690043Y-77084737D01*
X186590478Y-76844366D01*
X186445933Y-76628039D01*
X186261961Y-76444067D01*
X186045634Y-76299522D01*
X185805263Y-76199957D01*
X185550087Y-76149200D01*
X185289913Y-76149200D01*
X185034737Y-76199957D01*
X184794366Y-76299522D01*
X184578039Y-76444067D01*
X184394067Y-76628039D01*
X184249522Y-76844366D01*
X184150000Y-77084633D01*
X184050478Y-76844366D01*
X183905933Y-76628039D01*
X183721961Y-76444067D01*
X183505634Y-76299522D01*
X183265263Y-76199957D01*
X183010087Y-76149200D01*
X182749913Y-76149200D01*
X182494737Y-76199957D01*
X182254366Y-76299522D01*
X182038039Y-76444067D01*
X181917711Y-76564395D01*
X181917872Y-76530200D01*
X181905612Y-76405718D01*
X181869302Y-76286020D01*
X181810337Y-76175706D01*
X181730985Y-76079015D01*
X181634294Y-75999663D01*
X181523980Y-75940698D01*
X181404282Y-75904388D01*
X181279800Y-75892128D01*
X180625750Y-75895200D01*
X180467000Y-76053950D01*
X180213000Y-76053950D01*
X180054250Y-75895200D01*
X179400200Y-75892128D01*
X179275718Y-75904388D01*
X179156020Y-75940698D01*
X179045706Y-75999663D01*
X178949015Y-76079015D01*
X178869663Y-76175706D01*
X178810698Y-76286020D01*
X178774388Y-76405718D01*
X178762128Y-76530200D01*
X178762289Y-76564395D01*
X178641961Y-76444067D01*
X178425634Y-76299522D01*
X178185263Y-76199957D01*
X177930087Y-76149200D01*
X177669913Y-76149200D01*
X177414737Y-76199957D01*
X177174366Y-76299522D01*
X176958039Y-76444067D01*
X176774067Y-76628039D01*
X176629522Y-76844366D01*
X176529957Y-77084737D01*
X176479200Y-77339913D01*
X171500800Y-77339913D01*
X171450043Y-77084737D01*
X171350478Y-76844366D01*
X171205933Y-76628039D01*
X171021961Y-76444067D01*
X170805634Y-76299522D01*
X170565367Y-76200000D01*
X170805634Y-76100478D01*
X171021961Y-75955933D01*
X171205933Y-75771961D01*
X171350478Y-75555634D01*
X171450043Y-75315263D01*
X171500800Y-75060087D01*
X171500800Y-74799913D01*
X171450043Y-74544737D01*
X171350478Y-74304366D01*
X171205933Y-74088039D01*
X171021961Y-73904067D01*
X170805634Y-73759522D01*
X170565367Y-73660000D01*
X170805634Y-73560478D01*
X171021961Y-73415933D01*
X171205933Y-73231961D01*
X171350478Y-73015634D01*
X171450043Y-72775263D01*
X171500800Y-72520087D01*
X171500800Y-72259913D01*
X171450043Y-72004737D01*
X171350478Y-71764366D01*
X171205933Y-71548039D01*
X171021961Y-71364067D01*
X170805634Y-71219522D01*
X170565263Y-71119957D01*
X170310087Y-71069200D01*
X170049913Y-71069200D01*
X169794737Y-71119957D01*
X169554366Y-71219522D01*
X169338039Y-71364067D01*
X169154067Y-71548039D01*
X169009522Y-71764366D01*
X168909957Y-72004737D01*
X168859200Y-72259913D01*
X168859200Y-72520087D01*
X168909957Y-72775263D01*
X169009522Y-73015634D01*
X169154067Y-73231961D01*
X169338039Y-73415933D01*
X169554366Y-73560478D01*
X169794633Y-73660000D01*
X169554366Y-73759522D01*
X169338039Y-73904067D01*
X169154067Y-74088039D01*
X169009522Y-74304366D01*
X168909957Y-74544737D01*
X168859200Y-74799913D01*
X168859200Y-75060087D01*
X168909957Y-75315263D01*
X169009522Y-75555634D01*
X169154067Y-75771961D01*
X169338039Y-75955933D01*
X169554366Y-76100478D01*
X169794633Y-76200000D01*
X169554366Y-76299522D01*
X169338039Y-76444067D01*
X169154067Y-76628039D01*
X169009522Y-76844366D01*
X168909957Y-77084737D01*
X168859200Y-77339913D01*
X168859200Y-77600087D01*
X168909957Y-77855263D01*
X169009522Y-78095634D01*
X169154067Y-78311961D01*
X169338039Y-78495933D01*
X169554366Y-78640478D01*
X169794633Y-78740000D01*
X169554366Y-78839522D01*
X169338039Y-78984067D01*
X169154067Y-79168039D01*
X169009522Y-79384366D01*
X168909957Y-79624737D01*
X168859200Y-79879913D01*
X168859200Y-80140087D01*
X168909957Y-80395263D01*
X169009522Y-80635634D01*
X169154067Y-80851961D01*
X169338039Y-81035933D01*
X169554366Y-81180478D01*
X169794633Y-81280000D01*
X169554366Y-81379522D01*
X169338039Y-81524067D01*
X169154067Y-81708039D01*
X169009522Y-81924366D01*
X168909957Y-82164737D01*
X168859200Y-82419913D01*
X168859200Y-82680087D01*
X168909957Y-82935263D01*
X169009522Y-83175634D01*
X169154067Y-83391961D01*
X169338039Y-83575933D01*
X169554366Y-83720478D01*
X169794633Y-83820000D01*
X169554366Y-83919522D01*
X169338039Y-84064067D01*
X169154067Y-84248039D01*
X169009522Y-84464366D01*
X168909957Y-84704737D01*
X168859200Y-84959913D01*
X168859200Y-85220087D01*
X168909957Y-85475263D01*
X169009522Y-85715634D01*
X169154067Y-85931961D01*
X169338039Y-86115933D01*
X169554366Y-86260478D01*
X169794633Y-86360000D01*
X169554366Y-86459522D01*
X169338039Y-86604067D01*
X169154067Y-86788039D01*
X169009522Y-87004366D01*
X168910000Y-87244633D01*
X168810478Y-87004366D01*
X168665933Y-86788039D01*
X168481961Y-86604067D01*
X168265634Y-86459522D01*
X168025263Y-86359957D01*
X167770087Y-86309200D01*
X167509913Y-86309200D01*
X167254737Y-86359957D01*
X167014366Y-86459522D01*
X166798039Y-86604067D01*
X166614067Y-86788039D01*
X166469522Y-87004366D01*
X166369957Y-87244737D01*
X166319200Y-87499913D01*
X125780800Y-87499913D01*
X125730043Y-87244737D01*
X125630478Y-87004366D01*
X125485933Y-86788039D01*
X125301961Y-86604067D01*
X125085634Y-86459522D01*
X124845367Y-86360000D01*
X125085634Y-86260478D01*
X125301961Y-86115933D01*
X125485933Y-85931961D01*
X125630478Y-85715634D01*
X125730043Y-85475263D01*
X125780800Y-85220087D01*
X125780800Y-84959913D01*
X125730043Y-84704737D01*
X125630478Y-84464366D01*
X125485933Y-84248039D01*
X125301961Y-84064067D01*
X125085634Y-83919522D01*
X124845367Y-83820000D01*
X125085634Y-83720478D01*
X125301961Y-83575933D01*
X125485933Y-83391961D01*
X125630478Y-83175634D01*
X125730043Y-82935263D01*
X125780800Y-82680087D01*
X125780800Y-82419913D01*
X125730043Y-82164737D01*
X125630478Y-81924366D01*
X125485933Y-81708039D01*
X125301961Y-81524067D01*
X125158330Y-81428096D01*
X125284377Y-81360723D01*
X125372871Y-81102476D01*
X124460000Y-80189605D01*
X123547129Y-81102476D01*
X123635623Y-81360723D01*
X123767332Y-81424313D01*
X123618039Y-81524067D01*
X123434067Y-81708039D01*
X123289522Y-81924366D01*
X123189957Y-82164737D01*
X123139200Y-82419913D01*
X85140800Y-82419913D01*
X85090043Y-82164737D01*
X84990478Y-81924366D01*
X84845933Y-81708039D01*
X84661961Y-81524067D01*
X84518330Y-81428096D01*
X84644377Y-81360723D01*
X84732871Y-81102476D01*
X83820000Y-80189605D01*
X82907129Y-81102476D01*
X82995623Y-81360723D01*
X83127332Y-81424313D01*
X82978039Y-81524067D01*
X82794067Y-81708039D01*
X82649522Y-81924366D01*
X82549957Y-82164737D01*
X82499200Y-82419913D01*
X68986000Y-82419913D01*
X68986000Y-80074977D01*
X82238916Y-80074977D01*
X82281973Y-80382184D01*
X82384135Y-80675086D01*
X82469277Y-80834377D01*
X82727524Y-80922871D01*
X83640395Y-80010000D01*
X83999605Y-80010000D01*
X84912476Y-80922871D01*
X85170723Y-80834377D01*
X85305597Y-80555024D01*
X85383381Y-80254725D01*
X85393655Y-80074977D01*
X122878916Y-80074977D01*
X122921973Y-80382184D01*
X123024135Y-80675086D01*
X123109277Y-80834377D01*
X123367524Y-80922871D01*
X124280395Y-80010000D01*
X124639605Y-80010000D01*
X125552476Y-80922871D01*
X125810723Y-80834377D01*
X125945597Y-80555024D01*
X126023381Y-80254725D01*
X126041084Y-79945023D01*
X125998027Y-79637816D01*
X125895865Y-79344914D01*
X125810723Y-79185623D01*
X125552476Y-79097129D01*
X124639605Y-80010000D01*
X124280395Y-80010000D01*
X123367524Y-79097129D01*
X123109277Y-79185623D01*
X122974403Y-79464976D01*
X122896619Y-79765275D01*
X122878916Y-80074977D01*
X85393655Y-80074977D01*
X85401084Y-79945023D01*
X85358027Y-79637816D01*
X85255865Y-79344914D01*
X85170723Y-79185623D01*
X84912476Y-79097129D01*
X83999605Y-80010000D01*
X83640395Y-80010000D01*
X82727524Y-79097129D01*
X82469277Y-79185623D01*
X82334403Y-79464976D01*
X82256619Y-79765275D01*
X82238916Y-80074977D01*
X68986000Y-80074977D01*
X68986000Y-78917524D01*
X82907129Y-78917524D01*
X83820000Y-79830395D01*
X84732871Y-78917524D01*
X123547129Y-78917524D01*
X124460000Y-79830395D01*
X125372871Y-78917524D01*
X125284377Y-78659277D01*
X125005024Y-78524403D01*
X124704725Y-78446619D01*
X124395023Y-78428916D01*
X124087816Y-78471973D01*
X123794914Y-78574135D01*
X123635623Y-78659277D01*
X123547129Y-78917524D01*
X84732871Y-78917524D01*
X84644377Y-78659277D01*
X84365024Y-78524403D01*
X84064725Y-78446619D01*
X83755023Y-78428916D01*
X83447816Y-78471973D01*
X83154914Y-78574135D01*
X82995623Y-78659277D01*
X82907129Y-78917524D01*
X68986000Y-78917524D01*
X68986000Y-76704913D01*
X149809200Y-76704913D01*
X149809200Y-76965087D01*
X149859957Y-77220263D01*
X149959522Y-77460634D01*
X150104067Y-77676961D01*
X150288039Y-77860933D01*
X150504366Y-78005478D01*
X150744737Y-78105043D01*
X150999913Y-78155800D01*
X151260087Y-78155800D01*
X151515263Y-78105043D01*
X151755634Y-78005478D01*
X151971961Y-77860933D01*
X152155933Y-77676961D01*
X152300478Y-77460634D01*
X152400000Y-77220367D01*
X152499522Y-77460634D01*
X152644067Y-77676961D01*
X152828039Y-77860933D01*
X153044366Y-78005478D01*
X153284737Y-78105043D01*
X153539913Y-78155800D01*
X153800087Y-78155800D01*
X154055263Y-78105043D01*
X154295634Y-78005478D01*
X154511961Y-77860933D01*
X154695933Y-77676961D01*
X154840478Y-77460634D01*
X154940043Y-77220263D01*
X154990800Y-76965087D01*
X154990800Y-76704913D01*
X154940043Y-76449737D01*
X154840478Y-76209366D01*
X154695933Y-75993039D01*
X154511961Y-75809067D01*
X154295634Y-75664522D01*
X154055263Y-75564957D01*
X153800087Y-75514200D01*
X153539913Y-75514200D01*
X153284737Y-75564957D01*
X153044366Y-75664522D01*
X152828039Y-75809067D01*
X152644067Y-75993039D01*
X152499522Y-76209366D01*
X152400000Y-76449633D01*
X152300478Y-76209366D01*
X152155933Y-75993039D01*
X151971961Y-75809067D01*
X151755634Y-75664522D01*
X151515263Y-75564957D01*
X151260087Y-75514200D01*
X150999913Y-75514200D01*
X150744737Y-75564957D01*
X150504366Y-75664522D01*
X150288039Y-75809067D01*
X150104067Y-75993039D01*
X149959522Y-76209366D01*
X149859957Y-76449737D01*
X149809200Y-76704913D01*
X68986000Y-76704913D01*
X68986000Y-68402476D01*
X103227129Y-68402476D01*
X103315623Y-68660723D01*
X103594976Y-68795597D01*
X103895275Y-68873381D01*
X104204977Y-68891084D01*
X104512184Y-68848027D01*
X104805086Y-68745865D01*
X104964377Y-68660723D01*
X105052871Y-68402476D01*
X104140000Y-67489605D01*
X103227129Y-68402476D01*
X68986000Y-68402476D01*
X68986000Y-67374977D01*
X102558916Y-67374977D01*
X102601973Y-67682184D01*
X102704135Y-67975086D01*
X102789277Y-68134377D01*
X103047524Y-68222871D01*
X103960395Y-67310000D01*
X104319605Y-67310000D01*
X105232476Y-68222871D01*
X105490723Y-68134377D01*
X105554313Y-68002668D01*
X105654067Y-68151961D01*
X105838039Y-68335933D01*
X106054366Y-68480478D01*
X106294737Y-68580043D01*
X106549913Y-68630800D01*
X106810087Y-68630800D01*
X107065263Y-68580043D01*
X107305634Y-68480478D01*
X107521961Y-68335933D01*
X107705933Y-68151961D01*
X107850478Y-67935634D01*
X107950000Y-67695367D01*
X108049522Y-67935634D01*
X108194067Y-68151961D01*
X108378039Y-68335933D01*
X108594366Y-68480478D01*
X108834737Y-68580043D01*
X109089913Y-68630800D01*
X109350087Y-68630800D01*
X109605263Y-68580043D01*
X109845634Y-68480478D01*
X110061961Y-68335933D01*
X110245933Y-68151961D01*
X110390478Y-67935634D01*
X110490000Y-67695367D01*
X110589522Y-67935634D01*
X110734067Y-68151961D01*
X110918039Y-68335933D01*
X111134366Y-68480478D01*
X111374737Y-68580043D01*
X111629913Y-68630800D01*
X111890087Y-68630800D01*
X112145263Y-68580043D01*
X112385634Y-68480478D01*
X112601961Y-68335933D01*
X112785933Y-68151961D01*
X112930478Y-67935634D01*
X113030000Y-67695367D01*
X113129522Y-67935634D01*
X113274067Y-68151961D01*
X113458039Y-68335933D01*
X113674366Y-68480478D01*
X113914737Y-68580043D01*
X114169913Y-68630800D01*
X114430087Y-68630800D01*
X114685263Y-68580043D01*
X114925634Y-68480478D01*
X115141961Y-68335933D01*
X115325933Y-68151961D01*
X115470478Y-67935634D01*
X115570000Y-67695367D01*
X115669522Y-67935634D01*
X115814067Y-68151961D01*
X115998039Y-68335933D01*
X116214366Y-68480478D01*
X116454737Y-68580043D01*
X116709913Y-68630800D01*
X116970087Y-68630800D01*
X117225263Y-68580043D01*
X117465634Y-68480478D01*
X117681961Y-68335933D01*
X117865933Y-68151961D01*
X118010478Y-67935634D01*
X118110043Y-67695263D01*
X118160800Y-67440087D01*
X118160800Y-67179913D01*
X118110043Y-66924737D01*
X118010478Y-66684366D01*
X117865933Y-66468039D01*
X117681961Y-66284067D01*
X117465634Y-66139522D01*
X117225263Y-66039957D01*
X116970087Y-65989200D01*
X116709913Y-65989200D01*
X116454737Y-66039957D01*
X116214366Y-66139522D01*
X115998039Y-66284067D01*
X115814067Y-66468039D01*
X115669522Y-66684366D01*
X115570000Y-66924633D01*
X115470478Y-66684366D01*
X115325933Y-66468039D01*
X115141961Y-66284067D01*
X114925634Y-66139522D01*
X114685263Y-66039957D01*
X114430087Y-65989200D01*
X114169913Y-65989200D01*
X113914737Y-66039957D01*
X113674366Y-66139522D01*
X113458039Y-66284067D01*
X113274067Y-66468039D01*
X113129522Y-66684366D01*
X113030000Y-66924633D01*
X112930478Y-66684366D01*
X112785933Y-66468039D01*
X112601961Y-66284067D01*
X112385634Y-66139522D01*
X112145263Y-66039957D01*
X111890087Y-65989200D01*
X111629913Y-65989200D01*
X111374737Y-66039957D01*
X111134366Y-66139522D01*
X110918039Y-66284067D01*
X110734067Y-66468039D01*
X110589522Y-66684366D01*
X110490000Y-66924633D01*
X110390478Y-66684366D01*
X110245933Y-66468039D01*
X110061961Y-66284067D01*
X109845634Y-66139522D01*
X109605263Y-66039957D01*
X109350087Y-65989200D01*
X109089913Y-65989200D01*
X108834737Y-66039957D01*
X108594366Y-66139522D01*
X108378039Y-66284067D01*
X108194067Y-66468039D01*
X108049522Y-66684366D01*
X107950000Y-66924633D01*
X107850478Y-66684366D01*
X107705933Y-66468039D01*
X107521961Y-66284067D01*
X107305634Y-66139522D01*
X107065263Y-66039957D01*
X106810087Y-65989200D01*
X106549913Y-65989200D01*
X106294737Y-66039957D01*
X106054366Y-66139522D01*
X105838039Y-66284067D01*
X105654067Y-66468039D01*
X105558096Y-66611670D01*
X105490723Y-66485623D01*
X105232476Y-66397129D01*
X104319605Y-67310000D01*
X103960395Y-67310000D01*
X103047524Y-66397129D01*
X102789277Y-66485623D01*
X102654403Y-66764976D01*
X102576619Y-67065275D01*
X102558916Y-67374977D01*
X68986000Y-67374977D01*
X68986000Y-66217524D01*
X103227129Y-66217524D01*
X104140000Y-67130395D01*
X105052871Y-66217524D01*
X104964377Y-65959277D01*
X104685024Y-65824403D01*
X104384725Y-65746619D01*
X104075023Y-65728916D01*
X103767816Y-65771973D01*
X103474914Y-65874135D01*
X103315623Y-65959277D01*
X103227129Y-66217524D01*
X68986000Y-66217524D01*
X68986000Y-61366000D01*
X198984001Y-61366000D01*
X198984000Y-130404000D01*
G37*
G04 #@! TD.AperFunction*
M02*
