M48
; DRILL file {KiCad (5.1.9-0-10_14)} date Tuesday, April 13, 2021 at 04:59:37 PM
; FORMAT={-:-/ absolute / metric / decimal}
; #@! TF.CreationDate,2021-04-13T16:59:37-04:00
; #@! TF.GenerationSoftware,Kicad,Pcbnew,(5.1.9-0-10_14)
; #@! TF.FileFunction,Plated,1,2,PTH
FMAT,2
METRIC
T1C0.500
T2C0.800
T3C1.016
T4C1.300
T5C3.700
%
G90
G05
T1
X70.402Y-66.878
X70.402Y-124.892
X71.215Y-64.916
X71.215Y-68.84
X71.215Y-122.93
X71.215Y-126.854
X73.177Y-64.103
X73.177Y-69.653
X73.177Y-122.117
X73.177Y-127.667
X75.14Y-64.916
X75.14Y-68.84
X75.14Y-122.93
X75.14Y-126.854
X75.952Y-66.878
X75.952Y-124.892
X191.865Y-66.878
X191.865Y-124.892
X192.678Y-64.916
X192.678Y-68.84
X192.678Y-122.93
X192.678Y-126.854
X194.64Y-64.103
X194.64Y-69.653
X194.64Y-122.117
X194.64Y-127.667
X196.602Y-64.916
X196.602Y-68.84
X196.602Y-122.93
X196.602Y-126.854
X197.415Y-66.878
X197.415Y-124.892
T2
X176.53Y-102.87
X176.53Y-113.03
X180.34Y-102.87
X180.34Y-113.03
X184.15Y-106.72
X184.15Y-109.22
T3
X83.82Y-80.01
X83.82Y-82.55
X83.82Y-85.09
X83.82Y-87.63
X83.82Y-90.17
X83.82Y-92.71
X83.82Y-95.25
X83.82Y-97.79
X83.82Y-100.33
X83.82Y-102.87
X104.14Y-67.31
X106.68Y-67.31
X109.22Y-67.31
X111.76Y-67.31
X114.3Y-67.31
X116.84Y-67.31
X124.46Y-80.01
X124.46Y-82.55
X124.46Y-85.09
X124.46Y-87.63
X124.46Y-90.17
X124.46Y-92.71
X124.46Y-95.25
X124.46Y-97.79
X124.46Y-100.33
X132.08Y-100.33
X132.08Y-102.87
X132.08Y-105.41
X132.08Y-107.95
X132.08Y-110.49
X132.08Y-113.03
X132.08Y-115.57
X132.08Y-118.11
X132.08Y-120.65
X151.13Y-76.835
X153.67Y-76.835
X167.64Y-87.63
X167.64Y-90.17
X167.64Y-92.71
X167.64Y-95.25
X167.64Y-97.79
X167.64Y-100.33
X170.18Y-72.39
X170.18Y-74.93
X170.18Y-77.47
X170.18Y-80.01
X170.18Y-82.55
X170.18Y-85.09
X170.18Y-87.63
X170.18Y-90.17
X170.18Y-92.71
X170.18Y-95.25
X170.18Y-97.79
X170.18Y-100.33
X177.8Y-77.47
X180.34Y-77.47
X182.88Y-77.47
X185.42Y-77.47
T4
X194.31Y-87.71
X194.31Y-92.71
X194.31Y-97.87
X194.31Y-102.87
T5
X73.177Y-66.878
X73.177Y-124.892
X194.64Y-66.878
X194.64Y-124.892
T0
M30
