G04 #@! TF.GenerationSoftware,KiCad,Pcbnew,(6.0.5-0)*
G04 #@! TF.CreationDate,2022-08-12T12:05:35-04:00*
G04 #@! TF.ProjectId,Cryologger GVT,4372796f-6c6f-4676-9765-72204756542e,rev?*
G04 #@! TF.SameCoordinates,Original*
G04 #@! TF.FileFunction,Copper,L2,Bot*
G04 #@! TF.FilePolarity,Positive*
%FSLAX46Y46*%
G04 Gerber Fmt 4.6, Leading zero omitted, Abs format (unit mm)*
G04 Created by KiCad (PCBNEW (6.0.5-0)) date 2022-08-12 12:05:35*
%MOMM*%
%LPD*%
G01*
G04 APERTURE LIST*
G04 #@! TA.AperFunction,ComponentPad*
%ADD10C,1.524000*%
G04 #@! TD*
G04 #@! TA.AperFunction,ComponentPad*
%ADD11R,2.600000X2.600000*%
G04 #@! TD*
G04 #@! TA.AperFunction,ComponentPad*
%ADD12C,2.600000*%
G04 #@! TD*
G04 #@! TA.AperFunction,ComponentPad*
%ADD13C,1.879600*%
G04 #@! TD*
G04 #@! TA.AperFunction,ComponentPad*
%ADD14C,1.600000*%
G04 #@! TD*
G04 #@! TA.AperFunction,ComponentPad*
%ADD15O,1.600000X1.600000*%
G04 #@! TD*
G04 #@! TA.AperFunction,ComponentPad*
%ADD16C,6.400000*%
G04 #@! TD*
G04 #@! TA.AperFunction,ViaPad*
%ADD17C,0.800000*%
G04 #@! TD*
G04 #@! TA.AperFunction,Conductor*
%ADD18C,0.406400*%
G04 #@! TD*
G04 APERTURE END LIST*
D10*
X195580000Y-81915000D03*
X198120000Y-81915000D03*
X200660000Y-81915000D03*
X203200000Y-81915000D03*
D11*
X200965000Y-113035000D03*
D12*
X200965000Y-107955000D03*
D13*
X110490000Y-95250000D03*
X107950000Y-95250000D03*
X107950000Y-97790000D03*
X110490000Y-97790000D03*
X107950000Y-100330000D03*
X110490000Y-100330000D03*
X107950000Y-102870000D03*
X110490000Y-102870000D03*
X107950000Y-105410000D03*
X110490000Y-105410000D03*
X107950000Y-107950000D03*
X110490000Y-107950000D03*
X110490000Y-110490000D03*
X107950000Y-110490000D03*
X110490000Y-113030000D03*
X107950000Y-113030000D03*
X107950000Y-115570000D03*
X110490000Y-115570000D03*
X107950000Y-118110000D03*
X110490000Y-118110000D03*
X128270000Y-85090000D03*
X128270000Y-82550000D03*
X130810000Y-85090000D03*
X130810000Y-82550000D03*
X133350000Y-85090000D03*
X133350000Y-82550000D03*
X135890000Y-85090000D03*
X135890000Y-82550000D03*
X138430000Y-85090000D03*
X138430000Y-82550000D03*
X140970000Y-85090000D03*
X140970000Y-82550000D03*
X148590000Y-95250000D03*
X146050000Y-95250000D03*
X148590000Y-97790000D03*
X146050000Y-97790000D03*
X148590000Y-100330000D03*
X146050000Y-100330000D03*
X146050000Y-102870000D03*
X148590000Y-102870000D03*
X148590000Y-105410000D03*
X146050000Y-105410000D03*
X148590000Y-107950000D03*
X146050000Y-107950000D03*
X148590000Y-110490000D03*
X146050000Y-110490000D03*
X146050000Y-113030000D03*
X148590000Y-113030000D03*
X148590000Y-115570000D03*
X146050000Y-115570000D03*
X153670000Y-97790000D03*
X156210000Y-97790000D03*
X156210000Y-100330000D03*
X153670000Y-100330000D03*
X156210000Y-102870000D03*
X153670000Y-102870000D03*
X153670000Y-105410000D03*
X156210000Y-105410000D03*
X153670000Y-107950000D03*
X156210000Y-107950000D03*
X153670000Y-110490000D03*
X156210000Y-110490000D03*
X153670000Y-113030000D03*
X156210000Y-113030000D03*
X153670000Y-115570000D03*
X156210000Y-115570000D03*
X156210000Y-118110000D03*
X153670000Y-118110000D03*
X189230000Y-69850000D03*
X191770000Y-69850000D03*
X189230000Y-72390000D03*
X191770000Y-72390000D03*
X189230000Y-74930000D03*
X191770000Y-74930000D03*
X189230000Y-77470000D03*
X191770000Y-77470000D03*
X191770000Y-80010000D03*
X189230000Y-80010000D03*
X191770000Y-82550000D03*
X189230000Y-82550000D03*
X191770000Y-85090000D03*
X191770000Y-87630000D03*
X191770000Y-90170000D03*
X191770000Y-92710000D03*
X191770000Y-95250000D03*
X191770000Y-97790000D03*
X186690000Y-85090000D03*
X189230000Y-85090000D03*
X186690000Y-87630000D03*
X189230000Y-87630000D03*
X189230000Y-90170000D03*
X186690000Y-90170000D03*
X186690000Y-92710000D03*
X189230000Y-92710000D03*
X189230000Y-95250000D03*
X186690000Y-95250000D03*
X189230000Y-97790000D03*
X186690000Y-97790000D03*
X175260000Y-76835000D03*
X175260000Y-74295000D03*
X172720000Y-76835000D03*
X172720000Y-74295000D03*
D14*
X201930000Y-89515000D03*
D15*
X201930000Y-99675000D03*
D16*
X95250000Y-66040000D03*
X201600000Y-121925000D03*
D14*
X195580000Y-95230000D03*
X195580000Y-92730000D03*
D16*
X95250000Y-121920000D03*
D14*
X198755000Y-99675000D03*
D15*
X198755000Y-89515000D03*
D16*
X201600003Y-66045004D03*
D17*
X150495000Y-106045000D03*
X104140000Y-119380000D03*
X99060000Y-114300000D03*
X126365000Y-110490000D03*
X106172000Y-71120000D03*
X95250000Y-80772000D03*
X126365000Y-123190000D03*
X184785000Y-109728000D03*
X145796000Y-70612000D03*
X173228000Y-67310000D03*
X160020000Y-78105000D03*
X195580000Y-102870000D03*
X151130000Y-89916000D03*
X138430000Y-89535000D03*
X173228000Y-83312000D03*
X97536000Y-98044000D03*
X173228000Y-100076000D03*
X196088000Y-121920000D03*
X126365000Y-96520000D03*
X114935000Y-89535000D03*
X199644000Y-72644000D03*
X173228000Y-120015000D03*
X163830000Y-109855000D03*
D18*
X150495000Y-104775000D02*
X150495000Y-106045000D01*
X153670000Y-100330000D02*
X150495000Y-103505000D01*
X150495000Y-103505000D02*
X150495000Y-104775000D01*
X148590000Y-110490000D02*
X151765000Y-107315000D01*
X151765000Y-107315000D02*
X151765000Y-104775000D01*
X151765000Y-104775000D02*
X153670000Y-102870000D01*
G04 #@! TA.AperFunction,Conductor*
G36*
X93168437Y-62758502D02*
G01*
X93214930Y-62812158D01*
X93225034Y-62882432D01*
X93195540Y-62947012D01*
X93168940Y-62970173D01*
X93070265Y-63034253D01*
X93064939Y-63038123D01*
X92826165Y-63231478D01*
X92817700Y-63243733D01*
X92824034Y-63254824D01*
X95237188Y-65667978D01*
X95251132Y-65675592D01*
X95252965Y-65675461D01*
X95259580Y-65671210D01*
X97675100Y-63255690D01*
X97682241Y-63242614D01*
X97674784Y-63232247D01*
X97435065Y-63038126D01*
X97429728Y-63034249D01*
X97331059Y-62970172D01*
X97284822Y-62916296D01*
X97275053Y-62845975D01*
X97304853Y-62781535D01*
X97364762Y-62743436D01*
X97399684Y-62738500D01*
X199458024Y-62738500D01*
X199526145Y-62758502D01*
X199572638Y-62812158D01*
X199582742Y-62882432D01*
X199553248Y-62947012D01*
X199526649Y-62970172D01*
X199420273Y-63039253D01*
X199414942Y-63043127D01*
X199176168Y-63236482D01*
X199167703Y-63248737D01*
X199174037Y-63259828D01*
X201587191Y-65672982D01*
X201601135Y-65680596D01*
X201602968Y-65680465D01*
X201609583Y-65676214D01*
X204025103Y-63260694D01*
X204032244Y-63247618D01*
X204024787Y-63237251D01*
X203785068Y-63043130D01*
X203779736Y-63039256D01*
X203673357Y-62970173D01*
X203627120Y-62916296D01*
X203617350Y-62845975D01*
X203647150Y-62781535D01*
X203707058Y-62743436D01*
X203741981Y-62738500D01*
X205105500Y-62738500D01*
X205173621Y-62758502D01*
X205220114Y-62812158D01*
X205231500Y-62864500D01*
X205231500Y-64480144D01*
X205211498Y-64548265D01*
X205157842Y-64594758D01*
X205087568Y-64604862D01*
X205022988Y-64575368D01*
X204992665Y-64534457D01*
X204992079Y-64534755D01*
X204817131Y-64191401D01*
X204813834Y-64185691D01*
X204605750Y-63865269D01*
X204601880Y-63859943D01*
X204408525Y-63621169D01*
X204396270Y-63612704D01*
X204385179Y-63619038D01*
X201972025Y-66032192D01*
X201964411Y-66046136D01*
X201964542Y-66047969D01*
X201968793Y-66054584D01*
X204384313Y-68470104D01*
X204397389Y-68477245D01*
X204407756Y-68469788D01*
X204601880Y-68230065D01*
X204605750Y-68224739D01*
X204813834Y-67904317D01*
X204817131Y-67898607D01*
X204992079Y-67555253D01*
X204992897Y-67555670D01*
X205036372Y-67504520D01*
X205104299Y-67483870D01*
X205172607Y-67503222D01*
X205219610Y-67556432D01*
X205231500Y-67609864D01*
X205231500Y-120360147D01*
X205211498Y-120428268D01*
X205157842Y-120474761D01*
X205087568Y-120484865D01*
X205022988Y-120455371D01*
X204992661Y-120414453D01*
X204992076Y-120414751D01*
X204817128Y-120071397D01*
X204813831Y-120065687D01*
X204605747Y-119745265D01*
X204601877Y-119739939D01*
X204408522Y-119501165D01*
X204396267Y-119492700D01*
X204385176Y-119499034D01*
X201972022Y-121912188D01*
X201964408Y-121926132D01*
X201964539Y-121927965D01*
X201968790Y-121934580D01*
X204384310Y-124350100D01*
X204397386Y-124357241D01*
X204407753Y-124349784D01*
X204601877Y-124110061D01*
X204605747Y-124104735D01*
X204813831Y-123784313D01*
X204817128Y-123778603D01*
X204992076Y-123435249D01*
X204992893Y-123435666D01*
X205036368Y-123384512D01*
X205104294Y-123363859D01*
X205172603Y-123383208D01*
X205219608Y-123436417D01*
X205231500Y-123489853D01*
X205231500Y-125095500D01*
X205211498Y-125163621D01*
X205157842Y-125210114D01*
X205105500Y-125221500D01*
X203757383Y-125221500D01*
X203689262Y-125201498D01*
X203642769Y-125147842D01*
X203632665Y-125077568D01*
X203662159Y-125012988D01*
X203688759Y-124989827D01*
X203779733Y-124930748D01*
X203785065Y-124926874D01*
X204023835Y-124733522D01*
X204032300Y-124721267D01*
X204025966Y-124710176D01*
X201612812Y-122297022D01*
X201598868Y-122289408D01*
X201597035Y-122289539D01*
X201590420Y-122293790D01*
X199174900Y-124709310D01*
X199167759Y-124722386D01*
X199175216Y-124732753D01*
X199414935Y-124926874D01*
X199420267Y-124930748D01*
X199511241Y-124989827D01*
X199557478Y-125043704D01*
X199567248Y-125114025D01*
X199537448Y-125178465D01*
X199477540Y-125216564D01*
X199442617Y-125221500D01*
X97399684Y-125221500D01*
X97331563Y-125201498D01*
X97285070Y-125147842D01*
X97274966Y-125077568D01*
X97304460Y-125012988D01*
X97331059Y-124989828D01*
X97429728Y-124925751D01*
X97435065Y-124921874D01*
X97673835Y-124728522D01*
X97682300Y-124716267D01*
X97675966Y-124705176D01*
X95262812Y-122292022D01*
X95248868Y-122284408D01*
X95247035Y-122284539D01*
X95240420Y-122288790D01*
X92824900Y-124704310D01*
X92817759Y-124717386D01*
X92825216Y-124727753D01*
X93064935Y-124921874D01*
X93070272Y-124925751D01*
X93168941Y-124989828D01*
X93215178Y-125043704D01*
X93224947Y-125114025D01*
X93195147Y-125178465D01*
X93135238Y-125216564D01*
X93100316Y-125221500D01*
X92074500Y-125221500D01*
X92006379Y-125201498D01*
X91959886Y-125147842D01*
X91948500Y-125095500D01*
X91948500Y-124069684D01*
X91968502Y-124001563D01*
X92022158Y-123955070D01*
X92092432Y-123944966D01*
X92157012Y-123974460D01*
X92180173Y-124001060D01*
X92244253Y-124099735D01*
X92248123Y-124105061D01*
X92441478Y-124343835D01*
X92453733Y-124352300D01*
X92464824Y-124345966D01*
X94877978Y-121932812D01*
X94884356Y-121921132D01*
X95614408Y-121921132D01*
X95614539Y-121922965D01*
X95618790Y-121929580D01*
X98034310Y-124345100D01*
X98047386Y-124352241D01*
X98057753Y-124344784D01*
X98251877Y-124105061D01*
X98255747Y-124099735D01*
X98463831Y-123779313D01*
X98467128Y-123773603D01*
X98640578Y-123433189D01*
X98643260Y-123427164D01*
X98780171Y-123070498D01*
X98782212Y-123064216D01*
X98881094Y-122695184D01*
X98882465Y-122688734D01*
X98942234Y-122311371D01*
X98942920Y-122304833D01*
X98962916Y-121923301D01*
X98962916Y-121916699D01*
X98959362Y-121848894D01*
X107183778Y-121848894D01*
X107183931Y-121853282D01*
X107183931Y-121853288D01*
X107191797Y-122078527D01*
X107193698Y-122132973D01*
X107243058Y-122412907D01*
X107244413Y-122417078D01*
X107244415Y-122417085D01*
X107286088Y-122545340D01*
X107330897Y-122683247D01*
X107332825Y-122687200D01*
X107332827Y-122687205D01*
X107388615Y-122801587D01*
X107455505Y-122938731D01*
X107457960Y-122942370D01*
X107457963Y-122942376D01*
X107611997Y-123170741D01*
X107612002Y-123170748D01*
X107614457Y-123174387D01*
X107617401Y-123177656D01*
X107617402Y-123177658D01*
X107801711Y-123382354D01*
X107804659Y-123385628D01*
X108022409Y-123568342D01*
X108263469Y-123718973D01*
X108523147Y-123834589D01*
X108527375Y-123835801D01*
X108527374Y-123835801D01*
X108767150Y-123904556D01*
X108796388Y-123912940D01*
X108800738Y-123913551D01*
X108800741Y-123913552D01*
X108905217Y-123928235D01*
X109077874Y-123952500D01*
X109290976Y-123952500D01*
X109293161Y-123952347D01*
X109293167Y-123952347D01*
X109499175Y-123937942D01*
X109499180Y-123937941D01*
X109503560Y-123937635D01*
X109781601Y-123878535D01*
X109785732Y-123877031D01*
X109785737Y-123877030D01*
X109932988Y-123823435D01*
X110048711Y-123781315D01*
X110170336Y-123716646D01*
X110295799Y-123649937D01*
X110295805Y-123649933D01*
X110299691Y-123647867D01*
X110303251Y-123645281D01*
X110303255Y-123645278D01*
X110526093Y-123483376D01*
X110526096Y-123483374D01*
X110529656Y-123480787D01*
X110575603Y-123436417D01*
X110730968Y-123286383D01*
X110730971Y-123286379D01*
X110734130Y-123283329D01*
X110909133Y-123059335D01*
X110999577Y-122902683D01*
X111049055Y-122816985D01*
X111049058Y-122816980D01*
X111051260Y-122813165D01*
X111052910Y-122809081D01*
X111052913Y-122809075D01*
X111156093Y-122553693D01*
X111156094Y-122553690D01*
X111157742Y-122549611D01*
X111226509Y-122273802D01*
X111249411Y-122055913D01*
X111255763Y-121995475D01*
X111255763Y-121995472D01*
X111256222Y-121991106D01*
X111254361Y-121937812D01*
X111251256Y-121848894D01*
X145283778Y-121848894D01*
X145283931Y-121853282D01*
X145283931Y-121853288D01*
X145291797Y-122078527D01*
X145293698Y-122132973D01*
X145343058Y-122412907D01*
X145344413Y-122417078D01*
X145344415Y-122417085D01*
X145386088Y-122545340D01*
X145430897Y-122683247D01*
X145432825Y-122687200D01*
X145432827Y-122687205D01*
X145488615Y-122801587D01*
X145555505Y-122938731D01*
X145557960Y-122942370D01*
X145557963Y-122942376D01*
X145711997Y-123170741D01*
X145712002Y-123170748D01*
X145714457Y-123174387D01*
X145717401Y-123177656D01*
X145717402Y-123177658D01*
X145901711Y-123382354D01*
X145904659Y-123385628D01*
X146122409Y-123568342D01*
X146363469Y-123718973D01*
X146623147Y-123834589D01*
X146627375Y-123835801D01*
X146627374Y-123835801D01*
X146867150Y-123904556D01*
X146896388Y-123912940D01*
X146900738Y-123913551D01*
X146900741Y-123913552D01*
X147005217Y-123928235D01*
X147177874Y-123952500D01*
X147390976Y-123952500D01*
X147393161Y-123952347D01*
X147393167Y-123952347D01*
X147599175Y-123937942D01*
X147599180Y-123937941D01*
X147603560Y-123937635D01*
X147881601Y-123878535D01*
X147885732Y-123877031D01*
X147885737Y-123877030D01*
X148032988Y-123823435D01*
X148148711Y-123781315D01*
X148270336Y-123716646D01*
X148395799Y-123649937D01*
X148395805Y-123649933D01*
X148399691Y-123647867D01*
X148403251Y-123645281D01*
X148403255Y-123645278D01*
X148626093Y-123483376D01*
X148626096Y-123483374D01*
X148629656Y-123480787D01*
X148675603Y-123436417D01*
X148830968Y-123286383D01*
X148830971Y-123286379D01*
X148834130Y-123283329D01*
X149009133Y-123059335D01*
X149099577Y-122902683D01*
X149149055Y-122816985D01*
X149149058Y-122816980D01*
X149151260Y-122813165D01*
X149152910Y-122809081D01*
X149152913Y-122809075D01*
X149256093Y-122553693D01*
X149256094Y-122553690D01*
X149257742Y-122549611D01*
X149326509Y-122273802D01*
X149349411Y-122055913D01*
X152779725Y-122055913D01*
X152780284Y-122060157D01*
X152780284Y-122060161D01*
X152782702Y-122078527D01*
X152818158Y-122347838D01*
X152819291Y-122351978D01*
X152819291Y-122351980D01*
X152894720Y-122627702D01*
X152895854Y-122631847D01*
X153011375Y-122902683D01*
X153162585Y-123155336D01*
X153346684Y-123385129D01*
X153349786Y-123388073D01*
X153349790Y-123388077D01*
X153444083Y-123477557D01*
X153560266Y-123587811D01*
X153799380Y-123759632D01*
X153940950Y-123834589D01*
X154025676Y-123879449D01*
X154059600Y-123897411D01*
X154063623Y-123898883D01*
X154063627Y-123898885D01*
X154332080Y-123997125D01*
X154336111Y-123998600D01*
X154623797Y-124061325D01*
X154653339Y-124063650D01*
X154852273Y-124079307D01*
X154852282Y-124079307D01*
X154854730Y-124079500D01*
X155014016Y-124079500D01*
X155016152Y-124079354D01*
X155016163Y-124079354D01*
X155229486Y-124064811D01*
X155229492Y-124064810D01*
X155233763Y-124064519D01*
X155237958Y-124063650D01*
X155237960Y-124063650D01*
X155377926Y-124034665D01*
X155522089Y-124004810D01*
X155799645Y-123906522D01*
X155939012Y-123834589D01*
X156057486Y-123773440D01*
X156057487Y-123773440D01*
X156061293Y-123771475D01*
X156302193Y-123602168D01*
X156481820Y-123435249D01*
X156514743Y-123404655D01*
X156514746Y-123404652D01*
X156517886Y-123401734D01*
X156528754Y-123388457D01*
X156635865Y-123257592D01*
X156704382Y-123173881D01*
X156846248Y-122942376D01*
X156855984Y-122926488D01*
X156855984Y-122926487D01*
X156858228Y-122922826D01*
X156976580Y-122653214D01*
X157057245Y-122370034D01*
X157098733Y-122078527D01*
X157098851Y-122055913D01*
X188339725Y-122055913D01*
X188340284Y-122060157D01*
X188340284Y-122060161D01*
X188342702Y-122078527D01*
X188378158Y-122347838D01*
X188379291Y-122351978D01*
X188379291Y-122351980D01*
X188454720Y-122627702D01*
X188455854Y-122631847D01*
X188571375Y-122902683D01*
X188722585Y-123155336D01*
X188906684Y-123385129D01*
X188909786Y-123388073D01*
X188909790Y-123388077D01*
X189004083Y-123477557D01*
X189120266Y-123587811D01*
X189359380Y-123759632D01*
X189500950Y-123834589D01*
X189585676Y-123879449D01*
X189619600Y-123897411D01*
X189623623Y-123898883D01*
X189623627Y-123898885D01*
X189892080Y-123997125D01*
X189896111Y-123998600D01*
X190183797Y-124061325D01*
X190213339Y-124063650D01*
X190412273Y-124079307D01*
X190412282Y-124079307D01*
X190414730Y-124079500D01*
X190574016Y-124079500D01*
X190576152Y-124079354D01*
X190576163Y-124079354D01*
X190789486Y-124064811D01*
X190789492Y-124064810D01*
X190793763Y-124064519D01*
X190797958Y-124063650D01*
X190797960Y-124063650D01*
X190937926Y-124034665D01*
X191082089Y-124004810D01*
X191359645Y-123906522D01*
X191499012Y-123834589D01*
X191617486Y-123773440D01*
X191617487Y-123773440D01*
X191621293Y-123771475D01*
X191862193Y-123602168D01*
X192041820Y-123435249D01*
X192074743Y-123404655D01*
X192074746Y-123404652D01*
X192077886Y-123401734D01*
X192088754Y-123388457D01*
X192195865Y-123257592D01*
X192264382Y-123173881D01*
X192406248Y-122942376D01*
X192415984Y-122926488D01*
X192415984Y-122926487D01*
X192418228Y-122922826D01*
X192536580Y-122653214D01*
X192617245Y-122370034D01*
X192658733Y-122078527D01*
X192659520Y-121928301D01*
X197887084Y-121928301D01*
X197907080Y-122309833D01*
X197907766Y-122316371D01*
X197967535Y-122693734D01*
X197968906Y-122700184D01*
X198067788Y-123069216D01*
X198069829Y-123075498D01*
X198206740Y-123432164D01*
X198209422Y-123438189D01*
X198382872Y-123778603D01*
X198386169Y-123784313D01*
X198594253Y-124104735D01*
X198598123Y-124110061D01*
X198791478Y-124348835D01*
X198803733Y-124357300D01*
X198814824Y-124350966D01*
X201227978Y-121937812D01*
X201235592Y-121923868D01*
X201235461Y-121922035D01*
X201231210Y-121915420D01*
X198815690Y-119499900D01*
X198802614Y-119492759D01*
X198792247Y-119500216D01*
X198598123Y-119739939D01*
X198594253Y-119745265D01*
X198386169Y-120065687D01*
X198382872Y-120071397D01*
X198209422Y-120411811D01*
X198206740Y-120417836D01*
X198069829Y-120774502D01*
X198067788Y-120780784D01*
X197968906Y-121149816D01*
X197967535Y-121156266D01*
X197907766Y-121533629D01*
X197907080Y-121540167D01*
X197887084Y-121921699D01*
X197887084Y-121928301D01*
X192659520Y-121928301D01*
X192659936Y-121848894D01*
X192660253Y-121788373D01*
X192660253Y-121788366D01*
X192660275Y-121784087D01*
X192657864Y-121765769D01*
X192630193Y-121555592D01*
X192621842Y-121492162D01*
X192614643Y-121465845D01*
X192545280Y-121212298D01*
X192545280Y-121212297D01*
X192544146Y-121208153D01*
X192428625Y-120937317D01*
X192277415Y-120684664D01*
X192093316Y-120454871D01*
X192090214Y-120451927D01*
X192090210Y-120451923D01*
X191903230Y-120274486D01*
X191879734Y-120252189D01*
X191640620Y-120080368D01*
X191416051Y-119961465D01*
X191384187Y-119944594D01*
X191384186Y-119944593D01*
X191380400Y-119942589D01*
X191376377Y-119941117D01*
X191376373Y-119941115D01*
X191107920Y-119842875D01*
X191107918Y-119842874D01*
X191103889Y-119841400D01*
X190816203Y-119778675D01*
X190771910Y-119775189D01*
X190587727Y-119760693D01*
X190587718Y-119760693D01*
X190585270Y-119760500D01*
X190425984Y-119760500D01*
X190423848Y-119760646D01*
X190423837Y-119760646D01*
X190210514Y-119775189D01*
X190210508Y-119775190D01*
X190206237Y-119775481D01*
X190202042Y-119776350D01*
X190202040Y-119776350D01*
X190062540Y-119805239D01*
X189917911Y-119835190D01*
X189640355Y-119933478D01*
X189636546Y-119935444D01*
X189384206Y-120065687D01*
X189378707Y-120068525D01*
X189375206Y-120070986D01*
X189375202Y-120070988D01*
X189364710Y-120078362D01*
X189137807Y-120237832D01*
X189101406Y-120271658D01*
X188955964Y-120406811D01*
X188922114Y-120438266D01*
X188919400Y-120441581D01*
X188919397Y-120441585D01*
X188892243Y-120474761D01*
X188735618Y-120666119D01*
X188665352Y-120780784D01*
X188591519Y-120901269D01*
X188581772Y-120917174D01*
X188463420Y-121186786D01*
X188382755Y-121469966D01*
X188341267Y-121761473D01*
X188340832Y-121844525D01*
X188340042Y-121995475D01*
X188339725Y-122055913D01*
X157098851Y-122055913D01*
X157099936Y-121848894D01*
X157100253Y-121788373D01*
X157100253Y-121788366D01*
X157100275Y-121784087D01*
X157097864Y-121765769D01*
X157070193Y-121555592D01*
X157061842Y-121492162D01*
X157054643Y-121465845D01*
X156985280Y-121212298D01*
X156985280Y-121212297D01*
X156984146Y-121208153D01*
X156868625Y-120937317D01*
X156717415Y-120684664D01*
X156533316Y-120454871D01*
X156530214Y-120451927D01*
X156530210Y-120451923D01*
X156343230Y-120274486D01*
X156319734Y-120252189D01*
X156080620Y-120080368D01*
X155856051Y-119961465D01*
X155824187Y-119944594D01*
X155824186Y-119944593D01*
X155820400Y-119942589D01*
X155816377Y-119941117D01*
X155816373Y-119941115D01*
X155547920Y-119842875D01*
X155547918Y-119842874D01*
X155543889Y-119841400D01*
X155256203Y-119778675D01*
X155211910Y-119775189D01*
X155027727Y-119760693D01*
X155027718Y-119760693D01*
X155025270Y-119760500D01*
X154865984Y-119760500D01*
X154863848Y-119760646D01*
X154863837Y-119760646D01*
X154650514Y-119775189D01*
X154650508Y-119775190D01*
X154646237Y-119775481D01*
X154642042Y-119776350D01*
X154642040Y-119776350D01*
X154502540Y-119805239D01*
X154357911Y-119835190D01*
X154080355Y-119933478D01*
X154076546Y-119935444D01*
X153824206Y-120065687D01*
X153818707Y-120068525D01*
X153815206Y-120070986D01*
X153815202Y-120070988D01*
X153804710Y-120078362D01*
X153577807Y-120237832D01*
X153541406Y-120271658D01*
X153395964Y-120406811D01*
X153362114Y-120438266D01*
X153359400Y-120441581D01*
X153359397Y-120441585D01*
X153332243Y-120474761D01*
X153175618Y-120666119D01*
X153105352Y-120780784D01*
X153031519Y-120901269D01*
X153021772Y-120917174D01*
X152903420Y-121186786D01*
X152822755Y-121469966D01*
X152781267Y-121761473D01*
X152780832Y-121844525D01*
X152780042Y-121995475D01*
X152779725Y-122055913D01*
X149349411Y-122055913D01*
X149355763Y-121995475D01*
X149355763Y-121995472D01*
X149356222Y-121991106D01*
X149354361Y-121937812D01*
X149346456Y-121711424D01*
X149346455Y-121711417D01*
X149346302Y-121707027D01*
X149320459Y-121560461D01*
X149297704Y-121431416D01*
X149296942Y-121427093D01*
X149295587Y-121422922D01*
X149295585Y-121422915D01*
X149210464Y-121160942D01*
X149209103Y-121156753D01*
X149084495Y-120901269D01*
X149082040Y-120897630D01*
X149082037Y-120897624D01*
X148928003Y-120669259D01*
X148927998Y-120669252D01*
X148925543Y-120665613D01*
X148824702Y-120553617D01*
X148738289Y-120457646D01*
X148738288Y-120457645D01*
X148735341Y-120454372D01*
X148517591Y-120271658D01*
X148276531Y-120121027D01*
X148016853Y-120005411D01*
X147797768Y-119942589D01*
X147747839Y-119928272D01*
X147747838Y-119928272D01*
X147743612Y-119927060D01*
X147739262Y-119926449D01*
X147739259Y-119926448D01*
X147634783Y-119911765D01*
X147462126Y-119887500D01*
X147249024Y-119887500D01*
X147246839Y-119887653D01*
X147246833Y-119887653D01*
X147040825Y-119902058D01*
X147040820Y-119902059D01*
X147036440Y-119902365D01*
X146758399Y-119961465D01*
X146754268Y-119962969D01*
X146754263Y-119962970D01*
X146640988Y-120004199D01*
X146491289Y-120058685D01*
X146467381Y-120071397D01*
X146244201Y-120190063D01*
X146244195Y-120190067D01*
X146240309Y-120192133D01*
X146236749Y-120194719D01*
X146236745Y-120194722D01*
X146126960Y-120274486D01*
X146010344Y-120359213D01*
X146007180Y-120362269D01*
X146007177Y-120362271D01*
X145809032Y-120553617D01*
X145809029Y-120553621D01*
X145805870Y-120556671D01*
X145630867Y-120780665D01*
X145563340Y-120897624D01*
X145538148Y-120941259D01*
X145488740Y-121026835D01*
X145487090Y-121030919D01*
X145487087Y-121030925D01*
X145383907Y-121286307D01*
X145382258Y-121290389D01*
X145313491Y-121566198D01*
X145313032Y-121570568D01*
X145313031Y-121570572D01*
X145290139Y-121788373D01*
X145283778Y-121848894D01*
X111251256Y-121848894D01*
X111246456Y-121711424D01*
X111246455Y-121711417D01*
X111246302Y-121707027D01*
X111220459Y-121560461D01*
X111197704Y-121431416D01*
X111196942Y-121427093D01*
X111195587Y-121422922D01*
X111195585Y-121422915D01*
X111110464Y-121160942D01*
X111109103Y-121156753D01*
X110984495Y-120901269D01*
X110982040Y-120897630D01*
X110982037Y-120897624D01*
X110828003Y-120669259D01*
X110827998Y-120669252D01*
X110825543Y-120665613D01*
X110724702Y-120553617D01*
X110638289Y-120457646D01*
X110638288Y-120457645D01*
X110635341Y-120454372D01*
X110417591Y-120271658D01*
X110176531Y-120121027D01*
X109916853Y-120005411D01*
X109697768Y-119942589D01*
X109647839Y-119928272D01*
X109647838Y-119928272D01*
X109643612Y-119927060D01*
X109639262Y-119926449D01*
X109639259Y-119926448D01*
X109534783Y-119911765D01*
X109362126Y-119887500D01*
X109149024Y-119887500D01*
X109146839Y-119887653D01*
X109146833Y-119887653D01*
X108940825Y-119902058D01*
X108940820Y-119902059D01*
X108936440Y-119902365D01*
X108658399Y-119961465D01*
X108654268Y-119962969D01*
X108654263Y-119962970D01*
X108540988Y-120004199D01*
X108391289Y-120058685D01*
X108367381Y-120071397D01*
X108144201Y-120190063D01*
X108144195Y-120190067D01*
X108140309Y-120192133D01*
X108136749Y-120194719D01*
X108136745Y-120194722D01*
X108026960Y-120274486D01*
X107910344Y-120359213D01*
X107907180Y-120362269D01*
X107907177Y-120362271D01*
X107709032Y-120553617D01*
X107709029Y-120553621D01*
X107705870Y-120556671D01*
X107530867Y-120780665D01*
X107463340Y-120897624D01*
X107438148Y-120941259D01*
X107388740Y-121026835D01*
X107387090Y-121030919D01*
X107387087Y-121030925D01*
X107283907Y-121286307D01*
X107282258Y-121290389D01*
X107213491Y-121566198D01*
X107213032Y-121570568D01*
X107213031Y-121570572D01*
X107190139Y-121788373D01*
X107183778Y-121848894D01*
X98959362Y-121848894D01*
X98942920Y-121535167D01*
X98942234Y-121528629D01*
X98882465Y-121151266D01*
X98881094Y-121144816D01*
X98782212Y-120775784D01*
X98780171Y-120769502D01*
X98643260Y-120412836D01*
X98640578Y-120406811D01*
X98467128Y-120066397D01*
X98463831Y-120060687D01*
X98255747Y-119740265D01*
X98251877Y-119734939D01*
X98058522Y-119496165D01*
X98046267Y-119487700D01*
X98035176Y-119494034D01*
X95622022Y-121907188D01*
X95614408Y-121921132D01*
X94884356Y-121921132D01*
X94885592Y-121918868D01*
X94885461Y-121917035D01*
X94881210Y-121910420D01*
X92465690Y-119494900D01*
X92452614Y-119487759D01*
X92442247Y-119495216D01*
X92248123Y-119734939D01*
X92244253Y-119740265D01*
X92180173Y-119838940D01*
X92126296Y-119885177D01*
X92055975Y-119894947D01*
X91991535Y-119865147D01*
X91953436Y-119805239D01*
X91948500Y-119770316D01*
X91948500Y-119123733D01*
X92817700Y-119123733D01*
X92824034Y-119134824D01*
X95237188Y-121547978D01*
X95251132Y-121555592D01*
X95252965Y-121555461D01*
X95259580Y-121551210D01*
X97675100Y-119135690D01*
X97682241Y-119122614D01*
X97674784Y-119112247D01*
X97435065Y-118918126D01*
X97429728Y-118914249D01*
X97109315Y-118706170D01*
X97103606Y-118702873D01*
X96763189Y-118529422D01*
X96757164Y-118526740D01*
X96400498Y-118389829D01*
X96394216Y-118387788D01*
X96025184Y-118288906D01*
X96018734Y-118287535D01*
X95641371Y-118227766D01*
X95634833Y-118227080D01*
X95253301Y-118207084D01*
X95246699Y-118207084D01*
X94865167Y-118227080D01*
X94858629Y-118227766D01*
X94481266Y-118287535D01*
X94474816Y-118288906D01*
X94105784Y-118387788D01*
X94099502Y-118389829D01*
X93742836Y-118526740D01*
X93736811Y-118529422D01*
X93396397Y-118702872D01*
X93390687Y-118706169D01*
X93070265Y-118914253D01*
X93064939Y-118918123D01*
X92826165Y-119111478D01*
X92817700Y-119123733D01*
X91948500Y-119123733D01*
X91948500Y-118074494D01*
X106497170Y-118074494D01*
X106497467Y-118079646D01*
X106497467Y-118079650D01*
X106503502Y-118184313D01*
X106510879Y-118312255D01*
X106512016Y-118317301D01*
X106512017Y-118317307D01*
X106545111Y-118464156D01*
X106563237Y-118544585D01*
X106565179Y-118549367D01*
X106565180Y-118549371D01*
X106629541Y-118707873D01*
X106652837Y-118765244D01*
X106777274Y-118968306D01*
X106933204Y-119148317D01*
X107116442Y-119300444D01*
X107120894Y-119303046D01*
X107120899Y-119303049D01*
X107219333Y-119360569D01*
X107322065Y-119420601D01*
X107544552Y-119505560D01*
X107549618Y-119506591D01*
X107549619Y-119506591D01*
X107603956Y-119517646D01*
X107777928Y-119553041D01*
X107912121Y-119557962D01*
X108010760Y-119561579D01*
X108010764Y-119561579D01*
X108015924Y-119561768D01*
X108021044Y-119561112D01*
X108021046Y-119561112D01*
X108247023Y-119532164D01*
X108247024Y-119532164D01*
X108252151Y-119531507D01*
X108335200Y-119506591D01*
X108475316Y-119464554D01*
X108475317Y-119464553D01*
X108480262Y-119463070D01*
X108694133Y-119358295D01*
X108698336Y-119355297D01*
X108698341Y-119355294D01*
X108883816Y-119222996D01*
X108883818Y-119222994D01*
X108888020Y-119219997D01*
X109056716Y-119051889D01*
X109114979Y-118970807D01*
X109170972Y-118927160D01*
X109241676Y-118920714D01*
X109304640Y-118953516D01*
X109316582Y-118967176D01*
X109317274Y-118968306D01*
X109473204Y-119148317D01*
X109656442Y-119300444D01*
X109660894Y-119303046D01*
X109660899Y-119303049D01*
X109759333Y-119360569D01*
X109862065Y-119420601D01*
X110084552Y-119505560D01*
X110089618Y-119506591D01*
X110089619Y-119506591D01*
X110143956Y-119517646D01*
X110317928Y-119553041D01*
X110452121Y-119557962D01*
X110550760Y-119561579D01*
X110550764Y-119561579D01*
X110555924Y-119561768D01*
X110561044Y-119561112D01*
X110561046Y-119561112D01*
X110787023Y-119532164D01*
X110787024Y-119532164D01*
X110792151Y-119531507D01*
X110875200Y-119506591D01*
X111015316Y-119464554D01*
X111015317Y-119464553D01*
X111020262Y-119463070D01*
X111234133Y-119358295D01*
X111238336Y-119355297D01*
X111238341Y-119355294D01*
X111423816Y-119222996D01*
X111423818Y-119222994D01*
X111428020Y-119219997D01*
X111596716Y-119051889D01*
X111735690Y-118858486D01*
X111781774Y-118765244D01*
X111838917Y-118649624D01*
X111838918Y-118649622D01*
X111841211Y-118644982D01*
X111910443Y-118417111D01*
X111914035Y-118389829D01*
X111941092Y-118184313D01*
X111941092Y-118184309D01*
X111941529Y-118180992D01*
X111943264Y-118110000D01*
X111940345Y-118074494D01*
X152217170Y-118074494D01*
X152217467Y-118079646D01*
X152217467Y-118079650D01*
X152223502Y-118184313D01*
X152230879Y-118312255D01*
X152232016Y-118317301D01*
X152232017Y-118317307D01*
X152265111Y-118464156D01*
X152283237Y-118544585D01*
X152285179Y-118549367D01*
X152285180Y-118549371D01*
X152349541Y-118707873D01*
X152372837Y-118765244D01*
X152497274Y-118968306D01*
X152653204Y-119148317D01*
X152836442Y-119300444D01*
X152840894Y-119303046D01*
X152840899Y-119303049D01*
X152939333Y-119360569D01*
X153042065Y-119420601D01*
X153264552Y-119505560D01*
X153269618Y-119506591D01*
X153269619Y-119506591D01*
X153323956Y-119517646D01*
X153497928Y-119553041D01*
X153632121Y-119557962D01*
X153730760Y-119561579D01*
X153730764Y-119561579D01*
X153735924Y-119561768D01*
X153741044Y-119561112D01*
X153741046Y-119561112D01*
X153967023Y-119532164D01*
X153967024Y-119532164D01*
X153972151Y-119531507D01*
X154055200Y-119506591D01*
X154195316Y-119464554D01*
X154195317Y-119464553D01*
X154200262Y-119463070D01*
X154414133Y-119358295D01*
X154418336Y-119355297D01*
X154418341Y-119355294D01*
X154603816Y-119222996D01*
X154603818Y-119222994D01*
X154608020Y-119219997D01*
X154776716Y-119051889D01*
X154834979Y-118970807D01*
X154890972Y-118927160D01*
X154961676Y-118920714D01*
X155024640Y-118953516D01*
X155036582Y-118967176D01*
X155037274Y-118968306D01*
X155193204Y-119148317D01*
X155376442Y-119300444D01*
X155380894Y-119303046D01*
X155380899Y-119303049D01*
X155479333Y-119360569D01*
X155582065Y-119420601D01*
X155804552Y-119505560D01*
X155809618Y-119506591D01*
X155809619Y-119506591D01*
X155863956Y-119517646D01*
X156037928Y-119553041D01*
X156172121Y-119557962D01*
X156270760Y-119561579D01*
X156270764Y-119561579D01*
X156275924Y-119561768D01*
X156281044Y-119561112D01*
X156281046Y-119561112D01*
X156507023Y-119532164D01*
X156507024Y-119532164D01*
X156512151Y-119531507D01*
X156595200Y-119506591D01*
X156735316Y-119464554D01*
X156735317Y-119464553D01*
X156740262Y-119463070D01*
X156954133Y-119358295D01*
X156958336Y-119355297D01*
X156958341Y-119355294D01*
X157143816Y-119222996D01*
X157143818Y-119222994D01*
X157148020Y-119219997D01*
X157239603Y-119128733D01*
X199167700Y-119128733D01*
X199174034Y-119139824D01*
X201587188Y-121552978D01*
X201601132Y-121560592D01*
X201602965Y-121560461D01*
X201609580Y-121556210D01*
X204025100Y-119140690D01*
X204032241Y-119127614D01*
X204024784Y-119117247D01*
X203785065Y-118923126D01*
X203779728Y-118919249D01*
X203459315Y-118711170D01*
X203453606Y-118707873D01*
X203113189Y-118534422D01*
X203107164Y-118531740D01*
X202750498Y-118394829D01*
X202744216Y-118392788D01*
X202375184Y-118293906D01*
X202368734Y-118292535D01*
X201991371Y-118232766D01*
X201984833Y-118232080D01*
X201603301Y-118212084D01*
X201596699Y-118212084D01*
X201215167Y-118232080D01*
X201208629Y-118232766D01*
X200831266Y-118292535D01*
X200824816Y-118293906D01*
X200455784Y-118392788D01*
X200449502Y-118394829D01*
X200092836Y-118531740D01*
X200086811Y-118534422D01*
X199746397Y-118707872D01*
X199740687Y-118711169D01*
X199420265Y-118919253D01*
X199414939Y-118923123D01*
X199176165Y-119116478D01*
X199167700Y-119128733D01*
X157239603Y-119128733D01*
X157316716Y-119051889D01*
X157455690Y-118858486D01*
X157501774Y-118765244D01*
X157558917Y-118649624D01*
X157558918Y-118649622D01*
X157561211Y-118644982D01*
X157630443Y-118417111D01*
X157634035Y-118389829D01*
X157661092Y-118184313D01*
X157661092Y-118184309D01*
X157661529Y-118180992D01*
X157663264Y-118110000D01*
X157643750Y-117872644D01*
X157585731Y-117641663D01*
X157490767Y-117423259D01*
X157473694Y-117396867D01*
X157411365Y-117300522D01*
X157361406Y-117223298D01*
X157201124Y-117047150D01*
X157197073Y-117043951D01*
X157197069Y-117043947D01*
X157099118Y-116966591D01*
X157063347Y-116938341D01*
X157022285Y-116880425D01*
X157019053Y-116809502D01*
X157054678Y-116748091D01*
X157068271Y-116736882D01*
X157143814Y-116682998D01*
X157143821Y-116682992D01*
X157148020Y-116679997D01*
X157316716Y-116511889D01*
X157455690Y-116318486D01*
X157501774Y-116225244D01*
X157558917Y-116109624D01*
X157558918Y-116109622D01*
X157561211Y-116104982D01*
X157630443Y-115877111D01*
X157661529Y-115640992D01*
X157663264Y-115570000D01*
X157643750Y-115332644D01*
X157585731Y-115101663D01*
X157490767Y-114883259D01*
X157473694Y-114856867D01*
X157411365Y-114760522D01*
X157361406Y-114683298D01*
X157201124Y-114507150D01*
X157197073Y-114503951D01*
X157197069Y-114503947D01*
X157063348Y-114398342D01*
X157050109Y-114379669D01*
X199157001Y-114379669D01*
X199157371Y-114386490D01*
X199162895Y-114437352D01*
X199166521Y-114452604D01*
X199211676Y-114573054D01*
X199220214Y-114588649D01*
X199296715Y-114690724D01*
X199309276Y-114703285D01*
X199411351Y-114779786D01*
X199426946Y-114788324D01*
X199547394Y-114833478D01*
X199562649Y-114837105D01*
X199613514Y-114842631D01*
X199620328Y-114843000D01*
X200692885Y-114843000D01*
X200708124Y-114838525D01*
X200709329Y-114837135D01*
X200711000Y-114829452D01*
X200711000Y-114824884D01*
X201219000Y-114824884D01*
X201223475Y-114840123D01*
X201224865Y-114841328D01*
X201232548Y-114842999D01*
X202309669Y-114842999D01*
X202316490Y-114842629D01*
X202367352Y-114837105D01*
X202382604Y-114833479D01*
X202503054Y-114788324D01*
X202518649Y-114779786D01*
X202620724Y-114703285D01*
X202633285Y-114690724D01*
X202709786Y-114588649D01*
X202718324Y-114573054D01*
X202763478Y-114452606D01*
X202767105Y-114437351D01*
X202772631Y-114386486D01*
X202773000Y-114379672D01*
X202773000Y-113307115D01*
X202768525Y-113291876D01*
X202767135Y-113290671D01*
X202759452Y-113289000D01*
X201237115Y-113289000D01*
X201221876Y-113293475D01*
X201220671Y-113294865D01*
X201219000Y-113302548D01*
X201219000Y-114824884D01*
X200711000Y-114824884D01*
X200711000Y-113307115D01*
X200706525Y-113291876D01*
X200705135Y-113290671D01*
X200697452Y-113289000D01*
X199175116Y-113289000D01*
X199159877Y-113293475D01*
X199158672Y-113294865D01*
X199157001Y-113302548D01*
X199157001Y-114379669D01*
X157050109Y-114379669D01*
X157022285Y-114340425D01*
X157019053Y-114269502D01*
X157054678Y-114208091D01*
X157068271Y-114196882D01*
X157143814Y-114142998D01*
X157143821Y-114142992D01*
X157148020Y-114139997D01*
X157316716Y-113971889D01*
X157455690Y-113778486D01*
X157501774Y-113685244D01*
X157558917Y-113569624D01*
X157558918Y-113569622D01*
X157561211Y-113564982D01*
X157630443Y-113337111D01*
X157634392Y-113307115D01*
X157661092Y-113104313D01*
X157661092Y-113104309D01*
X157661529Y-113100992D01*
X157663264Y-113030000D01*
X157643750Y-112792644D01*
X157636275Y-112762885D01*
X199157000Y-112762885D01*
X199161475Y-112778124D01*
X199162865Y-112779329D01*
X199170548Y-112781000D01*
X200692885Y-112781000D01*
X200708124Y-112776525D01*
X200709329Y-112775135D01*
X200711000Y-112767452D01*
X200711000Y-112762885D01*
X201219000Y-112762885D01*
X201223475Y-112778124D01*
X201224865Y-112779329D01*
X201232548Y-112781000D01*
X202754884Y-112781000D01*
X202770123Y-112776525D01*
X202771328Y-112775135D01*
X202772999Y-112767452D01*
X202772999Y-111690331D01*
X202772629Y-111683510D01*
X202767105Y-111632648D01*
X202763479Y-111617396D01*
X202718324Y-111496946D01*
X202709786Y-111481351D01*
X202633285Y-111379276D01*
X202620724Y-111366715D01*
X202518649Y-111290214D01*
X202503054Y-111281676D01*
X202382606Y-111236522D01*
X202367351Y-111232895D01*
X202316486Y-111227369D01*
X202309672Y-111227000D01*
X201237115Y-111227000D01*
X201221876Y-111231475D01*
X201220671Y-111232865D01*
X201219000Y-111240548D01*
X201219000Y-112762885D01*
X200711000Y-112762885D01*
X200711000Y-111245116D01*
X200706525Y-111229877D01*
X200705135Y-111228672D01*
X200697452Y-111227001D01*
X199620331Y-111227001D01*
X199613510Y-111227371D01*
X199562648Y-111232895D01*
X199547396Y-111236521D01*
X199426946Y-111281676D01*
X199411351Y-111290214D01*
X199309276Y-111366715D01*
X199296715Y-111379276D01*
X199220214Y-111481351D01*
X199211676Y-111496946D01*
X199166522Y-111617394D01*
X199162895Y-111632649D01*
X199157369Y-111683514D01*
X199157000Y-111690328D01*
X199157000Y-112762885D01*
X157636275Y-112762885D01*
X157585731Y-112561663D01*
X157490767Y-112343259D01*
X157473694Y-112316867D01*
X157411365Y-112220522D01*
X157361406Y-112143298D01*
X157201124Y-111967150D01*
X157197073Y-111963951D01*
X157197069Y-111963947D01*
X157063348Y-111858342D01*
X157022285Y-111800425D01*
X157019053Y-111729502D01*
X157054678Y-111668091D01*
X157068271Y-111656882D01*
X157143814Y-111602998D01*
X157143821Y-111602992D01*
X157148020Y-111599997D01*
X157316716Y-111431889D01*
X157455690Y-111238486D01*
X157458454Y-111232895D01*
X157558917Y-111029624D01*
X157558918Y-111029622D01*
X157561211Y-111024982D01*
X157630443Y-110797111D01*
X157661529Y-110560992D01*
X157663264Y-110490000D01*
X157643750Y-110252644D01*
X157585731Y-110021663D01*
X157490767Y-109803259D01*
X157473694Y-109776867D01*
X157411365Y-109680522D01*
X157361406Y-109603298D01*
X157201124Y-109427150D01*
X157197073Y-109423951D01*
X157197069Y-109423947D01*
X157054932Y-109311695D01*
X157013869Y-109253778D01*
X157010637Y-109182855D01*
X157032406Y-109138113D01*
X157025045Y-109124256D01*
X156222811Y-108322021D01*
X156208868Y-108314408D01*
X156207034Y-108314539D01*
X156200420Y-108318790D01*
X155391083Y-109128128D01*
X155384326Y-109140503D01*
X155384760Y-109141083D01*
X155409572Y-109207603D01*
X155394481Y-109276977D01*
X155359546Y-109317353D01*
X155249275Y-109400147D01*
X155245140Y-109403252D01*
X155080602Y-109575431D01*
X155058629Y-109607642D01*
X155045186Y-109627349D01*
X154990274Y-109672351D01*
X154919749Y-109680522D01*
X154856002Y-109649267D01*
X154835306Y-109624784D01*
X154824217Y-109607642D01*
X154824212Y-109607636D01*
X154821406Y-109603298D01*
X154661124Y-109427150D01*
X154657073Y-109423951D01*
X154657069Y-109423947D01*
X154514932Y-109311695D01*
X154473869Y-109253778D01*
X154470637Y-109182855D01*
X154492406Y-109138113D01*
X154485045Y-109124256D01*
X153682811Y-108322021D01*
X153668868Y-108314408D01*
X153667034Y-108314539D01*
X153660420Y-108318790D01*
X152851083Y-109128128D01*
X152844326Y-109140503D01*
X152844760Y-109141083D01*
X152869572Y-109207603D01*
X152854481Y-109276977D01*
X152819546Y-109317353D01*
X152709275Y-109400147D01*
X152705140Y-109403252D01*
X152540602Y-109575431D01*
X152537691Y-109579699D01*
X152537687Y-109579704D01*
X152475439Y-109670956D01*
X152406394Y-109772172D01*
X152306122Y-109988191D01*
X152242477Y-110217685D01*
X152241928Y-110222819D01*
X152241928Y-110222821D01*
X152236449Y-110274089D01*
X152217170Y-110454494D01*
X152217467Y-110459646D01*
X152217467Y-110459650D01*
X152223502Y-110564313D01*
X152230879Y-110692255D01*
X152232016Y-110697301D01*
X152232017Y-110697307D01*
X152265111Y-110844156D01*
X152283237Y-110924585D01*
X152285179Y-110929367D01*
X152285180Y-110929371D01*
X152370893Y-111140457D01*
X152372837Y-111145244D01*
X152497274Y-111348306D01*
X152653204Y-111528317D01*
X152735154Y-111596353D01*
X152817560Y-111664768D01*
X152857195Y-111723671D01*
X152858693Y-111794651D01*
X152821578Y-111855174D01*
X152812728Y-111862472D01*
X152709275Y-111940147D01*
X152705140Y-111943252D01*
X152540602Y-112115431D01*
X152537691Y-112119699D01*
X152537687Y-112119704D01*
X152505186Y-112167349D01*
X152406394Y-112312172D01*
X152306122Y-112528191D01*
X152242477Y-112757685D01*
X152241928Y-112762819D01*
X152241928Y-112762821D01*
X152236449Y-112814089D01*
X152217170Y-112994494D01*
X152217467Y-112999646D01*
X152217467Y-112999650D01*
X152223502Y-113104313D01*
X152230879Y-113232255D01*
X152232016Y-113237301D01*
X152232017Y-113237307D01*
X152265111Y-113384156D01*
X152283237Y-113464585D01*
X152285179Y-113469367D01*
X152285180Y-113469371D01*
X152370893Y-113680457D01*
X152372837Y-113685244D01*
X152497274Y-113888306D01*
X152653204Y-114068317D01*
X152735154Y-114136353D01*
X152817560Y-114204768D01*
X152857195Y-114263671D01*
X152858693Y-114334651D01*
X152821578Y-114395174D01*
X152812728Y-114402472D01*
X152709275Y-114480147D01*
X152705140Y-114483252D01*
X152540602Y-114655431D01*
X152537691Y-114659699D01*
X152537687Y-114659704D01*
X152505186Y-114707349D01*
X152406394Y-114852172D01*
X152306122Y-115068191D01*
X152242477Y-115297685D01*
X152241928Y-115302819D01*
X152241928Y-115302821D01*
X152236449Y-115354089D01*
X152217170Y-115534494D01*
X152217467Y-115539646D01*
X152217467Y-115539650D01*
X152223502Y-115644313D01*
X152230879Y-115772255D01*
X152232016Y-115777301D01*
X152232017Y-115777307D01*
X152265111Y-115924156D01*
X152283237Y-116004585D01*
X152285179Y-116009367D01*
X152285180Y-116009371D01*
X152370893Y-116220457D01*
X152372837Y-116225244D01*
X152497274Y-116428306D01*
X152653204Y-116608317D01*
X152743158Y-116682998D01*
X152817560Y-116744768D01*
X152857195Y-116803671D01*
X152858693Y-116874651D01*
X152821578Y-116935174D01*
X152812728Y-116942472D01*
X152718488Y-117013230D01*
X152705140Y-117023252D01*
X152540602Y-117195431D01*
X152537691Y-117199699D01*
X152537687Y-117199704D01*
X152505186Y-117247349D01*
X152406394Y-117392172D01*
X152306122Y-117608191D01*
X152242477Y-117837685D01*
X152241928Y-117842819D01*
X152241928Y-117842821D01*
X152236449Y-117894089D01*
X152217170Y-118074494D01*
X111940345Y-118074494D01*
X111923750Y-117872644D01*
X111865731Y-117641663D01*
X111770767Y-117423259D01*
X111753694Y-117396867D01*
X111691365Y-117300522D01*
X111641406Y-117223298D01*
X111481124Y-117047150D01*
X111477073Y-117043951D01*
X111477069Y-117043947D01*
X111379118Y-116966591D01*
X111343347Y-116938341D01*
X111302285Y-116880425D01*
X111299053Y-116809502D01*
X111334678Y-116748091D01*
X111348271Y-116736882D01*
X111423814Y-116682998D01*
X111423821Y-116682992D01*
X111428020Y-116679997D01*
X111596716Y-116511889D01*
X111735690Y-116318486D01*
X111781774Y-116225244D01*
X111838917Y-116109624D01*
X111838918Y-116109622D01*
X111841211Y-116104982D01*
X111910443Y-115877111D01*
X111941529Y-115640992D01*
X111943264Y-115570000D01*
X111940345Y-115534494D01*
X144597170Y-115534494D01*
X144597467Y-115539646D01*
X144597467Y-115539650D01*
X144603502Y-115644313D01*
X144610879Y-115772255D01*
X144612016Y-115777301D01*
X144612017Y-115777307D01*
X144645111Y-115924156D01*
X144663237Y-116004585D01*
X144665179Y-116009367D01*
X144665180Y-116009371D01*
X144750893Y-116220457D01*
X144752837Y-116225244D01*
X144877274Y-116428306D01*
X145033204Y-116608317D01*
X145216442Y-116760444D01*
X145220894Y-116763046D01*
X145220899Y-116763049D01*
X145319333Y-116820569D01*
X145422065Y-116880601D01*
X145644552Y-116965560D01*
X145649618Y-116966591D01*
X145649619Y-116966591D01*
X145703956Y-116977646D01*
X145877928Y-117013041D01*
X146012121Y-117017962D01*
X146110760Y-117021579D01*
X146110764Y-117021579D01*
X146115924Y-117021768D01*
X146121044Y-117021112D01*
X146121046Y-117021112D01*
X146347023Y-116992164D01*
X146347024Y-116992164D01*
X146352151Y-116991507D01*
X146435200Y-116966591D01*
X146575316Y-116924554D01*
X146575317Y-116924553D01*
X146580262Y-116923070D01*
X146794133Y-116818295D01*
X146798336Y-116815297D01*
X146798341Y-116815294D01*
X146983816Y-116682996D01*
X146983818Y-116682994D01*
X146988020Y-116679997D01*
X147156716Y-116511889D01*
X147214979Y-116430807D01*
X147270972Y-116387160D01*
X147341676Y-116380714D01*
X147404640Y-116413516D01*
X147416582Y-116427176D01*
X147417274Y-116428306D01*
X147573204Y-116608317D01*
X147756442Y-116760444D01*
X147760894Y-116763046D01*
X147760899Y-116763049D01*
X147859333Y-116820569D01*
X147962065Y-116880601D01*
X148184552Y-116965560D01*
X148189618Y-116966591D01*
X148189619Y-116966591D01*
X148243956Y-116977646D01*
X148417928Y-117013041D01*
X148552121Y-117017962D01*
X148650760Y-117021579D01*
X148650764Y-117021579D01*
X148655924Y-117021768D01*
X148661044Y-117021112D01*
X148661046Y-117021112D01*
X148887023Y-116992164D01*
X148887024Y-116992164D01*
X148892151Y-116991507D01*
X148975200Y-116966591D01*
X149115316Y-116924554D01*
X149115317Y-116924553D01*
X149120262Y-116923070D01*
X149334133Y-116818295D01*
X149338336Y-116815297D01*
X149338341Y-116815294D01*
X149523816Y-116682996D01*
X149523818Y-116682994D01*
X149528020Y-116679997D01*
X149696716Y-116511889D01*
X149835690Y-116318486D01*
X149881774Y-116225244D01*
X149938917Y-116109624D01*
X149938918Y-116109622D01*
X149941211Y-116104982D01*
X150010443Y-115877111D01*
X150041529Y-115640992D01*
X150043264Y-115570000D01*
X150023750Y-115332644D01*
X149965731Y-115101663D01*
X149870767Y-114883259D01*
X149853694Y-114856867D01*
X149791365Y-114760522D01*
X149741406Y-114683298D01*
X149581124Y-114507150D01*
X149577073Y-114503951D01*
X149577069Y-114503947D01*
X149443348Y-114398342D01*
X149402285Y-114340425D01*
X149399053Y-114269502D01*
X149434678Y-114208091D01*
X149448271Y-114196882D01*
X149523814Y-114142998D01*
X149523821Y-114142992D01*
X149528020Y-114139997D01*
X149696716Y-113971889D01*
X149835690Y-113778486D01*
X149881774Y-113685244D01*
X149938917Y-113569624D01*
X149938918Y-113569622D01*
X149941211Y-113564982D01*
X150010443Y-113337111D01*
X150014392Y-113307115D01*
X150041092Y-113104313D01*
X150041092Y-113104309D01*
X150041529Y-113100992D01*
X150043264Y-113030000D01*
X150023750Y-112792644D01*
X149965731Y-112561663D01*
X149870767Y-112343259D01*
X149853694Y-112316867D01*
X149791365Y-112220522D01*
X149741406Y-112143298D01*
X149581124Y-111967150D01*
X149577073Y-111963951D01*
X149577069Y-111963947D01*
X149443348Y-111858342D01*
X149402285Y-111800425D01*
X149399053Y-111729502D01*
X149434678Y-111668091D01*
X149448271Y-111656882D01*
X149523814Y-111602998D01*
X149523821Y-111602992D01*
X149528020Y-111599997D01*
X149696716Y-111431889D01*
X149835690Y-111238486D01*
X149838454Y-111232895D01*
X149938917Y-111029624D01*
X149938918Y-111029622D01*
X149941211Y-111024982D01*
X150010443Y-110797111D01*
X150041529Y-110560992D01*
X150043264Y-110490000D01*
X150023750Y-110252644D01*
X150003028Y-110170148D01*
X150005832Y-110099208D01*
X150036137Y-110050358D01*
X152016472Y-108070024D01*
X152078784Y-108035998D01*
X152149600Y-108041063D01*
X152206435Y-108083610D01*
X152227809Y-108142259D01*
X152230359Y-108141901D01*
X152232514Y-108157237D01*
X152282580Y-108379393D01*
X152285659Y-108389221D01*
X152371338Y-108600223D01*
X152375991Y-108609434D01*
X152471153Y-108764723D01*
X152481611Y-108774185D01*
X152490387Y-108770402D01*
X153297979Y-107962811D01*
X153304356Y-107951132D01*
X154034408Y-107951132D01*
X154034539Y-107952966D01*
X154038790Y-107959580D01*
X154844826Y-108765615D01*
X154856832Y-108772171D01*
X154861671Y-108768474D01*
X154927946Y-108743015D01*
X154997464Y-108757428D01*
X155021418Y-108774268D01*
X155030387Y-108770402D01*
X155837979Y-107962811D01*
X155844356Y-107951132D01*
X156574408Y-107951132D01*
X156574539Y-107952966D01*
X156578790Y-107959580D01*
X157384826Y-108765615D01*
X157396832Y-108772171D01*
X157408571Y-108763202D01*
X157452241Y-108702429D01*
X157457551Y-108693592D01*
X157558450Y-108489438D01*
X157562249Y-108479843D01*
X157628449Y-108261957D01*
X157630628Y-108251876D01*
X157660591Y-108024288D01*
X157661110Y-108017615D01*
X157662680Y-107953365D01*
X157662486Y-107946646D01*
X157659270Y-107907526D01*
X199152050Y-107907526D01*
X199152274Y-107912192D01*
X199152274Y-107912197D01*
X199157338Y-108017615D01*
X199164947Y-108176019D01*
X199217388Y-108439656D01*
X199308220Y-108692646D01*
X199310432Y-108696762D01*
X199310433Y-108696765D01*
X199352033Y-108774185D01*
X199435450Y-108929431D01*
X199438241Y-108933168D01*
X199438245Y-108933175D01*
X199518222Y-109040276D01*
X199596281Y-109144810D01*
X199599590Y-109148090D01*
X199599595Y-109148096D01*
X199771334Y-109318342D01*
X199787180Y-109334050D01*
X199790942Y-109336808D01*
X199790945Y-109336811D01*
X200000183Y-109490230D01*
X200003954Y-109492995D01*
X200008089Y-109495171D01*
X200008093Y-109495173D01*
X200221860Y-109607642D01*
X200241840Y-109618154D01*
X200384346Y-109667919D01*
X200420436Y-109680522D01*
X200495613Y-109706775D01*
X200500206Y-109707647D01*
X200755109Y-109756042D01*
X200755112Y-109756042D01*
X200759698Y-109756913D01*
X200887370Y-109761929D01*
X201023625Y-109767283D01*
X201023630Y-109767283D01*
X201028293Y-109767466D01*
X201132607Y-109756042D01*
X201290844Y-109738713D01*
X201290850Y-109738712D01*
X201295497Y-109738203D01*
X201300021Y-109737012D01*
X201550918Y-109670956D01*
X201550920Y-109670955D01*
X201555441Y-109669765D01*
X201559738Y-109667919D01*
X201798120Y-109565502D01*
X201798122Y-109565501D01*
X201802414Y-109563657D01*
X201921071Y-109490230D01*
X202027017Y-109424669D01*
X202027021Y-109424666D01*
X202030990Y-109422210D01*
X202236149Y-109248530D01*
X202413382Y-109046434D01*
X202558797Y-108820361D01*
X202669199Y-108575278D01*
X202693356Y-108489624D01*
X202740893Y-108321072D01*
X202740894Y-108321069D01*
X202742163Y-108316568D01*
X202760043Y-108176019D01*
X202775688Y-108053045D01*
X202775688Y-108053041D01*
X202776086Y-108049915D01*
X202776451Y-108035998D01*
X202778488Y-107958160D01*
X202778571Y-107955000D01*
X202777950Y-107946646D01*
X202758996Y-107691592D01*
X202758996Y-107691591D01*
X202758650Y-107686937D01*
X202754639Y-107669209D01*
X202700361Y-107429331D01*
X202700360Y-107429326D01*
X202699327Y-107424763D01*
X202601902Y-107174238D01*
X202468518Y-106940864D01*
X202448260Y-106915166D01*
X202343652Y-106782472D01*
X202302105Y-106729769D01*
X202106317Y-106545591D01*
X201885457Y-106392374D01*
X201881264Y-106390306D01*
X201648564Y-106275551D01*
X201648561Y-106275550D01*
X201644376Y-106273486D01*
X201596745Y-106258239D01*
X201479516Y-106220714D01*
X201388370Y-106191538D01*
X201383763Y-106190788D01*
X201383760Y-106190787D01*
X201127674Y-106149081D01*
X201127675Y-106149081D01*
X201123063Y-106148330D01*
X200992719Y-106146624D01*
X200858961Y-106144873D01*
X200858958Y-106144873D01*
X200854284Y-106144812D01*
X200587937Y-106181060D01*
X200329874Y-106256278D01*
X200085763Y-106368815D01*
X200081854Y-106371378D01*
X199864881Y-106513631D01*
X199864876Y-106513635D01*
X199860968Y-106516197D01*
X199833869Y-106540384D01*
X199710728Y-106650292D01*
X199660426Y-106695188D01*
X199488544Y-106901854D01*
X199349096Y-107131656D01*
X199347287Y-107135970D01*
X199347285Y-107135974D01*
X199291924Y-107267996D01*
X199245148Y-107379545D01*
X199178981Y-107640077D01*
X199152050Y-107907526D01*
X157659270Y-107907526D01*
X157643679Y-107717887D01*
X157641994Y-107707707D01*
X157586515Y-107486837D01*
X157583195Y-107477086D01*
X157492384Y-107268233D01*
X157487518Y-107259158D01*
X157408008Y-107136256D01*
X157397322Y-107127052D01*
X157387755Y-107131456D01*
X156582021Y-107937189D01*
X156574408Y-107951132D01*
X155844356Y-107951132D01*
X155845592Y-107948868D01*
X155845461Y-107947034D01*
X155841210Y-107940420D01*
X155035220Y-107134431D01*
X155023688Y-107128134D01*
X155018721Y-107132026D01*
X154952762Y-107158293D01*
X154883073Y-107144730D01*
X154858788Y-107128315D01*
X154857321Y-107127052D01*
X154847756Y-107131455D01*
X154042021Y-107937189D01*
X154034408Y-107951132D01*
X153304356Y-107951132D01*
X153305592Y-107948868D01*
X153305461Y-107947034D01*
X153301210Y-107940420D01*
X152513605Y-107152816D01*
X152479580Y-107090503D01*
X152476700Y-107063720D01*
X152476700Y-106570152D01*
X152496702Y-106502031D01*
X152550358Y-106455538D01*
X152620632Y-106445434D01*
X152683185Y-106473208D01*
X152825535Y-106591389D01*
X152865170Y-106650291D01*
X152866668Y-106721272D01*
X152846887Y-106761929D01*
X152853825Y-106774614D01*
X153657189Y-107577979D01*
X153671132Y-107585592D01*
X153672966Y-107585461D01*
X153679580Y-107581210D01*
X154487331Y-106773458D01*
X154494348Y-106760607D01*
X154492815Y-106758503D01*
X154468865Y-106691668D01*
X154484851Y-106622495D01*
X154521480Y-106581726D01*
X154608020Y-106519997D01*
X154776716Y-106351889D01*
X154834979Y-106270807D01*
X154890972Y-106227160D01*
X154961676Y-106220714D01*
X155024640Y-106253516D01*
X155036582Y-106267176D01*
X155037274Y-106268306D01*
X155193204Y-106448317D01*
X155283158Y-106522998D01*
X155365535Y-106591389D01*
X155405170Y-106650292D01*
X155406668Y-106721272D01*
X155386887Y-106761929D01*
X155393825Y-106774614D01*
X156197189Y-107577979D01*
X156211132Y-107585592D01*
X156212966Y-107585461D01*
X156219580Y-107581210D01*
X157027331Y-106773458D01*
X157034348Y-106760607D01*
X157032815Y-106758503D01*
X157008865Y-106691668D01*
X157024851Y-106622495D01*
X157061480Y-106581726D01*
X157148020Y-106519997D01*
X157316716Y-106351889D01*
X157455690Y-106158486D01*
X157460339Y-106149081D01*
X157558917Y-105949624D01*
X157558918Y-105949622D01*
X157561211Y-105944982D01*
X157630443Y-105717111D01*
X157661529Y-105480992D01*
X157663264Y-105410000D01*
X157643750Y-105172644D01*
X157585731Y-104941663D01*
X157490767Y-104723259D01*
X157473694Y-104696867D01*
X157411365Y-104600522D01*
X157361406Y-104523298D01*
X157201124Y-104347150D01*
X157197073Y-104343951D01*
X157197069Y-104343947D01*
X157117959Y-104281470D01*
X157063347Y-104238341D01*
X157022285Y-104180425D01*
X157019053Y-104109502D01*
X157054678Y-104048091D01*
X157068271Y-104036882D01*
X157143814Y-103982998D01*
X157143821Y-103982992D01*
X157148020Y-103979997D01*
X157316716Y-103811889D01*
X157325407Y-103799795D01*
X157373972Y-103732209D01*
X157455690Y-103618486D01*
X157501774Y-103525244D01*
X157558917Y-103409624D01*
X157558918Y-103409622D01*
X157561211Y-103404982D01*
X157609410Y-103246339D01*
X157628941Y-103182055D01*
X157628941Y-103182054D01*
X157630443Y-103177111D01*
X157631118Y-103171985D01*
X157661092Y-102944313D01*
X157661092Y-102944309D01*
X157661529Y-102940992D01*
X157663264Y-102870000D01*
X157643750Y-102632644D01*
X157585731Y-102401663D01*
X157490767Y-102183259D01*
X157473694Y-102156867D01*
X157411365Y-102060522D01*
X157361406Y-101983298D01*
X157201124Y-101807150D01*
X157197073Y-101803951D01*
X157197069Y-101803947D01*
X157063348Y-101698342D01*
X157022285Y-101640425D01*
X157019053Y-101569502D01*
X157054678Y-101508091D01*
X157068271Y-101496882D01*
X157143814Y-101442998D01*
X157143821Y-101442992D01*
X157148020Y-101439997D01*
X157316716Y-101271889D01*
X157455690Y-101078486D01*
X157501774Y-100985244D01*
X157558917Y-100869624D01*
X157558918Y-100869622D01*
X157561211Y-100864982D01*
X157618232Y-100677301D01*
X157628941Y-100642055D01*
X157628941Y-100642054D01*
X157630443Y-100637111D01*
X157661529Y-100400992D01*
X157663264Y-100330000D01*
X157643750Y-100092644D01*
X157585731Y-99861663D01*
X157504568Y-99675000D01*
X197441502Y-99675000D01*
X197461457Y-99903087D01*
X197462881Y-99908400D01*
X197462881Y-99908402D01*
X197501547Y-100052702D01*
X197520716Y-100124243D01*
X197523039Y-100129224D01*
X197523039Y-100129225D01*
X197615151Y-100326762D01*
X197615154Y-100326767D01*
X197617477Y-100331749D01*
X197748802Y-100519300D01*
X197910700Y-100681198D01*
X197915208Y-100684355D01*
X197915211Y-100684357D01*
X197966482Y-100720257D01*
X198098251Y-100812523D01*
X198103233Y-100814846D01*
X198103238Y-100814849D01*
X198210750Y-100864982D01*
X198305757Y-100909284D01*
X198311065Y-100910706D01*
X198311067Y-100910707D01*
X198521598Y-100967119D01*
X198521600Y-100967119D01*
X198526913Y-100968543D01*
X198755000Y-100988498D01*
X198983087Y-100968543D01*
X198988400Y-100967119D01*
X198988402Y-100967119D01*
X199198933Y-100910707D01*
X199198935Y-100910706D01*
X199204243Y-100909284D01*
X199299250Y-100864982D01*
X199406762Y-100814849D01*
X199406767Y-100814846D01*
X199411749Y-100812523D01*
X199543518Y-100720257D01*
X199594789Y-100684357D01*
X199594792Y-100684355D01*
X199599300Y-100681198D01*
X199761198Y-100519300D01*
X199892523Y-100331749D01*
X199894846Y-100326767D01*
X199894849Y-100326762D01*
X199986961Y-100129225D01*
X199986961Y-100129224D01*
X199989284Y-100124243D01*
X200008454Y-100052702D01*
X200047119Y-99908402D01*
X200047119Y-99908400D01*
X200048543Y-99903087D01*
X200068498Y-99675000D01*
X200616502Y-99675000D01*
X200636457Y-99903087D01*
X200637881Y-99908400D01*
X200637881Y-99908402D01*
X200676547Y-100052702D01*
X200695716Y-100124243D01*
X200698039Y-100129224D01*
X200698039Y-100129225D01*
X200790151Y-100326762D01*
X200790154Y-100326767D01*
X200792477Y-100331749D01*
X200923802Y-100519300D01*
X201085700Y-100681198D01*
X201090208Y-100684355D01*
X201090211Y-100684357D01*
X201141482Y-100720257D01*
X201273251Y-100812523D01*
X201278233Y-100814846D01*
X201278238Y-100814849D01*
X201385750Y-100864982D01*
X201480757Y-100909284D01*
X201486065Y-100910706D01*
X201486067Y-100910707D01*
X201696598Y-100967119D01*
X201696600Y-100967119D01*
X201701913Y-100968543D01*
X201930000Y-100988498D01*
X202158087Y-100968543D01*
X202163400Y-100967119D01*
X202163402Y-100967119D01*
X202373933Y-100910707D01*
X202373935Y-100910706D01*
X202379243Y-100909284D01*
X202474250Y-100864982D01*
X202581762Y-100814849D01*
X202581767Y-100814846D01*
X202586749Y-100812523D01*
X202718518Y-100720257D01*
X202769789Y-100684357D01*
X202769792Y-100684355D01*
X202774300Y-100681198D01*
X202936198Y-100519300D01*
X203067523Y-100331749D01*
X203069846Y-100326767D01*
X203069849Y-100326762D01*
X203161961Y-100129225D01*
X203161961Y-100129224D01*
X203164284Y-100124243D01*
X203183454Y-100052702D01*
X203222119Y-99908402D01*
X203222119Y-99908400D01*
X203223543Y-99903087D01*
X203243498Y-99675000D01*
X203223543Y-99446913D01*
X203216251Y-99419699D01*
X203165707Y-99231067D01*
X203165706Y-99231065D01*
X203164284Y-99225757D01*
X203146021Y-99186591D01*
X203069849Y-99023238D01*
X203069846Y-99023233D01*
X203067523Y-99018251D01*
X202936198Y-98830700D01*
X202774300Y-98668802D01*
X202769792Y-98665645D01*
X202769789Y-98665643D01*
X202680614Y-98603202D01*
X202586749Y-98537477D01*
X202581767Y-98535154D01*
X202581762Y-98535151D01*
X202384225Y-98443039D01*
X202384224Y-98443039D01*
X202379243Y-98440716D01*
X202373935Y-98439294D01*
X202373933Y-98439293D01*
X202163402Y-98382881D01*
X202163400Y-98382881D01*
X202158087Y-98381457D01*
X201930000Y-98361502D01*
X201701913Y-98381457D01*
X201696600Y-98382881D01*
X201696598Y-98382881D01*
X201486067Y-98439293D01*
X201486065Y-98439294D01*
X201480757Y-98440716D01*
X201475776Y-98443039D01*
X201475775Y-98443039D01*
X201278238Y-98535151D01*
X201278233Y-98535154D01*
X201273251Y-98537477D01*
X201179386Y-98603202D01*
X201090211Y-98665643D01*
X201090208Y-98665645D01*
X201085700Y-98668802D01*
X200923802Y-98830700D01*
X200792477Y-99018251D01*
X200790154Y-99023233D01*
X200790151Y-99023238D01*
X200713979Y-99186591D01*
X200695716Y-99225757D01*
X200694294Y-99231065D01*
X200694293Y-99231067D01*
X200643749Y-99419699D01*
X200636457Y-99446913D01*
X200616502Y-99675000D01*
X200068498Y-99675000D01*
X200048543Y-99446913D01*
X200041251Y-99419699D01*
X199990707Y-99231067D01*
X199990706Y-99231065D01*
X199989284Y-99225757D01*
X199971021Y-99186591D01*
X199894849Y-99023238D01*
X199894846Y-99023233D01*
X199892523Y-99018251D01*
X199761198Y-98830700D01*
X199599300Y-98668802D01*
X199594792Y-98665645D01*
X199594789Y-98665643D01*
X199505614Y-98603202D01*
X199411749Y-98537477D01*
X199406767Y-98535154D01*
X199406762Y-98535151D01*
X199209225Y-98443039D01*
X199209224Y-98443039D01*
X199204243Y-98440716D01*
X199198935Y-98439294D01*
X199198933Y-98439293D01*
X198988402Y-98382881D01*
X198988400Y-98382881D01*
X198983087Y-98381457D01*
X198755000Y-98361502D01*
X198526913Y-98381457D01*
X198521600Y-98382881D01*
X198521598Y-98382881D01*
X198311067Y-98439293D01*
X198311065Y-98439294D01*
X198305757Y-98440716D01*
X198300776Y-98443039D01*
X198300775Y-98443039D01*
X198103238Y-98535151D01*
X198103233Y-98535154D01*
X198098251Y-98537477D01*
X198004386Y-98603202D01*
X197915211Y-98665643D01*
X197915208Y-98665645D01*
X197910700Y-98668802D01*
X197748802Y-98830700D01*
X197617477Y-99018251D01*
X197615154Y-99023233D01*
X197615151Y-99023238D01*
X197538979Y-99186591D01*
X197520716Y-99225757D01*
X197519294Y-99231065D01*
X197519293Y-99231067D01*
X197468749Y-99419699D01*
X197461457Y-99446913D01*
X197441502Y-99675000D01*
X157504568Y-99675000D01*
X157490767Y-99643259D01*
X157473694Y-99616867D01*
X157411365Y-99520522D01*
X157361406Y-99443298D01*
X157201124Y-99267150D01*
X157197073Y-99263951D01*
X157197069Y-99263947D01*
X157054932Y-99151695D01*
X157013869Y-99093778D01*
X157010637Y-99022855D01*
X157032406Y-98978113D01*
X157025045Y-98964256D01*
X156222811Y-98162021D01*
X156208868Y-98154408D01*
X156207034Y-98154539D01*
X156200420Y-98158790D01*
X155391083Y-98968128D01*
X155384326Y-98980503D01*
X155384760Y-98981083D01*
X155409572Y-99047603D01*
X155394481Y-99116977D01*
X155359546Y-99157353D01*
X155258488Y-99233230D01*
X155245140Y-99243252D01*
X155080602Y-99415431D01*
X155058629Y-99447642D01*
X155045186Y-99467349D01*
X154990274Y-99512351D01*
X154919749Y-99520522D01*
X154856002Y-99489267D01*
X154835306Y-99464784D01*
X154824217Y-99447642D01*
X154824212Y-99447636D01*
X154821406Y-99443298D01*
X154661124Y-99267150D01*
X154657073Y-99263951D01*
X154657069Y-99263947D01*
X154514932Y-99151695D01*
X154473869Y-99093778D01*
X154470637Y-99022855D01*
X154492406Y-98978113D01*
X154485045Y-98964256D01*
X153682811Y-98162021D01*
X153668868Y-98154408D01*
X153667034Y-98154539D01*
X153660420Y-98158790D01*
X152851083Y-98968128D01*
X152844326Y-98980503D01*
X152844760Y-98981083D01*
X152869572Y-99047603D01*
X152854481Y-99116977D01*
X152819546Y-99157353D01*
X152718488Y-99233230D01*
X152705140Y-99243252D01*
X152540602Y-99415431D01*
X152537691Y-99419699D01*
X152537687Y-99419704D01*
X152505186Y-99467349D01*
X152406394Y-99612172D01*
X152306122Y-99828191D01*
X152242477Y-100057685D01*
X152241928Y-100062819D01*
X152241928Y-100062821D01*
X152236449Y-100114089D01*
X152217170Y-100294494D01*
X152217467Y-100299646D01*
X152217467Y-100299650D01*
X152223502Y-100404313D01*
X152230879Y-100532255D01*
X152232016Y-100537301D01*
X152232017Y-100537307D01*
X152257987Y-100652543D01*
X152253451Y-100723395D01*
X152224165Y-100769339D01*
X150241738Y-102751766D01*
X150179426Y-102785792D01*
X150108611Y-102780727D01*
X150051775Y-102738180D01*
X150027067Y-102672994D01*
X150024174Y-102637805D01*
X150023750Y-102632644D01*
X149965731Y-102401663D01*
X149870767Y-102183259D01*
X149853694Y-102156867D01*
X149791365Y-102060522D01*
X149741406Y-101983298D01*
X149581124Y-101807150D01*
X149577073Y-101803951D01*
X149577069Y-101803947D01*
X149443348Y-101698342D01*
X149402285Y-101640425D01*
X149399053Y-101569502D01*
X149434678Y-101508091D01*
X149448271Y-101496882D01*
X149523814Y-101442998D01*
X149523821Y-101442992D01*
X149528020Y-101439997D01*
X149696716Y-101271889D01*
X149835690Y-101078486D01*
X149881774Y-100985244D01*
X149938917Y-100869624D01*
X149938918Y-100869622D01*
X149941211Y-100864982D01*
X149998232Y-100677301D01*
X150008941Y-100642055D01*
X150008941Y-100642054D01*
X150010443Y-100637111D01*
X150041529Y-100400992D01*
X150043264Y-100330000D01*
X150023750Y-100092644D01*
X149965731Y-99861663D01*
X149870767Y-99643259D01*
X149853694Y-99616867D01*
X149791365Y-99520522D01*
X149741406Y-99443298D01*
X149581124Y-99267150D01*
X149577073Y-99263951D01*
X149577069Y-99263947D01*
X149478509Y-99186110D01*
X149443347Y-99158341D01*
X149402285Y-99100425D01*
X149399053Y-99029502D01*
X149434678Y-98968091D01*
X149448271Y-98956882D01*
X149523814Y-98902998D01*
X149523821Y-98902992D01*
X149528020Y-98899997D01*
X149696716Y-98731889D01*
X149835690Y-98538486D01*
X149881774Y-98445244D01*
X149938917Y-98329624D01*
X149938918Y-98329622D01*
X149941211Y-98324982D01*
X150010443Y-98097111D01*
X150041529Y-97860992D01*
X150043264Y-97790000D01*
X150040770Y-97759662D01*
X152217969Y-97759662D01*
X152231078Y-97987017D01*
X152232514Y-97997237D01*
X152282580Y-98219393D01*
X152285659Y-98229221D01*
X152371338Y-98440223D01*
X152375991Y-98449434D01*
X152471153Y-98604723D01*
X152481611Y-98614185D01*
X152490387Y-98610402D01*
X153297979Y-97802811D01*
X153304356Y-97791132D01*
X154034408Y-97791132D01*
X154034539Y-97792966D01*
X154038790Y-97799580D01*
X154844826Y-98605615D01*
X154856832Y-98612171D01*
X154861671Y-98608474D01*
X154927946Y-98583015D01*
X154997464Y-98597428D01*
X155021418Y-98614268D01*
X155030387Y-98610402D01*
X155837979Y-97802811D01*
X155844356Y-97791132D01*
X156574408Y-97791132D01*
X156574539Y-97792966D01*
X156578790Y-97799580D01*
X157384826Y-98605615D01*
X157396832Y-98612171D01*
X157408571Y-98603202D01*
X157452241Y-98542429D01*
X157457551Y-98533592D01*
X157558450Y-98329438D01*
X157562249Y-98319843D01*
X157628449Y-98101957D01*
X157630628Y-98091876D01*
X157660591Y-97864288D01*
X157661110Y-97857615D01*
X157662680Y-97793365D01*
X157662486Y-97786646D01*
X157659843Y-97754494D01*
X185237170Y-97754494D01*
X185237467Y-97759646D01*
X185237467Y-97759650D01*
X185243502Y-97864313D01*
X185250879Y-97992255D01*
X185252016Y-97997301D01*
X185252017Y-97997307D01*
X185285111Y-98144156D01*
X185303237Y-98224585D01*
X185305179Y-98229367D01*
X185305180Y-98229371D01*
X185390798Y-98440223D01*
X185392837Y-98445244D01*
X185481978Y-98590708D01*
X185512676Y-98640802D01*
X185517274Y-98648306D01*
X185673204Y-98828317D01*
X185856442Y-98980444D01*
X185860894Y-98983046D01*
X185860899Y-98983049D01*
X185959333Y-99040569D01*
X186062065Y-99100601D01*
X186284552Y-99185560D01*
X186289618Y-99186591D01*
X186289619Y-99186591D01*
X186343956Y-99197646D01*
X186517928Y-99233041D01*
X186652121Y-99237962D01*
X186750760Y-99241579D01*
X186750764Y-99241579D01*
X186755924Y-99241768D01*
X186761044Y-99241112D01*
X186761046Y-99241112D01*
X186987023Y-99212164D01*
X186987024Y-99212164D01*
X186992151Y-99211507D01*
X187076803Y-99186110D01*
X187215316Y-99144554D01*
X187215317Y-99144553D01*
X187220262Y-99143070D01*
X187434133Y-99038295D01*
X187438336Y-99035297D01*
X187438341Y-99035294D01*
X187623816Y-98902996D01*
X187623818Y-98902994D01*
X187628020Y-98899997D01*
X187796716Y-98731889D01*
X187854979Y-98650807D01*
X187910972Y-98607160D01*
X187981676Y-98600714D01*
X188044640Y-98633516D01*
X188056582Y-98647176D01*
X188057274Y-98648306D01*
X188213204Y-98828317D01*
X188396442Y-98980444D01*
X188400894Y-98983046D01*
X188400899Y-98983049D01*
X188499333Y-99040569D01*
X188602065Y-99100601D01*
X188824552Y-99185560D01*
X188829618Y-99186591D01*
X188829619Y-99186591D01*
X188883956Y-99197646D01*
X189057928Y-99233041D01*
X189192121Y-99237962D01*
X189290760Y-99241579D01*
X189290764Y-99241579D01*
X189295924Y-99241768D01*
X189301044Y-99241112D01*
X189301046Y-99241112D01*
X189527023Y-99212164D01*
X189527024Y-99212164D01*
X189532151Y-99211507D01*
X189616803Y-99186110D01*
X189755316Y-99144554D01*
X189755317Y-99144553D01*
X189760262Y-99143070D01*
X189974133Y-99038295D01*
X189978336Y-99035297D01*
X189978341Y-99035294D01*
X190055155Y-98980503D01*
X190944326Y-98980503D01*
X190949607Y-98987558D01*
X191137821Y-99097541D01*
X191147108Y-99101991D01*
X191359861Y-99183233D01*
X191369763Y-99186110D01*
X191592911Y-99231510D01*
X191603163Y-99232733D01*
X191830738Y-99241077D01*
X191841024Y-99240610D01*
X192066915Y-99211673D01*
X192077001Y-99209530D01*
X192295128Y-99144088D01*
X192304723Y-99140328D01*
X192509237Y-99040137D01*
X192518083Y-99034863D01*
X192583631Y-98988108D01*
X192592032Y-98977408D01*
X192585045Y-98964256D01*
X191782811Y-98162021D01*
X191768868Y-98154408D01*
X191767034Y-98154539D01*
X191760420Y-98158790D01*
X190951083Y-98968128D01*
X190944326Y-98980503D01*
X190055155Y-98980503D01*
X190163816Y-98902996D01*
X190163818Y-98902994D01*
X190168020Y-98899997D01*
X190336716Y-98731889D01*
X190339732Y-98727692D01*
X190339739Y-98727684D01*
X190402170Y-98640802D01*
X190458164Y-98597154D01*
X190528868Y-98590708D01*
X190575626Y-98614169D01*
X190579976Y-98614890D01*
X190590387Y-98610402D01*
X191397979Y-97802811D01*
X191404356Y-97791132D01*
X192134408Y-97791132D01*
X192134539Y-97792966D01*
X192138790Y-97799580D01*
X192944826Y-98605615D01*
X192956832Y-98612171D01*
X192968571Y-98603202D01*
X193012241Y-98542429D01*
X193017551Y-98533592D01*
X193118450Y-98329438D01*
X193122249Y-98319843D01*
X193188449Y-98101957D01*
X193190628Y-98091876D01*
X193220591Y-97864288D01*
X193221110Y-97857615D01*
X193222680Y-97793365D01*
X193222486Y-97786646D01*
X193203679Y-97557887D01*
X193201994Y-97547707D01*
X193146515Y-97326837D01*
X193143195Y-97317086D01*
X193052384Y-97108233D01*
X193047518Y-97099158D01*
X192968008Y-96976256D01*
X192957322Y-96967052D01*
X192947755Y-96971456D01*
X192142021Y-97777189D01*
X192134408Y-97791132D01*
X191404356Y-97791132D01*
X191405592Y-97788868D01*
X191405461Y-97787034D01*
X191401210Y-97780420D01*
X190595220Y-96974431D01*
X190582803Y-96967651D01*
X190519899Y-96992699D01*
X190450210Y-96979135D01*
X190402360Y-96935688D01*
X190384216Y-96907642D01*
X190381406Y-96903298D01*
X190221124Y-96727150D01*
X190217073Y-96723951D01*
X190217069Y-96723947D01*
X190083348Y-96618342D01*
X190042285Y-96560425D01*
X190039053Y-96489502D01*
X190067478Y-96440503D01*
X190944326Y-96440503D01*
X190949727Y-96447718D01*
X190974539Y-96514238D01*
X190959448Y-96583612D01*
X190949837Y-96598592D01*
X190947081Y-96602284D01*
X190953825Y-96614614D01*
X191757189Y-97417979D01*
X191771132Y-97425592D01*
X191772966Y-97425461D01*
X191779580Y-97421210D01*
X192587331Y-96613458D01*
X192594348Y-96600607D01*
X192587690Y-96591469D01*
X192563740Y-96524634D01*
X192579727Y-96455460D01*
X192590420Y-96439460D01*
X192592031Y-96437408D01*
X192585045Y-96424256D01*
X191782811Y-95622021D01*
X191768868Y-95614408D01*
X191767034Y-95614539D01*
X191760420Y-95618790D01*
X190951083Y-96428128D01*
X190944326Y-96440503D01*
X190067478Y-96440503D01*
X190074678Y-96428091D01*
X190088271Y-96416882D01*
X190163814Y-96362998D01*
X190163821Y-96362992D01*
X190168020Y-96359997D01*
X190336716Y-96191889D01*
X190339732Y-96187692D01*
X190339739Y-96187684D01*
X190402170Y-96100802D01*
X190458164Y-96057154D01*
X190528868Y-96050708D01*
X190575626Y-96074169D01*
X190579976Y-96074890D01*
X190590387Y-96070402D01*
X191397979Y-95262811D01*
X191404356Y-95251132D01*
X192134408Y-95251132D01*
X192134539Y-95252966D01*
X192138790Y-95259580D01*
X192944826Y-96065615D01*
X192956832Y-96072171D01*
X192968571Y-96063202D01*
X193012241Y-96002429D01*
X193017551Y-95993592D01*
X193118450Y-95789438D01*
X193122249Y-95779843D01*
X193188449Y-95561957D01*
X193190628Y-95551876D01*
X193220591Y-95324288D01*
X193221110Y-95317615D01*
X193222680Y-95253365D01*
X193222486Y-95246646D01*
X193221117Y-95230000D01*
X194266502Y-95230000D01*
X194286457Y-95458087D01*
X194287881Y-95463400D01*
X194287881Y-95463402D01*
X194329518Y-95618790D01*
X194345716Y-95679243D01*
X194348039Y-95684224D01*
X194348039Y-95684225D01*
X194440151Y-95881762D01*
X194440154Y-95881767D01*
X194442477Y-95886749D01*
X194458511Y-95909648D01*
X194569723Y-96068474D01*
X194573802Y-96074300D01*
X194735700Y-96236198D01*
X194740208Y-96239355D01*
X194740211Y-96239357D01*
X194804554Y-96284410D01*
X194923251Y-96367523D01*
X194928233Y-96369846D01*
X194928238Y-96369849D01*
X195125775Y-96461961D01*
X195130757Y-96464284D01*
X195136065Y-96465706D01*
X195136067Y-96465707D01*
X195346598Y-96522119D01*
X195346600Y-96522119D01*
X195351913Y-96523543D01*
X195580000Y-96543498D01*
X195808087Y-96523543D01*
X195813400Y-96522119D01*
X195813402Y-96522119D01*
X196023933Y-96465707D01*
X196023935Y-96465706D01*
X196029243Y-96464284D01*
X196034225Y-96461961D01*
X196231762Y-96369849D01*
X196231767Y-96369846D01*
X196236749Y-96367523D01*
X196355446Y-96284410D01*
X196419789Y-96239357D01*
X196419792Y-96239355D01*
X196424300Y-96236198D01*
X196586198Y-96074300D01*
X196590278Y-96068474D01*
X196701489Y-95909648D01*
X196717523Y-95886749D01*
X196719846Y-95881767D01*
X196719849Y-95881762D01*
X196811961Y-95684225D01*
X196811961Y-95684224D01*
X196814284Y-95679243D01*
X196830483Y-95618790D01*
X196872119Y-95463402D01*
X196872119Y-95463400D01*
X196873543Y-95458087D01*
X196893498Y-95230000D01*
X196873543Y-95001913D01*
X196842340Y-94885461D01*
X196815707Y-94786067D01*
X196815706Y-94786065D01*
X196814284Y-94780757D01*
X196801426Y-94753183D01*
X196719849Y-94578238D01*
X196719846Y-94578233D01*
X196717523Y-94573251D01*
X196620320Y-94434431D01*
X196589357Y-94390211D01*
X196589355Y-94390208D01*
X196586198Y-94385700D01*
X196424300Y-94223802D01*
X196419792Y-94220645D01*
X196419789Y-94220643D01*
X196241253Y-94095631D01*
X196236749Y-94092477D01*
X196231765Y-94090153D01*
X196229472Y-94088829D01*
X196180479Y-94037447D01*
X196167043Y-93967733D01*
X196193429Y-93901822D01*
X196229472Y-93870591D01*
X196241002Y-93863934D01*
X196293048Y-93827491D01*
X196301424Y-93817012D01*
X196294356Y-93803566D01*
X195592812Y-93102022D01*
X195578868Y-93094408D01*
X195577035Y-93094539D01*
X195570420Y-93098790D01*
X194864923Y-93804287D01*
X194858493Y-93816062D01*
X194867789Y-93828077D01*
X194918998Y-93863934D01*
X194930528Y-93870591D01*
X194979521Y-93921973D01*
X194992958Y-93991687D01*
X194966571Y-94057598D01*
X194930528Y-94088829D01*
X194928235Y-94090153D01*
X194923251Y-94092477D01*
X194918747Y-94095631D01*
X194740211Y-94220643D01*
X194740208Y-94220645D01*
X194735700Y-94223802D01*
X194573802Y-94385700D01*
X194570645Y-94390208D01*
X194570643Y-94390211D01*
X194539680Y-94434431D01*
X194442477Y-94573251D01*
X194440154Y-94578233D01*
X194440151Y-94578238D01*
X194358574Y-94753183D01*
X194345716Y-94780757D01*
X194344294Y-94786065D01*
X194344293Y-94786067D01*
X194317660Y-94885461D01*
X194286457Y-95001913D01*
X194266502Y-95230000D01*
X193221117Y-95230000D01*
X193203679Y-95017887D01*
X193201994Y-95007707D01*
X193146515Y-94786837D01*
X193143195Y-94777086D01*
X193052384Y-94568233D01*
X193047518Y-94559158D01*
X192968008Y-94436256D01*
X192957322Y-94427052D01*
X192947755Y-94431456D01*
X192142021Y-95237189D01*
X192134408Y-95251132D01*
X191404356Y-95251132D01*
X191405592Y-95248868D01*
X191405461Y-95247034D01*
X191401210Y-95240420D01*
X190595220Y-94434431D01*
X190582803Y-94427651D01*
X190519899Y-94452699D01*
X190450210Y-94439135D01*
X190402360Y-94395688D01*
X190396965Y-94387349D01*
X190381406Y-94363298D01*
X190221124Y-94187150D01*
X190217073Y-94183951D01*
X190217069Y-94183947D01*
X190105240Y-94095631D01*
X190083347Y-94078341D01*
X190042285Y-94020425D01*
X190039053Y-93949502D01*
X190067478Y-93900503D01*
X190944326Y-93900503D01*
X190949727Y-93907718D01*
X190974539Y-93974238D01*
X190959448Y-94043612D01*
X190949837Y-94058592D01*
X190947081Y-94062284D01*
X190953825Y-94074614D01*
X191757189Y-94877979D01*
X191771132Y-94885592D01*
X191772966Y-94885461D01*
X191779580Y-94881210D01*
X192587331Y-94073458D01*
X192594348Y-94060607D01*
X192587690Y-94051469D01*
X192563740Y-93984634D01*
X192579727Y-93915460D01*
X192590420Y-93899460D01*
X192592031Y-93897408D01*
X192585045Y-93884256D01*
X191782811Y-93082021D01*
X191768868Y-93074408D01*
X191767034Y-93074539D01*
X191760420Y-93078790D01*
X190951083Y-93888128D01*
X190944326Y-93900503D01*
X190067478Y-93900503D01*
X190074678Y-93888091D01*
X190088271Y-93876882D01*
X190163814Y-93822998D01*
X190163821Y-93822992D01*
X190168020Y-93819997D01*
X190336716Y-93651889D01*
X190339732Y-93647692D01*
X190339739Y-93647684D01*
X190402170Y-93560802D01*
X190458164Y-93517154D01*
X190528868Y-93510708D01*
X190575626Y-93534169D01*
X190579976Y-93534890D01*
X190590387Y-93530402D01*
X191397979Y-92722811D01*
X191404356Y-92711132D01*
X192134408Y-92711132D01*
X192134539Y-92712966D01*
X192138790Y-92719580D01*
X192944826Y-93525615D01*
X192956832Y-93532171D01*
X192968571Y-93523202D01*
X193012241Y-93462429D01*
X193017551Y-93453592D01*
X193118450Y-93249438D01*
X193122249Y-93239843D01*
X193188449Y-93021957D01*
X193190628Y-93011876D01*
X193220591Y-92784288D01*
X193221110Y-92777615D01*
X193222140Y-92735475D01*
X194267483Y-92735475D01*
X194286472Y-92952519D01*
X194288375Y-92963312D01*
X194344764Y-93173761D01*
X194348510Y-93184053D01*
X194440586Y-93381511D01*
X194446069Y-93391006D01*
X194482509Y-93443048D01*
X194492988Y-93451424D01*
X194506434Y-93444356D01*
X195207978Y-92742812D01*
X195214356Y-92731132D01*
X195944408Y-92731132D01*
X195944539Y-92732965D01*
X195948790Y-92739580D01*
X196654287Y-93445077D01*
X196666062Y-93451507D01*
X196678077Y-93442211D01*
X196713931Y-93391006D01*
X196719414Y-93381511D01*
X196811490Y-93184053D01*
X196815236Y-93173761D01*
X196871625Y-92963312D01*
X196873528Y-92952519D01*
X196892517Y-92735475D01*
X196892517Y-92724525D01*
X196873528Y-92507481D01*
X196871625Y-92496688D01*
X196815236Y-92286239D01*
X196811490Y-92275947D01*
X196719414Y-92078489D01*
X196713931Y-92068994D01*
X196677491Y-92016952D01*
X196667012Y-92008576D01*
X196653566Y-92015644D01*
X195952022Y-92717188D01*
X195944408Y-92731132D01*
X195214356Y-92731132D01*
X195215592Y-92728868D01*
X195215461Y-92727035D01*
X195211210Y-92720420D01*
X194505713Y-92014923D01*
X194493938Y-92008493D01*
X194481923Y-92017789D01*
X194446069Y-92068994D01*
X194440586Y-92078489D01*
X194348510Y-92275947D01*
X194344764Y-92286239D01*
X194288375Y-92496688D01*
X194286472Y-92507481D01*
X194267483Y-92724525D01*
X194267483Y-92735475D01*
X193222140Y-92735475D01*
X193222680Y-92713365D01*
X193222486Y-92706646D01*
X193203679Y-92477887D01*
X193201994Y-92467707D01*
X193146515Y-92246837D01*
X193143195Y-92237086D01*
X193052384Y-92028233D01*
X193047518Y-92019158D01*
X192968008Y-91896256D01*
X192957322Y-91887052D01*
X192947755Y-91891456D01*
X192142021Y-92697189D01*
X192134408Y-92711132D01*
X191404356Y-92711132D01*
X191405592Y-92708868D01*
X191405461Y-92707034D01*
X191401210Y-92700420D01*
X190595220Y-91894431D01*
X190582803Y-91887651D01*
X190519899Y-91912699D01*
X190450210Y-91899135D01*
X190402360Y-91855688D01*
X190384216Y-91827642D01*
X190381406Y-91823298D01*
X190221124Y-91647150D01*
X190217073Y-91643951D01*
X190217069Y-91643947D01*
X190137959Y-91581470D01*
X190083347Y-91538341D01*
X190042285Y-91480425D01*
X190039053Y-91409502D01*
X190074678Y-91348091D01*
X190088271Y-91336882D01*
X190163814Y-91282998D01*
X190163821Y-91282992D01*
X190168020Y-91279997D01*
X190336716Y-91111889D01*
X190394979Y-91030807D01*
X190450972Y-90987160D01*
X190521676Y-90980714D01*
X190584640Y-91013516D01*
X190596582Y-91027176D01*
X190597274Y-91028306D01*
X190753204Y-91208317D01*
X190843158Y-91282998D01*
X190925535Y-91351389D01*
X190965170Y-91410292D01*
X190966668Y-91481272D01*
X190946887Y-91521929D01*
X190953825Y-91534614D01*
X191757189Y-92337979D01*
X191771132Y-92345592D01*
X191772966Y-92345461D01*
X191779580Y-92341210D01*
X192477801Y-91642988D01*
X194858576Y-91642988D01*
X194865644Y-91656434D01*
X195567188Y-92357978D01*
X195581132Y-92365592D01*
X195582965Y-92365461D01*
X195589580Y-92361210D01*
X196295077Y-91655713D01*
X196301507Y-91643938D01*
X196292211Y-91631923D01*
X196241006Y-91596069D01*
X196231511Y-91590586D01*
X196034053Y-91498510D01*
X196023761Y-91494764D01*
X195813312Y-91438375D01*
X195802519Y-91436472D01*
X195585475Y-91417483D01*
X195574525Y-91417483D01*
X195357481Y-91436472D01*
X195346688Y-91438375D01*
X195136239Y-91494764D01*
X195125947Y-91498510D01*
X194928489Y-91590586D01*
X194918994Y-91596069D01*
X194866952Y-91632509D01*
X194858576Y-91642988D01*
X192477801Y-91642988D01*
X192587331Y-91533458D01*
X192594348Y-91520607D01*
X192592815Y-91518503D01*
X192568865Y-91451668D01*
X192584851Y-91382495D01*
X192621480Y-91341726D01*
X192708020Y-91279997D01*
X192876716Y-91111889D01*
X193015690Y-90918486D01*
X193061774Y-90825244D01*
X193118917Y-90709624D01*
X193118918Y-90709622D01*
X193121211Y-90704982D01*
X193190443Y-90477111D01*
X193221529Y-90240992D01*
X193223264Y-90170000D01*
X193203750Y-89932644D01*
X193165790Y-89781522D01*
X197472273Y-89781522D01*
X197519764Y-89958761D01*
X197523510Y-89969053D01*
X197615586Y-90166511D01*
X197621069Y-90176007D01*
X197746028Y-90354467D01*
X197753084Y-90362875D01*
X197907125Y-90516916D01*
X197915533Y-90523972D01*
X198093993Y-90648931D01*
X198103489Y-90654414D01*
X198300947Y-90746490D01*
X198311239Y-90750236D01*
X198483503Y-90796394D01*
X198497599Y-90796058D01*
X198501000Y-90788116D01*
X198501000Y-90782967D01*
X199009000Y-90782967D01*
X199012973Y-90796498D01*
X199021522Y-90797727D01*
X199198761Y-90750236D01*
X199209053Y-90746490D01*
X199406511Y-90654414D01*
X199416007Y-90648931D01*
X199594467Y-90523972D01*
X199602875Y-90516916D01*
X199756916Y-90362875D01*
X199763972Y-90354467D01*
X199888931Y-90176007D01*
X199894414Y-90166511D01*
X199986490Y-89969053D01*
X199990236Y-89958761D01*
X200036394Y-89786497D01*
X200036058Y-89772401D01*
X200028116Y-89769000D01*
X199027115Y-89769000D01*
X199011876Y-89773475D01*
X199010671Y-89774865D01*
X199009000Y-89782548D01*
X199009000Y-90782967D01*
X198501000Y-90782967D01*
X198501000Y-89787115D01*
X198496525Y-89771876D01*
X198495135Y-89770671D01*
X198487452Y-89769000D01*
X197487033Y-89769000D01*
X197473502Y-89772973D01*
X197472273Y-89781522D01*
X193165790Y-89781522D01*
X193145731Y-89701663D01*
X193064568Y-89515000D01*
X200616502Y-89515000D01*
X200636457Y-89743087D01*
X200637881Y-89748400D01*
X200637881Y-89748402D01*
X200676547Y-89892702D01*
X200695716Y-89964243D01*
X200698039Y-89969224D01*
X200698039Y-89969225D01*
X200790151Y-90166762D01*
X200790154Y-90166767D01*
X200792477Y-90171749D01*
X200923802Y-90359300D01*
X201085700Y-90521198D01*
X201090208Y-90524355D01*
X201090211Y-90524357D01*
X201168389Y-90579098D01*
X201273251Y-90652523D01*
X201278233Y-90654846D01*
X201278238Y-90654849D01*
X201385750Y-90704982D01*
X201480757Y-90749284D01*
X201486065Y-90750706D01*
X201486067Y-90750707D01*
X201696598Y-90807119D01*
X201696600Y-90807119D01*
X201701913Y-90808543D01*
X201930000Y-90828498D01*
X202158087Y-90808543D01*
X202163400Y-90807119D01*
X202163402Y-90807119D01*
X202373933Y-90750707D01*
X202373935Y-90750706D01*
X202379243Y-90749284D01*
X202474250Y-90704982D01*
X202581762Y-90654849D01*
X202581767Y-90654846D01*
X202586749Y-90652523D01*
X202691611Y-90579098D01*
X202769789Y-90524357D01*
X202769792Y-90524355D01*
X202774300Y-90521198D01*
X202936198Y-90359300D01*
X203067523Y-90171749D01*
X203069846Y-90166767D01*
X203069849Y-90166762D01*
X203161961Y-89969225D01*
X203161961Y-89969224D01*
X203164284Y-89964243D01*
X203183454Y-89892702D01*
X203222119Y-89748402D01*
X203222119Y-89748400D01*
X203223543Y-89743087D01*
X203243498Y-89515000D01*
X203223543Y-89286913D01*
X203215401Y-89256525D01*
X203165707Y-89071067D01*
X203165706Y-89071065D01*
X203164284Y-89065757D01*
X203131371Y-88995174D01*
X203069849Y-88863238D01*
X203069846Y-88863233D01*
X203067523Y-88858251D01*
X202936198Y-88670700D01*
X202774300Y-88508802D01*
X202769792Y-88505645D01*
X202769789Y-88505643D01*
X202686266Y-88447160D01*
X202586749Y-88377477D01*
X202581767Y-88375154D01*
X202581762Y-88375151D01*
X202384225Y-88283039D01*
X202384224Y-88283039D01*
X202379243Y-88280716D01*
X202373935Y-88279294D01*
X202373933Y-88279293D01*
X202163402Y-88222881D01*
X202163400Y-88222881D01*
X202158087Y-88221457D01*
X201930000Y-88201502D01*
X201701913Y-88221457D01*
X201696600Y-88222881D01*
X201696598Y-88222881D01*
X201486067Y-88279293D01*
X201486065Y-88279294D01*
X201480757Y-88280716D01*
X201475776Y-88283039D01*
X201475775Y-88283039D01*
X201278238Y-88375151D01*
X201278233Y-88375154D01*
X201273251Y-88377477D01*
X201173734Y-88447160D01*
X201090211Y-88505643D01*
X201090208Y-88505645D01*
X201085700Y-88508802D01*
X200923802Y-88670700D01*
X200792477Y-88858251D01*
X200790154Y-88863233D01*
X200790151Y-88863238D01*
X200728629Y-88995174D01*
X200695716Y-89065757D01*
X200694294Y-89071065D01*
X200694293Y-89071067D01*
X200644599Y-89256525D01*
X200636457Y-89286913D01*
X200616502Y-89515000D01*
X193064568Y-89515000D01*
X193050767Y-89483259D01*
X193033694Y-89456867D01*
X192971365Y-89360522D01*
X192921406Y-89283298D01*
X192901117Y-89261000D01*
X192885196Y-89243503D01*
X197473606Y-89243503D01*
X197473942Y-89257599D01*
X197481884Y-89261000D01*
X198482885Y-89261000D01*
X198498124Y-89256525D01*
X198499329Y-89255135D01*
X198501000Y-89247452D01*
X198501000Y-89242885D01*
X199009000Y-89242885D01*
X199013475Y-89258124D01*
X199014865Y-89259329D01*
X199022548Y-89261000D01*
X200022967Y-89261000D01*
X200036498Y-89257027D01*
X200037727Y-89248478D01*
X199990236Y-89071239D01*
X199986490Y-89060947D01*
X199894414Y-88863489D01*
X199888931Y-88853993D01*
X199763972Y-88675533D01*
X199756916Y-88667125D01*
X199602875Y-88513084D01*
X199594467Y-88506028D01*
X199416007Y-88381069D01*
X199406511Y-88375586D01*
X199209053Y-88283510D01*
X199198761Y-88279764D01*
X199026497Y-88233606D01*
X199012401Y-88233942D01*
X199009000Y-88241884D01*
X199009000Y-89242885D01*
X198501000Y-89242885D01*
X198501000Y-88247033D01*
X198497027Y-88233502D01*
X198488478Y-88232273D01*
X198311239Y-88279764D01*
X198300947Y-88283510D01*
X198103489Y-88375586D01*
X198093993Y-88381069D01*
X197915533Y-88506028D01*
X197907125Y-88513084D01*
X197753084Y-88667125D01*
X197746028Y-88675533D01*
X197621069Y-88853993D01*
X197615586Y-88863489D01*
X197523510Y-89060947D01*
X197519764Y-89071239D01*
X197473606Y-89243503D01*
X192885196Y-89243503D01*
X192870358Y-89227197D01*
X192761124Y-89107150D01*
X192757073Y-89103951D01*
X192757069Y-89103947D01*
X192623348Y-88998342D01*
X192582285Y-88940425D01*
X192579053Y-88869502D01*
X192614678Y-88808091D01*
X192628271Y-88796882D01*
X192703814Y-88742998D01*
X192703821Y-88742992D01*
X192708020Y-88739997D01*
X192876716Y-88571889D01*
X193015690Y-88378486D01*
X193061774Y-88285244D01*
X193118917Y-88169624D01*
X193118918Y-88169622D01*
X193121211Y-88164982D01*
X193190443Y-87937111D01*
X193221529Y-87700992D01*
X193223264Y-87630000D01*
X193203750Y-87392644D01*
X193145731Y-87161663D01*
X193050767Y-86943259D01*
X193033694Y-86916867D01*
X192971365Y-86820522D01*
X192921406Y-86743298D01*
X192761124Y-86567150D01*
X192757073Y-86563951D01*
X192757069Y-86563947D01*
X192658509Y-86486110D01*
X192623347Y-86458341D01*
X192582285Y-86400425D01*
X192579053Y-86329502D01*
X192614678Y-86268091D01*
X192628271Y-86256882D01*
X192703814Y-86202998D01*
X192703821Y-86202992D01*
X192708020Y-86199997D01*
X192876716Y-86031889D01*
X193015690Y-85838486D01*
X193061774Y-85745244D01*
X193118917Y-85629624D01*
X193118918Y-85629622D01*
X193121211Y-85624982D01*
X193190443Y-85397111D01*
X193221529Y-85160992D01*
X193223264Y-85090000D01*
X193203750Y-84852644D01*
X193145731Y-84621663D01*
X193050767Y-84403259D01*
X193033851Y-84377110D01*
X192967424Y-84274431D01*
X192921406Y-84203298D01*
X192761124Y-84027150D01*
X192757073Y-84023951D01*
X192757069Y-84023947D01*
X192623348Y-83918342D01*
X192582285Y-83860425D01*
X192579053Y-83789502D01*
X192614678Y-83728091D01*
X192628271Y-83716882D01*
X192703814Y-83662998D01*
X192703821Y-83662992D01*
X192708020Y-83659997D01*
X192876716Y-83491889D01*
X193015690Y-83298486D01*
X193061774Y-83205244D01*
X193118917Y-83089624D01*
X193118918Y-83089622D01*
X193121211Y-83084982D01*
X193190443Y-82857111D01*
X193207142Y-82730270D01*
X193221092Y-82624313D01*
X193221092Y-82624309D01*
X193221529Y-82620992D01*
X193221974Y-82602793D01*
X193223182Y-82553365D01*
X193223182Y-82553361D01*
X193223264Y-82550000D01*
X193203750Y-82312644D01*
X193145731Y-82081663D01*
X193073757Y-81916132D01*
X193073265Y-81915000D01*
X194304647Y-81915000D01*
X194324022Y-82136463D01*
X194381560Y-82351196D01*
X194383882Y-82356177D01*
X194383883Y-82356178D01*
X194473186Y-82547689D01*
X194473189Y-82547694D01*
X194475512Y-82552676D01*
X194478668Y-82557183D01*
X194478669Y-82557185D01*
X194565131Y-82680665D01*
X194603023Y-82734781D01*
X194760219Y-82891977D01*
X194764727Y-82895134D01*
X194764730Y-82895136D01*
X194810001Y-82926835D01*
X194942323Y-83019488D01*
X194947305Y-83021811D01*
X194947310Y-83021814D01*
X195092730Y-83089624D01*
X195143804Y-83113440D01*
X195149112Y-83114862D01*
X195149114Y-83114863D01*
X195214949Y-83132503D01*
X195358537Y-83170978D01*
X195580000Y-83190353D01*
X195801463Y-83170978D01*
X195945051Y-83132503D01*
X196010886Y-83114863D01*
X196010888Y-83114862D01*
X196016196Y-83113440D01*
X196067270Y-83089624D01*
X196212690Y-83021814D01*
X196212695Y-83021811D01*
X196217677Y-83019488D01*
X196282959Y-82973777D01*
X197425777Y-82973777D01*
X197435074Y-82985793D01*
X197478069Y-83015898D01*
X197487555Y-83021376D01*
X197678993Y-83110645D01*
X197689285Y-83114391D01*
X197893309Y-83169059D01*
X197904104Y-83170962D01*
X198114525Y-83189372D01*
X198125475Y-83189372D01*
X198335896Y-83170962D01*
X198346691Y-83169059D01*
X198550715Y-83114391D01*
X198561007Y-83110645D01*
X198752445Y-83021376D01*
X198761931Y-83015898D01*
X198805764Y-82985207D01*
X198814139Y-82974729D01*
X198807071Y-82961281D01*
X198132812Y-82287022D01*
X198118868Y-82279408D01*
X198117035Y-82279539D01*
X198110420Y-82283790D01*
X197432207Y-82962003D01*
X197425777Y-82973777D01*
X196282959Y-82973777D01*
X196349999Y-82926835D01*
X196395270Y-82895136D01*
X196395273Y-82895134D01*
X196399781Y-82891977D01*
X196556977Y-82734781D01*
X196594870Y-82680665D01*
X196681331Y-82557185D01*
X196681332Y-82557183D01*
X196684488Y-82552676D01*
X196686811Y-82547694D01*
X196686814Y-82547689D01*
X196736081Y-82442035D01*
X196782999Y-82388750D01*
X196851276Y-82369289D01*
X196919236Y-82389831D01*
X196964471Y-82442035D01*
X197013623Y-82547441D01*
X197019103Y-82556932D01*
X197049794Y-82600765D01*
X197060271Y-82609140D01*
X197073718Y-82602072D01*
X197747978Y-81927812D01*
X197754356Y-81916132D01*
X198484408Y-81916132D01*
X198484539Y-81917965D01*
X198488790Y-81924580D01*
X199167003Y-82602793D01*
X199178777Y-82609223D01*
X199190793Y-82599926D01*
X199220897Y-82556932D01*
X199226377Y-82547441D01*
X199275529Y-82442035D01*
X199322447Y-82388750D01*
X199390724Y-82369289D01*
X199458684Y-82389831D01*
X199503919Y-82442035D01*
X199553186Y-82547689D01*
X199553189Y-82547694D01*
X199555512Y-82552676D01*
X199558668Y-82557183D01*
X199558669Y-82557185D01*
X199645131Y-82680665D01*
X199683023Y-82734781D01*
X199840219Y-82891977D01*
X199844727Y-82895134D01*
X199844730Y-82895136D01*
X199890001Y-82926835D01*
X200022323Y-83019488D01*
X200027305Y-83021811D01*
X200027310Y-83021814D01*
X200172730Y-83089624D01*
X200223804Y-83113440D01*
X200229112Y-83114862D01*
X200229114Y-83114863D01*
X200294949Y-83132503D01*
X200438537Y-83170978D01*
X200660000Y-83190353D01*
X200881463Y-83170978D01*
X201025051Y-83132503D01*
X201090886Y-83114863D01*
X201090888Y-83114862D01*
X201096196Y-83113440D01*
X201147270Y-83089624D01*
X201292690Y-83021814D01*
X201292695Y-83021811D01*
X201297677Y-83019488D01*
X201429999Y-82926835D01*
X201475270Y-82895136D01*
X201475273Y-82895134D01*
X201479781Y-82891977D01*
X201636977Y-82734781D01*
X201674870Y-82680665D01*
X201761331Y-82557185D01*
X201761332Y-82557183D01*
X201764488Y-82552676D01*
X201766811Y-82547694D01*
X201766814Y-82547689D01*
X201815805Y-82442627D01*
X201862723Y-82389342D01*
X201931000Y-82369881D01*
X201998960Y-82390423D01*
X202044195Y-82442627D01*
X202093186Y-82547689D01*
X202093189Y-82547694D01*
X202095512Y-82552676D01*
X202098668Y-82557183D01*
X202098669Y-82557185D01*
X202185131Y-82680665D01*
X202223023Y-82734781D01*
X202380219Y-82891977D01*
X202384727Y-82895134D01*
X202384730Y-82895136D01*
X202430001Y-82926835D01*
X202562323Y-83019488D01*
X202567305Y-83021811D01*
X202567310Y-83021814D01*
X202712730Y-83089624D01*
X202763804Y-83113440D01*
X202769112Y-83114862D01*
X202769114Y-83114863D01*
X202834949Y-83132503D01*
X202978537Y-83170978D01*
X203200000Y-83190353D01*
X203421463Y-83170978D01*
X203565051Y-83132503D01*
X203630886Y-83114863D01*
X203630888Y-83114862D01*
X203636196Y-83113440D01*
X203687270Y-83089624D01*
X203832690Y-83021814D01*
X203832695Y-83021811D01*
X203837677Y-83019488D01*
X203969999Y-82926835D01*
X204015270Y-82895136D01*
X204015273Y-82895134D01*
X204019781Y-82891977D01*
X204176977Y-82734781D01*
X204214870Y-82680665D01*
X204301331Y-82557185D01*
X204301332Y-82557183D01*
X204304488Y-82552676D01*
X204306811Y-82547694D01*
X204306814Y-82547689D01*
X204396117Y-82356178D01*
X204396118Y-82356177D01*
X204398440Y-82351196D01*
X204455978Y-82136463D01*
X204475353Y-81915000D01*
X204455978Y-81693537D01*
X204398440Y-81478804D01*
X204355805Y-81387373D01*
X204306814Y-81282311D01*
X204306811Y-81282306D01*
X204304488Y-81277324D01*
X204280924Y-81243671D01*
X204180136Y-81099730D01*
X204180134Y-81099727D01*
X204176977Y-81095219D01*
X204019781Y-80938023D01*
X204015273Y-80934866D01*
X204015270Y-80934864D01*
X203923788Y-80870808D01*
X203837677Y-80810512D01*
X203832695Y-80808189D01*
X203832690Y-80808186D01*
X203641178Y-80718883D01*
X203641177Y-80718882D01*
X203636196Y-80716560D01*
X203630888Y-80715138D01*
X203630886Y-80715137D01*
X203565051Y-80697497D01*
X203421463Y-80659022D01*
X203200000Y-80639647D01*
X202978537Y-80659022D01*
X202834949Y-80697497D01*
X202769114Y-80715137D01*
X202769112Y-80715138D01*
X202763804Y-80716560D01*
X202758823Y-80718882D01*
X202758822Y-80718883D01*
X202567311Y-80808186D01*
X202567306Y-80808189D01*
X202562324Y-80810512D01*
X202557817Y-80813668D01*
X202557815Y-80813669D01*
X202384730Y-80934864D01*
X202384727Y-80934866D01*
X202380219Y-80938023D01*
X202223023Y-81095219D01*
X202219866Y-81099727D01*
X202219864Y-81099730D01*
X202119076Y-81243671D01*
X202095512Y-81277324D01*
X202093189Y-81282306D01*
X202093186Y-81282311D01*
X202044195Y-81387373D01*
X201997277Y-81440658D01*
X201929000Y-81460119D01*
X201861040Y-81439577D01*
X201815805Y-81387373D01*
X201766814Y-81282311D01*
X201766811Y-81282306D01*
X201764488Y-81277324D01*
X201740924Y-81243671D01*
X201640136Y-81099730D01*
X201640134Y-81099727D01*
X201636977Y-81095219D01*
X201479781Y-80938023D01*
X201475273Y-80934866D01*
X201475270Y-80934864D01*
X201383788Y-80870808D01*
X201297677Y-80810512D01*
X201292695Y-80808189D01*
X201292690Y-80808186D01*
X201101178Y-80718883D01*
X201101177Y-80718882D01*
X201096196Y-80716560D01*
X201090888Y-80715138D01*
X201090886Y-80715137D01*
X201025051Y-80697497D01*
X200881463Y-80659022D01*
X200660000Y-80639647D01*
X200438537Y-80659022D01*
X200294949Y-80697497D01*
X200229114Y-80715137D01*
X200229112Y-80715138D01*
X200223804Y-80716560D01*
X200218823Y-80718882D01*
X200218822Y-80718883D01*
X200027311Y-80808186D01*
X200027306Y-80808189D01*
X200022324Y-80810512D01*
X200017817Y-80813668D01*
X200017815Y-80813669D01*
X199844730Y-80934864D01*
X199844727Y-80934866D01*
X199840219Y-80938023D01*
X199683023Y-81095219D01*
X199679866Y-81099727D01*
X199679864Y-81099730D01*
X199579076Y-81243671D01*
X199555512Y-81277324D01*
X199553189Y-81282306D01*
X199553186Y-81282311D01*
X199503919Y-81387965D01*
X199457001Y-81441250D01*
X199388724Y-81460711D01*
X199320764Y-81440169D01*
X199275529Y-81387965D01*
X199226377Y-81282559D01*
X199220897Y-81273068D01*
X199190206Y-81229235D01*
X199179729Y-81220860D01*
X199166282Y-81227928D01*
X198492022Y-81902188D01*
X198484408Y-81916132D01*
X197754356Y-81916132D01*
X197755592Y-81913868D01*
X197755461Y-81912035D01*
X197751210Y-81905420D01*
X197072997Y-81227207D01*
X197061223Y-81220777D01*
X197049207Y-81230074D01*
X197019103Y-81273068D01*
X197013623Y-81282559D01*
X196964471Y-81387965D01*
X196917553Y-81441250D01*
X196849276Y-81460711D01*
X196781316Y-81440169D01*
X196736081Y-81387965D01*
X196686814Y-81282311D01*
X196686811Y-81282306D01*
X196684488Y-81277324D01*
X196660924Y-81243671D01*
X196560136Y-81099730D01*
X196560134Y-81099727D01*
X196556977Y-81095219D01*
X196399781Y-80938023D01*
X196395273Y-80934866D01*
X196395270Y-80934864D01*
X196303788Y-80870808D01*
X196281599Y-80855271D01*
X197425860Y-80855271D01*
X197432928Y-80868718D01*
X198107188Y-81542978D01*
X198121132Y-81550592D01*
X198122965Y-81550461D01*
X198129580Y-81546210D01*
X198807793Y-80867997D01*
X198814223Y-80856223D01*
X198804926Y-80844207D01*
X198761931Y-80814102D01*
X198752445Y-80808624D01*
X198561007Y-80719355D01*
X198550715Y-80715609D01*
X198346691Y-80660941D01*
X198335896Y-80659038D01*
X198125475Y-80640628D01*
X198114525Y-80640628D01*
X197904104Y-80659038D01*
X197893309Y-80660941D01*
X197689285Y-80715609D01*
X197678993Y-80719355D01*
X197487559Y-80808623D01*
X197478068Y-80814103D01*
X197434235Y-80844794D01*
X197425860Y-80855271D01*
X196281599Y-80855271D01*
X196217677Y-80810512D01*
X196212695Y-80808189D01*
X196212690Y-80808186D01*
X196021178Y-80718883D01*
X196021177Y-80718882D01*
X196016196Y-80716560D01*
X196010888Y-80715138D01*
X196010886Y-80715137D01*
X195945051Y-80697497D01*
X195801463Y-80659022D01*
X195580000Y-80639647D01*
X195358537Y-80659022D01*
X195214949Y-80697497D01*
X195149114Y-80715137D01*
X195149112Y-80715138D01*
X195143804Y-80716560D01*
X195138823Y-80718882D01*
X195138822Y-80718883D01*
X194947311Y-80808186D01*
X194947306Y-80808189D01*
X194942324Y-80810512D01*
X194937817Y-80813668D01*
X194937815Y-80813669D01*
X194764730Y-80934864D01*
X194764727Y-80934866D01*
X194760219Y-80938023D01*
X194603023Y-81095219D01*
X194599866Y-81099727D01*
X194599864Y-81099730D01*
X194499076Y-81243671D01*
X194475512Y-81277324D01*
X194473189Y-81282306D01*
X194473186Y-81282311D01*
X194424195Y-81387373D01*
X194381560Y-81478804D01*
X194324022Y-81693537D01*
X194304647Y-81915000D01*
X193073265Y-81915000D01*
X193052827Y-81867996D01*
X193052825Y-81867993D01*
X193050767Y-81863259D01*
X193033851Y-81837110D01*
X192967424Y-81734431D01*
X192921406Y-81663298D01*
X192761124Y-81487150D01*
X192757073Y-81483951D01*
X192757069Y-81483947D01*
X192635533Y-81387965D01*
X192623347Y-81378341D01*
X192582285Y-81320425D01*
X192579053Y-81249502D01*
X192614678Y-81188091D01*
X192628271Y-81176882D01*
X192703814Y-81122998D01*
X192703821Y-81122992D01*
X192708020Y-81119997D01*
X192876716Y-80951889D01*
X192883880Y-80941920D01*
X192933972Y-80872209D01*
X193015690Y-80758486D01*
X193036412Y-80716560D01*
X193118917Y-80549624D01*
X193118918Y-80549622D01*
X193121211Y-80544982D01*
X193190443Y-80317111D01*
X193221529Y-80080992D01*
X193223264Y-80010000D01*
X193203750Y-79772644D01*
X193145731Y-79541663D01*
X193050767Y-79323259D01*
X193033694Y-79296867D01*
X192971365Y-79200522D01*
X192921406Y-79123298D01*
X192761124Y-78947150D01*
X192757073Y-78943951D01*
X192757069Y-78943947D01*
X192623348Y-78838342D01*
X192582285Y-78780425D01*
X192579053Y-78709502D01*
X192614678Y-78648091D01*
X192628271Y-78636882D01*
X192703814Y-78582998D01*
X192703821Y-78582992D01*
X192708020Y-78579997D01*
X192876716Y-78411889D01*
X193015690Y-78218486D01*
X193051713Y-78145601D01*
X193118917Y-78009624D01*
X193118918Y-78009622D01*
X193121211Y-78004982D01*
X193190443Y-77777111D01*
X193191118Y-77771985D01*
X193221092Y-77544313D01*
X193221092Y-77544309D01*
X193221529Y-77540992D01*
X193222853Y-77486811D01*
X193223182Y-77473365D01*
X193223182Y-77473361D01*
X193223264Y-77470000D01*
X193203750Y-77232644D01*
X193145731Y-77001663D01*
X193074728Y-76838365D01*
X193052827Y-76787996D01*
X193052825Y-76787993D01*
X193050767Y-76783259D01*
X193033694Y-76756867D01*
X192971365Y-76660522D01*
X192921406Y-76583298D01*
X192898116Y-76557702D01*
X192845340Y-76499702D01*
X192761124Y-76407150D01*
X192757073Y-76403951D01*
X192757069Y-76403947D01*
X192623348Y-76298342D01*
X192582285Y-76240425D01*
X192579053Y-76169502D01*
X192614678Y-76108091D01*
X192628271Y-76096882D01*
X192703814Y-76042998D01*
X192703821Y-76042992D01*
X192708020Y-76039997D01*
X192876716Y-75871889D01*
X193015690Y-75678486D01*
X193021134Y-75667472D01*
X193118917Y-75469624D01*
X193118918Y-75469622D01*
X193121211Y-75464982D01*
X193190443Y-75237111D01*
X193191118Y-75231985D01*
X193221092Y-75004313D01*
X193221092Y-75004309D01*
X193221529Y-75000992D01*
X193223264Y-74930000D01*
X193203750Y-74692644D01*
X193145731Y-74461663D01*
X193074728Y-74298365D01*
X193052827Y-74247996D01*
X193052825Y-74247993D01*
X193050767Y-74243259D01*
X193033694Y-74216867D01*
X192971365Y-74120522D01*
X192921406Y-74043298D01*
X192898116Y-74017702D01*
X192834740Y-73948053D01*
X192761124Y-73867150D01*
X192757073Y-73863951D01*
X192757069Y-73863947D01*
X192623348Y-73758342D01*
X192582285Y-73700425D01*
X192579053Y-73629502D01*
X192614678Y-73568091D01*
X192628271Y-73556882D01*
X192703814Y-73502998D01*
X192703821Y-73502992D01*
X192708020Y-73499997D01*
X192876716Y-73331889D01*
X193015690Y-73138486D01*
X193061774Y-73045244D01*
X193118917Y-72929624D01*
X193118918Y-72929622D01*
X193121211Y-72924982D01*
X193190443Y-72697111D01*
X193221529Y-72460992D01*
X193223264Y-72390000D01*
X193203750Y-72152644D01*
X193145731Y-71921663D01*
X193050767Y-71703259D01*
X193033694Y-71676867D01*
X192971365Y-71580522D01*
X192921406Y-71503298D01*
X192761124Y-71327150D01*
X192757073Y-71323951D01*
X192757069Y-71323947D01*
X192614932Y-71211695D01*
X192573869Y-71153778D01*
X192570637Y-71082855D01*
X192592406Y-71038113D01*
X192585045Y-71024256D01*
X191782811Y-70222021D01*
X191768868Y-70214408D01*
X191767034Y-70214539D01*
X191760420Y-70218790D01*
X190951083Y-71028128D01*
X190944326Y-71040503D01*
X190944760Y-71041083D01*
X190969572Y-71107603D01*
X190954481Y-71176977D01*
X190919546Y-71217353D01*
X190809275Y-71300147D01*
X190805140Y-71303252D01*
X190640602Y-71475431D01*
X190618629Y-71507642D01*
X190605186Y-71527349D01*
X190550274Y-71572351D01*
X190479749Y-71580522D01*
X190416002Y-71549267D01*
X190395306Y-71524784D01*
X190384217Y-71507642D01*
X190384212Y-71507636D01*
X190381406Y-71503298D01*
X190221124Y-71327150D01*
X190217073Y-71323951D01*
X190217069Y-71323947D01*
X190074932Y-71211695D01*
X190033869Y-71153778D01*
X190030637Y-71082855D01*
X190052406Y-71038113D01*
X190045045Y-71024256D01*
X189242811Y-70222021D01*
X189228868Y-70214408D01*
X189227034Y-70214539D01*
X189220420Y-70218790D01*
X188411083Y-71028128D01*
X188404326Y-71040503D01*
X188404760Y-71041083D01*
X188429572Y-71107603D01*
X188414481Y-71176977D01*
X188379546Y-71217353D01*
X188269275Y-71300147D01*
X188265140Y-71303252D01*
X188100602Y-71475431D01*
X188097691Y-71479699D01*
X188097687Y-71479704D01*
X188065186Y-71527349D01*
X187966394Y-71672172D01*
X187866122Y-71888191D01*
X187802477Y-72117685D01*
X187801928Y-72122819D01*
X187801928Y-72122821D01*
X187796449Y-72174089D01*
X187777170Y-72354494D01*
X187777467Y-72359646D01*
X187777467Y-72359650D01*
X187783502Y-72464313D01*
X187790879Y-72592255D01*
X187792016Y-72597301D01*
X187792017Y-72597307D01*
X187825111Y-72744156D01*
X187843237Y-72824585D01*
X187845179Y-72829367D01*
X187845180Y-72829371D01*
X187901359Y-72967723D01*
X187932837Y-73045244D01*
X188057274Y-73248306D01*
X188213204Y-73428317D01*
X188349559Y-73541521D01*
X188377560Y-73564768D01*
X188417195Y-73623671D01*
X188418693Y-73694651D01*
X188381578Y-73755174D01*
X188372728Y-73762472D01*
X188325166Y-73798183D01*
X188265140Y-73843252D01*
X188100602Y-74015431D01*
X188097691Y-74019699D01*
X188097687Y-74019704D01*
X188065186Y-74067349D01*
X187966394Y-74212172D01*
X187947246Y-74253424D01*
X187894994Y-74365992D01*
X187866122Y-74428191D01*
X187802477Y-74657685D01*
X187801928Y-74662819D01*
X187801928Y-74662821D01*
X187796449Y-74714089D01*
X187777170Y-74894494D01*
X187777467Y-74899646D01*
X187777467Y-74899650D01*
X187785493Y-75038847D01*
X187790879Y-75132255D01*
X187792016Y-75137301D01*
X187792017Y-75137307D01*
X187823772Y-75278212D01*
X187843237Y-75364585D01*
X187845179Y-75369367D01*
X187845180Y-75369371D01*
X187925687Y-75567636D01*
X187932837Y-75585244D01*
X188057274Y-75788306D01*
X188213204Y-75968317D01*
X188272266Y-76017351D01*
X188377560Y-76104768D01*
X188417195Y-76163671D01*
X188418693Y-76234651D01*
X188381578Y-76295174D01*
X188372728Y-76302472D01*
X188325166Y-76338183D01*
X188265140Y-76383252D01*
X188100602Y-76555431D01*
X188097691Y-76559699D01*
X188097687Y-76559704D01*
X188054955Y-76622347D01*
X187966394Y-76752172D01*
X187953978Y-76778921D01*
X187894994Y-76905992D01*
X187866122Y-76968191D01*
X187802477Y-77197685D01*
X187801928Y-77202819D01*
X187801928Y-77202821D01*
X187796449Y-77254089D01*
X187777170Y-77434494D01*
X187777467Y-77439646D01*
X187777467Y-77439650D01*
X187783502Y-77544313D01*
X187790879Y-77672255D01*
X187792016Y-77677301D01*
X187792017Y-77677307D01*
X187825111Y-77824156D01*
X187843237Y-77904585D01*
X187845179Y-77909367D01*
X187845180Y-77909371D01*
X187930893Y-78120457D01*
X187932837Y-78125244D01*
X188057274Y-78328306D01*
X188213204Y-78508317D01*
X188295154Y-78576353D01*
X188377560Y-78644768D01*
X188417195Y-78703671D01*
X188418693Y-78774651D01*
X188381578Y-78835174D01*
X188372728Y-78842472D01*
X188269275Y-78920147D01*
X188265140Y-78923252D01*
X188100602Y-79095431D01*
X188097691Y-79099699D01*
X188097687Y-79099704D01*
X188065186Y-79147349D01*
X187966394Y-79292172D01*
X187866122Y-79508191D01*
X187802477Y-79737685D01*
X187801928Y-79742819D01*
X187801928Y-79742821D01*
X187796449Y-79794089D01*
X187777170Y-79974494D01*
X187777467Y-79979646D01*
X187777467Y-79979650D01*
X187783502Y-80084313D01*
X187790879Y-80212255D01*
X187792016Y-80217301D01*
X187792017Y-80217307D01*
X187825111Y-80364156D01*
X187843237Y-80444585D01*
X187845179Y-80449367D01*
X187845180Y-80449371D01*
X187930317Y-80659038D01*
X187932837Y-80665244D01*
X187987133Y-80753847D01*
X188049870Y-80856223D01*
X188057274Y-80868306D01*
X188213204Y-81048317D01*
X188329093Y-81144530D01*
X188377560Y-81184768D01*
X188417195Y-81243671D01*
X188418693Y-81314651D01*
X188381578Y-81375174D01*
X188372728Y-81382472D01*
X188269275Y-81460147D01*
X188265140Y-81463252D01*
X188100602Y-81635431D01*
X188097693Y-81639696D01*
X188097687Y-81639704D01*
X188065186Y-81687349D01*
X187966394Y-81832172D01*
X187925405Y-81920475D01*
X187879560Y-82019242D01*
X187866122Y-82048191D01*
X187802477Y-82277685D01*
X187801928Y-82282819D01*
X187801928Y-82282821D01*
X187796449Y-82334089D01*
X187777170Y-82514494D01*
X187777467Y-82519646D01*
X187777467Y-82519650D01*
X187783502Y-82624313D01*
X187790879Y-82752255D01*
X187792016Y-82757301D01*
X187792017Y-82757307D01*
X187821489Y-82888080D01*
X187843237Y-82984585D01*
X187845179Y-82989367D01*
X187845180Y-82989371D01*
X187926392Y-83189372D01*
X187932837Y-83205244D01*
X188057274Y-83408306D01*
X188213204Y-83588317D01*
X188329599Y-83684950D01*
X188377560Y-83724768D01*
X188417195Y-83783671D01*
X188418693Y-83854651D01*
X188381578Y-83915174D01*
X188372728Y-83922472D01*
X188269275Y-84000147D01*
X188265140Y-84003252D01*
X188261568Y-84006990D01*
X188106339Y-84169428D01*
X188100602Y-84175431D01*
X188078629Y-84207642D01*
X188065186Y-84227349D01*
X188010274Y-84272351D01*
X187939749Y-84280522D01*
X187876002Y-84249267D01*
X187855306Y-84224784D01*
X187844217Y-84207642D01*
X187844212Y-84207636D01*
X187841406Y-84203298D01*
X187681124Y-84027150D01*
X187677073Y-84023951D01*
X187677069Y-84023947D01*
X187498278Y-83882747D01*
X187498273Y-83882744D01*
X187494224Y-83879546D01*
X187489708Y-83877053D01*
X187489705Y-83877051D01*
X187290250Y-83766946D01*
X187290246Y-83766944D01*
X187285726Y-83764449D01*
X187280857Y-83762725D01*
X187280853Y-83762723D01*
X187066105Y-83686676D01*
X187066101Y-83686675D01*
X187061230Y-83684950D01*
X187056140Y-83684043D01*
X187056135Y-83684042D01*
X186900684Y-83656353D01*
X186826764Y-83643186D01*
X186737637Y-83642097D01*
X186593795Y-83640339D01*
X186593793Y-83640339D01*
X186588625Y-83640276D01*
X186353209Y-83676300D01*
X186126838Y-83750289D01*
X185915590Y-83860258D01*
X185911457Y-83863361D01*
X185911454Y-83863363D01*
X185729275Y-84000147D01*
X185725140Y-84003252D01*
X185721568Y-84006990D01*
X185566339Y-84169428D01*
X185560602Y-84175431D01*
X185557693Y-84179696D01*
X185557687Y-84179704D01*
X185525186Y-84227349D01*
X185426394Y-84372172D01*
X185326122Y-84588191D01*
X185262477Y-84817685D01*
X185261928Y-84822819D01*
X185261928Y-84822821D01*
X185256449Y-84874089D01*
X185237170Y-85054494D01*
X185237467Y-85059646D01*
X185237467Y-85059650D01*
X185249053Y-85260592D01*
X185250879Y-85292255D01*
X185252016Y-85297301D01*
X185252017Y-85297307D01*
X185285111Y-85444156D01*
X185303237Y-85524585D01*
X185305179Y-85529367D01*
X185305180Y-85529371D01*
X185390798Y-85740223D01*
X185392837Y-85745244D01*
X185517274Y-85948306D01*
X185673204Y-86128317D01*
X185763158Y-86202998D01*
X185837560Y-86264768D01*
X185877195Y-86323671D01*
X185878693Y-86394651D01*
X185841578Y-86455174D01*
X185832728Y-86462472D01*
X185738488Y-86533230D01*
X185725140Y-86543252D01*
X185560602Y-86715431D01*
X185557691Y-86719699D01*
X185557687Y-86719704D01*
X185525186Y-86767349D01*
X185426394Y-86912172D01*
X185326122Y-87128191D01*
X185262477Y-87357685D01*
X185261928Y-87362819D01*
X185261928Y-87362821D01*
X185256449Y-87414089D01*
X185237170Y-87594494D01*
X185237467Y-87599646D01*
X185237467Y-87599650D01*
X185243502Y-87704313D01*
X185250879Y-87832255D01*
X185252016Y-87837301D01*
X185252017Y-87837307D01*
X185285111Y-87984156D01*
X185303237Y-88064585D01*
X185305179Y-88069367D01*
X185305180Y-88069371D01*
X185390612Y-88279764D01*
X185392837Y-88285244D01*
X185517274Y-88488306D01*
X185673204Y-88668317D01*
X185681896Y-88675533D01*
X185837560Y-88804768D01*
X185877195Y-88863671D01*
X185878693Y-88934651D01*
X185841578Y-88995174D01*
X185832728Y-89002472D01*
X185729275Y-89080147D01*
X185725140Y-89083252D01*
X185560602Y-89255431D01*
X185557691Y-89259699D01*
X185557687Y-89259704D01*
X185525186Y-89307349D01*
X185426394Y-89452172D01*
X185326122Y-89668191D01*
X185262477Y-89897685D01*
X185261928Y-89902819D01*
X185261928Y-89902821D01*
X185256449Y-89954089D01*
X185237170Y-90134494D01*
X185237467Y-90139646D01*
X185237467Y-90139650D01*
X185243502Y-90244313D01*
X185250879Y-90372255D01*
X185252016Y-90377301D01*
X185252017Y-90377307D01*
X185283480Y-90516916D01*
X185303237Y-90604585D01*
X185305179Y-90609367D01*
X185305180Y-90609371D01*
X185385477Y-90807119D01*
X185392837Y-90825244D01*
X185517274Y-91028306D01*
X185673204Y-91208317D01*
X185763158Y-91282998D01*
X185837560Y-91344768D01*
X185877195Y-91403671D01*
X185878693Y-91474651D01*
X185841578Y-91535174D01*
X185832728Y-91542472D01*
X185729275Y-91620147D01*
X185725140Y-91623252D01*
X185560602Y-91795431D01*
X185557691Y-91799699D01*
X185557687Y-91799704D01*
X185525186Y-91847349D01*
X185426394Y-91992172D01*
X185326122Y-92208191D01*
X185262477Y-92437685D01*
X185237170Y-92674494D01*
X185237467Y-92679646D01*
X185237467Y-92679650D01*
X185249053Y-92880592D01*
X185250879Y-92912255D01*
X185252016Y-92917301D01*
X185252017Y-92917307D01*
X185274509Y-93017111D01*
X185303237Y-93144585D01*
X185392837Y-93365244D01*
X185408624Y-93391006D01*
X185512676Y-93560802D01*
X185517274Y-93568306D01*
X185673204Y-93748317D01*
X185778826Y-93836006D01*
X185837560Y-93884768D01*
X185877195Y-93943671D01*
X185878693Y-94014651D01*
X185841578Y-94075174D01*
X185832728Y-94082472D01*
X185729275Y-94160147D01*
X185725140Y-94163252D01*
X185560602Y-94335431D01*
X185557691Y-94339699D01*
X185557687Y-94339704D01*
X185519497Y-94395688D01*
X185426394Y-94532172D01*
X185326122Y-94748191D01*
X185262477Y-94977685D01*
X185237170Y-95214494D01*
X185237467Y-95219646D01*
X185237467Y-95219650D01*
X185249053Y-95420592D01*
X185250879Y-95452255D01*
X185252016Y-95457301D01*
X185252017Y-95457307D01*
X185274509Y-95557111D01*
X185303237Y-95684585D01*
X185392837Y-95905244D01*
X185481978Y-96050708D01*
X185512676Y-96100802D01*
X185517274Y-96108306D01*
X185673204Y-96288317D01*
X185755154Y-96356353D01*
X185837560Y-96424768D01*
X185877195Y-96483671D01*
X185878693Y-96554651D01*
X185841578Y-96615174D01*
X185832728Y-96622472D01*
X185729275Y-96700147D01*
X185725140Y-96703252D01*
X185560602Y-96875431D01*
X185557691Y-96879699D01*
X185557687Y-96879704D01*
X185525186Y-96927349D01*
X185426394Y-97072172D01*
X185326122Y-97288191D01*
X185262477Y-97517685D01*
X185261928Y-97522819D01*
X185261928Y-97522821D01*
X185258181Y-97557887D01*
X185237170Y-97754494D01*
X157659843Y-97754494D01*
X157643679Y-97557887D01*
X157641994Y-97547707D01*
X157586515Y-97326837D01*
X157583195Y-97317086D01*
X157492384Y-97108233D01*
X157487518Y-97099158D01*
X157408008Y-96976256D01*
X157397322Y-96967052D01*
X157387755Y-96971456D01*
X156582021Y-97777189D01*
X156574408Y-97791132D01*
X155844356Y-97791132D01*
X155845592Y-97788868D01*
X155845461Y-97787034D01*
X155841210Y-97780420D01*
X155035220Y-96974431D01*
X155023688Y-96968134D01*
X155018721Y-96972026D01*
X154952762Y-96998293D01*
X154883073Y-96984730D01*
X154858788Y-96968315D01*
X154857321Y-96967052D01*
X154847756Y-96971455D01*
X154042021Y-97777189D01*
X154034408Y-97791132D01*
X153304356Y-97791132D01*
X153305592Y-97788868D01*
X153305461Y-97787034D01*
X153301210Y-97780420D01*
X152495220Y-96974431D01*
X152483688Y-96968134D01*
X152471406Y-96977757D01*
X152409747Y-97068146D01*
X152404654Y-97077110D01*
X152308768Y-97283679D01*
X152305211Y-97293347D01*
X152244352Y-97512797D01*
X152242421Y-97522916D01*
X152218221Y-97749373D01*
X152217969Y-97759662D01*
X150040770Y-97759662D01*
X150023750Y-97552644D01*
X149965731Y-97321663D01*
X149870767Y-97103259D01*
X149853851Y-97077110D01*
X149787424Y-96974431D01*
X149741406Y-96903298D01*
X149581124Y-96727150D01*
X149577073Y-96723951D01*
X149577069Y-96723947D01*
X149434932Y-96611695D01*
X149428260Y-96602285D01*
X152847081Y-96602285D01*
X152853825Y-96614614D01*
X153657189Y-97417979D01*
X153671132Y-97425592D01*
X153672966Y-97425461D01*
X153679580Y-97421210D01*
X154487331Y-96613458D01*
X154493432Y-96602285D01*
X155387081Y-96602285D01*
X155393825Y-96614614D01*
X156197189Y-97417979D01*
X156211132Y-97425592D01*
X156212966Y-97425461D01*
X156219580Y-97421210D01*
X157027331Y-96613458D01*
X157034348Y-96600607D01*
X157026574Y-96589937D01*
X157018004Y-96583169D01*
X157009417Y-96577464D01*
X156810055Y-96467410D01*
X156800643Y-96463180D01*
X156585971Y-96387160D01*
X156576014Y-96384530D01*
X156351805Y-96344591D01*
X156341554Y-96343622D01*
X156113830Y-96340840D01*
X156103546Y-96341560D01*
X155878437Y-96376006D01*
X155868410Y-96378395D01*
X155651951Y-96449144D01*
X155642442Y-96453141D01*
X155440451Y-96558292D01*
X155431716Y-96563793D01*
X155395535Y-96590958D01*
X155387081Y-96602285D01*
X154493432Y-96602285D01*
X154494348Y-96600607D01*
X154486574Y-96589937D01*
X154478004Y-96583169D01*
X154469417Y-96577464D01*
X154270055Y-96467410D01*
X154260643Y-96463180D01*
X154045971Y-96387160D01*
X154036014Y-96384530D01*
X153811805Y-96344591D01*
X153801554Y-96343622D01*
X153573830Y-96340840D01*
X153563546Y-96341560D01*
X153338437Y-96376006D01*
X153328410Y-96378395D01*
X153111951Y-96449144D01*
X153102442Y-96453141D01*
X152900451Y-96558292D01*
X152891716Y-96563793D01*
X152855535Y-96590958D01*
X152847081Y-96602285D01*
X149428260Y-96602285D01*
X149393869Y-96553778D01*
X149390637Y-96482855D01*
X149412406Y-96438113D01*
X149405045Y-96424256D01*
X148602811Y-95622021D01*
X148588868Y-95614408D01*
X148587034Y-95614539D01*
X148580420Y-95618790D01*
X147771083Y-96428128D01*
X147764326Y-96440503D01*
X147764760Y-96441083D01*
X147789572Y-96507603D01*
X147774481Y-96576977D01*
X147739546Y-96617353D01*
X147629275Y-96700147D01*
X147625140Y-96703252D01*
X147460602Y-96875431D01*
X147438629Y-96907642D01*
X147425186Y-96927349D01*
X147370274Y-96972351D01*
X147299749Y-96980522D01*
X147236002Y-96949267D01*
X147215306Y-96924784D01*
X147204217Y-96907642D01*
X147204212Y-96907636D01*
X147201406Y-96903298D01*
X147041124Y-96727150D01*
X147037073Y-96723951D01*
X147037069Y-96723947D01*
X146894932Y-96611695D01*
X146853869Y-96553778D01*
X146850637Y-96482855D01*
X146872406Y-96438113D01*
X146865045Y-96424256D01*
X146062811Y-95622021D01*
X146048868Y-95614408D01*
X146047034Y-95614539D01*
X146040420Y-95618790D01*
X145231083Y-96428128D01*
X145224326Y-96440503D01*
X145224760Y-96441083D01*
X145249572Y-96507603D01*
X145234481Y-96576977D01*
X145199546Y-96617353D01*
X145089275Y-96700147D01*
X145085140Y-96703252D01*
X144920602Y-96875431D01*
X144917691Y-96879699D01*
X144917687Y-96879704D01*
X144885186Y-96927349D01*
X144786394Y-97072172D01*
X144686122Y-97288191D01*
X144622477Y-97517685D01*
X144621928Y-97522819D01*
X144621928Y-97522821D01*
X144618181Y-97557887D01*
X144597170Y-97754494D01*
X144597467Y-97759646D01*
X144597467Y-97759650D01*
X144603502Y-97864313D01*
X144610879Y-97992255D01*
X144612016Y-97997301D01*
X144612017Y-97997307D01*
X144645111Y-98144156D01*
X144663237Y-98224585D01*
X144665179Y-98229367D01*
X144665180Y-98229371D01*
X144750798Y-98440223D01*
X144752837Y-98445244D01*
X144841978Y-98590708D01*
X144872676Y-98640802D01*
X144877274Y-98648306D01*
X145033204Y-98828317D01*
X145123158Y-98902998D01*
X145197560Y-98964768D01*
X145237195Y-99023671D01*
X145238693Y-99094651D01*
X145201578Y-99155174D01*
X145192728Y-99162472D01*
X145098488Y-99233230D01*
X145085140Y-99243252D01*
X144920602Y-99415431D01*
X144917691Y-99419699D01*
X144917687Y-99419704D01*
X144885186Y-99467349D01*
X144786394Y-99612172D01*
X144686122Y-99828191D01*
X144622477Y-100057685D01*
X144621928Y-100062819D01*
X144621928Y-100062821D01*
X144616449Y-100114089D01*
X144597170Y-100294494D01*
X144597467Y-100299646D01*
X144597467Y-100299650D01*
X144603502Y-100404313D01*
X144610879Y-100532255D01*
X144612016Y-100537301D01*
X144612017Y-100537307D01*
X144637987Y-100652543D01*
X144663237Y-100764585D01*
X144665179Y-100769367D01*
X144665180Y-100769371D01*
X144721993Y-100909284D01*
X144752837Y-100985244D01*
X144877274Y-101188306D01*
X145033204Y-101368317D01*
X145115154Y-101436353D01*
X145197560Y-101504768D01*
X145237195Y-101563671D01*
X145238693Y-101634651D01*
X145201578Y-101695174D01*
X145192728Y-101702472D01*
X145089275Y-101780147D01*
X145085140Y-101783252D01*
X144920602Y-101955431D01*
X144917691Y-101959699D01*
X144917687Y-101959704D01*
X144885186Y-102007349D01*
X144786394Y-102152172D01*
X144686122Y-102368191D01*
X144622477Y-102597685D01*
X144621928Y-102602819D01*
X144621928Y-102602821D01*
X144616449Y-102654089D01*
X144597170Y-102834494D01*
X144597467Y-102839646D01*
X144597467Y-102839650D01*
X144603502Y-102944313D01*
X144610879Y-103072255D01*
X144612016Y-103077301D01*
X144612017Y-103077307D01*
X144637987Y-103192543D01*
X144663237Y-103304585D01*
X144665179Y-103309367D01*
X144665180Y-103309371D01*
X144750893Y-103520457D01*
X144752837Y-103525244D01*
X144877274Y-103728306D01*
X145033204Y-103908317D01*
X145087889Y-103953717D01*
X145197560Y-104044768D01*
X145237195Y-104103671D01*
X145238693Y-104174651D01*
X145201578Y-104235174D01*
X145192728Y-104242472D01*
X145089275Y-104320147D01*
X145085140Y-104323252D01*
X144920602Y-104495431D01*
X144917691Y-104499699D01*
X144917687Y-104499704D01*
X144885186Y-104547349D01*
X144786394Y-104692172D01*
X144686122Y-104908191D01*
X144622477Y-105137685D01*
X144621928Y-105142819D01*
X144621928Y-105142821D01*
X144616449Y-105194089D01*
X144597170Y-105374494D01*
X144597467Y-105379646D01*
X144597467Y-105379650D01*
X144603502Y-105484313D01*
X144610879Y-105612255D01*
X144612016Y-105617301D01*
X144612017Y-105617307D01*
X144645111Y-105764156D01*
X144663237Y-105844585D01*
X144665179Y-105849367D01*
X144665180Y-105849371D01*
X144750893Y-106060457D01*
X144752837Y-106065244D01*
X144877274Y-106268306D01*
X145033204Y-106448317D01*
X145123158Y-106522998D01*
X145197560Y-106584768D01*
X145237195Y-106643671D01*
X145238693Y-106714651D01*
X145201578Y-106775174D01*
X145192728Y-106782472D01*
X145089275Y-106860147D01*
X145085140Y-106863252D01*
X144920602Y-107035431D01*
X144917691Y-107039699D01*
X144917687Y-107039704D01*
X144885186Y-107087349D01*
X144786394Y-107232172D01*
X144773978Y-107258921D01*
X144696249Y-107426375D01*
X144686122Y-107448191D01*
X144622477Y-107677685D01*
X144621928Y-107682819D01*
X144621928Y-107682821D01*
X144618181Y-107717887D01*
X144597170Y-107914494D01*
X144597467Y-107919646D01*
X144597467Y-107919650D01*
X144603502Y-108024313D01*
X144610879Y-108152255D01*
X144612016Y-108157301D01*
X144612017Y-108157307D01*
X144645111Y-108304156D01*
X144663237Y-108384585D01*
X144665179Y-108389367D01*
X144665180Y-108389371D01*
X144750798Y-108600223D01*
X144752837Y-108605244D01*
X144877274Y-108808306D01*
X145033204Y-108988317D01*
X145107438Y-109049947D01*
X145197560Y-109124768D01*
X145237195Y-109183671D01*
X145238693Y-109254651D01*
X145201578Y-109315174D01*
X145192728Y-109322472D01*
X145089275Y-109400147D01*
X145085140Y-109403252D01*
X144920602Y-109575431D01*
X144917691Y-109579699D01*
X144917687Y-109579704D01*
X144855439Y-109670956D01*
X144786394Y-109772172D01*
X144686122Y-109988191D01*
X144622477Y-110217685D01*
X144621928Y-110222819D01*
X144621928Y-110222821D01*
X144616449Y-110274089D01*
X144597170Y-110454494D01*
X144597467Y-110459646D01*
X144597467Y-110459650D01*
X144603502Y-110564313D01*
X144610879Y-110692255D01*
X144612016Y-110697301D01*
X144612017Y-110697307D01*
X144645111Y-110844156D01*
X144663237Y-110924585D01*
X144665179Y-110929367D01*
X144665180Y-110929371D01*
X144750893Y-111140457D01*
X144752837Y-111145244D01*
X144877274Y-111348306D01*
X145033204Y-111528317D01*
X145115154Y-111596353D01*
X145197560Y-111664768D01*
X145237195Y-111723671D01*
X145238693Y-111794651D01*
X145201578Y-111855174D01*
X145192728Y-111862472D01*
X145089275Y-111940147D01*
X145085140Y-111943252D01*
X144920602Y-112115431D01*
X144917691Y-112119699D01*
X144917687Y-112119704D01*
X144885186Y-112167349D01*
X144786394Y-112312172D01*
X144686122Y-112528191D01*
X144622477Y-112757685D01*
X144621928Y-112762819D01*
X144621928Y-112762821D01*
X144616449Y-112814089D01*
X144597170Y-112994494D01*
X144597467Y-112999646D01*
X144597467Y-112999650D01*
X144603502Y-113104313D01*
X144610879Y-113232255D01*
X144612016Y-113237301D01*
X144612017Y-113237307D01*
X144645111Y-113384156D01*
X144663237Y-113464585D01*
X144665179Y-113469367D01*
X144665180Y-113469371D01*
X144750893Y-113680457D01*
X144752837Y-113685244D01*
X144877274Y-113888306D01*
X145033204Y-114068317D01*
X145115154Y-114136353D01*
X145197560Y-114204768D01*
X145237195Y-114263671D01*
X145238693Y-114334651D01*
X145201578Y-114395174D01*
X145192728Y-114402472D01*
X145089275Y-114480147D01*
X145085140Y-114483252D01*
X144920602Y-114655431D01*
X144917691Y-114659699D01*
X144917687Y-114659704D01*
X144885186Y-114707349D01*
X144786394Y-114852172D01*
X144686122Y-115068191D01*
X144622477Y-115297685D01*
X144621928Y-115302819D01*
X144621928Y-115302821D01*
X144616449Y-115354089D01*
X144597170Y-115534494D01*
X111940345Y-115534494D01*
X111923750Y-115332644D01*
X111865731Y-115101663D01*
X111770767Y-114883259D01*
X111753694Y-114856867D01*
X111691365Y-114760522D01*
X111641406Y-114683298D01*
X111481124Y-114507150D01*
X111477073Y-114503951D01*
X111477069Y-114503947D01*
X111343348Y-114398342D01*
X111302285Y-114340425D01*
X111299053Y-114269502D01*
X111334678Y-114208091D01*
X111348271Y-114196882D01*
X111423814Y-114142998D01*
X111423821Y-114142992D01*
X111428020Y-114139997D01*
X111596716Y-113971889D01*
X111735690Y-113778486D01*
X111781774Y-113685244D01*
X111838917Y-113569624D01*
X111838918Y-113569622D01*
X111841211Y-113564982D01*
X111910443Y-113337111D01*
X111914392Y-113307115D01*
X111941092Y-113104313D01*
X111941092Y-113104309D01*
X111941529Y-113100992D01*
X111943264Y-113030000D01*
X111923750Y-112792644D01*
X111865731Y-112561663D01*
X111770767Y-112343259D01*
X111753694Y-112316867D01*
X111691365Y-112220522D01*
X111641406Y-112143298D01*
X111481124Y-111967150D01*
X111477073Y-111963951D01*
X111477069Y-111963947D01*
X111343348Y-111858342D01*
X111302285Y-111800425D01*
X111299053Y-111729502D01*
X111334678Y-111668091D01*
X111348271Y-111656882D01*
X111423814Y-111602998D01*
X111423821Y-111602992D01*
X111428020Y-111599997D01*
X111596716Y-111431889D01*
X111735690Y-111238486D01*
X111738454Y-111232895D01*
X111838917Y-111029624D01*
X111838918Y-111029622D01*
X111841211Y-111024982D01*
X111910443Y-110797111D01*
X111941529Y-110560992D01*
X111943264Y-110490000D01*
X111923750Y-110252644D01*
X111865731Y-110021663D01*
X111770767Y-109803259D01*
X111753694Y-109776867D01*
X111691365Y-109680522D01*
X111641406Y-109603298D01*
X111481124Y-109427150D01*
X111477073Y-109423951D01*
X111477069Y-109423947D01*
X111343348Y-109318342D01*
X111302285Y-109260425D01*
X111299053Y-109189502D01*
X111334678Y-109128091D01*
X111348271Y-109116882D01*
X111423814Y-109062998D01*
X111423821Y-109062992D01*
X111428020Y-109059997D01*
X111596716Y-108891889D01*
X111735690Y-108698486D01*
X111738577Y-108692646D01*
X111838917Y-108489624D01*
X111838918Y-108489622D01*
X111841211Y-108484982D01*
X111910443Y-108257111D01*
X111911132Y-108251876D01*
X111941092Y-108024313D01*
X111941092Y-108024309D01*
X111941529Y-108020992D01*
X111943264Y-107950000D01*
X111923750Y-107712644D01*
X111865731Y-107481663D01*
X111770767Y-107263259D01*
X111753694Y-107236867D01*
X111687424Y-107134431D01*
X111641406Y-107063298D01*
X111602195Y-107020205D01*
X111551195Y-106964157D01*
X111481124Y-106887150D01*
X111477073Y-106883951D01*
X111477069Y-106883947D01*
X111397959Y-106821470D01*
X111343347Y-106778341D01*
X111302285Y-106720425D01*
X111299053Y-106649502D01*
X111334678Y-106588091D01*
X111348271Y-106576882D01*
X111423814Y-106522998D01*
X111423821Y-106522992D01*
X111428020Y-106519997D01*
X111596716Y-106351889D01*
X111735690Y-106158486D01*
X111740339Y-106149081D01*
X111838917Y-105949624D01*
X111838918Y-105949622D01*
X111841211Y-105944982D01*
X111910443Y-105717111D01*
X111941529Y-105480992D01*
X111943264Y-105410000D01*
X111923750Y-105172644D01*
X111865731Y-104941663D01*
X111770767Y-104723259D01*
X111753694Y-104696867D01*
X111691365Y-104600522D01*
X111641406Y-104523298D01*
X111481124Y-104347150D01*
X111477073Y-104343951D01*
X111477069Y-104343947D01*
X111397959Y-104281470D01*
X111343347Y-104238341D01*
X111302285Y-104180425D01*
X111299053Y-104109502D01*
X111334678Y-104048091D01*
X111348271Y-104036882D01*
X111423814Y-103982998D01*
X111423821Y-103982992D01*
X111428020Y-103979997D01*
X111596716Y-103811889D01*
X111605407Y-103799795D01*
X111653972Y-103732209D01*
X111735690Y-103618486D01*
X111781774Y-103525244D01*
X111838917Y-103409624D01*
X111838918Y-103409622D01*
X111841211Y-103404982D01*
X111889410Y-103246339D01*
X111908941Y-103182055D01*
X111908941Y-103182054D01*
X111910443Y-103177111D01*
X111911118Y-103171985D01*
X111941092Y-102944313D01*
X111941092Y-102944309D01*
X111941529Y-102940992D01*
X111943264Y-102870000D01*
X111923750Y-102632644D01*
X111865731Y-102401663D01*
X111770767Y-102183259D01*
X111753694Y-102156867D01*
X111691365Y-102060522D01*
X111641406Y-101983298D01*
X111481124Y-101807150D01*
X111477073Y-101803951D01*
X111477069Y-101803947D01*
X111343348Y-101698342D01*
X111302285Y-101640425D01*
X111299053Y-101569502D01*
X111334678Y-101508091D01*
X111348271Y-101496882D01*
X111423814Y-101442998D01*
X111423821Y-101442992D01*
X111428020Y-101439997D01*
X111596716Y-101271889D01*
X111735690Y-101078486D01*
X111781774Y-100985244D01*
X111838917Y-100869624D01*
X111838918Y-100869622D01*
X111841211Y-100864982D01*
X111898232Y-100677301D01*
X111908941Y-100642055D01*
X111908941Y-100642054D01*
X111910443Y-100637111D01*
X111941529Y-100400992D01*
X111943264Y-100330000D01*
X111923750Y-100092644D01*
X111865731Y-99861663D01*
X111770767Y-99643259D01*
X111753694Y-99616867D01*
X111691365Y-99520522D01*
X111641406Y-99443298D01*
X111481124Y-99267150D01*
X111477073Y-99263951D01*
X111477069Y-99263947D01*
X111378509Y-99186110D01*
X111343347Y-99158341D01*
X111302285Y-99100425D01*
X111299053Y-99029502D01*
X111334678Y-98968091D01*
X111348271Y-98956882D01*
X111423814Y-98902998D01*
X111423821Y-98902992D01*
X111428020Y-98899997D01*
X111596716Y-98731889D01*
X111735690Y-98538486D01*
X111781774Y-98445244D01*
X111838917Y-98329624D01*
X111838918Y-98329622D01*
X111841211Y-98324982D01*
X111910443Y-98097111D01*
X111941529Y-97860992D01*
X111943264Y-97790000D01*
X111923750Y-97552644D01*
X111865731Y-97321663D01*
X111770767Y-97103259D01*
X111753851Y-97077110D01*
X111687424Y-96974431D01*
X111641406Y-96903298D01*
X111481124Y-96727150D01*
X111477073Y-96723951D01*
X111477069Y-96723947D01*
X111334932Y-96611695D01*
X111293869Y-96553778D01*
X111290637Y-96482855D01*
X111312406Y-96438113D01*
X111305045Y-96424256D01*
X110502811Y-95622021D01*
X110488868Y-95614408D01*
X110487034Y-95614539D01*
X110480420Y-95618790D01*
X109671083Y-96428128D01*
X109664326Y-96440503D01*
X109664760Y-96441083D01*
X109689572Y-96507603D01*
X109674481Y-96576977D01*
X109639546Y-96617353D01*
X109529275Y-96700147D01*
X109525140Y-96703252D01*
X109360602Y-96875431D01*
X109338629Y-96907642D01*
X109325186Y-96927349D01*
X109270274Y-96972351D01*
X109199749Y-96980522D01*
X109136002Y-96949267D01*
X109115306Y-96924784D01*
X109104217Y-96907642D01*
X109104212Y-96907636D01*
X109101406Y-96903298D01*
X108941124Y-96727150D01*
X108937073Y-96723951D01*
X108937069Y-96723947D01*
X108794932Y-96611695D01*
X108753869Y-96553778D01*
X108750637Y-96482855D01*
X108772406Y-96438113D01*
X108765045Y-96424256D01*
X107962811Y-95622021D01*
X107948868Y-95614408D01*
X107947034Y-95614539D01*
X107940420Y-95618790D01*
X107131083Y-96428128D01*
X107124326Y-96440503D01*
X107124760Y-96441083D01*
X107149572Y-96507603D01*
X107134481Y-96576977D01*
X107099546Y-96617353D01*
X106989275Y-96700147D01*
X106985140Y-96703252D01*
X106820602Y-96875431D01*
X106817691Y-96879699D01*
X106817687Y-96879704D01*
X106785186Y-96927349D01*
X106686394Y-97072172D01*
X106586122Y-97288191D01*
X106522477Y-97517685D01*
X106521928Y-97522819D01*
X106521928Y-97522821D01*
X106518181Y-97557887D01*
X106497170Y-97754494D01*
X106497467Y-97759646D01*
X106497467Y-97759650D01*
X106503502Y-97864313D01*
X106510879Y-97992255D01*
X106512016Y-97997301D01*
X106512017Y-97997307D01*
X106545111Y-98144156D01*
X106563237Y-98224585D01*
X106565179Y-98229367D01*
X106565180Y-98229371D01*
X106650798Y-98440223D01*
X106652837Y-98445244D01*
X106741978Y-98590708D01*
X106772676Y-98640802D01*
X106777274Y-98648306D01*
X106933204Y-98828317D01*
X107023158Y-98902998D01*
X107097560Y-98964768D01*
X107137195Y-99023671D01*
X107138693Y-99094651D01*
X107101578Y-99155174D01*
X107092728Y-99162472D01*
X106998488Y-99233230D01*
X106985140Y-99243252D01*
X106820602Y-99415431D01*
X106817691Y-99419699D01*
X106817687Y-99419704D01*
X106785186Y-99467349D01*
X106686394Y-99612172D01*
X106586122Y-99828191D01*
X106522477Y-100057685D01*
X106521928Y-100062819D01*
X106521928Y-100062821D01*
X106516449Y-100114089D01*
X106497170Y-100294494D01*
X106497467Y-100299646D01*
X106497467Y-100299650D01*
X106503502Y-100404313D01*
X106510879Y-100532255D01*
X106512016Y-100537301D01*
X106512017Y-100537307D01*
X106537987Y-100652543D01*
X106563237Y-100764585D01*
X106565179Y-100769367D01*
X106565180Y-100769371D01*
X106621993Y-100909284D01*
X106652837Y-100985244D01*
X106777274Y-101188306D01*
X106933204Y-101368317D01*
X107015154Y-101436353D01*
X107097560Y-101504768D01*
X107137195Y-101563671D01*
X107138693Y-101634651D01*
X107101578Y-101695174D01*
X107092728Y-101702472D01*
X106989275Y-101780147D01*
X106985140Y-101783252D01*
X106820602Y-101955431D01*
X106817691Y-101959699D01*
X106817687Y-101959704D01*
X106785186Y-102007349D01*
X106686394Y-102152172D01*
X106586122Y-102368191D01*
X106522477Y-102597685D01*
X106521928Y-102602819D01*
X106521928Y-102602821D01*
X106516449Y-102654089D01*
X106497170Y-102834494D01*
X106497467Y-102839646D01*
X106497467Y-102839650D01*
X106503502Y-102944313D01*
X106510879Y-103072255D01*
X106512016Y-103077301D01*
X106512017Y-103077307D01*
X106537987Y-103192543D01*
X106563237Y-103304585D01*
X106565179Y-103309367D01*
X106565180Y-103309371D01*
X106650893Y-103520457D01*
X106652837Y-103525244D01*
X106777274Y-103728306D01*
X106933204Y-103908317D01*
X106987889Y-103953717D01*
X107097560Y-104044768D01*
X107137195Y-104103671D01*
X107138693Y-104174651D01*
X107101578Y-104235174D01*
X107092728Y-104242472D01*
X106989275Y-104320147D01*
X106985140Y-104323252D01*
X106820602Y-104495431D01*
X106817691Y-104499699D01*
X106817687Y-104499704D01*
X106785186Y-104547349D01*
X106686394Y-104692172D01*
X106586122Y-104908191D01*
X106522477Y-105137685D01*
X106521928Y-105142819D01*
X106521928Y-105142821D01*
X106516449Y-105194089D01*
X106497170Y-105374494D01*
X106497467Y-105379646D01*
X106497467Y-105379650D01*
X106503502Y-105484313D01*
X106510879Y-105612255D01*
X106512016Y-105617301D01*
X106512017Y-105617307D01*
X106545111Y-105764156D01*
X106563237Y-105844585D01*
X106565179Y-105849367D01*
X106565180Y-105849371D01*
X106650893Y-106060457D01*
X106652837Y-106065244D01*
X106777274Y-106268306D01*
X106933204Y-106448317D01*
X107023158Y-106522998D01*
X107097560Y-106584768D01*
X107137195Y-106643671D01*
X107138693Y-106714651D01*
X107101578Y-106775174D01*
X107092728Y-106782472D01*
X106989275Y-106860147D01*
X106985140Y-106863252D01*
X106820602Y-107035431D01*
X106817691Y-107039699D01*
X106817687Y-107039704D01*
X106785186Y-107087349D01*
X106686394Y-107232172D01*
X106673978Y-107258921D01*
X106596249Y-107426375D01*
X106586122Y-107448191D01*
X106522477Y-107677685D01*
X106521928Y-107682819D01*
X106521928Y-107682821D01*
X106518181Y-107717887D01*
X106497170Y-107914494D01*
X106497467Y-107919646D01*
X106497467Y-107919650D01*
X106503502Y-108024313D01*
X106510879Y-108152255D01*
X106512016Y-108157301D01*
X106512017Y-108157307D01*
X106545111Y-108304156D01*
X106563237Y-108384585D01*
X106565179Y-108389367D01*
X106565180Y-108389371D01*
X106650798Y-108600223D01*
X106652837Y-108605244D01*
X106777274Y-108808306D01*
X106933204Y-108988317D01*
X107007438Y-109049947D01*
X107097560Y-109124768D01*
X107137195Y-109183671D01*
X107138693Y-109254651D01*
X107101578Y-109315174D01*
X107092728Y-109322472D01*
X106989275Y-109400147D01*
X106985140Y-109403252D01*
X106820602Y-109575431D01*
X106817691Y-109579699D01*
X106817687Y-109579704D01*
X106755439Y-109670956D01*
X106686394Y-109772172D01*
X106586122Y-109988191D01*
X106522477Y-110217685D01*
X106521928Y-110222819D01*
X106521928Y-110222821D01*
X106516449Y-110274089D01*
X106497170Y-110454494D01*
X106497467Y-110459646D01*
X106497467Y-110459650D01*
X106503502Y-110564313D01*
X106510879Y-110692255D01*
X106512016Y-110697301D01*
X106512017Y-110697307D01*
X106545111Y-110844156D01*
X106563237Y-110924585D01*
X106565179Y-110929367D01*
X106565180Y-110929371D01*
X106650893Y-111140457D01*
X106652837Y-111145244D01*
X106777274Y-111348306D01*
X106933204Y-111528317D01*
X107015154Y-111596353D01*
X107097560Y-111664768D01*
X107137195Y-111723671D01*
X107138693Y-111794651D01*
X107101578Y-111855174D01*
X107092728Y-111862472D01*
X106989275Y-111940147D01*
X106985140Y-111943252D01*
X106820602Y-112115431D01*
X106817691Y-112119699D01*
X106817687Y-112119704D01*
X106785186Y-112167349D01*
X106686394Y-112312172D01*
X106586122Y-112528191D01*
X106522477Y-112757685D01*
X106521928Y-112762819D01*
X106521928Y-112762821D01*
X106516449Y-112814089D01*
X106497170Y-112994494D01*
X106497467Y-112999646D01*
X106497467Y-112999650D01*
X106503502Y-113104313D01*
X106510879Y-113232255D01*
X106512016Y-113237301D01*
X106512017Y-113237307D01*
X106545111Y-113384156D01*
X106563237Y-113464585D01*
X106565179Y-113469367D01*
X106565180Y-113469371D01*
X106650893Y-113680457D01*
X106652837Y-113685244D01*
X106777274Y-113888306D01*
X106933204Y-114068317D01*
X107015154Y-114136353D01*
X107097560Y-114204768D01*
X107137195Y-114263671D01*
X107138693Y-114334651D01*
X107101578Y-114395174D01*
X107092728Y-114402472D01*
X106989275Y-114480147D01*
X106985140Y-114483252D01*
X106820602Y-114655431D01*
X106817691Y-114659699D01*
X106817687Y-114659704D01*
X106785186Y-114707349D01*
X106686394Y-114852172D01*
X106586122Y-115068191D01*
X106522477Y-115297685D01*
X106521928Y-115302819D01*
X106521928Y-115302821D01*
X106516449Y-115354089D01*
X106497170Y-115534494D01*
X106497467Y-115539646D01*
X106497467Y-115539650D01*
X106503502Y-115644313D01*
X106510879Y-115772255D01*
X106512016Y-115777301D01*
X106512017Y-115777307D01*
X106545111Y-115924156D01*
X106563237Y-116004585D01*
X106565179Y-116009367D01*
X106565180Y-116009371D01*
X106650893Y-116220457D01*
X106652837Y-116225244D01*
X106777274Y-116428306D01*
X106933204Y-116608317D01*
X107023158Y-116682998D01*
X107097560Y-116744768D01*
X107137195Y-116803671D01*
X107138693Y-116874651D01*
X107101578Y-116935174D01*
X107092728Y-116942472D01*
X106998488Y-117013230D01*
X106985140Y-117023252D01*
X106820602Y-117195431D01*
X106817691Y-117199699D01*
X106817687Y-117199704D01*
X106785186Y-117247349D01*
X106686394Y-117392172D01*
X106586122Y-117608191D01*
X106522477Y-117837685D01*
X106521928Y-117842819D01*
X106521928Y-117842821D01*
X106516449Y-117894089D01*
X106497170Y-118074494D01*
X91948500Y-118074494D01*
X91948500Y-95219662D01*
X106497969Y-95219662D01*
X106511078Y-95447017D01*
X106512514Y-95457237D01*
X106562580Y-95679393D01*
X106565659Y-95689221D01*
X106651338Y-95900223D01*
X106655991Y-95909434D01*
X106751153Y-96064723D01*
X106761611Y-96074185D01*
X106770387Y-96070402D01*
X107577979Y-95262811D01*
X107584356Y-95251132D01*
X108314408Y-95251132D01*
X108314539Y-95252966D01*
X108318790Y-95259580D01*
X109124826Y-96065615D01*
X109136832Y-96072171D01*
X109141671Y-96068474D01*
X109207946Y-96043015D01*
X109277464Y-96057428D01*
X109301418Y-96074268D01*
X109310387Y-96070402D01*
X110117979Y-95262811D01*
X110124356Y-95251132D01*
X110854408Y-95251132D01*
X110854539Y-95252966D01*
X110858790Y-95259580D01*
X111664826Y-96065615D01*
X111676832Y-96072171D01*
X111688571Y-96063202D01*
X111732241Y-96002429D01*
X111737551Y-95993592D01*
X111838450Y-95789438D01*
X111842249Y-95779843D01*
X111908449Y-95561957D01*
X111910628Y-95551876D01*
X111940591Y-95324288D01*
X111941110Y-95317615D01*
X111942680Y-95253365D01*
X111942486Y-95246646D01*
X111940268Y-95219662D01*
X144597969Y-95219662D01*
X144611078Y-95447017D01*
X144612514Y-95457237D01*
X144662580Y-95679393D01*
X144665659Y-95689221D01*
X144751338Y-95900223D01*
X144755991Y-95909434D01*
X144851153Y-96064723D01*
X144861611Y-96074185D01*
X144870387Y-96070402D01*
X145677979Y-95262811D01*
X145684356Y-95251132D01*
X146414408Y-95251132D01*
X146414539Y-95252966D01*
X146418790Y-95259580D01*
X147224826Y-96065615D01*
X147236832Y-96072171D01*
X147241671Y-96068474D01*
X147307946Y-96043015D01*
X147377464Y-96057428D01*
X147401418Y-96074268D01*
X147410387Y-96070402D01*
X148217979Y-95262811D01*
X148224356Y-95251132D01*
X148954408Y-95251132D01*
X148954539Y-95252966D01*
X148958790Y-95259580D01*
X149764826Y-96065615D01*
X149776832Y-96072171D01*
X149788571Y-96063202D01*
X149832241Y-96002429D01*
X149837551Y-95993592D01*
X149938450Y-95789438D01*
X149942249Y-95779843D01*
X150008449Y-95561957D01*
X150010628Y-95551876D01*
X150040591Y-95324288D01*
X150041110Y-95317615D01*
X150042680Y-95253365D01*
X150042486Y-95246646D01*
X150023679Y-95017887D01*
X150021994Y-95007707D01*
X149966515Y-94786837D01*
X149963195Y-94777086D01*
X149872384Y-94568233D01*
X149867518Y-94559158D01*
X149788008Y-94436256D01*
X149777322Y-94427052D01*
X149767755Y-94431456D01*
X148962021Y-95237189D01*
X148954408Y-95251132D01*
X148224356Y-95251132D01*
X148225592Y-95248868D01*
X148225461Y-95247034D01*
X148221210Y-95240420D01*
X147415220Y-94434431D01*
X147403688Y-94428134D01*
X147398721Y-94432026D01*
X147332762Y-94458293D01*
X147263073Y-94444730D01*
X147238788Y-94428315D01*
X147237321Y-94427052D01*
X147227756Y-94431455D01*
X146422021Y-95237189D01*
X146414408Y-95251132D01*
X145684356Y-95251132D01*
X145685592Y-95248868D01*
X145685461Y-95247034D01*
X145681210Y-95240420D01*
X144875220Y-94434431D01*
X144863688Y-94428134D01*
X144851406Y-94437757D01*
X144789747Y-94528146D01*
X144784654Y-94537110D01*
X144688768Y-94743679D01*
X144685211Y-94753347D01*
X144624352Y-94972797D01*
X144622421Y-94982916D01*
X144598221Y-95209373D01*
X144597969Y-95219662D01*
X111940268Y-95219662D01*
X111923679Y-95017887D01*
X111921994Y-95007707D01*
X111866515Y-94786837D01*
X111863195Y-94777086D01*
X111772384Y-94568233D01*
X111767518Y-94559158D01*
X111688008Y-94436256D01*
X111677322Y-94427052D01*
X111667755Y-94431456D01*
X110862021Y-95237189D01*
X110854408Y-95251132D01*
X110124356Y-95251132D01*
X110125592Y-95248868D01*
X110125461Y-95247034D01*
X110121210Y-95240420D01*
X109315220Y-94434431D01*
X109303688Y-94428134D01*
X109298721Y-94432026D01*
X109232762Y-94458293D01*
X109163073Y-94444730D01*
X109138788Y-94428315D01*
X109137321Y-94427052D01*
X109127756Y-94431455D01*
X108322021Y-95237189D01*
X108314408Y-95251132D01*
X107584356Y-95251132D01*
X107585592Y-95248868D01*
X107585461Y-95247034D01*
X107581210Y-95240420D01*
X106775220Y-94434431D01*
X106763688Y-94428134D01*
X106751406Y-94437757D01*
X106689747Y-94528146D01*
X106684654Y-94537110D01*
X106588768Y-94743679D01*
X106585211Y-94753347D01*
X106524352Y-94972797D01*
X106522421Y-94982916D01*
X106498221Y-95209373D01*
X106497969Y-95219662D01*
X91948500Y-95219662D01*
X91948500Y-94062285D01*
X107127081Y-94062285D01*
X107133825Y-94074614D01*
X107937189Y-94877979D01*
X107951132Y-94885592D01*
X107952966Y-94885461D01*
X107959580Y-94881210D01*
X108767331Y-94073458D01*
X108773432Y-94062285D01*
X109667081Y-94062285D01*
X109673825Y-94074614D01*
X110477189Y-94877979D01*
X110491132Y-94885592D01*
X110492966Y-94885461D01*
X110499580Y-94881210D01*
X111307331Y-94073458D01*
X111313432Y-94062285D01*
X145227081Y-94062285D01*
X145233825Y-94074614D01*
X146037189Y-94877979D01*
X146051132Y-94885592D01*
X146052966Y-94885461D01*
X146059580Y-94881210D01*
X146867331Y-94073458D01*
X146873432Y-94062285D01*
X147767081Y-94062285D01*
X147773825Y-94074614D01*
X148577189Y-94877979D01*
X148591132Y-94885592D01*
X148592966Y-94885461D01*
X148599580Y-94881210D01*
X149407331Y-94073458D01*
X149414348Y-94060607D01*
X149406574Y-94049937D01*
X149398004Y-94043169D01*
X149389417Y-94037464D01*
X149190055Y-93927410D01*
X149180643Y-93923180D01*
X148965971Y-93847160D01*
X148956014Y-93844530D01*
X148731805Y-93804591D01*
X148721554Y-93803622D01*
X148493830Y-93800840D01*
X148483546Y-93801560D01*
X148258437Y-93836006D01*
X148248410Y-93838395D01*
X148031951Y-93909144D01*
X148022442Y-93913141D01*
X147820451Y-94018292D01*
X147811716Y-94023793D01*
X147775535Y-94050958D01*
X147767081Y-94062285D01*
X146873432Y-94062285D01*
X146874348Y-94060607D01*
X146866574Y-94049937D01*
X146858004Y-94043169D01*
X146849417Y-94037464D01*
X146650055Y-93927410D01*
X146640643Y-93923180D01*
X146425971Y-93847160D01*
X146416014Y-93844530D01*
X146191805Y-93804591D01*
X146181554Y-93803622D01*
X145953830Y-93800840D01*
X145943546Y-93801560D01*
X145718437Y-93836006D01*
X145708410Y-93838395D01*
X145491951Y-93909144D01*
X145482442Y-93913141D01*
X145280451Y-94018292D01*
X145271716Y-94023793D01*
X145235535Y-94050958D01*
X145227081Y-94062285D01*
X111313432Y-94062285D01*
X111314348Y-94060607D01*
X111306574Y-94049937D01*
X111298004Y-94043169D01*
X111289417Y-94037464D01*
X111090055Y-93927410D01*
X111080643Y-93923180D01*
X110865971Y-93847160D01*
X110856014Y-93844530D01*
X110631805Y-93804591D01*
X110621554Y-93803622D01*
X110393830Y-93800840D01*
X110383546Y-93801560D01*
X110158437Y-93836006D01*
X110148410Y-93838395D01*
X109931951Y-93909144D01*
X109922442Y-93913141D01*
X109720451Y-94018292D01*
X109711716Y-94023793D01*
X109675535Y-94050958D01*
X109667081Y-94062285D01*
X108773432Y-94062285D01*
X108774348Y-94060607D01*
X108766574Y-94049937D01*
X108758004Y-94043169D01*
X108749417Y-94037464D01*
X108550055Y-93927410D01*
X108540643Y-93923180D01*
X108325971Y-93847160D01*
X108316014Y-93844530D01*
X108091805Y-93804591D01*
X108081554Y-93803622D01*
X107853830Y-93800840D01*
X107843546Y-93801560D01*
X107618437Y-93836006D01*
X107608410Y-93838395D01*
X107391951Y-93909144D01*
X107382442Y-93913141D01*
X107180451Y-94018292D01*
X107171716Y-94023793D01*
X107135535Y-94050958D01*
X107127081Y-94062285D01*
X91948500Y-94062285D01*
X91948500Y-86280503D01*
X127444326Y-86280503D01*
X127449607Y-86287558D01*
X127637821Y-86397541D01*
X127647108Y-86401991D01*
X127859861Y-86483233D01*
X127869763Y-86486110D01*
X128092911Y-86531510D01*
X128103163Y-86532733D01*
X128330738Y-86541077D01*
X128341024Y-86540610D01*
X128566915Y-86511673D01*
X128577001Y-86509530D01*
X128795128Y-86444088D01*
X128804723Y-86440328D01*
X129009237Y-86340137D01*
X129018083Y-86334863D01*
X129083631Y-86288108D01*
X129092032Y-86277408D01*
X129085045Y-86264256D01*
X128282811Y-85462021D01*
X128268868Y-85454408D01*
X128267034Y-85454539D01*
X128260420Y-85458790D01*
X127451083Y-86268128D01*
X127444326Y-86280503D01*
X91948500Y-86280503D01*
X91948500Y-83748894D01*
X107183778Y-83748894D01*
X107183931Y-83753282D01*
X107183931Y-83753288D01*
X107193495Y-84027150D01*
X107193698Y-84032973D01*
X107243058Y-84312907D01*
X107244413Y-84317078D01*
X107244415Y-84317085D01*
X107272415Y-84403259D01*
X107330897Y-84583247D01*
X107332825Y-84587200D01*
X107332827Y-84587205D01*
X107352078Y-84626675D01*
X107455505Y-84838731D01*
X107457960Y-84842370D01*
X107457963Y-84842376D01*
X107611997Y-85070741D01*
X107612002Y-85070748D01*
X107614457Y-85074387D01*
X107617401Y-85077656D01*
X107617402Y-85077658D01*
X107801711Y-85282354D01*
X107804659Y-85285628D01*
X108022409Y-85468342D01*
X108263469Y-85618973D01*
X108523147Y-85734589D01*
X108575664Y-85749648D01*
X108714466Y-85789449D01*
X108796388Y-85812940D01*
X108800738Y-85813551D01*
X108800741Y-85813552D01*
X108905217Y-85828235D01*
X109077874Y-85852500D01*
X109290976Y-85852500D01*
X109293161Y-85852347D01*
X109293167Y-85852347D01*
X109499175Y-85837942D01*
X109499180Y-85837941D01*
X109503560Y-85837635D01*
X109781601Y-85778535D01*
X109785732Y-85777031D01*
X109785737Y-85777030D01*
X109932988Y-85723435D01*
X110048711Y-85681315D01*
X110145928Y-85629624D01*
X110295799Y-85549937D01*
X110295805Y-85549933D01*
X110299691Y-85547867D01*
X110303251Y-85545281D01*
X110303255Y-85545278D01*
X110526093Y-85383376D01*
X110526096Y-85383374D01*
X110529656Y-85380787D01*
X110532823Y-85377729D01*
X110730968Y-85186383D01*
X110730971Y-85186379D01*
X110734130Y-85183329D01*
X110830749Y-85059662D01*
X126817969Y-85059662D01*
X126831078Y-85287017D01*
X126832514Y-85297237D01*
X126882580Y-85519393D01*
X126885659Y-85529221D01*
X126971338Y-85740223D01*
X126975991Y-85749434D01*
X127071153Y-85904723D01*
X127081611Y-85914185D01*
X127090387Y-85910402D01*
X127897979Y-85102811D01*
X127904356Y-85091132D01*
X128634408Y-85091132D01*
X128634539Y-85092966D01*
X128638790Y-85099580D01*
X129444826Y-85905615D01*
X129458096Y-85912861D01*
X129520005Y-85889078D01*
X129589523Y-85903490D01*
X129631899Y-85940245D01*
X129634574Y-85943899D01*
X129637274Y-85948306D01*
X129793204Y-86128317D01*
X129976442Y-86280444D01*
X129980894Y-86283046D01*
X129980899Y-86283049D01*
X130079333Y-86340569D01*
X130182065Y-86400601D01*
X130404552Y-86485560D01*
X130409618Y-86486591D01*
X130409619Y-86486591D01*
X130463956Y-86497646D01*
X130637928Y-86533041D01*
X130772121Y-86537962D01*
X130870760Y-86541579D01*
X130870764Y-86541579D01*
X130875924Y-86541768D01*
X130881044Y-86541112D01*
X130881046Y-86541112D01*
X131107023Y-86512164D01*
X131107024Y-86512164D01*
X131112151Y-86511507D01*
X131196803Y-86486110D01*
X131335316Y-86444554D01*
X131335317Y-86444553D01*
X131340262Y-86443070D01*
X131554133Y-86338295D01*
X131558336Y-86335297D01*
X131558341Y-86335294D01*
X131743816Y-86202996D01*
X131743818Y-86202994D01*
X131748020Y-86199997D01*
X131916716Y-86031889D01*
X131974979Y-85950807D01*
X132030972Y-85907160D01*
X132101676Y-85900714D01*
X132164640Y-85933516D01*
X132176582Y-85947176D01*
X132177274Y-85948306D01*
X132333204Y-86128317D01*
X132516442Y-86280444D01*
X132520894Y-86283046D01*
X132520899Y-86283049D01*
X132619333Y-86340569D01*
X132722065Y-86400601D01*
X132944552Y-86485560D01*
X132949618Y-86486591D01*
X132949619Y-86486591D01*
X133003956Y-86497646D01*
X133177928Y-86533041D01*
X133312121Y-86537962D01*
X133410760Y-86541579D01*
X133410764Y-86541579D01*
X133415924Y-86541768D01*
X133421044Y-86541112D01*
X133421046Y-86541112D01*
X133647023Y-86512164D01*
X133647024Y-86512164D01*
X133652151Y-86511507D01*
X133736803Y-86486110D01*
X133875316Y-86444554D01*
X133875317Y-86444553D01*
X133880262Y-86443070D01*
X134094133Y-86338295D01*
X134098336Y-86335297D01*
X134098341Y-86335294D01*
X134283816Y-86202996D01*
X134283818Y-86202994D01*
X134288020Y-86199997D01*
X134456716Y-86031889D01*
X134514979Y-85950807D01*
X134570972Y-85907160D01*
X134641676Y-85900714D01*
X134704640Y-85933516D01*
X134716582Y-85947176D01*
X134717274Y-85948306D01*
X134873204Y-86128317D01*
X135056442Y-86280444D01*
X135060894Y-86283046D01*
X135060899Y-86283049D01*
X135159333Y-86340569D01*
X135262065Y-86400601D01*
X135484552Y-86485560D01*
X135489618Y-86486591D01*
X135489619Y-86486591D01*
X135543956Y-86497646D01*
X135717928Y-86533041D01*
X135852121Y-86537962D01*
X135950760Y-86541579D01*
X135950764Y-86541579D01*
X135955924Y-86541768D01*
X135961044Y-86541112D01*
X135961046Y-86541112D01*
X136187023Y-86512164D01*
X136187024Y-86512164D01*
X136192151Y-86511507D01*
X136276803Y-86486110D01*
X136415316Y-86444554D01*
X136415317Y-86444553D01*
X136420262Y-86443070D01*
X136634133Y-86338295D01*
X136638336Y-86335297D01*
X136638341Y-86335294D01*
X136823816Y-86202996D01*
X136823818Y-86202994D01*
X136828020Y-86199997D01*
X136996716Y-86031889D01*
X137054979Y-85950807D01*
X137110972Y-85907160D01*
X137181676Y-85900714D01*
X137244640Y-85933516D01*
X137256582Y-85947176D01*
X137257274Y-85948306D01*
X137413204Y-86128317D01*
X137596442Y-86280444D01*
X137600894Y-86283046D01*
X137600899Y-86283049D01*
X137699333Y-86340569D01*
X137802065Y-86400601D01*
X138024552Y-86485560D01*
X138029618Y-86486591D01*
X138029619Y-86486591D01*
X138083956Y-86497646D01*
X138257928Y-86533041D01*
X138392121Y-86537962D01*
X138490760Y-86541579D01*
X138490764Y-86541579D01*
X138495924Y-86541768D01*
X138501044Y-86541112D01*
X138501046Y-86541112D01*
X138727023Y-86512164D01*
X138727024Y-86512164D01*
X138732151Y-86511507D01*
X138816803Y-86486110D01*
X138955316Y-86444554D01*
X138955317Y-86444553D01*
X138960262Y-86443070D01*
X139174133Y-86338295D01*
X139178336Y-86335297D01*
X139178341Y-86335294D01*
X139363816Y-86202996D01*
X139363818Y-86202994D01*
X139368020Y-86199997D01*
X139536716Y-86031889D01*
X139594979Y-85950807D01*
X139650972Y-85907160D01*
X139721676Y-85900714D01*
X139784640Y-85933516D01*
X139796582Y-85947176D01*
X139797274Y-85948306D01*
X139953204Y-86128317D01*
X140136442Y-86280444D01*
X140140894Y-86283046D01*
X140140899Y-86283049D01*
X140239333Y-86340569D01*
X140342065Y-86400601D01*
X140564552Y-86485560D01*
X140569618Y-86486591D01*
X140569619Y-86486591D01*
X140623956Y-86497646D01*
X140797928Y-86533041D01*
X140932121Y-86537962D01*
X141030760Y-86541579D01*
X141030764Y-86541579D01*
X141035924Y-86541768D01*
X141041044Y-86541112D01*
X141041046Y-86541112D01*
X141267023Y-86512164D01*
X141267024Y-86512164D01*
X141272151Y-86511507D01*
X141356803Y-86486110D01*
X141495316Y-86444554D01*
X141495317Y-86444553D01*
X141500262Y-86443070D01*
X141714133Y-86338295D01*
X141718336Y-86335297D01*
X141718341Y-86335294D01*
X141903816Y-86202996D01*
X141903818Y-86202994D01*
X141908020Y-86199997D01*
X142076716Y-86031889D01*
X142215690Y-85838486D01*
X142261774Y-85745244D01*
X142318917Y-85629624D01*
X142318918Y-85629622D01*
X142321211Y-85624982D01*
X142390443Y-85397111D01*
X142421529Y-85160992D01*
X142423264Y-85090000D01*
X142403750Y-84852644D01*
X142345731Y-84621663D01*
X142250767Y-84403259D01*
X142233851Y-84377110D01*
X142167424Y-84274431D01*
X142121406Y-84203298D01*
X141961124Y-84027150D01*
X141957073Y-84023951D01*
X141957069Y-84023947D01*
X141823348Y-83918342D01*
X141782285Y-83860425D01*
X141779053Y-83789502D01*
X141802610Y-83748894D01*
X145283778Y-83748894D01*
X145283931Y-83753282D01*
X145283931Y-83753288D01*
X145293495Y-84027150D01*
X145293698Y-84032973D01*
X145343058Y-84312907D01*
X145344413Y-84317078D01*
X145344415Y-84317085D01*
X145372415Y-84403259D01*
X145430897Y-84583247D01*
X145432825Y-84587200D01*
X145432827Y-84587205D01*
X145452078Y-84626675D01*
X145555505Y-84838731D01*
X145557960Y-84842370D01*
X145557963Y-84842376D01*
X145711997Y-85070741D01*
X145712002Y-85070748D01*
X145714457Y-85074387D01*
X145717401Y-85077656D01*
X145717402Y-85077658D01*
X145901711Y-85282354D01*
X145904659Y-85285628D01*
X146122409Y-85468342D01*
X146363469Y-85618973D01*
X146623147Y-85734589D01*
X146675664Y-85749648D01*
X146814466Y-85789449D01*
X146896388Y-85812940D01*
X146900738Y-85813551D01*
X146900741Y-85813552D01*
X147005217Y-85828235D01*
X147177874Y-85852500D01*
X147390976Y-85852500D01*
X147393161Y-85852347D01*
X147393167Y-85852347D01*
X147599175Y-85837942D01*
X147599180Y-85837941D01*
X147603560Y-85837635D01*
X147881601Y-85778535D01*
X147885732Y-85777031D01*
X147885737Y-85777030D01*
X148032988Y-85723435D01*
X148148711Y-85681315D01*
X148245928Y-85629624D01*
X148395799Y-85549937D01*
X148395805Y-85549933D01*
X148399691Y-85547867D01*
X148403251Y-85545281D01*
X148403255Y-85545278D01*
X148626093Y-85383376D01*
X148626096Y-85383374D01*
X148629656Y-85380787D01*
X148632823Y-85377729D01*
X148830968Y-85186383D01*
X148830971Y-85186379D01*
X148834130Y-85183329D01*
X149009133Y-84959335D01*
X149093792Y-84812702D01*
X149149055Y-84716985D01*
X149149058Y-84716980D01*
X149151260Y-84713165D01*
X149152910Y-84709081D01*
X149152913Y-84709075D01*
X149256093Y-84453693D01*
X149256094Y-84453690D01*
X149257742Y-84449611D01*
X149270381Y-84398921D01*
X149325444Y-84178073D01*
X149326509Y-84173802D01*
X149353360Y-83918342D01*
X149355763Y-83895475D01*
X149355763Y-83895472D01*
X149356222Y-83891106D01*
X149356069Y-83886712D01*
X149346456Y-83611424D01*
X149346455Y-83611417D01*
X149346302Y-83607027D01*
X149343586Y-83591619D01*
X149308654Y-83393516D01*
X149296942Y-83327093D01*
X149295587Y-83322922D01*
X149295585Y-83322915D01*
X149210464Y-83060942D01*
X149209103Y-83056753D01*
X149191849Y-83021376D01*
X149151385Y-82938413D01*
X149084495Y-82801269D01*
X149082040Y-82797630D01*
X149082037Y-82797624D01*
X148928003Y-82569259D01*
X148927998Y-82569252D01*
X148925543Y-82565613D01*
X148917955Y-82557185D01*
X148738289Y-82357646D01*
X148738288Y-82357645D01*
X148735341Y-82354372D01*
X148517591Y-82171658D01*
X148327991Y-82053183D01*
X148280255Y-82023354D01*
X148276531Y-82021027D01*
X148059907Y-81924580D01*
X148020867Y-81907198D01*
X148020865Y-81907197D01*
X148016853Y-81905411D01*
X147810835Y-81846336D01*
X147747839Y-81828272D01*
X147747838Y-81828272D01*
X147743612Y-81827060D01*
X147739262Y-81826449D01*
X147739259Y-81826448D01*
X147634783Y-81811765D01*
X147462126Y-81787500D01*
X147249024Y-81787500D01*
X147246839Y-81787653D01*
X147246833Y-81787653D01*
X147040825Y-81802058D01*
X147040820Y-81802059D01*
X147036440Y-81802365D01*
X146758399Y-81861465D01*
X146754268Y-81862969D01*
X146754263Y-81862970D01*
X146632748Y-81907198D01*
X146491289Y-81958685D01*
X146414896Y-81999304D01*
X146244201Y-82090063D01*
X146244195Y-82090067D01*
X146240309Y-82092133D01*
X146236749Y-82094719D01*
X146236745Y-82094722D01*
X146111674Y-82185592D01*
X146010344Y-82259213D01*
X146007180Y-82262269D01*
X146007177Y-82262271D01*
X145809032Y-82453617D01*
X145809029Y-82453621D01*
X145805870Y-82456671D01*
X145630867Y-82680665D01*
X145586658Y-82757237D01*
X145493385Y-82918790D01*
X145488740Y-82926835D01*
X145487090Y-82930919D01*
X145487087Y-82930925D01*
X145413347Y-83113440D01*
X145382258Y-83190389D01*
X145381194Y-83194658D01*
X145381193Y-83194660D01*
X145377456Y-83209648D01*
X145313491Y-83466198D01*
X145313032Y-83470568D01*
X145313031Y-83470572D01*
X145284666Y-83740444D01*
X145283778Y-83748894D01*
X141802610Y-83748894D01*
X141814678Y-83728091D01*
X141828271Y-83716882D01*
X141903814Y-83662998D01*
X141903821Y-83662992D01*
X141908020Y-83659997D01*
X142076716Y-83491889D01*
X142215690Y-83298486D01*
X142261774Y-83205244D01*
X142318917Y-83089624D01*
X142318918Y-83089622D01*
X142321211Y-83084982D01*
X142390443Y-82857111D01*
X142407142Y-82730270D01*
X142421092Y-82624313D01*
X142421092Y-82624309D01*
X142421529Y-82620992D01*
X142421974Y-82602793D01*
X142423182Y-82553365D01*
X142423182Y-82553361D01*
X142423264Y-82550000D01*
X142403750Y-82312644D01*
X142345731Y-82081663D01*
X142273757Y-81916132D01*
X142252827Y-81867996D01*
X142252825Y-81867993D01*
X142250767Y-81863259D01*
X142233851Y-81837110D01*
X142167424Y-81734431D01*
X142121406Y-81663298D01*
X141961124Y-81487150D01*
X141957073Y-81483951D01*
X141957069Y-81483947D01*
X141778278Y-81342747D01*
X141778273Y-81342744D01*
X141774224Y-81339546D01*
X141769708Y-81337053D01*
X141769705Y-81337051D01*
X141570250Y-81226946D01*
X141570246Y-81226944D01*
X141565726Y-81224449D01*
X141560857Y-81222725D01*
X141560853Y-81222723D01*
X141346105Y-81146676D01*
X141346101Y-81146675D01*
X141341230Y-81144950D01*
X141336140Y-81144043D01*
X141336135Y-81144042D01*
X141180684Y-81116353D01*
X141106764Y-81103186D01*
X141017637Y-81102097D01*
X140873795Y-81100339D01*
X140873793Y-81100339D01*
X140868625Y-81100276D01*
X140633209Y-81136300D01*
X140406838Y-81210289D01*
X140195590Y-81320258D01*
X140191457Y-81323361D01*
X140191454Y-81323363D01*
X140009275Y-81460147D01*
X140005140Y-81463252D01*
X139840602Y-81635431D01*
X139818629Y-81667642D01*
X139805186Y-81687349D01*
X139750274Y-81732351D01*
X139679749Y-81740522D01*
X139616002Y-81709267D01*
X139595306Y-81684784D01*
X139584217Y-81667642D01*
X139584212Y-81667636D01*
X139581406Y-81663298D01*
X139421124Y-81487150D01*
X139417073Y-81483951D01*
X139417069Y-81483947D01*
X139238278Y-81342747D01*
X139238273Y-81342744D01*
X139234224Y-81339546D01*
X139229708Y-81337053D01*
X139229705Y-81337051D01*
X139030250Y-81226946D01*
X139030246Y-81226944D01*
X139025726Y-81224449D01*
X139020857Y-81222725D01*
X139020853Y-81222723D01*
X138806105Y-81146676D01*
X138806101Y-81146675D01*
X138801230Y-81144950D01*
X138796140Y-81144043D01*
X138796135Y-81144042D01*
X138640684Y-81116353D01*
X138566764Y-81103186D01*
X138477637Y-81102097D01*
X138333795Y-81100339D01*
X138333793Y-81100339D01*
X138328625Y-81100276D01*
X138093209Y-81136300D01*
X137866838Y-81210289D01*
X137655590Y-81320258D01*
X137651457Y-81323361D01*
X137651454Y-81323363D01*
X137469275Y-81460147D01*
X137465140Y-81463252D01*
X137300602Y-81635431D01*
X137278629Y-81667642D01*
X137265186Y-81687349D01*
X137210274Y-81732351D01*
X137139749Y-81740522D01*
X137076002Y-81709267D01*
X137055306Y-81684784D01*
X137044217Y-81667642D01*
X137044212Y-81667636D01*
X137041406Y-81663298D01*
X136881124Y-81487150D01*
X136877073Y-81483951D01*
X136877069Y-81483947D01*
X136698278Y-81342747D01*
X136698273Y-81342744D01*
X136694224Y-81339546D01*
X136689708Y-81337053D01*
X136689705Y-81337051D01*
X136490250Y-81226946D01*
X136490246Y-81226944D01*
X136485726Y-81224449D01*
X136480857Y-81222725D01*
X136480853Y-81222723D01*
X136266105Y-81146676D01*
X136266101Y-81146675D01*
X136261230Y-81144950D01*
X136256140Y-81144043D01*
X136256135Y-81144042D01*
X136100684Y-81116353D01*
X136026764Y-81103186D01*
X135937637Y-81102097D01*
X135793795Y-81100339D01*
X135793793Y-81100339D01*
X135788625Y-81100276D01*
X135553209Y-81136300D01*
X135326838Y-81210289D01*
X135115590Y-81320258D01*
X135111457Y-81323361D01*
X135111454Y-81323363D01*
X134929275Y-81460147D01*
X134925140Y-81463252D01*
X134760602Y-81635431D01*
X134738629Y-81667642D01*
X134725186Y-81687349D01*
X134670274Y-81732351D01*
X134599749Y-81740522D01*
X134536002Y-81709267D01*
X134515306Y-81684784D01*
X134504217Y-81667642D01*
X134504212Y-81667636D01*
X134501406Y-81663298D01*
X134341124Y-81487150D01*
X134337073Y-81483951D01*
X134337069Y-81483947D01*
X134158278Y-81342747D01*
X134158273Y-81342744D01*
X134154224Y-81339546D01*
X134149708Y-81337053D01*
X134149705Y-81337051D01*
X133950250Y-81226946D01*
X133950246Y-81226944D01*
X133945726Y-81224449D01*
X133940857Y-81222725D01*
X133940853Y-81222723D01*
X133726105Y-81146676D01*
X133726101Y-81146675D01*
X133721230Y-81144950D01*
X133716140Y-81144043D01*
X133716135Y-81144042D01*
X133560684Y-81116353D01*
X133486764Y-81103186D01*
X133397637Y-81102097D01*
X133253795Y-81100339D01*
X133253793Y-81100339D01*
X133248625Y-81100276D01*
X133013209Y-81136300D01*
X132786838Y-81210289D01*
X132575590Y-81320258D01*
X132571457Y-81323361D01*
X132571454Y-81323363D01*
X132389275Y-81460147D01*
X132385140Y-81463252D01*
X132220602Y-81635431D01*
X132198629Y-81667642D01*
X132185186Y-81687349D01*
X132130274Y-81732351D01*
X132059749Y-81740522D01*
X131996002Y-81709267D01*
X131975306Y-81684784D01*
X131964217Y-81667642D01*
X131964212Y-81667636D01*
X131961406Y-81663298D01*
X131801124Y-81487150D01*
X131797073Y-81483951D01*
X131797069Y-81483947D01*
X131618278Y-81342747D01*
X131618273Y-81342744D01*
X131614224Y-81339546D01*
X131609708Y-81337053D01*
X131609705Y-81337051D01*
X131410250Y-81226946D01*
X131410246Y-81226944D01*
X131405726Y-81224449D01*
X131400857Y-81222725D01*
X131400853Y-81222723D01*
X131186105Y-81146676D01*
X131186101Y-81146675D01*
X131181230Y-81144950D01*
X131176140Y-81144043D01*
X131176135Y-81144042D01*
X131020684Y-81116353D01*
X130946764Y-81103186D01*
X130857637Y-81102097D01*
X130713795Y-81100339D01*
X130713793Y-81100339D01*
X130708625Y-81100276D01*
X130473209Y-81136300D01*
X130246838Y-81210289D01*
X130035590Y-81320258D01*
X130031457Y-81323361D01*
X130031454Y-81323363D01*
X129849275Y-81460147D01*
X129845140Y-81463252D01*
X129680602Y-81635431D01*
X129638064Y-81697790D01*
X129583155Y-81742790D01*
X129512631Y-81750961D01*
X129460940Y-81726588D01*
X129458940Y-81726307D01*
X129447755Y-81731456D01*
X128642021Y-82537189D01*
X128634408Y-82551132D01*
X128634539Y-82552966D01*
X128638790Y-82559580D01*
X129444826Y-83365615D01*
X129458096Y-83372861D01*
X129520005Y-83349078D01*
X129589523Y-83363490D01*
X129631899Y-83400245D01*
X129634574Y-83403899D01*
X129637274Y-83408306D01*
X129793204Y-83588317D01*
X129909599Y-83684950D01*
X129957560Y-83724768D01*
X129997195Y-83783671D01*
X129998693Y-83854651D01*
X129961578Y-83915174D01*
X129952728Y-83922472D01*
X129849275Y-84000147D01*
X129845140Y-84003252D01*
X129841568Y-84006990D01*
X129686339Y-84169428D01*
X129680602Y-84175431D01*
X129638064Y-84237790D01*
X129583155Y-84282790D01*
X129512631Y-84290961D01*
X129460940Y-84266588D01*
X129458940Y-84266307D01*
X129447755Y-84271456D01*
X128642021Y-85077189D01*
X128634408Y-85091132D01*
X127904356Y-85091132D01*
X127905592Y-85088868D01*
X127905461Y-85087034D01*
X127901210Y-85080420D01*
X127095220Y-84274431D01*
X127083688Y-84268134D01*
X127071406Y-84277757D01*
X127009747Y-84368146D01*
X127004654Y-84377110D01*
X126908768Y-84583679D01*
X126905211Y-84593347D01*
X126844352Y-84812797D01*
X126842421Y-84822916D01*
X126818221Y-85049373D01*
X126817969Y-85059662D01*
X110830749Y-85059662D01*
X110909133Y-84959335D01*
X110993792Y-84812702D01*
X111049055Y-84716985D01*
X111049058Y-84716980D01*
X111051260Y-84713165D01*
X111052910Y-84709081D01*
X111052913Y-84709075D01*
X111156093Y-84453693D01*
X111156094Y-84453690D01*
X111157742Y-84449611D01*
X111170381Y-84398921D01*
X111225444Y-84178073D01*
X111226509Y-84173802D01*
X111253360Y-83918342D01*
X111255763Y-83895475D01*
X111255763Y-83895472D01*
X111256222Y-83891106D01*
X111256069Y-83886712D01*
X111250963Y-83740503D01*
X127444326Y-83740503D01*
X127449727Y-83747718D01*
X127474539Y-83814238D01*
X127459448Y-83883612D01*
X127449837Y-83898592D01*
X127447081Y-83902284D01*
X127453825Y-83914614D01*
X128257189Y-84717979D01*
X128271132Y-84725592D01*
X128272966Y-84725461D01*
X128279580Y-84721210D01*
X129087331Y-83913458D01*
X129094348Y-83900607D01*
X129087690Y-83891469D01*
X129063740Y-83824634D01*
X129079727Y-83755460D01*
X129090420Y-83739460D01*
X129092031Y-83737408D01*
X129085045Y-83724256D01*
X128282811Y-82922021D01*
X128268868Y-82914408D01*
X128267034Y-82914539D01*
X128260420Y-82918790D01*
X127451083Y-83728128D01*
X127444326Y-83740503D01*
X111250963Y-83740503D01*
X111246456Y-83611424D01*
X111246455Y-83611417D01*
X111246302Y-83607027D01*
X111243586Y-83591619D01*
X111208654Y-83393516D01*
X111196942Y-83327093D01*
X111195587Y-83322922D01*
X111195585Y-83322915D01*
X111110464Y-83060942D01*
X111109103Y-83056753D01*
X111091849Y-83021376D01*
X111051385Y-82938413D01*
X110984495Y-82801269D01*
X110982040Y-82797630D01*
X110982037Y-82797624D01*
X110828003Y-82569259D01*
X110827998Y-82569252D01*
X110825543Y-82565613D01*
X110817955Y-82557185D01*
X110784169Y-82519662D01*
X126817969Y-82519662D01*
X126831078Y-82747017D01*
X126832514Y-82757237D01*
X126882580Y-82979393D01*
X126885659Y-82989221D01*
X126971338Y-83200223D01*
X126975991Y-83209434D01*
X127071153Y-83364723D01*
X127081611Y-83374185D01*
X127090387Y-83370402D01*
X127897979Y-82562811D01*
X127905592Y-82548868D01*
X127905461Y-82547034D01*
X127901210Y-82540420D01*
X127095220Y-81734431D01*
X127083688Y-81728134D01*
X127071406Y-81737757D01*
X127009747Y-81828146D01*
X127004654Y-81837110D01*
X126908768Y-82043679D01*
X126905211Y-82053347D01*
X126844352Y-82272797D01*
X126842421Y-82282916D01*
X126818221Y-82509373D01*
X126817969Y-82519662D01*
X110784169Y-82519662D01*
X110638289Y-82357646D01*
X110638288Y-82357645D01*
X110635341Y-82354372D01*
X110417591Y-82171658D01*
X110227991Y-82053183D01*
X110180255Y-82023354D01*
X110176531Y-82021027D01*
X109959907Y-81924580D01*
X109920867Y-81907198D01*
X109920865Y-81907197D01*
X109916853Y-81905411D01*
X109710835Y-81846336D01*
X109647839Y-81828272D01*
X109647838Y-81828272D01*
X109643612Y-81827060D01*
X109639262Y-81826449D01*
X109639259Y-81826448D01*
X109534783Y-81811765D01*
X109362126Y-81787500D01*
X109149024Y-81787500D01*
X109146839Y-81787653D01*
X109146833Y-81787653D01*
X108940825Y-81802058D01*
X108940820Y-81802059D01*
X108936440Y-81802365D01*
X108658399Y-81861465D01*
X108654268Y-81862969D01*
X108654263Y-81862970D01*
X108532748Y-81907198D01*
X108391289Y-81958685D01*
X108314896Y-81999304D01*
X108144201Y-82090063D01*
X108144195Y-82090067D01*
X108140309Y-82092133D01*
X108136749Y-82094719D01*
X108136745Y-82094722D01*
X108011674Y-82185592D01*
X107910344Y-82259213D01*
X107907180Y-82262269D01*
X107907177Y-82262271D01*
X107709032Y-82453617D01*
X107709029Y-82453621D01*
X107705870Y-82456671D01*
X107530867Y-82680665D01*
X107486658Y-82757237D01*
X107393385Y-82918790D01*
X107388740Y-82926835D01*
X107387090Y-82930919D01*
X107387087Y-82930925D01*
X107313347Y-83113440D01*
X107282258Y-83190389D01*
X107281194Y-83194658D01*
X107281193Y-83194660D01*
X107277456Y-83209648D01*
X107213491Y-83466198D01*
X107213032Y-83470568D01*
X107213031Y-83470572D01*
X107184666Y-83740444D01*
X107183778Y-83748894D01*
X91948500Y-83748894D01*
X91948500Y-81362285D01*
X127447081Y-81362285D01*
X127453825Y-81374614D01*
X128257189Y-82177979D01*
X128271132Y-82185592D01*
X128272966Y-82185461D01*
X128279580Y-82181210D01*
X129087331Y-81373458D01*
X129094348Y-81360607D01*
X129086574Y-81349937D01*
X129078004Y-81343169D01*
X129069417Y-81337464D01*
X128870055Y-81227410D01*
X128860643Y-81223180D01*
X128645971Y-81147160D01*
X128636014Y-81144530D01*
X128411805Y-81104591D01*
X128401554Y-81103622D01*
X128173830Y-81100840D01*
X128163546Y-81101560D01*
X127938437Y-81136006D01*
X127928410Y-81138395D01*
X127711951Y-81209144D01*
X127702442Y-81213141D01*
X127500451Y-81318292D01*
X127491716Y-81323793D01*
X127455535Y-81350958D01*
X127447081Y-81362285D01*
X91948500Y-81362285D01*
X91948500Y-75422733D01*
X144828822Y-75422733D01*
X144828975Y-75427121D01*
X144828975Y-75427127D01*
X144837900Y-75682685D01*
X144838625Y-75703458D01*
X144839387Y-75707781D01*
X144839388Y-75707788D01*
X144863164Y-75842624D01*
X144887402Y-75980087D01*
X144974203Y-76247235D01*
X144976131Y-76251188D01*
X144976133Y-76251193D01*
X145030141Y-76361924D01*
X145097340Y-76499702D01*
X145099795Y-76503341D01*
X145099798Y-76503347D01*
X145166884Y-76602805D01*
X145254415Y-76732576D01*
X145257360Y-76735847D01*
X145257361Y-76735848D01*
X145314668Y-76799494D01*
X145442371Y-76941322D01*
X145657550Y-77121879D01*
X145895764Y-77270731D01*
X145903940Y-77274371D01*
X146129111Y-77374624D01*
X146152375Y-77384982D01*
X146422390Y-77462407D01*
X146426740Y-77463018D01*
X146426743Y-77463019D01*
X146500360Y-77473365D01*
X146700552Y-77501500D01*
X146911146Y-77501500D01*
X146913332Y-77501347D01*
X146913336Y-77501347D01*
X147116827Y-77487118D01*
X147116832Y-77487117D01*
X147121212Y-77486811D01*
X147395970Y-77428409D01*
X147400099Y-77426906D01*
X147400103Y-77426905D01*
X147655781Y-77333846D01*
X147655785Y-77333844D01*
X147659926Y-77332337D01*
X147907942Y-77200464D01*
X147981454Y-77147055D01*
X148131629Y-77037947D01*
X148131632Y-77037944D01*
X148135192Y-77035358D01*
X148138581Y-77032086D01*
X148269154Y-76905992D01*
X148337252Y-76840231D01*
X148369079Y-76799494D01*
X171267170Y-76799494D01*
X171267467Y-76804646D01*
X171267467Y-76804650D01*
X171275348Y-76941322D01*
X171280879Y-77037255D01*
X171282016Y-77042301D01*
X171282017Y-77042307D01*
X171315111Y-77189156D01*
X171333237Y-77269585D01*
X171335179Y-77274367D01*
X171335180Y-77274371D01*
X171411782Y-77463019D01*
X171422837Y-77490244D01*
X171547274Y-77693306D01*
X171703204Y-77873317D01*
X171886442Y-78025444D01*
X171890894Y-78028046D01*
X171890899Y-78028049D01*
X171989333Y-78085569D01*
X172092065Y-78145601D01*
X172314552Y-78230560D01*
X172319618Y-78231591D01*
X172319619Y-78231591D01*
X172373956Y-78242646D01*
X172547928Y-78278041D01*
X172682121Y-78282962D01*
X172780760Y-78286579D01*
X172780764Y-78286579D01*
X172785924Y-78286768D01*
X172791044Y-78286112D01*
X172791046Y-78286112D01*
X173017023Y-78257164D01*
X173017024Y-78257164D01*
X173022151Y-78256507D01*
X173105200Y-78231591D01*
X173245316Y-78189554D01*
X173245317Y-78189553D01*
X173250262Y-78188070D01*
X173464133Y-78083295D01*
X173468336Y-78080297D01*
X173468341Y-78080294D01*
X173653816Y-77947996D01*
X173653818Y-77947994D01*
X173658020Y-77944997D01*
X173826716Y-77776889D01*
X173884979Y-77695807D01*
X173940972Y-77652160D01*
X174011676Y-77645714D01*
X174074640Y-77678516D01*
X174086582Y-77692176D01*
X174087274Y-77693306D01*
X174243204Y-77873317D01*
X174426442Y-78025444D01*
X174430894Y-78028046D01*
X174430899Y-78028049D01*
X174529333Y-78085569D01*
X174632065Y-78145601D01*
X174854552Y-78230560D01*
X174859618Y-78231591D01*
X174859619Y-78231591D01*
X174913956Y-78242646D01*
X175087928Y-78278041D01*
X175222121Y-78282962D01*
X175320760Y-78286579D01*
X175320764Y-78286579D01*
X175325924Y-78286768D01*
X175331044Y-78286112D01*
X175331046Y-78286112D01*
X175557023Y-78257164D01*
X175557024Y-78257164D01*
X175562151Y-78256507D01*
X175645200Y-78231591D01*
X175785316Y-78189554D01*
X175785317Y-78189553D01*
X175790262Y-78188070D01*
X176004133Y-78083295D01*
X176008336Y-78080297D01*
X176008341Y-78080294D01*
X176193816Y-77947996D01*
X176193818Y-77947994D01*
X176198020Y-77944997D01*
X176366716Y-77776889D01*
X176505690Y-77583486D01*
X176546211Y-77501500D01*
X176608917Y-77374624D01*
X176608918Y-77374622D01*
X176611211Y-77369982D01*
X176680443Y-77142111D01*
X176694248Y-77037255D01*
X176711092Y-76909313D01*
X176711092Y-76909309D01*
X176711529Y-76905992D01*
X176711611Y-76902640D01*
X176713182Y-76838365D01*
X176713182Y-76838361D01*
X176713264Y-76835000D01*
X176693750Y-76597644D01*
X176635731Y-76366663D01*
X176550004Y-76169502D01*
X176542827Y-76152996D01*
X176542825Y-76152993D01*
X176540767Y-76148259D01*
X176523694Y-76121867D01*
X176461365Y-76025522D01*
X176411406Y-75948298D01*
X176251124Y-75772150D01*
X176247073Y-75768951D01*
X176247069Y-75768947D01*
X176113348Y-75663342D01*
X176072285Y-75605425D01*
X176069053Y-75534502D01*
X176104678Y-75473091D01*
X176118271Y-75461882D01*
X176193814Y-75407998D01*
X176193821Y-75407992D01*
X176198020Y-75404997D01*
X176366716Y-75236889D01*
X176505690Y-75043486D01*
X176522124Y-75010236D01*
X176608917Y-74834624D01*
X176608918Y-74834622D01*
X176611211Y-74829982D01*
X176680443Y-74602111D01*
X176698934Y-74461663D01*
X176711092Y-74369313D01*
X176711092Y-74369309D01*
X176711529Y-74365992D01*
X176713264Y-74295000D01*
X176693750Y-74057644D01*
X176635731Y-73826663D01*
X176550004Y-73629502D01*
X176542827Y-73612996D01*
X176542825Y-73612993D01*
X176540767Y-73608259D01*
X176535299Y-73599806D01*
X176460703Y-73484500D01*
X176411406Y-73408298D01*
X176251124Y-73232150D01*
X176247073Y-73228951D01*
X176247069Y-73228947D01*
X176068278Y-73087747D01*
X176068273Y-73087744D01*
X176064224Y-73084546D01*
X176059708Y-73082053D01*
X176059705Y-73082051D01*
X175860250Y-72971946D01*
X175860246Y-72971944D01*
X175855726Y-72969449D01*
X175850857Y-72967725D01*
X175850853Y-72967723D01*
X175636105Y-72891676D01*
X175636101Y-72891675D01*
X175631230Y-72889950D01*
X175626140Y-72889043D01*
X175626135Y-72889042D01*
X175498814Y-72866364D01*
X175396764Y-72848186D01*
X175307637Y-72847097D01*
X175163795Y-72845339D01*
X175163793Y-72845339D01*
X175158625Y-72845276D01*
X174923209Y-72881300D01*
X174696838Y-72955289D01*
X174485590Y-73065258D01*
X174481457Y-73068361D01*
X174481454Y-73068363D01*
X174299275Y-73205147D01*
X174295140Y-73208252D01*
X174291568Y-73211990D01*
X174181001Y-73327692D01*
X174130602Y-73380431D01*
X174097936Y-73428317D01*
X174095186Y-73432349D01*
X174040274Y-73477351D01*
X173969749Y-73485522D01*
X173906002Y-73454267D01*
X173885306Y-73429784D01*
X173874217Y-73412642D01*
X173874212Y-73412636D01*
X173871406Y-73408298D01*
X173711124Y-73232150D01*
X173707073Y-73228951D01*
X173707069Y-73228947D01*
X173528278Y-73087747D01*
X173528273Y-73087744D01*
X173524224Y-73084546D01*
X173519708Y-73082053D01*
X173519705Y-73082051D01*
X173320250Y-72971946D01*
X173320246Y-72971944D01*
X173315726Y-72969449D01*
X173310857Y-72967725D01*
X173310853Y-72967723D01*
X173096105Y-72891676D01*
X173096101Y-72891675D01*
X173091230Y-72889950D01*
X173086140Y-72889043D01*
X173086135Y-72889042D01*
X172958814Y-72866364D01*
X172856764Y-72848186D01*
X172767637Y-72847097D01*
X172623795Y-72845339D01*
X172623793Y-72845339D01*
X172618625Y-72845276D01*
X172383209Y-72881300D01*
X172156838Y-72955289D01*
X171945590Y-73065258D01*
X171941457Y-73068361D01*
X171941454Y-73068363D01*
X171759275Y-73205147D01*
X171755140Y-73208252D01*
X171751568Y-73211990D01*
X171641001Y-73327692D01*
X171590602Y-73380431D01*
X171587691Y-73384699D01*
X171587687Y-73384704D01*
X171555684Y-73431619D01*
X171456394Y-73577172D01*
X171417903Y-73660094D01*
X171393121Y-73713484D01*
X171356122Y-73793191D01*
X171292477Y-74022685D01*
X171291928Y-74027819D01*
X171291928Y-74027821D01*
X171287978Y-74064784D01*
X171267170Y-74259494D01*
X171267467Y-74264646D01*
X171267467Y-74264650D01*
X171273375Y-74367118D01*
X171280879Y-74497255D01*
X171282016Y-74502301D01*
X171282017Y-74502307D01*
X171315111Y-74649156D01*
X171333237Y-74729585D01*
X171335179Y-74734367D01*
X171335180Y-74734371D01*
X171388930Y-74866741D01*
X171422837Y-74950244D01*
X171547274Y-75153306D01*
X171703204Y-75333317D01*
X171785154Y-75401353D01*
X171867560Y-75469768D01*
X171907195Y-75528671D01*
X171908693Y-75599651D01*
X171871578Y-75660174D01*
X171862728Y-75667472D01*
X171759275Y-75745147D01*
X171755140Y-75748252D01*
X171751568Y-75751990D01*
X171641001Y-75867692D01*
X171590602Y-75920431D01*
X171587691Y-75924699D01*
X171587687Y-75924704D01*
X171555684Y-75971619D01*
X171456394Y-76117172D01*
X171356122Y-76333191D01*
X171292477Y-76562685D01*
X171291928Y-76567819D01*
X171291928Y-76567821D01*
X171287978Y-76604784D01*
X171267170Y-76799494D01*
X148369079Y-76799494D01*
X148484039Y-76652351D01*
X148507481Y-76622347D01*
X148507482Y-76622346D01*
X148510188Y-76618882D01*
X148512384Y-76615078D01*
X148512389Y-76615071D01*
X148648435Y-76379431D01*
X148650636Y-76375619D01*
X148755862Y-76115176D01*
X148756928Y-76110901D01*
X148822753Y-75846893D01*
X148822754Y-75846888D01*
X148823817Y-75842624D01*
X148829989Y-75783905D01*
X148852719Y-75567636D01*
X148852719Y-75567633D01*
X148853178Y-75563267D01*
X148851970Y-75528671D01*
X148843529Y-75286939D01*
X148843528Y-75286933D01*
X148843375Y-75282542D01*
X148835969Y-75240537D01*
X148811630Y-75102506D01*
X148794598Y-75005913D01*
X148707797Y-74738765D01*
X148700861Y-74724543D01*
X148590004Y-74497255D01*
X148584660Y-74486298D01*
X148582205Y-74482659D01*
X148582202Y-74482653D01*
X148453366Y-74291646D01*
X148427585Y-74253424D01*
X148414527Y-74238921D01*
X148260042Y-74067349D01*
X148239629Y-74044678D01*
X148024450Y-73864121D01*
X147861777Y-73762472D01*
X147789960Y-73717596D01*
X147786236Y-73715269D01*
X147556528Y-73612996D01*
X147533639Y-73602805D01*
X147533637Y-73602804D01*
X147529625Y-73601018D01*
X147259610Y-73523593D01*
X147255260Y-73522982D01*
X147255257Y-73522981D01*
X147152310Y-73508513D01*
X146981448Y-73484500D01*
X146770854Y-73484500D01*
X146768668Y-73484653D01*
X146768664Y-73484653D01*
X146565173Y-73498882D01*
X146565168Y-73498883D01*
X146560788Y-73499189D01*
X146286030Y-73557591D01*
X146281901Y-73559094D01*
X146281897Y-73559095D01*
X146026219Y-73652154D01*
X146026215Y-73652156D01*
X146022074Y-73653663D01*
X145774058Y-73785536D01*
X145770499Y-73788122D01*
X145770497Y-73788123D01*
X145665895Y-73864121D01*
X145546808Y-73950642D01*
X145344748Y-74145769D01*
X145202657Y-74327638D01*
X145175311Y-74362640D01*
X145171812Y-74367118D01*
X145169616Y-74370922D01*
X145169611Y-74370929D01*
X145055794Y-74568067D01*
X145031364Y-74610381D01*
X144926138Y-74870824D01*
X144925073Y-74875097D01*
X144925072Y-74875099D01*
X144859395Y-75138516D01*
X144858183Y-75143376D01*
X144857724Y-75147744D01*
X144857723Y-75147749D01*
X144829281Y-75418364D01*
X144828822Y-75422733D01*
X91948500Y-75422733D01*
X91948500Y-69819662D01*
X187777969Y-69819662D01*
X187791078Y-70047017D01*
X187792514Y-70057237D01*
X187842580Y-70279393D01*
X187845659Y-70289221D01*
X187931338Y-70500223D01*
X187935991Y-70509434D01*
X188031153Y-70664723D01*
X188041611Y-70674185D01*
X188050387Y-70670402D01*
X188857979Y-69862811D01*
X188864356Y-69851132D01*
X189594408Y-69851132D01*
X189594539Y-69852966D01*
X189598790Y-69859580D01*
X190404826Y-70665615D01*
X190416832Y-70672171D01*
X190421671Y-70668474D01*
X190487946Y-70643015D01*
X190557464Y-70657428D01*
X190581418Y-70674268D01*
X190590387Y-70670402D01*
X191397979Y-69862811D01*
X191404356Y-69851132D01*
X192134408Y-69851132D01*
X192134539Y-69852966D01*
X192138790Y-69859580D01*
X192944826Y-70665615D01*
X192956832Y-70672171D01*
X192968571Y-70663202D01*
X193012241Y-70602429D01*
X193017551Y-70593592D01*
X193118450Y-70389438D01*
X193122249Y-70379843D01*
X193188449Y-70161957D01*
X193190628Y-70151876D01*
X193220591Y-69924288D01*
X193221110Y-69917615D01*
X193222680Y-69853365D01*
X193222486Y-69846646D01*
X193203679Y-69617887D01*
X193201994Y-69607707D01*
X193146515Y-69386837D01*
X193143195Y-69377086D01*
X193052384Y-69168233D01*
X193047518Y-69159158D01*
X192968008Y-69036256D01*
X192957322Y-69027052D01*
X192947755Y-69031456D01*
X192142021Y-69837189D01*
X192134408Y-69851132D01*
X191404356Y-69851132D01*
X191405592Y-69848868D01*
X191405461Y-69847034D01*
X191401210Y-69840420D01*
X190595220Y-69034431D01*
X190583688Y-69028134D01*
X190578721Y-69032026D01*
X190512762Y-69058293D01*
X190443073Y-69044730D01*
X190418788Y-69028315D01*
X190417321Y-69027052D01*
X190407756Y-69031455D01*
X189602021Y-69837189D01*
X189594408Y-69851132D01*
X188864356Y-69851132D01*
X188865592Y-69848868D01*
X188865461Y-69847034D01*
X188861210Y-69840420D01*
X188055220Y-69034431D01*
X188043688Y-69028134D01*
X188031406Y-69037757D01*
X187969747Y-69128146D01*
X187964654Y-69137110D01*
X187868768Y-69343679D01*
X187865211Y-69353347D01*
X187804352Y-69572797D01*
X187802421Y-69582916D01*
X187778221Y-69809373D01*
X187777969Y-69819662D01*
X91948500Y-69819662D01*
X91948500Y-68837386D01*
X92817759Y-68837386D01*
X92825216Y-68847753D01*
X93064935Y-69041874D01*
X93070272Y-69045751D01*
X93390685Y-69253830D01*
X93396394Y-69257127D01*
X93736811Y-69430578D01*
X93742836Y-69433260D01*
X94099502Y-69570171D01*
X94105784Y-69572212D01*
X94474816Y-69671094D01*
X94481266Y-69672465D01*
X94858629Y-69732234D01*
X94865167Y-69732920D01*
X95246699Y-69752916D01*
X95253301Y-69752916D01*
X95634833Y-69732920D01*
X95641371Y-69732234D01*
X96018734Y-69672465D01*
X96025184Y-69671094D01*
X96394216Y-69572212D01*
X96400498Y-69570171D01*
X96757164Y-69433260D01*
X96763189Y-69430578D01*
X97103606Y-69257127D01*
X97109315Y-69253830D01*
X97429728Y-69045751D01*
X97435065Y-69041874D01*
X97673835Y-68848522D01*
X97682300Y-68836267D01*
X97675966Y-68825176D01*
X97513075Y-68662285D01*
X188407081Y-68662285D01*
X188413825Y-68674614D01*
X189217189Y-69477979D01*
X189231132Y-69485592D01*
X189232966Y-69485461D01*
X189239580Y-69481210D01*
X190047331Y-68673458D01*
X190053432Y-68662285D01*
X190947081Y-68662285D01*
X190953825Y-68674614D01*
X191757189Y-69477979D01*
X191771132Y-69485592D01*
X191772966Y-69485461D01*
X191779580Y-69481210D01*
X192418399Y-68842390D01*
X199167762Y-68842390D01*
X199175219Y-68852757D01*
X199414938Y-69046878D01*
X199420275Y-69050755D01*
X199740688Y-69258834D01*
X199746397Y-69262131D01*
X200086814Y-69435582D01*
X200092839Y-69438264D01*
X200449505Y-69575175D01*
X200455787Y-69577216D01*
X200824819Y-69676098D01*
X200831269Y-69677469D01*
X201208632Y-69737238D01*
X201215170Y-69737924D01*
X201596702Y-69757920D01*
X201603304Y-69757920D01*
X201984836Y-69737924D01*
X201991374Y-69737238D01*
X202368737Y-69677469D01*
X202375187Y-69676098D01*
X202744219Y-69577216D01*
X202750501Y-69575175D01*
X203107167Y-69438264D01*
X203113192Y-69435582D01*
X203453609Y-69262131D01*
X203459318Y-69258834D01*
X203779731Y-69050755D01*
X203785068Y-69046878D01*
X204023838Y-68853526D01*
X204032303Y-68841271D01*
X204025969Y-68830180D01*
X201612815Y-66417026D01*
X201598871Y-66409412D01*
X201597038Y-66409543D01*
X201590423Y-66413794D01*
X199174903Y-68829314D01*
X199167762Y-68842390D01*
X192418399Y-68842390D01*
X192587331Y-68673458D01*
X192594348Y-68660607D01*
X192586574Y-68649937D01*
X192578004Y-68643169D01*
X192569417Y-68637464D01*
X192370055Y-68527410D01*
X192360643Y-68523180D01*
X192145971Y-68447160D01*
X192136014Y-68444530D01*
X191911805Y-68404591D01*
X191901554Y-68403622D01*
X191673830Y-68400840D01*
X191663546Y-68401560D01*
X191438437Y-68436006D01*
X191428410Y-68438395D01*
X191211951Y-68509144D01*
X191202442Y-68513141D01*
X191000451Y-68618292D01*
X190991716Y-68623793D01*
X190955535Y-68650958D01*
X190947081Y-68662285D01*
X190053432Y-68662285D01*
X190054348Y-68660607D01*
X190046574Y-68649937D01*
X190038004Y-68643169D01*
X190029417Y-68637464D01*
X189830055Y-68527410D01*
X189820643Y-68523180D01*
X189605971Y-68447160D01*
X189596014Y-68444530D01*
X189371805Y-68404591D01*
X189361554Y-68403622D01*
X189133830Y-68400840D01*
X189123546Y-68401560D01*
X188898437Y-68436006D01*
X188888410Y-68438395D01*
X188671951Y-68509144D01*
X188662442Y-68513141D01*
X188460451Y-68618292D01*
X188451716Y-68623793D01*
X188415535Y-68650958D01*
X188407081Y-68662285D01*
X97513075Y-68662285D01*
X95262812Y-66412022D01*
X95248868Y-66404408D01*
X95247035Y-66404539D01*
X95240420Y-66408790D01*
X92824900Y-68824310D01*
X92817759Y-68837386D01*
X91948500Y-68837386D01*
X91948500Y-68189684D01*
X91968502Y-68121563D01*
X92022158Y-68075070D01*
X92092432Y-68064966D01*
X92157012Y-68094460D01*
X92180173Y-68121060D01*
X92244253Y-68219735D01*
X92248123Y-68225061D01*
X92441478Y-68463835D01*
X92453733Y-68472300D01*
X92464824Y-68465966D01*
X94877978Y-66052812D01*
X94884356Y-66041132D01*
X95614408Y-66041132D01*
X95614539Y-66042965D01*
X95618790Y-66049580D01*
X98034310Y-68465100D01*
X98047386Y-68472241D01*
X98057753Y-68464784D01*
X98251877Y-68225061D01*
X98255747Y-68219735D01*
X98463831Y-67899313D01*
X98467128Y-67893603D01*
X98640578Y-67553189D01*
X98643260Y-67547164D01*
X98780171Y-67190498D01*
X98782212Y-67184216D01*
X98881094Y-66815184D01*
X98882465Y-66808734D01*
X98942234Y-66431371D01*
X98942920Y-66424833D01*
X98943030Y-66422733D01*
X100828822Y-66422733D01*
X100828975Y-66427121D01*
X100828975Y-66427127D01*
X100831024Y-66485789D01*
X100838625Y-66703458D01*
X100839387Y-66707781D01*
X100839388Y-66707788D01*
X100863164Y-66842624D01*
X100887402Y-66980087D01*
X100974203Y-67247235D01*
X100976131Y-67251188D01*
X100976133Y-67251193D01*
X100996954Y-67293881D01*
X101097340Y-67499702D01*
X101099795Y-67503341D01*
X101099798Y-67503347D01*
X101171645Y-67609864D01*
X101254415Y-67732576D01*
X101442371Y-67941322D01*
X101657550Y-68121879D01*
X101895764Y-68270731D01*
X102152375Y-68384982D01*
X102422390Y-68462407D01*
X102426740Y-68463018D01*
X102426743Y-68463019D01*
X102527968Y-68477245D01*
X102700552Y-68501500D01*
X102911146Y-68501500D01*
X102913332Y-68501347D01*
X102913336Y-68501347D01*
X103116827Y-68487118D01*
X103116832Y-68487117D01*
X103121212Y-68486811D01*
X103395970Y-68428409D01*
X103400099Y-68426906D01*
X103400103Y-68426905D01*
X103655781Y-68333846D01*
X103655785Y-68333844D01*
X103659926Y-68332337D01*
X103907942Y-68200464D01*
X103911503Y-68197877D01*
X104131629Y-68037947D01*
X104131632Y-68037944D01*
X104135192Y-68035358D01*
X104152251Y-68018885D01*
X104276802Y-67898607D01*
X104337252Y-67840231D01*
X104510188Y-67618882D01*
X104512384Y-67615078D01*
X104512389Y-67615071D01*
X104648435Y-67379431D01*
X104650636Y-67375619D01*
X104755862Y-67115176D01*
X104789544Y-66980087D01*
X104822753Y-66846893D01*
X104822754Y-66846888D01*
X104823817Y-66842624D01*
X104830699Y-66777150D01*
X104852719Y-66567636D01*
X104852719Y-66567633D01*
X104853178Y-66563267D01*
X104850621Y-66490034D01*
X104843529Y-66286939D01*
X104843528Y-66286933D01*
X104843375Y-66282542D01*
X104829311Y-66202778D01*
X104824574Y-66175913D01*
X152779725Y-66175913D01*
X152780284Y-66180157D01*
X152780284Y-66180161D01*
X152782702Y-66198527D01*
X152818158Y-66467838D01*
X152819291Y-66471978D01*
X152819291Y-66471980D01*
X152843062Y-66558873D01*
X152895854Y-66751847D01*
X153011375Y-67022683D01*
X153066731Y-67115176D01*
X153148136Y-67251193D01*
X153162585Y-67275336D01*
X153346684Y-67505129D01*
X153349786Y-67508073D01*
X153349790Y-67508077D01*
X153444083Y-67597557D01*
X153560266Y-67707811D01*
X153799380Y-67879632D01*
X154059600Y-68017411D01*
X154063623Y-68018883D01*
X154063627Y-68018885D01*
X154332080Y-68117125D01*
X154336111Y-68118600D01*
X154623797Y-68181325D01*
X154653339Y-68183650D01*
X154852273Y-68199307D01*
X154852282Y-68199307D01*
X154854730Y-68199500D01*
X155014016Y-68199500D01*
X155016152Y-68199354D01*
X155016163Y-68199354D01*
X155229486Y-68184811D01*
X155229492Y-68184810D01*
X155233763Y-68184519D01*
X155237958Y-68183650D01*
X155237960Y-68183650D01*
X155377926Y-68154665D01*
X155522089Y-68124810D01*
X155799645Y-68026522D01*
X155959249Y-67944144D01*
X156057486Y-67893440D01*
X156057487Y-67893440D01*
X156061293Y-67891475D01*
X156302193Y-67722168D01*
X156423047Y-67609864D01*
X156514743Y-67524655D01*
X156514746Y-67524652D01*
X156517886Y-67521734D01*
X156529065Y-67508077D01*
X156701666Y-67297199D01*
X156704382Y-67293881D01*
X156858228Y-67042826D01*
X156976580Y-66773214D01*
X157057245Y-66490034D01*
X157098733Y-66198527D01*
X157098851Y-66175913D01*
X188339725Y-66175913D01*
X188340284Y-66180157D01*
X188340284Y-66180161D01*
X188342702Y-66198527D01*
X188378158Y-66467838D01*
X188379291Y-66471978D01*
X188379291Y-66471980D01*
X188403062Y-66558873D01*
X188455854Y-66751847D01*
X188571375Y-67022683D01*
X188626731Y-67115176D01*
X188708136Y-67251193D01*
X188722585Y-67275336D01*
X188906684Y-67505129D01*
X188909786Y-67508073D01*
X188909790Y-67508077D01*
X189004083Y-67597557D01*
X189120266Y-67707811D01*
X189359380Y-67879632D01*
X189619600Y-68017411D01*
X189623623Y-68018883D01*
X189623627Y-68018885D01*
X189892080Y-68117125D01*
X189896111Y-68118600D01*
X190183797Y-68181325D01*
X190213339Y-68183650D01*
X190412273Y-68199307D01*
X190412282Y-68199307D01*
X190414730Y-68199500D01*
X190574016Y-68199500D01*
X190576152Y-68199354D01*
X190576163Y-68199354D01*
X190789486Y-68184811D01*
X190789492Y-68184810D01*
X190793763Y-68184519D01*
X190797958Y-68183650D01*
X190797960Y-68183650D01*
X190937926Y-68154665D01*
X191082089Y-68124810D01*
X191359645Y-68026522D01*
X191519249Y-67944144D01*
X191617486Y-67893440D01*
X191617487Y-67893440D01*
X191621293Y-67891475D01*
X191862193Y-67722168D01*
X191983047Y-67609864D01*
X192074743Y-67524655D01*
X192074746Y-67524652D01*
X192077886Y-67521734D01*
X192089065Y-67508077D01*
X192261666Y-67297199D01*
X192264382Y-67293881D01*
X192418228Y-67042826D01*
X192536580Y-66773214D01*
X192617245Y-66490034D01*
X192658733Y-66198527D01*
X192659520Y-66048305D01*
X197887087Y-66048305D01*
X197907083Y-66429837D01*
X197907769Y-66436375D01*
X197967538Y-66813738D01*
X197968909Y-66820188D01*
X198067791Y-67189220D01*
X198069832Y-67195502D01*
X198206743Y-67552168D01*
X198209425Y-67558193D01*
X198382875Y-67898607D01*
X198386172Y-67904317D01*
X198594256Y-68224739D01*
X198598126Y-68230065D01*
X198791481Y-68468839D01*
X198803736Y-68477304D01*
X198814827Y-68470970D01*
X201227981Y-66057816D01*
X201235595Y-66043872D01*
X201235464Y-66042039D01*
X201231213Y-66035424D01*
X198815693Y-63619904D01*
X198802617Y-63612763D01*
X198792250Y-63620220D01*
X198598126Y-63859943D01*
X198594256Y-63865269D01*
X198386172Y-64185691D01*
X198382875Y-64191401D01*
X198209425Y-64531815D01*
X198206743Y-64537840D01*
X198069832Y-64894506D01*
X198067791Y-64900788D01*
X197968909Y-65269820D01*
X197967538Y-65276270D01*
X197907769Y-65653633D01*
X197907083Y-65660171D01*
X197887087Y-66041703D01*
X197887087Y-66048305D01*
X192659520Y-66048305D01*
X192660275Y-65904087D01*
X192657864Y-65885769D01*
X192637989Y-65734807D01*
X192621842Y-65612162D01*
X192614643Y-65585845D01*
X192545280Y-65332298D01*
X192545280Y-65332297D01*
X192544146Y-65328153D01*
X192428625Y-65057317D01*
X192314692Y-64866949D01*
X192279619Y-64808346D01*
X192279616Y-64808342D01*
X192277415Y-64804664D01*
X192093316Y-64574871D01*
X192090214Y-64571927D01*
X192090210Y-64571923D01*
X191993495Y-64480144D01*
X191879734Y-64372189D01*
X191640620Y-64200368D01*
X191380400Y-64062589D01*
X191376377Y-64061117D01*
X191376373Y-64061115D01*
X191107920Y-63962875D01*
X191107918Y-63962874D01*
X191103889Y-63961400D01*
X190816203Y-63898675D01*
X190771910Y-63895189D01*
X190587727Y-63880693D01*
X190587718Y-63880693D01*
X190585270Y-63880500D01*
X190425984Y-63880500D01*
X190423848Y-63880646D01*
X190423837Y-63880646D01*
X190210514Y-63895189D01*
X190210508Y-63895190D01*
X190206237Y-63895481D01*
X190202042Y-63896350D01*
X190202040Y-63896350D01*
X190062540Y-63925239D01*
X189917911Y-63955190D01*
X189640355Y-64053478D01*
X189378707Y-64188525D01*
X189375206Y-64190986D01*
X189375202Y-64190988D01*
X189364710Y-64198362D01*
X189137807Y-64357832D01*
X189056620Y-64433276D01*
X188947736Y-64534457D01*
X188922114Y-64558266D01*
X188919400Y-64561581D01*
X188919397Y-64561585D01*
X188845267Y-64652154D01*
X188735618Y-64786119D01*
X188581772Y-65037174D01*
X188463420Y-65306786D01*
X188382755Y-65589966D01*
X188341267Y-65881473D01*
X188340637Y-66001735D01*
X188339918Y-66139107D01*
X188339725Y-66175913D01*
X157098851Y-66175913D01*
X157100275Y-65904087D01*
X157097864Y-65885769D01*
X157077989Y-65734807D01*
X157061842Y-65612162D01*
X157054643Y-65585845D01*
X156985280Y-65332298D01*
X156985280Y-65332297D01*
X156984146Y-65328153D01*
X156868625Y-65057317D01*
X156754692Y-64866949D01*
X156719619Y-64808346D01*
X156719616Y-64808342D01*
X156717415Y-64804664D01*
X156533316Y-64574871D01*
X156530214Y-64571927D01*
X156530210Y-64571923D01*
X156433495Y-64480144D01*
X156319734Y-64372189D01*
X156080620Y-64200368D01*
X155820400Y-64062589D01*
X155816377Y-64061117D01*
X155816373Y-64061115D01*
X155547920Y-63962875D01*
X155547918Y-63962874D01*
X155543889Y-63961400D01*
X155256203Y-63898675D01*
X155211910Y-63895189D01*
X155027727Y-63880693D01*
X155027718Y-63880693D01*
X155025270Y-63880500D01*
X154865984Y-63880500D01*
X154863848Y-63880646D01*
X154863837Y-63880646D01*
X154650514Y-63895189D01*
X154650508Y-63895190D01*
X154646237Y-63895481D01*
X154642042Y-63896350D01*
X154642040Y-63896350D01*
X154502540Y-63925239D01*
X154357911Y-63955190D01*
X154080355Y-64053478D01*
X153818707Y-64188525D01*
X153815206Y-64190986D01*
X153815202Y-64190988D01*
X153804710Y-64198362D01*
X153577807Y-64357832D01*
X153496620Y-64433276D01*
X153387736Y-64534457D01*
X153362114Y-64558266D01*
X153359400Y-64561581D01*
X153359397Y-64561585D01*
X153285267Y-64652154D01*
X153175618Y-64786119D01*
X153021772Y-65037174D01*
X152903420Y-65306786D01*
X152822755Y-65589966D01*
X152781267Y-65881473D01*
X152780637Y-66001735D01*
X152779918Y-66139107D01*
X152779725Y-66175913D01*
X104824574Y-66175913D01*
X104803180Y-66054584D01*
X104794598Y-66005913D01*
X104707797Y-65738765D01*
X104676986Y-65675592D01*
X104637293Y-65594211D01*
X104584660Y-65486298D01*
X104582205Y-65482659D01*
X104582202Y-65482653D01*
X104475326Y-65324203D01*
X104427585Y-65253424D01*
X104239629Y-65044678D01*
X104024450Y-64864121D01*
X103786236Y-64715269D01*
X103529625Y-64601018D01*
X103297498Y-64534457D01*
X103263837Y-64524805D01*
X103263836Y-64524805D01*
X103259610Y-64523593D01*
X103255260Y-64522982D01*
X103255257Y-64522981D01*
X103152310Y-64508513D01*
X102981448Y-64484500D01*
X102770854Y-64484500D01*
X102768668Y-64484653D01*
X102768664Y-64484653D01*
X102565173Y-64498882D01*
X102565168Y-64498883D01*
X102560788Y-64499189D01*
X102286030Y-64557591D01*
X102281901Y-64559094D01*
X102281897Y-64559095D01*
X102026219Y-64652154D01*
X102026215Y-64652156D01*
X102022074Y-64653663D01*
X101774058Y-64785536D01*
X101770499Y-64788122D01*
X101770497Y-64788123D01*
X101665895Y-64864121D01*
X101546808Y-64950642D01*
X101344748Y-65145769D01*
X101171812Y-65367118D01*
X101169616Y-65370922D01*
X101169611Y-65370929D01*
X101055794Y-65568067D01*
X101031364Y-65610381D01*
X100926138Y-65870824D01*
X100925073Y-65875097D01*
X100925072Y-65875099D01*
X100879516Y-66057816D01*
X100858183Y-66143376D01*
X100857724Y-66147744D01*
X100857723Y-66147749D01*
X100829422Y-66417026D01*
X100828822Y-66422733D01*
X98943030Y-66422733D01*
X98962916Y-66043301D01*
X98962916Y-66036699D01*
X98942920Y-65655167D01*
X98942234Y-65648629D01*
X98882465Y-65271266D01*
X98881094Y-65264816D01*
X98782212Y-64895784D01*
X98780171Y-64889502D01*
X98643260Y-64532836D01*
X98640578Y-64526811D01*
X98467128Y-64186397D01*
X98463831Y-64180687D01*
X98255747Y-63860265D01*
X98251877Y-63854939D01*
X98058522Y-63616165D01*
X98046267Y-63607700D01*
X98035176Y-63614034D01*
X95622022Y-66027188D01*
X95614408Y-66041132D01*
X94884356Y-66041132D01*
X94885592Y-66038868D01*
X94885461Y-66037035D01*
X94881210Y-66030420D01*
X92465690Y-63614900D01*
X92452614Y-63607759D01*
X92442247Y-63615216D01*
X92248123Y-63854939D01*
X92244253Y-63860265D01*
X92180173Y-63958940D01*
X92126296Y-64005177D01*
X92055975Y-64014947D01*
X91991535Y-63985147D01*
X91953436Y-63925239D01*
X91948500Y-63890316D01*
X91948500Y-62864500D01*
X91968502Y-62796379D01*
X92022158Y-62749886D01*
X92074500Y-62738500D01*
X93100316Y-62738500D01*
X93168437Y-62758502D01*
G37*
G04 #@! TD.AperFunction*
M02*
