%FSLAX45Y45*%
G04 Gerber Fmt 4.5, Leading zero omitted, Abs format (unit mm)*
G04 Created by KiCad (PCBNEW (6.0.5-0)) date 2022-08-22 16:10:28*
%MOMM*%
%LPD*%
G01*
G04 APERTURE LIST*
%TA.AperFunction,Profile*%
%ADD10C,0.100000*%
%TD*%
%ADD11C,0.200000*%
%ADD12C,0.040000*%
%ADD13C,0.076200*%
%ADD14C,0.080000*%
%ADD15C,0.101600*%
%ADD16C,0.130000*%
%ADD17C,0.320000*%
G04 APERTURE END LIST*
D10*
X9144000Y-6223000D02*
X20574000Y-6223000D01*
X20574000Y-6223000D02*
X20574000Y-12573000D01*
X20574000Y-12573000D02*
X9144000Y-12573000D01*
X9144000Y-12573000D02*
X9144000Y-6223000D01*
D11*
D12*
X9505000Y-8057200D02*
X9545000Y-8097200D01*
X9545000Y-8057200D02*
X9505000Y-8097200D01*
X9733600Y-9784400D02*
X9773600Y-9824400D01*
X9773600Y-9784400D02*
X9733600Y-9824400D01*
X9886000Y-11410000D02*
X9926000Y-11450000D01*
X9926000Y-11410000D02*
X9886000Y-11450000D01*
X10394000Y-11918000D02*
X10434000Y-11958000D01*
X10434000Y-11918000D02*
X10394000Y-11958000D01*
X10597200Y-7092000D02*
X10637200Y-7132000D01*
X10637200Y-7092000D02*
X10597200Y-7132000D01*
X11473500Y-8933500D02*
X11513500Y-8973500D01*
X11513500Y-8933500D02*
X11473500Y-8973500D01*
X12616500Y-9632000D02*
X12656500Y-9672000D01*
X12656500Y-9632000D02*
X12616500Y-9672000D01*
X12616500Y-11029000D02*
X12656500Y-11069000D01*
X12656500Y-11029000D02*
X12616500Y-11069000D01*
X12616500Y-12299000D02*
X12656500Y-12339000D01*
X12656500Y-12299000D02*
X12616500Y-12339000D01*
X13823000Y-8933500D02*
X13863000Y-8973500D01*
X13863000Y-8933500D02*
X13823000Y-8973500D01*
X14559600Y-7041200D02*
X14599600Y-7081200D01*
X14599600Y-7041200D02*
X14559600Y-7081200D01*
X15029500Y-10584500D02*
X15069500Y-10624500D01*
X15069500Y-10584500D02*
X15029500Y-10624500D01*
X15093000Y-8971600D02*
X15133000Y-9011600D01*
X15133000Y-8971600D02*
X15093000Y-9011600D01*
X15982000Y-7790500D02*
X16022000Y-7830500D01*
X16022000Y-7790500D02*
X15982000Y-7830500D01*
X16363000Y-10965500D02*
X16403000Y-11005500D01*
X16403000Y-10965500D02*
X16363000Y-11005500D01*
X17302800Y-6711000D02*
X17342800Y-6751000D01*
X17342800Y-6711000D02*
X17302800Y-6751000D01*
X17302800Y-8311200D02*
X17342800Y-8351200D01*
X17342800Y-8311200D02*
X17302800Y-8351200D01*
X17302800Y-9987600D02*
X17342800Y-10027600D01*
X17342800Y-9987600D02*
X17302800Y-10027600D01*
X17302800Y-11981500D02*
X17342800Y-12021500D01*
X17342800Y-11981500D02*
X17302800Y-12021500D01*
X18458500Y-10952800D02*
X18498500Y-10992800D01*
X18498500Y-10952800D02*
X18458500Y-10992800D01*
X19538000Y-10267000D02*
X19578000Y-10307000D01*
X19578000Y-10267000D02*
X19538000Y-10307000D01*
X19588800Y-12172000D02*
X19628800Y-12212000D01*
X19628800Y-12172000D02*
X19588800Y-12212000D01*
X19944400Y-7244400D02*
X19984400Y-7284400D01*
X19984400Y-7244400D02*
X19944400Y-7284400D01*
D13*
X19596100Y-8191500D02*
G75*
G03*
X19596100Y-8191500I-38100J0D01*
G01*
X19850100Y-8191500D02*
G75*
G03*
X19850100Y-8191500I-38100J0D01*
G01*
X20104100Y-8191500D02*
G75*
G03*
X20104100Y-8191500I-38100J0D01*
G01*
X20358100Y-8191500D02*
G75*
G03*
X20358100Y-8191500I-38100J0D01*
G01*
D14*
X19558000Y-9233000D02*
X19558000Y-9313000D01*
X19518000Y-9273000D02*
X19598000Y-9273000D01*
X19558000Y-9483000D02*
X19558000Y-9563000D01*
X19518000Y-9523000D02*
X19598000Y-9523000D01*
X19875500Y-8911500D02*
X19875500Y-8991500D01*
X19835500Y-8951500D02*
X19915500Y-8951500D01*
X19875500Y-9927500D02*
X19875500Y-10007500D01*
X19835500Y-9967500D02*
X19915500Y-9967500D01*
X20193000Y-8911500D02*
X20193000Y-8991500D01*
X20153000Y-8951500D02*
X20233000Y-8951500D01*
X20193000Y-9927500D02*
X20193000Y-10007500D01*
X20153000Y-9967500D02*
X20233000Y-9967500D01*
D15*
X10830921Y-9560921D02*
X10830921Y-9489079D01*
X10759079Y-9489079D01*
X10759079Y-9560921D01*
X10830921Y-9560921D01*
X10830921Y-9814921D02*
X10830921Y-9743079D01*
X10759079Y-9743079D01*
X10759079Y-9814921D01*
X10830921Y-9814921D01*
X10830921Y-10068921D02*
X10830921Y-9997079D01*
X10759079Y-9997079D01*
X10759079Y-10068921D01*
X10830921Y-10068921D01*
X10830921Y-10322921D02*
X10830921Y-10251079D01*
X10759079Y-10251079D01*
X10759079Y-10322921D01*
X10830921Y-10322921D01*
X10830921Y-10576921D02*
X10830921Y-10505079D01*
X10759079Y-10505079D01*
X10759079Y-10576921D01*
X10830921Y-10576921D01*
X10830921Y-10830921D02*
X10830921Y-10759079D01*
X10759079Y-10759079D01*
X10759079Y-10830921D01*
X10830921Y-10830921D01*
X10830921Y-11084921D02*
X10830921Y-11013079D01*
X10759079Y-11013079D01*
X10759079Y-11084921D01*
X10830921Y-11084921D01*
X10830921Y-11338921D02*
X10830921Y-11267079D01*
X10759079Y-11267079D01*
X10759079Y-11338921D01*
X10830921Y-11338921D01*
X10830921Y-11592921D02*
X10830921Y-11521079D01*
X10759079Y-11521079D01*
X10759079Y-11592921D01*
X10830921Y-11592921D01*
X10830921Y-11846921D02*
X10830921Y-11775079D01*
X10759079Y-11775079D01*
X10759079Y-11846921D01*
X10830921Y-11846921D01*
X11084921Y-9560921D02*
X11084921Y-9489079D01*
X11013079Y-9489079D01*
X11013079Y-9560921D01*
X11084921Y-9560921D01*
X11084921Y-9814921D02*
X11084921Y-9743079D01*
X11013079Y-9743079D01*
X11013079Y-9814921D01*
X11084921Y-9814921D01*
X11084921Y-10068921D02*
X11084921Y-9997079D01*
X11013079Y-9997079D01*
X11013079Y-10068921D01*
X11084921Y-10068921D01*
X11084921Y-10322921D02*
X11084921Y-10251079D01*
X11013079Y-10251079D01*
X11013079Y-10322921D01*
X11084921Y-10322921D01*
X11084921Y-10576921D02*
X11084921Y-10505079D01*
X11013079Y-10505079D01*
X11013079Y-10576921D01*
X11084921Y-10576921D01*
X11084921Y-10830921D02*
X11084921Y-10759079D01*
X11013079Y-10759079D01*
X11013079Y-10830921D01*
X11084921Y-10830921D01*
X11084921Y-11084921D02*
X11084921Y-11013079D01*
X11013079Y-11013079D01*
X11013079Y-11084921D01*
X11084921Y-11084921D01*
X11084921Y-11338921D02*
X11084921Y-11267079D01*
X11013079Y-11267079D01*
X11013079Y-11338921D01*
X11084921Y-11338921D01*
X11084921Y-11592921D02*
X11084921Y-11521079D01*
X11013079Y-11521079D01*
X11013079Y-11592921D01*
X11084921Y-11592921D01*
X11084921Y-11846921D02*
X11084921Y-11775079D01*
X11013079Y-11775079D01*
X11013079Y-11846921D01*
X11084921Y-11846921D01*
X12862921Y-8290921D02*
X12862921Y-8219079D01*
X12791079Y-8219079D01*
X12791079Y-8290921D01*
X12862921Y-8290921D01*
X12862921Y-8544921D02*
X12862921Y-8473079D01*
X12791079Y-8473079D01*
X12791079Y-8544921D01*
X12862921Y-8544921D01*
X13116921Y-8290921D02*
X13116921Y-8219079D01*
X13045079Y-8219079D01*
X13045079Y-8290921D01*
X13116921Y-8290921D01*
X13116921Y-8544921D02*
X13116921Y-8473079D01*
X13045079Y-8473079D01*
X13045079Y-8544921D01*
X13116921Y-8544921D01*
X13370921Y-8290921D02*
X13370921Y-8219079D01*
X13299079Y-8219079D01*
X13299079Y-8290921D01*
X13370921Y-8290921D01*
X13370921Y-8544921D02*
X13370921Y-8473079D01*
X13299079Y-8473079D01*
X13299079Y-8544921D01*
X13370921Y-8544921D01*
X13624921Y-8290921D02*
X13624921Y-8219079D01*
X13553079Y-8219079D01*
X13553079Y-8290921D01*
X13624921Y-8290921D01*
X13624921Y-8544921D02*
X13624921Y-8473079D01*
X13553079Y-8473079D01*
X13553079Y-8544921D01*
X13624921Y-8544921D01*
X13878921Y-8290921D02*
X13878921Y-8219079D01*
X13807079Y-8219079D01*
X13807079Y-8290921D01*
X13878921Y-8290921D01*
X13878921Y-8544921D02*
X13878921Y-8473079D01*
X13807079Y-8473079D01*
X13807079Y-8544921D01*
X13878921Y-8544921D01*
X14132921Y-8290921D02*
X14132921Y-8219079D01*
X14061079Y-8219079D01*
X14061079Y-8290921D01*
X14132921Y-8290921D01*
X14132921Y-8544921D02*
X14132921Y-8473079D01*
X14061079Y-8473079D01*
X14061079Y-8544921D01*
X14132921Y-8544921D01*
X14640921Y-9560921D02*
X14640921Y-9489079D01*
X14569079Y-9489079D01*
X14569079Y-9560921D01*
X14640921Y-9560921D01*
X14640921Y-9814921D02*
X14640921Y-9743079D01*
X14569079Y-9743079D01*
X14569079Y-9814921D01*
X14640921Y-9814921D01*
X14640921Y-10068921D02*
X14640921Y-9997079D01*
X14569079Y-9997079D01*
X14569079Y-10068921D01*
X14640921Y-10068921D01*
X14640921Y-10322921D02*
X14640921Y-10251079D01*
X14569079Y-10251079D01*
X14569079Y-10322921D01*
X14640921Y-10322921D01*
X14640921Y-10576921D02*
X14640921Y-10505079D01*
X14569079Y-10505079D01*
X14569079Y-10576921D01*
X14640921Y-10576921D01*
X14640921Y-10830921D02*
X14640921Y-10759079D01*
X14569079Y-10759079D01*
X14569079Y-10830921D01*
X14640921Y-10830921D01*
X14640921Y-11084921D02*
X14640921Y-11013079D01*
X14569079Y-11013079D01*
X14569079Y-11084921D01*
X14640921Y-11084921D01*
X14640921Y-11338921D02*
X14640921Y-11267079D01*
X14569079Y-11267079D01*
X14569079Y-11338921D01*
X14640921Y-11338921D01*
X14640921Y-11592921D02*
X14640921Y-11521079D01*
X14569079Y-11521079D01*
X14569079Y-11592921D01*
X14640921Y-11592921D01*
X14894921Y-9560921D02*
X14894921Y-9489079D01*
X14823079Y-9489079D01*
X14823079Y-9560921D01*
X14894921Y-9560921D01*
X14894921Y-9814921D02*
X14894921Y-9743079D01*
X14823079Y-9743079D01*
X14823079Y-9814921D01*
X14894921Y-9814921D01*
X14894921Y-10068921D02*
X14894921Y-9997079D01*
X14823079Y-9997079D01*
X14823079Y-10068921D01*
X14894921Y-10068921D01*
X14894921Y-10322921D02*
X14894921Y-10251079D01*
X14823079Y-10251079D01*
X14823079Y-10322921D01*
X14894921Y-10322921D01*
X14894921Y-10576921D02*
X14894921Y-10505079D01*
X14823079Y-10505079D01*
X14823079Y-10576921D01*
X14894921Y-10576921D01*
X14894921Y-10830921D02*
X14894921Y-10759079D01*
X14823079Y-10759079D01*
X14823079Y-10830921D01*
X14894921Y-10830921D01*
X14894921Y-11084921D02*
X14894921Y-11013079D01*
X14823079Y-11013079D01*
X14823079Y-11084921D01*
X14894921Y-11084921D01*
X14894921Y-11338921D02*
X14894921Y-11267079D01*
X14823079Y-11267079D01*
X14823079Y-11338921D01*
X14894921Y-11338921D01*
X14894921Y-11592921D02*
X14894921Y-11521079D01*
X14823079Y-11521079D01*
X14823079Y-11592921D01*
X14894921Y-11592921D01*
X15402921Y-9814921D02*
X15402921Y-9743079D01*
X15331079Y-9743079D01*
X15331079Y-9814921D01*
X15402921Y-9814921D01*
X15402921Y-10068921D02*
X15402921Y-9997079D01*
X15331079Y-9997079D01*
X15331079Y-10068921D01*
X15402921Y-10068921D01*
X15402921Y-10322921D02*
X15402921Y-10251079D01*
X15331079Y-10251079D01*
X15331079Y-10322921D01*
X15402921Y-10322921D01*
X15402921Y-10576921D02*
X15402921Y-10505079D01*
X15331079Y-10505079D01*
X15331079Y-10576921D01*
X15402921Y-10576921D01*
X15402921Y-10830921D02*
X15402921Y-10759079D01*
X15331079Y-10759079D01*
X15331079Y-10830921D01*
X15402921Y-10830921D01*
X15402921Y-11084921D02*
X15402921Y-11013079D01*
X15331079Y-11013079D01*
X15331079Y-11084921D01*
X15402921Y-11084921D01*
X15402921Y-11338921D02*
X15402921Y-11267079D01*
X15331079Y-11267079D01*
X15331079Y-11338921D01*
X15402921Y-11338921D01*
X15402921Y-11592921D02*
X15402921Y-11521079D01*
X15331079Y-11521079D01*
X15331079Y-11592921D01*
X15402921Y-11592921D01*
X15402921Y-11846921D02*
X15402921Y-11775079D01*
X15331079Y-11775079D01*
X15331079Y-11846921D01*
X15402921Y-11846921D01*
X15656921Y-9814921D02*
X15656921Y-9743079D01*
X15585079Y-9743079D01*
X15585079Y-9814921D01*
X15656921Y-9814921D01*
X15656921Y-10068921D02*
X15656921Y-9997079D01*
X15585079Y-9997079D01*
X15585079Y-10068921D01*
X15656921Y-10068921D01*
X15656921Y-10322921D02*
X15656921Y-10251079D01*
X15585079Y-10251079D01*
X15585079Y-10322921D01*
X15656921Y-10322921D01*
X15656921Y-10576921D02*
X15656921Y-10505079D01*
X15585079Y-10505079D01*
X15585079Y-10576921D01*
X15656921Y-10576921D01*
X15656921Y-10830921D02*
X15656921Y-10759079D01*
X15585079Y-10759079D01*
X15585079Y-10830921D01*
X15656921Y-10830921D01*
X15656921Y-11084921D02*
X15656921Y-11013079D01*
X15585079Y-11013079D01*
X15585079Y-11084921D01*
X15656921Y-11084921D01*
X15656921Y-11338921D02*
X15656921Y-11267079D01*
X15585079Y-11267079D01*
X15585079Y-11338921D01*
X15656921Y-11338921D01*
X15656921Y-11592921D02*
X15656921Y-11521079D01*
X15585079Y-11521079D01*
X15585079Y-11592921D01*
X15656921Y-11592921D01*
X15656921Y-11846921D02*
X15656921Y-11775079D01*
X15585079Y-11775079D01*
X15585079Y-11846921D01*
X15656921Y-11846921D01*
X17307921Y-7465421D02*
X17307921Y-7393579D01*
X17236079Y-7393579D01*
X17236079Y-7465421D01*
X17307921Y-7465421D01*
X17307921Y-7719421D02*
X17307921Y-7647579D01*
X17236079Y-7647579D01*
X17236079Y-7719421D01*
X17307921Y-7719421D01*
X17561921Y-7465421D02*
X17561921Y-7393579D01*
X17490079Y-7393579D01*
X17490079Y-7465421D01*
X17561921Y-7465421D01*
X17561921Y-7719421D02*
X17561921Y-7647579D01*
X17490079Y-7647579D01*
X17490079Y-7719421D01*
X17561921Y-7719421D01*
X18704921Y-8544921D02*
X18704921Y-8473079D01*
X18633079Y-8473079D01*
X18633079Y-8544921D01*
X18704921Y-8544921D01*
X18704921Y-8798921D02*
X18704921Y-8727079D01*
X18633079Y-8727079D01*
X18633079Y-8798921D01*
X18704921Y-8798921D01*
X18704921Y-9052921D02*
X18704921Y-8981079D01*
X18633079Y-8981079D01*
X18633079Y-9052921D01*
X18704921Y-9052921D01*
X18704921Y-9306921D02*
X18704921Y-9235079D01*
X18633079Y-9235079D01*
X18633079Y-9306921D01*
X18704921Y-9306921D01*
X18704921Y-9560921D02*
X18704921Y-9489079D01*
X18633079Y-9489079D01*
X18633079Y-9560921D01*
X18704921Y-9560921D01*
X18704921Y-9814921D02*
X18704921Y-9743079D01*
X18633079Y-9743079D01*
X18633079Y-9814921D01*
X18704921Y-9814921D01*
X18958921Y-7020921D02*
X18958921Y-6949079D01*
X18887079Y-6949079D01*
X18887079Y-7020921D01*
X18958921Y-7020921D01*
X18958921Y-7274921D02*
X18958921Y-7203079D01*
X18887079Y-7203079D01*
X18887079Y-7274921D01*
X18958921Y-7274921D01*
X18958921Y-7528921D02*
X18958921Y-7457079D01*
X18887079Y-7457079D01*
X18887079Y-7528921D01*
X18958921Y-7528921D01*
X18958921Y-7782921D02*
X18958921Y-7711079D01*
X18887079Y-7711079D01*
X18887079Y-7782921D01*
X18958921Y-7782921D01*
X18958921Y-8036921D02*
X18958921Y-7965079D01*
X18887079Y-7965079D01*
X18887079Y-8036921D01*
X18958921Y-8036921D01*
X18958921Y-8290921D02*
X18958921Y-8219079D01*
X18887079Y-8219079D01*
X18887079Y-8290921D01*
X18958921Y-8290921D01*
X18958921Y-8544921D02*
X18958921Y-8473079D01*
X18887079Y-8473079D01*
X18887079Y-8544921D01*
X18958921Y-8544921D01*
X18958921Y-8798921D02*
X18958921Y-8727079D01*
X18887079Y-8727079D01*
X18887079Y-8798921D01*
X18958921Y-8798921D01*
X18958921Y-9052921D02*
X18958921Y-8981079D01*
X18887079Y-8981079D01*
X18887079Y-9052921D01*
X18958921Y-9052921D01*
X18958921Y-9306921D02*
X18958921Y-9235079D01*
X18887079Y-9235079D01*
X18887079Y-9306921D01*
X18958921Y-9306921D01*
X18958921Y-9560921D02*
X18958921Y-9489079D01*
X18887079Y-9489079D01*
X18887079Y-9560921D01*
X18958921Y-9560921D01*
X18958921Y-9814921D02*
X18958921Y-9743079D01*
X18887079Y-9743079D01*
X18887079Y-9814921D01*
X18958921Y-9814921D01*
X19212921Y-7020921D02*
X19212921Y-6949079D01*
X19141079Y-6949079D01*
X19141079Y-7020921D01*
X19212921Y-7020921D01*
X19212921Y-7274921D02*
X19212921Y-7203079D01*
X19141079Y-7203079D01*
X19141079Y-7274921D01*
X19212921Y-7274921D01*
X19212921Y-7528921D02*
X19212921Y-7457079D01*
X19141079Y-7457079D01*
X19141079Y-7528921D01*
X19212921Y-7528921D01*
X19212921Y-7782921D02*
X19212921Y-7711079D01*
X19141079Y-7711079D01*
X19141079Y-7782921D01*
X19212921Y-7782921D01*
X19212921Y-8036921D02*
X19212921Y-7965079D01*
X19141079Y-7965079D01*
X19141079Y-8036921D01*
X19212921Y-8036921D01*
X19212921Y-8290921D02*
X19212921Y-8219079D01*
X19141079Y-8219079D01*
X19141079Y-8290921D01*
X19212921Y-8290921D01*
X19212921Y-8544921D02*
X19212921Y-8473079D01*
X19141079Y-8473079D01*
X19141079Y-8544921D01*
X19212921Y-8544921D01*
X19212921Y-8798921D02*
X19212921Y-8727079D01*
X19141079Y-8727079D01*
X19141079Y-8798921D01*
X19212921Y-8798921D01*
X19212921Y-9052921D02*
X19212921Y-8981079D01*
X19141079Y-8981079D01*
X19141079Y-9052921D01*
X19212921Y-9052921D01*
X19212921Y-9306921D02*
X19212921Y-9235079D01*
X19141079Y-9235079D01*
X19141079Y-9306921D01*
X19212921Y-9306921D01*
X19212921Y-9560921D02*
X19212921Y-9489079D01*
X19141079Y-9489079D01*
X19141079Y-9560921D01*
X19212921Y-9560921D01*
X19212921Y-9814921D02*
X19212921Y-9743079D01*
X19141079Y-9743079D01*
X19141079Y-9814921D01*
X19212921Y-9814921D01*
D16*
X20083800Y-10860500D02*
X20148800Y-10795500D01*
X20083800Y-10730500D01*
X20018800Y-10795500D01*
X20083800Y-10860500D01*
X20083800Y-11368500D02*
X20148800Y-11303500D01*
X20083800Y-11238500D01*
X20018800Y-11303500D01*
X20083800Y-11368500D01*
D17*
X9365000Y-6444000D02*
X9685000Y-6764000D01*
X9685000Y-6444000D02*
X9365000Y-6764000D01*
X9685000Y-6604000D02*
G75*
G03*
X9685000Y-6604000I-160000J0D01*
G01*
X9365000Y-12032000D02*
X9685000Y-12352000D01*
X9685000Y-12032000D02*
X9365000Y-12352000D01*
X9685000Y-12192000D02*
G75*
G03*
X9685000Y-12192000I-160000J0D01*
G01*
X20000000Y-12032500D02*
X20320000Y-12352500D01*
X20320000Y-12032500D02*
X20000000Y-12352500D01*
X20320000Y-12192500D02*
G75*
G03*
X20320000Y-12192500I-160000J0D01*
G01*
X20000000Y-6444500D02*
X20320000Y-6764500D01*
X20320000Y-6444500D02*
X20000000Y-6764500D01*
X20320000Y-6604500D02*
G75*
G03*
X20320000Y-6604500I-160000J0D01*
G01*
D11*
X9396619Y-12888476D02*
X9396619Y-12688476D01*
X9444238Y-12688476D01*
X9472810Y-12698000D01*
X9491857Y-12717048D01*
X9501381Y-12736095D01*
X9510905Y-12774190D01*
X9510905Y-12802762D01*
X9501381Y-12840857D01*
X9491857Y-12859905D01*
X9472810Y-12878952D01*
X9444238Y-12888476D01*
X9396619Y-12888476D01*
X9596619Y-12888476D02*
X9596619Y-12755143D01*
X9596619Y-12793238D02*
X9606143Y-12774190D01*
X9615667Y-12764667D01*
X9634714Y-12755143D01*
X9653762Y-12755143D01*
X9720429Y-12888476D02*
X9720429Y-12755143D01*
X9720429Y-12688476D02*
X9710905Y-12698000D01*
X9720429Y-12707524D01*
X9729952Y-12698000D01*
X9720429Y-12688476D01*
X9720429Y-12707524D01*
X9844238Y-12888476D02*
X9825190Y-12878952D01*
X9815667Y-12859905D01*
X9815667Y-12688476D01*
X9949000Y-12888476D02*
X9929952Y-12878952D01*
X9920429Y-12859905D01*
X9920429Y-12688476D01*
X10177571Y-12888476D02*
X10177571Y-12688476D01*
X10244238Y-12831333D01*
X10310905Y-12688476D01*
X10310905Y-12888476D01*
X10491857Y-12888476D02*
X10491857Y-12783714D01*
X10482333Y-12764667D01*
X10463286Y-12755143D01*
X10425190Y-12755143D01*
X10406143Y-12764667D01*
X10491857Y-12878952D02*
X10472810Y-12888476D01*
X10425190Y-12888476D01*
X10406143Y-12878952D01*
X10396619Y-12859905D01*
X10396619Y-12840857D01*
X10406143Y-12821809D01*
X10425190Y-12812286D01*
X10472810Y-12812286D01*
X10491857Y-12802762D01*
X10587095Y-12755143D02*
X10587095Y-12955143D01*
X10587095Y-12764667D02*
X10606143Y-12755143D01*
X10644238Y-12755143D01*
X10663286Y-12764667D01*
X10672810Y-12774190D01*
X10682333Y-12793238D01*
X10682333Y-12850381D01*
X10672810Y-12869428D01*
X10663286Y-12878952D01*
X10644238Y-12888476D01*
X10606143Y-12888476D01*
X10587095Y-12878952D01*
X10768048Y-12869428D02*
X10777571Y-12878952D01*
X10768048Y-12888476D01*
X10758524Y-12878952D01*
X10768048Y-12869428D01*
X10768048Y-12888476D01*
X10768048Y-12764667D02*
X10777571Y-12774190D01*
X10768048Y-12783714D01*
X10758524Y-12774190D01*
X10768048Y-12764667D01*
X10768048Y-12783714D01*
D12*
X9099000Y-13198000D02*
X9139000Y-13238000D01*
X9139000Y-13198000D02*
X9099000Y-13238000D01*
D11*
X9434714Y-13108476D02*
X9453762Y-13108476D01*
X9472810Y-13118000D01*
X9482333Y-13127524D01*
X9491857Y-13146571D01*
X9501381Y-13184667D01*
X9501381Y-13232286D01*
X9491857Y-13270381D01*
X9482333Y-13289428D01*
X9472810Y-13298952D01*
X9453762Y-13308476D01*
X9434714Y-13308476D01*
X9415667Y-13298952D01*
X9406143Y-13289428D01*
X9396619Y-13270381D01*
X9387095Y-13232286D01*
X9387095Y-13184667D01*
X9396619Y-13146571D01*
X9406143Y-13127524D01*
X9415667Y-13118000D01*
X9434714Y-13108476D01*
X9587095Y-13289428D02*
X9596619Y-13298952D01*
X9587095Y-13308476D01*
X9577571Y-13298952D01*
X9587095Y-13289428D01*
X9587095Y-13308476D01*
X9768048Y-13175143D02*
X9768048Y-13308476D01*
X9720429Y-13098952D02*
X9672810Y-13241809D01*
X9796619Y-13241809D01*
X9910905Y-13108476D02*
X9929952Y-13108476D01*
X9949000Y-13118000D01*
X9958524Y-13127524D01*
X9968048Y-13146571D01*
X9977571Y-13184667D01*
X9977571Y-13232286D01*
X9968048Y-13270381D01*
X9958524Y-13289428D01*
X9949000Y-13298952D01*
X9929952Y-13308476D01*
X9910905Y-13308476D01*
X9891857Y-13298952D01*
X9882333Y-13289428D01*
X9872810Y-13270381D01*
X9863286Y-13232286D01*
X9863286Y-13184667D01*
X9872810Y-13146571D01*
X9882333Y-13127524D01*
X9891857Y-13118000D01*
X9910905Y-13108476D01*
X10101381Y-13108476D02*
X10120429Y-13108476D01*
X10139476Y-13118000D01*
X10149000Y-13127524D01*
X10158524Y-13146571D01*
X10168048Y-13184667D01*
X10168048Y-13232286D01*
X10158524Y-13270381D01*
X10149000Y-13289428D01*
X10139476Y-13298952D01*
X10120429Y-13308476D01*
X10101381Y-13308476D01*
X10082333Y-13298952D01*
X10072810Y-13289428D01*
X10063286Y-13270381D01*
X10053762Y-13232286D01*
X10053762Y-13184667D01*
X10063286Y-13146571D01*
X10072810Y-13127524D01*
X10082333Y-13118000D01*
X10101381Y-13108476D01*
X10253762Y-13308476D02*
X10253762Y-13175143D01*
X10253762Y-13194190D02*
X10263286Y-13184667D01*
X10282333Y-13175143D01*
X10310905Y-13175143D01*
X10329952Y-13184667D01*
X10339476Y-13203714D01*
X10339476Y-13308476D01*
X10339476Y-13203714D02*
X10349000Y-13184667D01*
X10368048Y-13175143D01*
X10396619Y-13175143D01*
X10415667Y-13184667D01*
X10425190Y-13203714D01*
X10425190Y-13308476D01*
X10520429Y-13308476D02*
X10520429Y-13175143D01*
X10520429Y-13194190D02*
X10529952Y-13184667D01*
X10549000Y-13175143D01*
X10577571Y-13175143D01*
X10596619Y-13184667D01*
X10606143Y-13203714D01*
X10606143Y-13308476D01*
X10606143Y-13203714D02*
X10615667Y-13184667D01*
X10634714Y-13175143D01*
X10663286Y-13175143D01*
X10682333Y-13184667D01*
X10691857Y-13203714D01*
X10691857Y-13308476D01*
X11082333Y-13098952D02*
X10910905Y-13356095D01*
X11339476Y-13108476D02*
X11358524Y-13108476D01*
X11377571Y-13118000D01*
X11387095Y-13127524D01*
X11396619Y-13146571D01*
X11406143Y-13184667D01*
X11406143Y-13232286D01*
X11396619Y-13270381D01*
X11387095Y-13289428D01*
X11377571Y-13298952D01*
X11358524Y-13308476D01*
X11339476Y-13308476D01*
X11320428Y-13298952D01*
X11310905Y-13289428D01*
X11301381Y-13270381D01*
X11291857Y-13232286D01*
X11291857Y-13184667D01*
X11301381Y-13146571D01*
X11310905Y-13127524D01*
X11320428Y-13118000D01*
X11339476Y-13108476D01*
X11491857Y-13289428D02*
X11501381Y-13298952D01*
X11491857Y-13308476D01*
X11482333Y-13298952D01*
X11491857Y-13289428D01*
X11491857Y-13308476D01*
X11625190Y-13108476D02*
X11644238Y-13108476D01*
X11663286Y-13118000D01*
X11672809Y-13127524D01*
X11682333Y-13146571D01*
X11691857Y-13184667D01*
X11691857Y-13232286D01*
X11682333Y-13270381D01*
X11672809Y-13289428D01*
X11663286Y-13298952D01*
X11644238Y-13308476D01*
X11625190Y-13308476D01*
X11606143Y-13298952D01*
X11596619Y-13289428D01*
X11587095Y-13270381D01*
X11577571Y-13232286D01*
X11577571Y-13184667D01*
X11587095Y-13146571D01*
X11596619Y-13127524D01*
X11606143Y-13118000D01*
X11625190Y-13108476D01*
X11882333Y-13308476D02*
X11768048Y-13308476D01*
X11825190Y-13308476D02*
X11825190Y-13108476D01*
X11806143Y-13137048D01*
X11787095Y-13156095D01*
X11768048Y-13165619D01*
X12063286Y-13108476D02*
X11968048Y-13108476D01*
X11958524Y-13203714D01*
X11968048Y-13194190D01*
X11987095Y-13184667D01*
X12034714Y-13184667D01*
X12053762Y-13194190D01*
X12063286Y-13203714D01*
X12072809Y-13222762D01*
X12072809Y-13270381D01*
X12063286Y-13289428D01*
X12053762Y-13298952D01*
X12034714Y-13308476D01*
X11987095Y-13308476D01*
X11968048Y-13298952D01*
X11958524Y-13289428D01*
X12139476Y-13108476D02*
X12272809Y-13108476D01*
X12187095Y-13308476D01*
X12339476Y-13108476D02*
X12339476Y-13146571D01*
X12415667Y-13108476D02*
X12415667Y-13146571D01*
X12710905Y-13384667D02*
X12701381Y-13375143D01*
X12682333Y-13346571D01*
X12672809Y-13327524D01*
X12663286Y-13298952D01*
X12653762Y-13251333D01*
X12653762Y-13213238D01*
X12663286Y-13165619D01*
X12672809Y-13137048D01*
X12682333Y-13118000D01*
X12701381Y-13089428D01*
X12710905Y-13079905D01*
X12777571Y-13127524D02*
X12787095Y-13118000D01*
X12806143Y-13108476D01*
X12853762Y-13108476D01*
X12872809Y-13118000D01*
X12882333Y-13127524D01*
X12891857Y-13146571D01*
X12891857Y-13165619D01*
X12882333Y-13194190D01*
X12768048Y-13308476D01*
X12891857Y-13308476D01*
X12958524Y-13108476D02*
X13082333Y-13108476D01*
X13015667Y-13184667D01*
X13044238Y-13184667D01*
X13063286Y-13194190D01*
X13072809Y-13203714D01*
X13082333Y-13222762D01*
X13082333Y-13270381D01*
X13072809Y-13289428D01*
X13063286Y-13298952D01*
X13044238Y-13308476D01*
X12987095Y-13308476D01*
X12968048Y-13298952D01*
X12958524Y-13289428D01*
X13320428Y-13308476D02*
X13320428Y-13108476D01*
X13406143Y-13308476D02*
X13406143Y-13203714D01*
X13396619Y-13184667D01*
X13377571Y-13175143D01*
X13349000Y-13175143D01*
X13329952Y-13184667D01*
X13320428Y-13194190D01*
X13529952Y-13308476D02*
X13510905Y-13298952D01*
X13501381Y-13289428D01*
X13491857Y-13270381D01*
X13491857Y-13213238D01*
X13501381Y-13194190D01*
X13510905Y-13184667D01*
X13529952Y-13175143D01*
X13558524Y-13175143D01*
X13577571Y-13184667D01*
X13587095Y-13194190D01*
X13596619Y-13213238D01*
X13596619Y-13270381D01*
X13587095Y-13289428D01*
X13577571Y-13298952D01*
X13558524Y-13308476D01*
X13529952Y-13308476D01*
X13710905Y-13308476D02*
X13691857Y-13298952D01*
X13682333Y-13279905D01*
X13682333Y-13108476D01*
X13863286Y-13298952D02*
X13844238Y-13308476D01*
X13806143Y-13308476D01*
X13787095Y-13298952D01*
X13777571Y-13279905D01*
X13777571Y-13203714D01*
X13787095Y-13184667D01*
X13806143Y-13175143D01*
X13844238Y-13175143D01*
X13863286Y-13184667D01*
X13872809Y-13203714D01*
X13872809Y-13222762D01*
X13777571Y-13241809D01*
X13949000Y-13298952D02*
X13968048Y-13308476D01*
X14006143Y-13308476D01*
X14025190Y-13298952D01*
X14034714Y-13279905D01*
X14034714Y-13270381D01*
X14025190Y-13251333D01*
X14006143Y-13241809D01*
X13977571Y-13241809D01*
X13958524Y-13232286D01*
X13949000Y-13213238D01*
X13949000Y-13203714D01*
X13958524Y-13184667D01*
X13977571Y-13175143D01*
X14006143Y-13175143D01*
X14025190Y-13184667D01*
X14101381Y-13384667D02*
X14110905Y-13375143D01*
X14129952Y-13346571D01*
X14139476Y-13327524D01*
X14149000Y-13298952D01*
X14158524Y-13251333D01*
X14158524Y-13213238D01*
X14149000Y-13165619D01*
X14139476Y-13137048D01*
X14129952Y-13118000D01*
X14110905Y-13089428D01*
X14101381Y-13079905D01*
D13*
X9139000Y-13482000D02*
G75*
G03*
X9139000Y-13482000I-38100J0D01*
G01*
D11*
X9434714Y-13372476D02*
X9453762Y-13372476D01*
X9472810Y-13382000D01*
X9482333Y-13391524D01*
X9491857Y-13410571D01*
X9501381Y-13448667D01*
X9501381Y-13496286D01*
X9491857Y-13534381D01*
X9482333Y-13553428D01*
X9472810Y-13562952D01*
X9453762Y-13572476D01*
X9434714Y-13572476D01*
X9415667Y-13562952D01*
X9406143Y-13553428D01*
X9396619Y-13534381D01*
X9387095Y-13496286D01*
X9387095Y-13448667D01*
X9396619Y-13410571D01*
X9406143Y-13391524D01*
X9415667Y-13382000D01*
X9434714Y-13372476D01*
X9587095Y-13553428D02*
X9596619Y-13562952D01*
X9587095Y-13572476D01*
X9577571Y-13562952D01*
X9587095Y-13553428D01*
X9587095Y-13572476D01*
X9663286Y-13372476D02*
X9796619Y-13372476D01*
X9710905Y-13572476D01*
X9958524Y-13372476D02*
X9920429Y-13372476D01*
X9901381Y-13382000D01*
X9891857Y-13391524D01*
X9872810Y-13420095D01*
X9863286Y-13458190D01*
X9863286Y-13534381D01*
X9872810Y-13553428D01*
X9882333Y-13562952D01*
X9901381Y-13572476D01*
X9939476Y-13572476D01*
X9958524Y-13562952D01*
X9968048Y-13553428D01*
X9977571Y-13534381D01*
X9977571Y-13486762D01*
X9968048Y-13467714D01*
X9958524Y-13458190D01*
X9939476Y-13448667D01*
X9901381Y-13448667D01*
X9882333Y-13458190D01*
X9872810Y-13467714D01*
X9863286Y-13486762D01*
X10053762Y-13391524D02*
X10063286Y-13382000D01*
X10082333Y-13372476D01*
X10129952Y-13372476D01*
X10149000Y-13382000D01*
X10158524Y-13391524D01*
X10168048Y-13410571D01*
X10168048Y-13429619D01*
X10158524Y-13458190D01*
X10044238Y-13572476D01*
X10168048Y-13572476D01*
X10253762Y-13572476D02*
X10253762Y-13439143D01*
X10253762Y-13458190D02*
X10263286Y-13448667D01*
X10282333Y-13439143D01*
X10310905Y-13439143D01*
X10329952Y-13448667D01*
X10339476Y-13467714D01*
X10339476Y-13572476D01*
X10339476Y-13467714D02*
X10349000Y-13448667D01*
X10368048Y-13439143D01*
X10396619Y-13439143D01*
X10415667Y-13448667D01*
X10425190Y-13467714D01*
X10425190Y-13572476D01*
X10520429Y-13572476D02*
X10520429Y-13439143D01*
X10520429Y-13458190D02*
X10529952Y-13448667D01*
X10549000Y-13439143D01*
X10577571Y-13439143D01*
X10596619Y-13448667D01*
X10606143Y-13467714D01*
X10606143Y-13572476D01*
X10606143Y-13467714D02*
X10615667Y-13448667D01*
X10634714Y-13439143D01*
X10663286Y-13439143D01*
X10682333Y-13448667D01*
X10691857Y-13467714D01*
X10691857Y-13572476D01*
X11082333Y-13362952D02*
X10910905Y-13620095D01*
X11339476Y-13372476D02*
X11358524Y-13372476D01*
X11377571Y-13382000D01*
X11387095Y-13391524D01*
X11396619Y-13410571D01*
X11406143Y-13448667D01*
X11406143Y-13496286D01*
X11396619Y-13534381D01*
X11387095Y-13553428D01*
X11377571Y-13562952D01*
X11358524Y-13572476D01*
X11339476Y-13572476D01*
X11320428Y-13562952D01*
X11310905Y-13553428D01*
X11301381Y-13534381D01*
X11291857Y-13496286D01*
X11291857Y-13448667D01*
X11301381Y-13410571D01*
X11310905Y-13391524D01*
X11320428Y-13382000D01*
X11339476Y-13372476D01*
X11491857Y-13553428D02*
X11501381Y-13562952D01*
X11491857Y-13572476D01*
X11482333Y-13562952D01*
X11491857Y-13553428D01*
X11491857Y-13572476D01*
X11625190Y-13372476D02*
X11644238Y-13372476D01*
X11663286Y-13382000D01*
X11672809Y-13391524D01*
X11682333Y-13410571D01*
X11691857Y-13448667D01*
X11691857Y-13496286D01*
X11682333Y-13534381D01*
X11672809Y-13553428D01*
X11663286Y-13562952D01*
X11644238Y-13572476D01*
X11625190Y-13572476D01*
X11606143Y-13562952D01*
X11596619Y-13553428D01*
X11587095Y-13534381D01*
X11577571Y-13496286D01*
X11577571Y-13448667D01*
X11587095Y-13410571D01*
X11596619Y-13391524D01*
X11606143Y-13382000D01*
X11625190Y-13372476D01*
X11758524Y-13372476D02*
X11882333Y-13372476D01*
X11815667Y-13448667D01*
X11844238Y-13448667D01*
X11863286Y-13458190D01*
X11872809Y-13467714D01*
X11882333Y-13486762D01*
X11882333Y-13534381D01*
X11872809Y-13553428D01*
X11863286Y-13562952D01*
X11844238Y-13572476D01*
X11787095Y-13572476D01*
X11768048Y-13562952D01*
X11758524Y-13553428D01*
X12006143Y-13372476D02*
X12025190Y-13372476D01*
X12044238Y-13382000D01*
X12053762Y-13391524D01*
X12063286Y-13410571D01*
X12072809Y-13448667D01*
X12072809Y-13496286D01*
X12063286Y-13534381D01*
X12053762Y-13553428D01*
X12044238Y-13562952D01*
X12025190Y-13572476D01*
X12006143Y-13572476D01*
X11987095Y-13562952D01*
X11977571Y-13553428D01*
X11968048Y-13534381D01*
X11958524Y-13496286D01*
X11958524Y-13448667D01*
X11968048Y-13410571D01*
X11977571Y-13391524D01*
X11987095Y-13382000D01*
X12006143Y-13372476D01*
X12196619Y-13372476D02*
X12215667Y-13372476D01*
X12234714Y-13382000D01*
X12244238Y-13391524D01*
X12253762Y-13410571D01*
X12263286Y-13448667D01*
X12263286Y-13496286D01*
X12253762Y-13534381D01*
X12244238Y-13553428D01*
X12234714Y-13562952D01*
X12215667Y-13572476D01*
X12196619Y-13572476D01*
X12177571Y-13562952D01*
X12168048Y-13553428D01*
X12158524Y-13534381D01*
X12149000Y-13496286D01*
X12149000Y-13448667D01*
X12158524Y-13410571D01*
X12168048Y-13391524D01*
X12177571Y-13382000D01*
X12196619Y-13372476D01*
X12339476Y-13372476D02*
X12339476Y-13410571D01*
X12415667Y-13372476D02*
X12415667Y-13410571D01*
X12710905Y-13648667D02*
X12701381Y-13639143D01*
X12682333Y-13610571D01*
X12672809Y-13591524D01*
X12663286Y-13562952D01*
X12653762Y-13515333D01*
X12653762Y-13477238D01*
X12663286Y-13429619D01*
X12672809Y-13401048D01*
X12682333Y-13382000D01*
X12701381Y-13353428D01*
X12710905Y-13343905D01*
X12872809Y-13439143D02*
X12872809Y-13572476D01*
X12825190Y-13362952D02*
X12777571Y-13505809D01*
X12901381Y-13505809D01*
X13129952Y-13572476D02*
X13129952Y-13372476D01*
X13215667Y-13572476D02*
X13215667Y-13467714D01*
X13206143Y-13448667D01*
X13187095Y-13439143D01*
X13158524Y-13439143D01*
X13139476Y-13448667D01*
X13129952Y-13458190D01*
X13339476Y-13572476D02*
X13320428Y-13562952D01*
X13310905Y-13553428D01*
X13301381Y-13534381D01*
X13301381Y-13477238D01*
X13310905Y-13458190D01*
X13320428Y-13448667D01*
X13339476Y-13439143D01*
X13368048Y-13439143D01*
X13387095Y-13448667D01*
X13396619Y-13458190D01*
X13406143Y-13477238D01*
X13406143Y-13534381D01*
X13396619Y-13553428D01*
X13387095Y-13562952D01*
X13368048Y-13572476D01*
X13339476Y-13572476D01*
X13520428Y-13572476D02*
X13501381Y-13562952D01*
X13491857Y-13543905D01*
X13491857Y-13372476D01*
X13672809Y-13562952D02*
X13653762Y-13572476D01*
X13615667Y-13572476D01*
X13596619Y-13562952D01*
X13587095Y-13543905D01*
X13587095Y-13467714D01*
X13596619Y-13448667D01*
X13615667Y-13439143D01*
X13653762Y-13439143D01*
X13672809Y-13448667D01*
X13682333Y-13467714D01*
X13682333Y-13486762D01*
X13587095Y-13505809D01*
X13758524Y-13562952D02*
X13777571Y-13572476D01*
X13815667Y-13572476D01*
X13834714Y-13562952D01*
X13844238Y-13543905D01*
X13844238Y-13534381D01*
X13834714Y-13515333D01*
X13815667Y-13505809D01*
X13787095Y-13505809D01*
X13768048Y-13496286D01*
X13758524Y-13477238D01*
X13758524Y-13467714D01*
X13768048Y-13448667D01*
X13787095Y-13439143D01*
X13815667Y-13439143D01*
X13834714Y-13448667D01*
X13910905Y-13648667D02*
X13920428Y-13639143D01*
X13939476Y-13610571D01*
X13949000Y-13591524D01*
X13958524Y-13562952D01*
X13968048Y-13515333D01*
X13968048Y-13477238D01*
X13958524Y-13429619D01*
X13949000Y-13401048D01*
X13939476Y-13382000D01*
X13920428Y-13353428D01*
X13910905Y-13343905D01*
D14*
X9099000Y-13706000D02*
X9099000Y-13786000D01*
X9059000Y-13746000D02*
X9139000Y-13746000D01*
D11*
X9434714Y-13636476D02*
X9453762Y-13636476D01*
X9472810Y-13646000D01*
X9482333Y-13655524D01*
X9491857Y-13674571D01*
X9501381Y-13712667D01*
X9501381Y-13760286D01*
X9491857Y-13798381D01*
X9482333Y-13817428D01*
X9472810Y-13826952D01*
X9453762Y-13836476D01*
X9434714Y-13836476D01*
X9415667Y-13826952D01*
X9406143Y-13817428D01*
X9396619Y-13798381D01*
X9387095Y-13760286D01*
X9387095Y-13712667D01*
X9396619Y-13674571D01*
X9406143Y-13655524D01*
X9415667Y-13646000D01*
X9434714Y-13636476D01*
X9587095Y-13817428D02*
X9596619Y-13826952D01*
X9587095Y-13836476D01*
X9577571Y-13826952D01*
X9587095Y-13817428D01*
X9587095Y-13836476D01*
X9710905Y-13722190D02*
X9691857Y-13712667D01*
X9682333Y-13703143D01*
X9672810Y-13684095D01*
X9672810Y-13674571D01*
X9682333Y-13655524D01*
X9691857Y-13646000D01*
X9710905Y-13636476D01*
X9749000Y-13636476D01*
X9768048Y-13646000D01*
X9777571Y-13655524D01*
X9787095Y-13674571D01*
X9787095Y-13684095D01*
X9777571Y-13703143D01*
X9768048Y-13712667D01*
X9749000Y-13722190D01*
X9710905Y-13722190D01*
X9691857Y-13731714D01*
X9682333Y-13741238D01*
X9672810Y-13760286D01*
X9672810Y-13798381D01*
X9682333Y-13817428D01*
X9691857Y-13826952D01*
X9710905Y-13836476D01*
X9749000Y-13836476D01*
X9768048Y-13826952D01*
X9777571Y-13817428D01*
X9787095Y-13798381D01*
X9787095Y-13760286D01*
X9777571Y-13741238D01*
X9768048Y-13731714D01*
X9749000Y-13722190D01*
X9910905Y-13636476D02*
X9929952Y-13636476D01*
X9949000Y-13646000D01*
X9958524Y-13655524D01*
X9968048Y-13674571D01*
X9977571Y-13712667D01*
X9977571Y-13760286D01*
X9968048Y-13798381D01*
X9958524Y-13817428D01*
X9949000Y-13826952D01*
X9929952Y-13836476D01*
X9910905Y-13836476D01*
X9891857Y-13826952D01*
X9882333Y-13817428D01*
X9872810Y-13798381D01*
X9863286Y-13760286D01*
X9863286Y-13712667D01*
X9872810Y-13674571D01*
X9882333Y-13655524D01*
X9891857Y-13646000D01*
X9910905Y-13636476D01*
X10101381Y-13636476D02*
X10120429Y-13636476D01*
X10139476Y-13646000D01*
X10149000Y-13655524D01*
X10158524Y-13674571D01*
X10168048Y-13712667D01*
X10168048Y-13760286D01*
X10158524Y-13798381D01*
X10149000Y-13817428D01*
X10139476Y-13826952D01*
X10120429Y-13836476D01*
X10101381Y-13836476D01*
X10082333Y-13826952D01*
X10072810Y-13817428D01*
X10063286Y-13798381D01*
X10053762Y-13760286D01*
X10053762Y-13712667D01*
X10063286Y-13674571D01*
X10072810Y-13655524D01*
X10082333Y-13646000D01*
X10101381Y-13636476D01*
X10253762Y-13836476D02*
X10253762Y-13703143D01*
X10253762Y-13722190D02*
X10263286Y-13712667D01*
X10282333Y-13703143D01*
X10310905Y-13703143D01*
X10329952Y-13712667D01*
X10339476Y-13731714D01*
X10339476Y-13836476D01*
X10339476Y-13731714D02*
X10349000Y-13712667D01*
X10368048Y-13703143D01*
X10396619Y-13703143D01*
X10415667Y-13712667D01*
X10425190Y-13731714D01*
X10425190Y-13836476D01*
X10520429Y-13836476D02*
X10520429Y-13703143D01*
X10520429Y-13722190D02*
X10529952Y-13712667D01*
X10549000Y-13703143D01*
X10577571Y-13703143D01*
X10596619Y-13712667D01*
X10606143Y-13731714D01*
X10606143Y-13836476D01*
X10606143Y-13731714D02*
X10615667Y-13712667D01*
X10634714Y-13703143D01*
X10663286Y-13703143D01*
X10682333Y-13712667D01*
X10691857Y-13731714D01*
X10691857Y-13836476D01*
X11082333Y-13626952D02*
X10910905Y-13884095D01*
X11339476Y-13636476D02*
X11358524Y-13636476D01*
X11377571Y-13646000D01*
X11387095Y-13655524D01*
X11396619Y-13674571D01*
X11406143Y-13712667D01*
X11406143Y-13760286D01*
X11396619Y-13798381D01*
X11387095Y-13817428D01*
X11377571Y-13826952D01*
X11358524Y-13836476D01*
X11339476Y-13836476D01*
X11320428Y-13826952D01*
X11310905Y-13817428D01*
X11301381Y-13798381D01*
X11291857Y-13760286D01*
X11291857Y-13712667D01*
X11301381Y-13674571D01*
X11310905Y-13655524D01*
X11320428Y-13646000D01*
X11339476Y-13636476D01*
X11491857Y-13817428D02*
X11501381Y-13826952D01*
X11491857Y-13836476D01*
X11482333Y-13826952D01*
X11491857Y-13817428D01*
X11491857Y-13836476D01*
X11625190Y-13636476D02*
X11644238Y-13636476D01*
X11663286Y-13646000D01*
X11672809Y-13655524D01*
X11682333Y-13674571D01*
X11691857Y-13712667D01*
X11691857Y-13760286D01*
X11682333Y-13798381D01*
X11672809Y-13817428D01*
X11663286Y-13826952D01*
X11644238Y-13836476D01*
X11625190Y-13836476D01*
X11606143Y-13826952D01*
X11596619Y-13817428D01*
X11587095Y-13798381D01*
X11577571Y-13760286D01*
X11577571Y-13712667D01*
X11587095Y-13674571D01*
X11596619Y-13655524D01*
X11606143Y-13646000D01*
X11625190Y-13636476D01*
X11758524Y-13636476D02*
X11882333Y-13636476D01*
X11815667Y-13712667D01*
X11844238Y-13712667D01*
X11863286Y-13722190D01*
X11872809Y-13731714D01*
X11882333Y-13750762D01*
X11882333Y-13798381D01*
X11872809Y-13817428D01*
X11863286Y-13826952D01*
X11844238Y-13836476D01*
X11787095Y-13836476D01*
X11768048Y-13826952D01*
X11758524Y-13817428D01*
X12072809Y-13836476D02*
X11958524Y-13836476D01*
X12015667Y-13836476D02*
X12015667Y-13636476D01*
X11996619Y-13665048D01*
X11977571Y-13684095D01*
X11958524Y-13693619D01*
X12253762Y-13636476D02*
X12158524Y-13636476D01*
X12149000Y-13731714D01*
X12158524Y-13722190D01*
X12177571Y-13712667D01*
X12225190Y-13712667D01*
X12244238Y-13722190D01*
X12253762Y-13731714D01*
X12263286Y-13750762D01*
X12263286Y-13798381D01*
X12253762Y-13817428D01*
X12244238Y-13826952D01*
X12225190Y-13836476D01*
X12177571Y-13836476D01*
X12158524Y-13826952D01*
X12149000Y-13817428D01*
X12339476Y-13636476D02*
X12339476Y-13674571D01*
X12415667Y-13636476D02*
X12415667Y-13674571D01*
X12710905Y-13912667D02*
X12701381Y-13903143D01*
X12682333Y-13874571D01*
X12672809Y-13855524D01*
X12663286Y-13826952D01*
X12653762Y-13779333D01*
X12653762Y-13741238D01*
X12663286Y-13693619D01*
X12672809Y-13665048D01*
X12682333Y-13646000D01*
X12701381Y-13617428D01*
X12710905Y-13607905D01*
X12872809Y-13636476D02*
X12834714Y-13636476D01*
X12815667Y-13646000D01*
X12806143Y-13655524D01*
X12787095Y-13684095D01*
X12777571Y-13722190D01*
X12777571Y-13798381D01*
X12787095Y-13817428D01*
X12796619Y-13826952D01*
X12815667Y-13836476D01*
X12853762Y-13836476D01*
X12872809Y-13826952D01*
X12882333Y-13817428D01*
X12891857Y-13798381D01*
X12891857Y-13750762D01*
X12882333Y-13731714D01*
X12872809Y-13722190D01*
X12853762Y-13712667D01*
X12815667Y-13712667D01*
X12796619Y-13722190D01*
X12787095Y-13731714D01*
X12777571Y-13750762D01*
X13129952Y-13836476D02*
X13129952Y-13636476D01*
X13215667Y-13836476D02*
X13215667Y-13731714D01*
X13206143Y-13712667D01*
X13187095Y-13703143D01*
X13158524Y-13703143D01*
X13139476Y-13712667D01*
X13129952Y-13722190D01*
X13339476Y-13836476D02*
X13320428Y-13826952D01*
X13310905Y-13817428D01*
X13301381Y-13798381D01*
X13301381Y-13741238D01*
X13310905Y-13722190D01*
X13320428Y-13712667D01*
X13339476Y-13703143D01*
X13368048Y-13703143D01*
X13387095Y-13712667D01*
X13396619Y-13722190D01*
X13406143Y-13741238D01*
X13406143Y-13798381D01*
X13396619Y-13817428D01*
X13387095Y-13826952D01*
X13368048Y-13836476D01*
X13339476Y-13836476D01*
X13520428Y-13836476D02*
X13501381Y-13826952D01*
X13491857Y-13807905D01*
X13491857Y-13636476D01*
X13672809Y-13826952D02*
X13653762Y-13836476D01*
X13615667Y-13836476D01*
X13596619Y-13826952D01*
X13587095Y-13807905D01*
X13587095Y-13731714D01*
X13596619Y-13712667D01*
X13615667Y-13703143D01*
X13653762Y-13703143D01*
X13672809Y-13712667D01*
X13682333Y-13731714D01*
X13682333Y-13750762D01*
X13587095Y-13769809D01*
X13758524Y-13826952D02*
X13777571Y-13836476D01*
X13815667Y-13836476D01*
X13834714Y-13826952D01*
X13844238Y-13807905D01*
X13844238Y-13798381D01*
X13834714Y-13779333D01*
X13815667Y-13769809D01*
X13787095Y-13769809D01*
X13768048Y-13760286D01*
X13758524Y-13741238D01*
X13758524Y-13731714D01*
X13768048Y-13712667D01*
X13787095Y-13703143D01*
X13815667Y-13703143D01*
X13834714Y-13712667D01*
X13910905Y-13912667D02*
X13920428Y-13903143D01*
X13939476Y-13874571D01*
X13949000Y-13855524D01*
X13958524Y-13826952D01*
X13968048Y-13779333D01*
X13968048Y-13741238D01*
X13958524Y-13693619D01*
X13949000Y-13665048D01*
X13939476Y-13646000D01*
X13920428Y-13617428D01*
X13910905Y-13607905D01*
D15*
X9124121Y-14045921D02*
X9124121Y-13974079D01*
X9052279Y-13974079D01*
X9052279Y-14045921D01*
X9124121Y-14045921D01*
D11*
X9501381Y-14100476D02*
X9387095Y-14100476D01*
X9444238Y-14100476D02*
X9444238Y-13900476D01*
X9425190Y-13929048D01*
X9406143Y-13948095D01*
X9387095Y-13957619D01*
X9587095Y-14081428D02*
X9596619Y-14090952D01*
X9587095Y-14100476D01*
X9577571Y-14090952D01*
X9587095Y-14081428D01*
X9587095Y-14100476D01*
X9720429Y-13900476D02*
X9739476Y-13900476D01*
X9758524Y-13910000D01*
X9768048Y-13919524D01*
X9777571Y-13938571D01*
X9787095Y-13976667D01*
X9787095Y-14024286D01*
X9777571Y-14062381D01*
X9768048Y-14081428D01*
X9758524Y-14090952D01*
X9739476Y-14100476D01*
X9720429Y-14100476D01*
X9701381Y-14090952D01*
X9691857Y-14081428D01*
X9682333Y-14062381D01*
X9672810Y-14024286D01*
X9672810Y-13976667D01*
X9682333Y-13938571D01*
X9691857Y-13919524D01*
X9701381Y-13910000D01*
X9720429Y-13900476D01*
X9977571Y-14100476D02*
X9863286Y-14100476D01*
X9920429Y-14100476D02*
X9920429Y-13900476D01*
X9901381Y-13929048D01*
X9882333Y-13948095D01*
X9863286Y-13957619D01*
X10149000Y-13900476D02*
X10110905Y-13900476D01*
X10091857Y-13910000D01*
X10082333Y-13919524D01*
X10063286Y-13948095D01*
X10053762Y-13986190D01*
X10053762Y-14062381D01*
X10063286Y-14081428D01*
X10072810Y-14090952D01*
X10091857Y-14100476D01*
X10129952Y-14100476D01*
X10149000Y-14090952D01*
X10158524Y-14081428D01*
X10168048Y-14062381D01*
X10168048Y-14014762D01*
X10158524Y-13995714D01*
X10149000Y-13986190D01*
X10129952Y-13976667D01*
X10091857Y-13976667D01*
X10072810Y-13986190D01*
X10063286Y-13995714D01*
X10053762Y-14014762D01*
X10253762Y-14100476D02*
X10253762Y-13967143D01*
X10253762Y-13986190D02*
X10263286Y-13976667D01*
X10282333Y-13967143D01*
X10310905Y-13967143D01*
X10329952Y-13976667D01*
X10339476Y-13995714D01*
X10339476Y-14100476D01*
X10339476Y-13995714D02*
X10349000Y-13976667D01*
X10368048Y-13967143D01*
X10396619Y-13967143D01*
X10415667Y-13976667D01*
X10425190Y-13995714D01*
X10425190Y-14100476D01*
X10520429Y-14100476D02*
X10520429Y-13967143D01*
X10520429Y-13986190D02*
X10529952Y-13976667D01*
X10549000Y-13967143D01*
X10577571Y-13967143D01*
X10596619Y-13976667D01*
X10606143Y-13995714D01*
X10606143Y-14100476D01*
X10606143Y-13995714D02*
X10615667Y-13976667D01*
X10634714Y-13967143D01*
X10663286Y-13967143D01*
X10682333Y-13976667D01*
X10691857Y-13995714D01*
X10691857Y-14100476D01*
X11082333Y-13890952D02*
X10910905Y-14148095D01*
X11339476Y-13900476D02*
X11358524Y-13900476D01*
X11377571Y-13910000D01*
X11387095Y-13919524D01*
X11396619Y-13938571D01*
X11406143Y-13976667D01*
X11406143Y-14024286D01*
X11396619Y-14062381D01*
X11387095Y-14081428D01*
X11377571Y-14090952D01*
X11358524Y-14100476D01*
X11339476Y-14100476D01*
X11320428Y-14090952D01*
X11310905Y-14081428D01*
X11301381Y-14062381D01*
X11291857Y-14024286D01*
X11291857Y-13976667D01*
X11301381Y-13938571D01*
X11310905Y-13919524D01*
X11320428Y-13910000D01*
X11339476Y-13900476D01*
X11491857Y-14081428D02*
X11501381Y-14090952D01*
X11491857Y-14100476D01*
X11482333Y-14090952D01*
X11491857Y-14081428D01*
X11491857Y-14100476D01*
X11625190Y-13900476D02*
X11644238Y-13900476D01*
X11663286Y-13910000D01*
X11672809Y-13919524D01*
X11682333Y-13938571D01*
X11691857Y-13976667D01*
X11691857Y-14024286D01*
X11682333Y-14062381D01*
X11672809Y-14081428D01*
X11663286Y-14090952D01*
X11644238Y-14100476D01*
X11625190Y-14100476D01*
X11606143Y-14090952D01*
X11596619Y-14081428D01*
X11587095Y-14062381D01*
X11577571Y-14024286D01*
X11577571Y-13976667D01*
X11587095Y-13938571D01*
X11596619Y-13919524D01*
X11606143Y-13910000D01*
X11625190Y-13900476D01*
X11863286Y-13967143D02*
X11863286Y-14100476D01*
X11815667Y-13890952D02*
X11768048Y-14033809D01*
X11891857Y-14033809D01*
X12006143Y-13900476D02*
X12025190Y-13900476D01*
X12044238Y-13910000D01*
X12053762Y-13919524D01*
X12063286Y-13938571D01*
X12072809Y-13976667D01*
X12072809Y-14024286D01*
X12063286Y-14062381D01*
X12053762Y-14081428D01*
X12044238Y-14090952D01*
X12025190Y-14100476D01*
X12006143Y-14100476D01*
X11987095Y-14090952D01*
X11977571Y-14081428D01*
X11968048Y-14062381D01*
X11958524Y-14024286D01*
X11958524Y-13976667D01*
X11968048Y-13938571D01*
X11977571Y-13919524D01*
X11987095Y-13910000D01*
X12006143Y-13900476D01*
X12196619Y-13900476D02*
X12215667Y-13900476D01*
X12234714Y-13910000D01*
X12244238Y-13919524D01*
X12253762Y-13938571D01*
X12263286Y-13976667D01*
X12263286Y-14024286D01*
X12253762Y-14062381D01*
X12244238Y-14081428D01*
X12234714Y-14090952D01*
X12215667Y-14100476D01*
X12196619Y-14100476D01*
X12177571Y-14090952D01*
X12168048Y-14081428D01*
X12158524Y-14062381D01*
X12149000Y-14024286D01*
X12149000Y-13976667D01*
X12158524Y-13938571D01*
X12168048Y-13919524D01*
X12177571Y-13910000D01*
X12196619Y-13900476D01*
X12339476Y-13900476D02*
X12339476Y-13938571D01*
X12415667Y-13900476D02*
X12415667Y-13938571D01*
X12710905Y-14176667D02*
X12701381Y-14167143D01*
X12682333Y-14138571D01*
X12672809Y-14119524D01*
X12663286Y-14090952D01*
X12653762Y-14043333D01*
X12653762Y-14005238D01*
X12663286Y-13957619D01*
X12672809Y-13929048D01*
X12682333Y-13910000D01*
X12701381Y-13881428D01*
X12710905Y-13871905D01*
X12891857Y-14100476D02*
X12777571Y-14100476D01*
X12834714Y-14100476D02*
X12834714Y-13900476D01*
X12815667Y-13929048D01*
X12796619Y-13948095D01*
X12777571Y-13957619D01*
X13015667Y-13900476D02*
X13034714Y-13900476D01*
X13053762Y-13910000D01*
X13063286Y-13919524D01*
X13072809Y-13938571D01*
X13082333Y-13976667D01*
X13082333Y-14024286D01*
X13072809Y-14062381D01*
X13063286Y-14081428D01*
X13053762Y-14090952D01*
X13034714Y-14100476D01*
X13015667Y-14100476D01*
X12996619Y-14090952D01*
X12987095Y-14081428D01*
X12977571Y-14062381D01*
X12968048Y-14024286D01*
X12968048Y-13976667D01*
X12977571Y-13938571D01*
X12987095Y-13919524D01*
X12996619Y-13910000D01*
X13015667Y-13900476D01*
X13158524Y-13919524D02*
X13168048Y-13910000D01*
X13187095Y-13900476D01*
X13234714Y-13900476D01*
X13253762Y-13910000D01*
X13263286Y-13919524D01*
X13272809Y-13938571D01*
X13272809Y-13957619D01*
X13263286Y-13986190D01*
X13149000Y-14100476D01*
X13272809Y-14100476D01*
X13510905Y-14100476D02*
X13510905Y-13900476D01*
X13596619Y-14100476D02*
X13596619Y-13995714D01*
X13587095Y-13976667D01*
X13568048Y-13967143D01*
X13539476Y-13967143D01*
X13520428Y-13976667D01*
X13510905Y-13986190D01*
X13720428Y-14100476D02*
X13701381Y-14090952D01*
X13691857Y-14081428D01*
X13682333Y-14062381D01*
X13682333Y-14005238D01*
X13691857Y-13986190D01*
X13701381Y-13976667D01*
X13720428Y-13967143D01*
X13749000Y-13967143D01*
X13768048Y-13976667D01*
X13777571Y-13986190D01*
X13787095Y-14005238D01*
X13787095Y-14062381D01*
X13777571Y-14081428D01*
X13768048Y-14090952D01*
X13749000Y-14100476D01*
X13720428Y-14100476D01*
X13901381Y-14100476D02*
X13882333Y-14090952D01*
X13872809Y-14071905D01*
X13872809Y-13900476D01*
X14053762Y-14090952D02*
X14034714Y-14100476D01*
X13996619Y-14100476D01*
X13977571Y-14090952D01*
X13968048Y-14071905D01*
X13968048Y-13995714D01*
X13977571Y-13976667D01*
X13996619Y-13967143D01*
X14034714Y-13967143D01*
X14053762Y-13976667D01*
X14063286Y-13995714D01*
X14063286Y-14014762D01*
X13968048Y-14033809D01*
X14139476Y-14090952D02*
X14158524Y-14100476D01*
X14196619Y-14100476D01*
X14215667Y-14090952D01*
X14225190Y-14071905D01*
X14225190Y-14062381D01*
X14215667Y-14043333D01*
X14196619Y-14033809D01*
X14168048Y-14033809D01*
X14149000Y-14024286D01*
X14139476Y-14005238D01*
X14139476Y-13995714D01*
X14149000Y-13976667D01*
X14168048Y-13967143D01*
X14196619Y-13967143D01*
X14215667Y-13976667D01*
X14291857Y-14176667D02*
X14301381Y-14167143D01*
X14320428Y-14138571D01*
X14329952Y-14119524D01*
X14339476Y-14090952D01*
X14349000Y-14043333D01*
X14349000Y-14005238D01*
X14339476Y-13957619D01*
X14329952Y-13929048D01*
X14320428Y-13910000D01*
X14301381Y-13881428D01*
X14291857Y-13871905D01*
D16*
X9074000Y-14339000D02*
X9139000Y-14274000D01*
X9074000Y-14209000D01*
X9009000Y-14274000D01*
X9074000Y-14339000D01*
D11*
X9501381Y-14364476D02*
X9387095Y-14364476D01*
X9444238Y-14364476D02*
X9444238Y-14164476D01*
X9425190Y-14193048D01*
X9406143Y-14212095D01*
X9387095Y-14221619D01*
X9587095Y-14345428D02*
X9596619Y-14354952D01*
X9587095Y-14364476D01*
X9577571Y-14354952D01*
X9587095Y-14345428D01*
X9587095Y-14364476D01*
X9663286Y-14164476D02*
X9787095Y-14164476D01*
X9720429Y-14240667D01*
X9749000Y-14240667D01*
X9768048Y-14250190D01*
X9777571Y-14259714D01*
X9787095Y-14278762D01*
X9787095Y-14326381D01*
X9777571Y-14345428D01*
X9768048Y-14354952D01*
X9749000Y-14364476D01*
X9691857Y-14364476D01*
X9672810Y-14354952D01*
X9663286Y-14345428D01*
X9910905Y-14164476D02*
X9929952Y-14164476D01*
X9949000Y-14174000D01*
X9958524Y-14183524D01*
X9968048Y-14202571D01*
X9977571Y-14240667D01*
X9977571Y-14288286D01*
X9968048Y-14326381D01*
X9958524Y-14345428D01*
X9949000Y-14354952D01*
X9929952Y-14364476D01*
X9910905Y-14364476D01*
X9891857Y-14354952D01*
X9882333Y-14345428D01*
X9872810Y-14326381D01*
X9863286Y-14288286D01*
X9863286Y-14240667D01*
X9872810Y-14202571D01*
X9882333Y-14183524D01*
X9891857Y-14174000D01*
X9910905Y-14164476D01*
X10101381Y-14164476D02*
X10120429Y-14164476D01*
X10139476Y-14174000D01*
X10149000Y-14183524D01*
X10158524Y-14202571D01*
X10168048Y-14240667D01*
X10168048Y-14288286D01*
X10158524Y-14326381D01*
X10149000Y-14345428D01*
X10139476Y-14354952D01*
X10120429Y-14364476D01*
X10101381Y-14364476D01*
X10082333Y-14354952D01*
X10072810Y-14345428D01*
X10063286Y-14326381D01*
X10053762Y-14288286D01*
X10053762Y-14240667D01*
X10063286Y-14202571D01*
X10072810Y-14183524D01*
X10082333Y-14174000D01*
X10101381Y-14164476D01*
X10253762Y-14364476D02*
X10253762Y-14231143D01*
X10253762Y-14250190D02*
X10263286Y-14240667D01*
X10282333Y-14231143D01*
X10310905Y-14231143D01*
X10329952Y-14240667D01*
X10339476Y-14259714D01*
X10339476Y-14364476D01*
X10339476Y-14259714D02*
X10349000Y-14240667D01*
X10368048Y-14231143D01*
X10396619Y-14231143D01*
X10415667Y-14240667D01*
X10425190Y-14259714D01*
X10425190Y-14364476D01*
X10520429Y-14364476D02*
X10520429Y-14231143D01*
X10520429Y-14250190D02*
X10529952Y-14240667D01*
X10549000Y-14231143D01*
X10577571Y-14231143D01*
X10596619Y-14240667D01*
X10606143Y-14259714D01*
X10606143Y-14364476D01*
X10606143Y-14259714D02*
X10615667Y-14240667D01*
X10634714Y-14231143D01*
X10663286Y-14231143D01*
X10682333Y-14240667D01*
X10691857Y-14259714D01*
X10691857Y-14364476D01*
X11082333Y-14154952D02*
X10910905Y-14412095D01*
X11339476Y-14164476D02*
X11358524Y-14164476D01*
X11377571Y-14174000D01*
X11387095Y-14183524D01*
X11396619Y-14202571D01*
X11406143Y-14240667D01*
X11406143Y-14288286D01*
X11396619Y-14326381D01*
X11387095Y-14345428D01*
X11377571Y-14354952D01*
X11358524Y-14364476D01*
X11339476Y-14364476D01*
X11320428Y-14354952D01*
X11310905Y-14345428D01*
X11301381Y-14326381D01*
X11291857Y-14288286D01*
X11291857Y-14240667D01*
X11301381Y-14202571D01*
X11310905Y-14183524D01*
X11320428Y-14174000D01*
X11339476Y-14164476D01*
X11491857Y-14345428D02*
X11501381Y-14354952D01*
X11491857Y-14364476D01*
X11482333Y-14354952D01*
X11491857Y-14345428D01*
X11491857Y-14364476D01*
X11625190Y-14164476D02*
X11644238Y-14164476D01*
X11663286Y-14174000D01*
X11672809Y-14183524D01*
X11682333Y-14202571D01*
X11691857Y-14240667D01*
X11691857Y-14288286D01*
X11682333Y-14326381D01*
X11672809Y-14345428D01*
X11663286Y-14354952D01*
X11644238Y-14364476D01*
X11625190Y-14364476D01*
X11606143Y-14354952D01*
X11596619Y-14345428D01*
X11587095Y-14326381D01*
X11577571Y-14288286D01*
X11577571Y-14240667D01*
X11587095Y-14202571D01*
X11596619Y-14183524D01*
X11606143Y-14174000D01*
X11625190Y-14164476D01*
X11872809Y-14164476D02*
X11777571Y-14164476D01*
X11768048Y-14259714D01*
X11777571Y-14250190D01*
X11796619Y-14240667D01*
X11844238Y-14240667D01*
X11863286Y-14250190D01*
X11872809Y-14259714D01*
X11882333Y-14278762D01*
X11882333Y-14326381D01*
X11872809Y-14345428D01*
X11863286Y-14354952D01*
X11844238Y-14364476D01*
X11796619Y-14364476D01*
X11777571Y-14354952D01*
X11768048Y-14345428D01*
X12072809Y-14364476D02*
X11958524Y-14364476D01*
X12015667Y-14364476D02*
X12015667Y-14164476D01*
X11996619Y-14193048D01*
X11977571Y-14212095D01*
X11958524Y-14221619D01*
X12149000Y-14183524D02*
X12158524Y-14174000D01*
X12177571Y-14164476D01*
X12225190Y-14164476D01*
X12244238Y-14174000D01*
X12253762Y-14183524D01*
X12263286Y-14202571D01*
X12263286Y-14221619D01*
X12253762Y-14250190D01*
X12139476Y-14364476D01*
X12263286Y-14364476D01*
X12339476Y-14164476D02*
X12339476Y-14202571D01*
X12415667Y-14164476D02*
X12415667Y-14202571D01*
X12710905Y-14440667D02*
X12701381Y-14431143D01*
X12682333Y-14402571D01*
X12672809Y-14383524D01*
X12663286Y-14354952D01*
X12653762Y-14307333D01*
X12653762Y-14269238D01*
X12663286Y-14221619D01*
X12672809Y-14193048D01*
X12682333Y-14174000D01*
X12701381Y-14145428D01*
X12710905Y-14135905D01*
X12777571Y-14183524D02*
X12787095Y-14174000D01*
X12806143Y-14164476D01*
X12853762Y-14164476D01*
X12872809Y-14174000D01*
X12882333Y-14183524D01*
X12891857Y-14202571D01*
X12891857Y-14221619D01*
X12882333Y-14250190D01*
X12768048Y-14364476D01*
X12891857Y-14364476D01*
X13129952Y-14364476D02*
X13129952Y-14164476D01*
X13215667Y-14364476D02*
X13215667Y-14259714D01*
X13206143Y-14240667D01*
X13187095Y-14231143D01*
X13158524Y-14231143D01*
X13139476Y-14240667D01*
X13129952Y-14250190D01*
X13339476Y-14364476D02*
X13320428Y-14354952D01*
X13310905Y-14345428D01*
X13301381Y-14326381D01*
X13301381Y-14269238D01*
X13310905Y-14250190D01*
X13320428Y-14240667D01*
X13339476Y-14231143D01*
X13368048Y-14231143D01*
X13387095Y-14240667D01*
X13396619Y-14250190D01*
X13406143Y-14269238D01*
X13406143Y-14326381D01*
X13396619Y-14345428D01*
X13387095Y-14354952D01*
X13368048Y-14364476D01*
X13339476Y-14364476D01*
X13520428Y-14364476D02*
X13501381Y-14354952D01*
X13491857Y-14335905D01*
X13491857Y-14164476D01*
X13672809Y-14354952D02*
X13653762Y-14364476D01*
X13615667Y-14364476D01*
X13596619Y-14354952D01*
X13587095Y-14335905D01*
X13587095Y-14259714D01*
X13596619Y-14240667D01*
X13615667Y-14231143D01*
X13653762Y-14231143D01*
X13672809Y-14240667D01*
X13682333Y-14259714D01*
X13682333Y-14278762D01*
X13587095Y-14297809D01*
X13758524Y-14354952D02*
X13777571Y-14364476D01*
X13815667Y-14364476D01*
X13834714Y-14354952D01*
X13844238Y-14335905D01*
X13844238Y-14326381D01*
X13834714Y-14307333D01*
X13815667Y-14297809D01*
X13787095Y-14297809D01*
X13768048Y-14288286D01*
X13758524Y-14269238D01*
X13758524Y-14259714D01*
X13768048Y-14240667D01*
X13787095Y-14231143D01*
X13815667Y-14231143D01*
X13834714Y-14240667D01*
X13910905Y-14440667D02*
X13920428Y-14431143D01*
X13939476Y-14402571D01*
X13949000Y-14383524D01*
X13958524Y-14354952D01*
X13968048Y-14307333D01*
X13968048Y-14269238D01*
X13958524Y-14221619D01*
X13949000Y-14193048D01*
X13939476Y-14174000D01*
X13920428Y-14145428D01*
X13910905Y-14135905D01*
X8939000Y-14438000D02*
X9139000Y-14638000D01*
X9139000Y-14438000D02*
X8939000Y-14638000D01*
X9139000Y-14538000D02*
G75*
G03*
X9139000Y-14538000I-100000J0D01*
G01*
X9377571Y-14428476D02*
X9501381Y-14428476D01*
X9434714Y-14504667D01*
X9463286Y-14504667D01*
X9482333Y-14514190D01*
X9491857Y-14523714D01*
X9501381Y-14542762D01*
X9501381Y-14590381D01*
X9491857Y-14609428D01*
X9482333Y-14618952D01*
X9463286Y-14628476D01*
X9406143Y-14628476D01*
X9387095Y-14618952D01*
X9377571Y-14609428D01*
X9587095Y-14609428D02*
X9596619Y-14618952D01*
X9587095Y-14628476D01*
X9577571Y-14618952D01*
X9587095Y-14609428D01*
X9587095Y-14628476D01*
X9672810Y-14447524D02*
X9682333Y-14438000D01*
X9701381Y-14428476D01*
X9749000Y-14428476D01*
X9768048Y-14438000D01*
X9777571Y-14447524D01*
X9787095Y-14466571D01*
X9787095Y-14485619D01*
X9777571Y-14514190D01*
X9663286Y-14628476D01*
X9787095Y-14628476D01*
X9910905Y-14428476D02*
X9929952Y-14428476D01*
X9949000Y-14438000D01*
X9958524Y-14447524D01*
X9968048Y-14466571D01*
X9977571Y-14504667D01*
X9977571Y-14552286D01*
X9968048Y-14590381D01*
X9958524Y-14609428D01*
X9949000Y-14618952D01*
X9929952Y-14628476D01*
X9910905Y-14628476D01*
X9891857Y-14618952D01*
X9882333Y-14609428D01*
X9872810Y-14590381D01*
X9863286Y-14552286D01*
X9863286Y-14504667D01*
X9872810Y-14466571D01*
X9882333Y-14447524D01*
X9891857Y-14438000D01*
X9910905Y-14428476D01*
X10101381Y-14428476D02*
X10120429Y-14428476D01*
X10139476Y-14438000D01*
X10149000Y-14447524D01*
X10158524Y-14466571D01*
X10168048Y-14504667D01*
X10168048Y-14552286D01*
X10158524Y-14590381D01*
X10149000Y-14609428D01*
X10139476Y-14618952D01*
X10120429Y-14628476D01*
X10101381Y-14628476D01*
X10082333Y-14618952D01*
X10072810Y-14609428D01*
X10063286Y-14590381D01*
X10053762Y-14552286D01*
X10053762Y-14504667D01*
X10063286Y-14466571D01*
X10072810Y-14447524D01*
X10082333Y-14438000D01*
X10101381Y-14428476D01*
X10253762Y-14628476D02*
X10253762Y-14495143D01*
X10253762Y-14514190D02*
X10263286Y-14504667D01*
X10282333Y-14495143D01*
X10310905Y-14495143D01*
X10329952Y-14504667D01*
X10339476Y-14523714D01*
X10339476Y-14628476D01*
X10339476Y-14523714D02*
X10349000Y-14504667D01*
X10368048Y-14495143D01*
X10396619Y-14495143D01*
X10415667Y-14504667D01*
X10425190Y-14523714D01*
X10425190Y-14628476D01*
X10520429Y-14628476D02*
X10520429Y-14495143D01*
X10520429Y-14514190D02*
X10529952Y-14504667D01*
X10549000Y-14495143D01*
X10577571Y-14495143D01*
X10596619Y-14504667D01*
X10606143Y-14523714D01*
X10606143Y-14628476D01*
X10606143Y-14523714D02*
X10615667Y-14504667D01*
X10634714Y-14495143D01*
X10663286Y-14495143D01*
X10682333Y-14504667D01*
X10691857Y-14523714D01*
X10691857Y-14628476D01*
X11082333Y-14418952D02*
X10910905Y-14676095D01*
X11339476Y-14428476D02*
X11358524Y-14428476D01*
X11377571Y-14438000D01*
X11387095Y-14447524D01*
X11396619Y-14466571D01*
X11406143Y-14504667D01*
X11406143Y-14552286D01*
X11396619Y-14590381D01*
X11387095Y-14609428D01*
X11377571Y-14618952D01*
X11358524Y-14628476D01*
X11339476Y-14628476D01*
X11320428Y-14618952D01*
X11310905Y-14609428D01*
X11301381Y-14590381D01*
X11291857Y-14552286D01*
X11291857Y-14504667D01*
X11301381Y-14466571D01*
X11310905Y-14447524D01*
X11320428Y-14438000D01*
X11339476Y-14428476D01*
X11491857Y-14609428D02*
X11501381Y-14618952D01*
X11491857Y-14628476D01*
X11482333Y-14618952D01*
X11491857Y-14609428D01*
X11491857Y-14628476D01*
X11691857Y-14628476D02*
X11577571Y-14628476D01*
X11634714Y-14628476D02*
X11634714Y-14428476D01*
X11615667Y-14457048D01*
X11596619Y-14476095D01*
X11577571Y-14485619D01*
X11768048Y-14447524D02*
X11777571Y-14438000D01*
X11796619Y-14428476D01*
X11844238Y-14428476D01*
X11863286Y-14438000D01*
X11872809Y-14447524D01*
X11882333Y-14466571D01*
X11882333Y-14485619D01*
X11872809Y-14514190D01*
X11758524Y-14628476D01*
X11882333Y-14628476D01*
X12053762Y-14428476D02*
X12015667Y-14428476D01*
X11996619Y-14438000D01*
X11987095Y-14447524D01*
X11968048Y-14476095D01*
X11958524Y-14514190D01*
X11958524Y-14590381D01*
X11968048Y-14609428D01*
X11977571Y-14618952D01*
X11996619Y-14628476D01*
X12034714Y-14628476D01*
X12053762Y-14618952D01*
X12063286Y-14609428D01*
X12072809Y-14590381D01*
X12072809Y-14542762D01*
X12063286Y-14523714D01*
X12053762Y-14514190D01*
X12034714Y-14504667D01*
X11996619Y-14504667D01*
X11977571Y-14514190D01*
X11968048Y-14523714D01*
X11958524Y-14542762D01*
X12196619Y-14428476D02*
X12215667Y-14428476D01*
X12234714Y-14438000D01*
X12244238Y-14447524D01*
X12253762Y-14466571D01*
X12263286Y-14504667D01*
X12263286Y-14552286D01*
X12253762Y-14590381D01*
X12244238Y-14609428D01*
X12234714Y-14618952D01*
X12215667Y-14628476D01*
X12196619Y-14628476D01*
X12177571Y-14618952D01*
X12168048Y-14609428D01*
X12158524Y-14590381D01*
X12149000Y-14552286D01*
X12149000Y-14504667D01*
X12158524Y-14466571D01*
X12168048Y-14447524D01*
X12177571Y-14438000D01*
X12196619Y-14428476D01*
X12339476Y-14428476D02*
X12339476Y-14466571D01*
X12415667Y-14428476D02*
X12415667Y-14466571D01*
X12710905Y-14704667D02*
X12701381Y-14695143D01*
X12682333Y-14666571D01*
X12672809Y-14647524D01*
X12663286Y-14618952D01*
X12653762Y-14571333D01*
X12653762Y-14533238D01*
X12663286Y-14485619D01*
X12672809Y-14457048D01*
X12682333Y-14438000D01*
X12701381Y-14409428D01*
X12710905Y-14399905D01*
X12872809Y-14495143D02*
X12872809Y-14628476D01*
X12825190Y-14418952D02*
X12777571Y-14561809D01*
X12901381Y-14561809D01*
X13129952Y-14628476D02*
X13129952Y-14428476D01*
X13215667Y-14628476D02*
X13215667Y-14523714D01*
X13206143Y-14504667D01*
X13187095Y-14495143D01*
X13158524Y-14495143D01*
X13139476Y-14504667D01*
X13129952Y-14514190D01*
X13339476Y-14628476D02*
X13320428Y-14618952D01*
X13310905Y-14609428D01*
X13301381Y-14590381D01*
X13301381Y-14533238D01*
X13310905Y-14514190D01*
X13320428Y-14504667D01*
X13339476Y-14495143D01*
X13368048Y-14495143D01*
X13387095Y-14504667D01*
X13396619Y-14514190D01*
X13406143Y-14533238D01*
X13406143Y-14590381D01*
X13396619Y-14609428D01*
X13387095Y-14618952D01*
X13368048Y-14628476D01*
X13339476Y-14628476D01*
X13520428Y-14628476D02*
X13501381Y-14618952D01*
X13491857Y-14599905D01*
X13491857Y-14428476D01*
X13672809Y-14618952D02*
X13653762Y-14628476D01*
X13615667Y-14628476D01*
X13596619Y-14618952D01*
X13587095Y-14599905D01*
X13587095Y-14523714D01*
X13596619Y-14504667D01*
X13615667Y-14495143D01*
X13653762Y-14495143D01*
X13672809Y-14504667D01*
X13682333Y-14523714D01*
X13682333Y-14542762D01*
X13587095Y-14561809D01*
X13758524Y-14618952D02*
X13777571Y-14628476D01*
X13815667Y-14628476D01*
X13834714Y-14618952D01*
X13844238Y-14599905D01*
X13844238Y-14590381D01*
X13834714Y-14571333D01*
X13815667Y-14561809D01*
X13787095Y-14561809D01*
X13768048Y-14552286D01*
X13758524Y-14533238D01*
X13758524Y-14523714D01*
X13768048Y-14504667D01*
X13787095Y-14495143D01*
X13815667Y-14495143D01*
X13834714Y-14504667D01*
X13910905Y-14704667D02*
X13920428Y-14695143D01*
X13939476Y-14666571D01*
X13949000Y-14647524D01*
X13958524Y-14618952D01*
X13968048Y-14571333D01*
X13968048Y-14533238D01*
X13958524Y-14485619D01*
X13949000Y-14457048D01*
X13939476Y-14438000D01*
X13920428Y-14409428D01*
X13910905Y-14399905D01*
M02*
