G04 #@! TF.GenerationSoftware,KiCad,Pcbnew,(6.0.5-0)*
G04 #@! TF.CreationDate,2022-08-22T16:10:25-04:00*
G04 #@! TF.ProjectId,Cryologger GVT,4372796f-6c6f-4676-9765-72204756542e,rev?*
G04 #@! TF.SameCoordinates,Original*
G04 #@! TF.FileFunction,Legend,Bot*
G04 #@! TF.FilePolarity,Positive*
%FSLAX46Y46*%
G04 Gerber Fmt 4.6, Leading zero omitted, Abs format (unit mm)*
G04 Created by KiCad (PCBNEW (6.0.5-0)) date 2022-08-22 16:10:25*
%MOMM*%
%LPD*%
G01*
G04 APERTURE LIST*
%ADD10C,0.150000*%
%ADD11C,0.300000*%
%ADD12C,3.000000*%
%ADD13C,1.600000*%
%ADD14O,1.600000X1.600000*%
%ADD15C,6.400000*%
%ADD16C,2.600000*%
%ADD17R,2.600000X2.600000*%
%ADD18C,3.302000*%
%ADD19C,1.879600*%
%ADD20C,1.524000*%
%ADD21C,3.048000*%
G04 APERTURE END LIST*
D10*
X113030000Y-99695000D02*
X143510000Y-99695000D01*
X143510000Y-99695000D02*
X143510000Y-122555000D01*
X143510000Y-122555000D02*
X113030000Y-122555000D01*
X113030000Y-122555000D02*
X113030000Y-99695000D01*
G36*
X113030000Y-99695000D02*
G01*
X143510000Y-99695000D01*
X143510000Y-122555000D01*
X113030000Y-122555000D01*
X113030000Y-99695000D01*
G37*
D11*
X143477857Y-98468571D02*
X143477857Y-96968571D01*
X142620714Y-98468571D01*
X142620714Y-96968571D01*
X141692142Y-98468571D02*
X141835000Y-98397142D01*
X141906428Y-98325714D01*
X141977857Y-98182857D01*
X141977857Y-97754285D01*
X141906428Y-97611428D01*
X141835000Y-97540000D01*
X141692142Y-97468571D01*
X141477857Y-97468571D01*
X141335000Y-97540000D01*
X141263571Y-97611428D01*
X141192142Y-97754285D01*
X141192142Y-98182857D01*
X141263571Y-98325714D01*
X141335000Y-98397142D01*
X141477857Y-98468571D01*
X141692142Y-98468571D01*
X140763571Y-97468571D02*
X140192142Y-97468571D01*
X140549285Y-96968571D02*
X140549285Y-98254285D01*
X140477857Y-98397142D01*
X140335000Y-98468571D01*
X140192142Y-98468571D01*
X139120714Y-98397142D02*
X139263571Y-98468571D01*
X139549285Y-98468571D01*
X139692142Y-98397142D01*
X139763571Y-98254285D01*
X139763571Y-97682857D01*
X139692142Y-97540000D01*
X139549285Y-97468571D01*
X139263571Y-97468571D01*
X139120714Y-97540000D01*
X139049285Y-97682857D01*
X139049285Y-97825714D01*
X139763571Y-97968571D01*
X138477857Y-98397142D02*
X138335000Y-98468571D01*
X138049285Y-98468571D01*
X137906428Y-98397142D01*
X137835000Y-98254285D01*
X137835000Y-98182857D01*
X137906428Y-98040000D01*
X138049285Y-97968571D01*
X138263571Y-97968571D01*
X138406428Y-97897142D01*
X138477857Y-97754285D01*
X138477857Y-97682857D01*
X138406428Y-97540000D01*
X138263571Y-97468571D01*
X138049285Y-97468571D01*
X137906428Y-97540000D01*
X137192142Y-98325714D02*
X137120714Y-98397142D01*
X137192142Y-98468571D01*
X137263571Y-98397142D01*
X137192142Y-98325714D01*
X137192142Y-98468571D01*
X137192142Y-97540000D02*
X137120714Y-97611428D01*
X137192142Y-97682857D01*
X137263571Y-97611428D01*
X137192142Y-97540000D01*
X137192142Y-97682857D01*
%LPC*%
D12*
X146841000Y-66493000D03*
X102841000Y-75493000D03*
D13*
X201930000Y-89515000D03*
D14*
X201930000Y-99675000D03*
D15*
X95250000Y-66040000D03*
X201600000Y-121925000D03*
D13*
X195580000Y-95230000D03*
X195580000Y-92730000D03*
D15*
X95250000Y-121920000D03*
D16*
X200838000Y-107955004D03*
D17*
X200838000Y-113035004D03*
D18*
X154940000Y-121920000D03*
X190500000Y-66040000D03*
X190500000Y-121920000D03*
X154940000Y-66040000D03*
D19*
X153670000Y-97790000D03*
X156210000Y-97790000D03*
X156210000Y-100330000D03*
X153670000Y-100330000D03*
X156210000Y-102870000D03*
X153670000Y-102870000D03*
X156210000Y-105410000D03*
X153670000Y-105410000D03*
X153670000Y-107950000D03*
X156210000Y-107950000D03*
X156210000Y-110490000D03*
X153670000Y-110490000D03*
X156210000Y-113030000D03*
X153670000Y-113030000D03*
X156210000Y-115570000D03*
X153670000Y-115570000D03*
X156210000Y-118110000D03*
X153670000Y-118110000D03*
X191770000Y-69850000D03*
X189230000Y-69850000D03*
X189230000Y-72390000D03*
X191770000Y-72390000D03*
X191770000Y-74930000D03*
X189230000Y-74930000D03*
X189230000Y-77470000D03*
X191770000Y-77470000D03*
X189230000Y-80010000D03*
X191770000Y-80010000D03*
X189230000Y-82550000D03*
X191770000Y-82550000D03*
X191770000Y-85090000D03*
X191770000Y-87630000D03*
X191770000Y-90170000D03*
X191770000Y-92710000D03*
X191770000Y-95250000D03*
X191770000Y-97790000D03*
X189230000Y-85090000D03*
X186690000Y-85090000D03*
X186690000Y-87630000D03*
X189230000Y-87630000D03*
X189230000Y-90170000D03*
X186690000Y-90170000D03*
X186690000Y-92710000D03*
X189230000Y-92710000D03*
X186690000Y-95250000D03*
X189230000Y-95250000D03*
X186690000Y-97790000D03*
X189230000Y-97790000D03*
X175260000Y-76835000D03*
X175260000Y-74295000D03*
X172720000Y-74295000D03*
X172720000Y-76835000D03*
D20*
X195580000Y-81915000D03*
X198120000Y-81915000D03*
X200660000Y-81915000D03*
X203200000Y-81915000D03*
D13*
X198755000Y-99675000D03*
D14*
X198755000Y-89515000D03*
D21*
X109220000Y-83820000D03*
X109220000Y-121920000D03*
X147320000Y-83820000D03*
X147320000Y-121920000D03*
D19*
X107950000Y-95250000D03*
X110490000Y-95250000D03*
X107950000Y-97790000D03*
X110490000Y-97790000D03*
X107950000Y-100330000D03*
X110490000Y-100330000D03*
X107950000Y-102870000D03*
X110490000Y-102870000D03*
X110490000Y-105410000D03*
X107950000Y-105410000D03*
X110490000Y-107950000D03*
X107950000Y-107950000D03*
X110490000Y-110490000D03*
X107950000Y-110490000D03*
X110490000Y-113030000D03*
X107950000Y-113030000D03*
X110490000Y-115570000D03*
X107950000Y-115570000D03*
X107950000Y-118110000D03*
X110490000Y-118110000D03*
X128270000Y-82550000D03*
X128270000Y-85090000D03*
X130810000Y-82550000D03*
X130810000Y-85090000D03*
X133350000Y-82550000D03*
X133350000Y-85090000D03*
X135890000Y-85090000D03*
X135890000Y-82550000D03*
X138430000Y-82550000D03*
X138430000Y-85090000D03*
X140970000Y-85090000D03*
X140970000Y-82550000D03*
X148590000Y-95250000D03*
X146050000Y-95250000D03*
X148590000Y-97790000D03*
X146050000Y-97790000D03*
X146050000Y-100330000D03*
X148590000Y-100330000D03*
X146050000Y-102870000D03*
X148590000Y-102870000D03*
X148590000Y-105410000D03*
X146050000Y-105410000D03*
X146050000Y-107950000D03*
X148590000Y-107950000D03*
X148590000Y-110490000D03*
X146050000Y-110490000D03*
X146050000Y-113030000D03*
X148590000Y-113030000D03*
X146050000Y-115570000D03*
X148590000Y-115570000D03*
D15*
X201600003Y-66045004D03*
M02*
